<?xml version="1.0" encoding="utf-8"?>
<!-- Generator: Adobe Illustrator 26.4.1, SVG Export Plug-In . SVG Version: 6.00 Build 0)  -->
<svg version="1.1" id="Layer_1" xmlns="http://www.w3.org/2000/svg" xmlns:xlink="http://www.w3.org/1999/xlink" x="0px" y="0px"
	 width="215px" height="134px" viewBox="0 0 215 134" style="enable-background:new 0 0 215 134;" xml:space="preserve">
<style type="text/css">
	.st0{display:none;fill:#C4A377;}
	.st1{fill:none;stroke:#C4A377;stroke-miterlimit:10;}
	.st2{fill:none;stroke:#FFFFFF;stroke-linecap:round;stroke-linejoin:round;stroke-miterlimit:10;}
	.st3{fill:#FFFFFF;}
</style>
<rect x="-137" y="-36" class="st0" width="378" height="231"/>
<g id="AVANOS_00000141426780269396189290000012887013401505609883_">
	<path id="Line_172_00000113354792773447776460000017668531362710020518_" class="st1" d="M236,130.7"/>
	<path id="Line_172_00000065054501308320330070000005751678507494576017_" class="st1" d="M-21,130.6"/>
	<g>
		<path class="st2" d="M124.8,118.6c1.9,0,13.3,0,13.3,0s9.5,0,11.9,0c3.8,0,4.2-2.2,3.7-3.9c-0.3-1.2-0.1-2.5,0.8-3.4
			c4.7-5.1,17.6-21.7,17.6-34.3c0-17.9-7.6-20.2-7.4-28.9s9-15.9,9-26c0-17.4-17.8-18.7-17.8-18.7h-29.7c0,0-10.8,0-10.6,6.6
			c0.1,4.5,6.2,0.2,6.2,3.4c0,1.5,1.2,11.4-3.2,22.5c-5.1,12.9-15.9,17-15.9,40.2c0,12.6,13.8,30.2,17.9,35.2c0.7,0.8,1,2,0.7,3
			C120.9,116,121.8,118.6,124.8,118.6z"/>
		<path class="st2" d="M146.2,22.3c0,16.1,4.9,25.2,7.9,25.2c1.8,0,3.4-2.9,5.9-8.2c2.3-4.8,6-10.7,7.1-15.4
			c1.3-5.8-3.4-11.5-9.6-12.5C150.5,10.1,146.2,12.7,146.2,22.3z"/>
		<path class="st2" d="M172.1,77c0,0-4.8,8.4-9.7,6.6c-4.3-1.6-4.9-11.3-11.7-11.3c-6.8,0-9.3,11.3-15.3,11.3
			c-6,0-8.2-11.3-14.3-11.3c-6.2,0-8.9,11.3-13.8,11.3c-2.8,0-3.9-1.6-3.9-1.6"/>
		<circle class="st2" cx="136.5" cy="72.3" r="1.6"/>
		<circle class="st2" cx="165.5" cy="72.3" r="1.6"/>
		<circle class="st2" cx="107.3" cy="72.3" r="1.6"/>
		<circle class="st2" cx="121.2" cy="82.5" r="1.6"/>
		<circle class="st2" cx="150.1" cy="82.5" r="1.6"/>
	</g>
	<g>
		<g>
			<path class="st2" d="M28,79.6h32.5h4.6h32.5c1.5,0,2.7,1.5,2.3,3c-1,4-3.6,11.3-9.6,17.6c-6.2,6.5-9.8,9.5-11.6,10.8
				c-1,0.8-1.7,1.9-1.9,3.2l-0.2,1.4c-0.2,1.5-1.5,2.6-3,2.6h-8.6h-4.6h-8.6c-1.5,0-2.8-1.1-3-2.6l-0.2-1.4
				c-0.2-1.3-0.9-2.4-1.9-3.2c-1.8-1.3-5.4-4.3-11.6-10.8c-5.9-6.2-8.6-13.5-9.6-17.6C25.3,81,26.4,79.6,28,79.6z"/>
			<line class="st2" x1="56.8" y1="87.6" x2="51.8" y2="92.6"/>
			<line class="st2" x1="56.8" y1="92.6" x2="51.8" y2="87.6"/>
			<line class="st2" x1="41.2" y1="87.6" x2="36.2" y2="92.6"/>
			<line class="st2" x1="41.2" y1="92.6" x2="36.2" y2="87.6"/>
			<line class="st2" x1="72.5" y1="87.6" x2="67.5" y2="92.6"/>
			<line class="st2" x1="72.5" y1="92.6" x2="67.5" y2="87.6"/>
			<line class="st2" x1="88.1" y1="87.6" x2="83.1" y2="92.6"/>
			<line class="st2" x1="88.1" y1="92.6" x2="83.1" y2="87.6"/>
			<circle class="st3" cx="62.3" cy="90.1" r="1.2"/>
			<circle class="st3" cx="47" cy="90.1" r="1.2"/>
			<circle class="st3" cx="29.8" cy="90.1" r="1.2"/>
			<circle class="st3" cx="77.6" cy="90.1" r="1.2"/>
			<circle class="st3" cx="94.3" cy="90.1" r="1.2"/>
		</g>
		<g>
			<path class="st2" d="M85.4,76.8c-1.4,1.1-2.7,2-3.8,2.8H52c-1.2-1.2-3.5-3.9-7.2-9.3c-3.6-5.3-4.7-11-5-14.1
				c-0.1-1.2,0.9-2.1,2-1.9l24,3.9l3.4,0.6l24,3.9c1.1,0.2,1.8,1.4,1.3,2.5C93.3,67.8,90.5,72.9,85.4,76.8z"/>
			<path class="st2" d="M92.2,69.4c0,0-1.5,1.7-4,1.2c-2.3-0.5-2.6-3.2-5.1-3.5c-2.5-0.4-3.9,2.2-6.1,1.9c-2.2-0.3-3.2-3.3-5.4-3.6
				c-2.3-0.4-3.6,2.3-6.1,1.9c-2.3-0.4-2.6-3.4-5.1-3.7c-2.5-0.4-3.9,2.2-6.1,1.9c-2.2-0.3-3.2-3.3-5.4-3.6
				c-2.3-0.4-4.3,2.1-6.1,1.9c-1.1-0.2-1.8-0.8-1.8-0.8"/>
		</g>
	</g>
</g>
</svg>
