<?xml version="1.0" encoding="utf-8"?>
<!-- Generator: Adobe Illustrator 26.4.1, SVG Export Plug-In . SVG Version: 6.00 Build 0)  -->
<svg version="1.1" id="Layer_1" xmlns="http://www.w3.org/2000/svg" xmlns:xlink="http://www.w3.org/1999/xlink" x="0px" y="0px"
	 width="215px" height="134px" viewBox="0 0 215 134" style="enable-background:new 0 0 215 134;" xml:space="preserve">
<style type="text/css">
	.st0{display:none;fill:#C4A377;}
	.st1{fill:none;stroke:#C4A377;stroke-miterlimit:10;}
	.st2{fill:none;stroke:#FFFFFF;stroke-width:0.85;stroke-linecap:round;stroke-linejoin:round;stroke-miterlimit:10;}
	.st3{fill:none;stroke:#FFFFFF;stroke-width:0.75;stroke-linecap:round;stroke-linejoin:round;stroke-miterlimit:10;}
	.st4{fill:none;stroke:#FFFFFF;stroke-width:0.5;stroke-linecap:round;stroke-linejoin:round;stroke-miterlimit:10;}
</style>
<rect x="-137" y="-36" class="st0" width="378" height="231"/>
<g id="DERİNKUYU_00000177452502880933036290000015718451145438678706_">
	<path id="Line_172_00000165215198947563068330000002836816731490610060_" class="st1" d="M244,126.2"/>
	<path id="Line_172_00000135654320624243132450000003674577918985854098_" class="st1" d="M-29,126.2"/>
	<path class="st2" d="M35.9,115.3c0,0,47.6,1.6,75.4,0c27.5-1.6,69.9,2.1,69.9,2.1c8.3,0,6.8-8.4,6.8-15.8c0,0-2.6-36.3,0.4-51.4
		c3.2-16.3-0.1-32.5-0.1-32.5c-1.6-11.4-17.9-6.8-19.7-6.8c0,0-27.2,2.8-57.3-1.1S47.7,8.7,38.7,9.1S23.3,6.2,24.2,22.2
		c0,0,1,9.5-1.3,29c-2.2,19-0.6,53.6-0.6,53.6C22.3,106.6,22.8,115.3,35.9,115.3z"/>
	<path class="st2" d="M22.9,90.7c3.3-1.9,7.6-3,10.8-3.7c2.7-0.5,4.5-2.9,4.3-5.6c-0.7-11.5-1.1-39.6,11.4-40.9
		c13.9-1.4,17.4,27.6,18.3,39.6c0.2,2.8,2.5,5.1,5.4,5.1l1,0c2.5,0.1,4.5-1.9,4.5-4.4c0.2-14.1,2.5-56.7,22.8-56.7
		c23.4,0,24,40.8,23.4,55.4c-0.1,2.9,0.7,5.6,5,5.7h0c2.5,0.2,4.8-1.5,5.2-4c2.1-11.7,8.9-42.7,21.7-41c14.4,1.9,11.5,33.1,9.7,46
		c-0.4,3,1.4,5.8,4.3,6.7c6.2,1.8,13,5.1,17.1,7.8"/>
	<path class="st2" d="M55.4,42.1c-8.2,0-11.2,20.8-11,35.6c0.1,2.9-1.2,5.7-3.9,7.3s-6.1,1.9-6.1,1.9"/>
	<path class="st2" d="M105.3,24.6c-14,0-18.4,29.3-20.7,53c-0.2,2.3-1.1,6.2-4,6.9c-3.2,0.8-6.6,0.6-6.6,0.6"/>
	<polyline class="st3" points="119.8,77.4 119.8,73.3 113.9,71 113.8,66.8 108.4,64.1 108.2,60.2 102.3,57.7 102.1,53.1 97,50.4 
		96.8,47 90.3,43.3 	"/>
	<path class="st2" d="M162.4,43.3c-10.4-0.5-16.8,18.8-19.8,35.9c-0.4,2.2-1.2,4.1-4,4.9c-3.4,1-8.8,1.2-8.8,1.2"/>
	<line class="st3" x1="113.9" y1="71" x2="85.2" y2="73.3"/>
	<line class="st4" x1="119.1" y1="73.8" x2="85" y2="77.4"/>
	<line class="st4" x1="113.5" y1="67.4" x2="85.5" y2="69.6"/>
	<line class="st4" x1="107.9" y1="60.9" x2="86.6" y2="63.1"/>
	<line class="st4" x1="101.4" y1="53.6" x2="88" y2="54.7"/>
	<line class="st4" x1="96.6" y1="47.7" x2="89.4" y2="48.3"/>
	<line class="st3" x1="119.8" y1="77.4" x2="84.4" y2="81.1"/>
	<line class="st3" x1="102.3" y1="57.8" x2="87.3" y2="59.4"/>
	<line class="st3" x1="96.8" y1="50.6" x2="88.8" y2="51.4"/>
	<line class="st3" x1="108.2" y1="64.1" x2="86.2" y2="66.6"/>
</g>
</svg>
