<?xml version="1.0" encoding="utf-8"?>
<!-- Generator: Adobe Illustrator 26.4.1, SVG Export Plug-In . SVG Version: 6.00 Build 0)  -->
<svg version="1.1" id="Layer_1" xmlns="http://www.w3.org/2000/svg" xmlns:xlink="http://www.w3.org/1999/xlink" x="0px" y="0px"
	 width="215px" height="134px" viewBox="0 0 215 134" style="enable-background:new 0 0 215 134;" xml:space="preserve">
<style type="text/css">
	.st0{display:none;fill:#C4A377;}
	.st1{fill:none;stroke:#C4A377;stroke-miterlimit:10;}
	.st2{fill:none;stroke:#FFFFFF;stroke-linecap:round;stroke-linejoin:round;stroke-miterlimit:10;}
	.st3{fill:none;stroke:#FFFFFF;stroke-width:0.75;stroke-linecap:round;stroke-linejoin:round;stroke-miterlimit:10;}
</style>
<rect x="-133" y="-36" class="st0" width="378" height="231"/>
<g id="GÖREME_AÇIK_HAVA_MÜZESİ_00000106853319300364752090000002250892636146916261_">
	<path id="Line_172_00000098202395418112181840000001502319509788887958_" class="st1" d="M217.1,130"/>
	<path id="Line_172_00000044171686270699678250000001670148315243105673_" class="st1" d="M-2.1,130"/>
	<path class="st2" d="M31.7,118.8c3.9-9.6,1.9-13.9,2.6-22.9c1.4-17.7,4.7-33.5,12.5-49.5"/>
	<path class="st2" d="M80,124.7c-0.7-9.8-4.4-14.7-7.7-20.8c-7.6-14.3-8.5-28-11.4-54"/>
	<path class="st2" d="M66.7,48.6c0.3,3.5-5.9,0.6-13.4-1.2c-6.9-1.6-16.4-2.2-13.6-4.4c7.2-5.8,8-10.3,14.9-8.5
		C64.2,37,66.4,45.1,66.7,48.6z"/>
	<path class="st2" d="M120.5,122.8c8.6-18.3,3.9-27.5,1.6-36.2c-4.1-15.4-0.7-20.7,0-40.1"/>
	<path class="st2" d="M162.2,128.6c0-5.6-10.6-22.7-10.7-30.3c-0.2-14.1-5.4-18.1-5.5-25.9c-0.1-8.8-8-10-8.6-24"/>
	<path class="st2" d="M187.5,113.1c-1.3-27.3-4.8-28.8-5.7-35.4c-1.1-8.7-1.9-15.8-4.1-20.2"/>
	<path class="st2" d="M143.6,43.6c0,4-5.3,5.8-12.9,4.4c-14.8-2.6-14.3-5.5-12.9-8.7c2.2-5.1,11.8-8.1,14.5-7.7
		C137,32.2,143.6,40,143.6,43.6z"/>
	<path class="st2" d="M163,79.5c0.5,2.5-3.5,3.2-7.2,2.2c-3.4-0.8-5.9-1.9-5.9-3.6s4.2-5.1,6.6-4.6C159.2,74.1,162.6,77.8,163,79.5z
		"/>
	<path class="st2" d="M66.7,89.8c2.5-2.6,1.8-8.1,5.1-12.7c1.5-2.1,3.7-6.8,4.3-9.3c0.1-0.5,0.2-0.9,0.5-1.3c0.7-0.8,2.1-0.5,3.1,0
		c1.9,0.8,3.8,2,4.4,4c0.3,0.9,0.2,2,0.1,2.9c-0.2,4.8,2.1,6.8,4.7,10.9c0.8,1.3,2.8,5.5,3.2,6.9c0.5,1.8,0,5.4,1.5,9.7"/>
	<path class="st2" d="M86.6,123.9c3.1-3.3,5-8.3,6-12.6c0.6-2.4,0.1-4.8,0.4-7.2c0.7-6.1,5.7-9.9,7.5-15.5c0.4-1.2,1.3-7,3.6-5.7
		c0.8,0.5,0.2,2,0.8,2.6c1.2,1.2,2.8-0.4,4.2,0.3c1.9,0.9,2.1,4.3,2.6,6.1c0.5,1.8,2.3,9,4.2,8.6c1.5-0.3,2.5-5.2,4-5
		c1.1,0.1,4.8,8,5.4,9.1"/>
	<path class="st2" d="M160.1,75.5c5.8-11.2,1.3-17.2,5.8-21.6"/>
	<path class="st2" d="M173.5,122.8c0-5.3-6.2-14.4-6.3-21.9c-0.2-11.6-6-14.9-7.1-18.2"/>
	<path class="st2" d="M151.2,93.5c0-6.6,3.6-5.8,2-12.4"/>
	<path class="st2" d="M181.6,56.1c-2.6,3-4.7,0.8-8.9-0.4c-6.8-2-10.7-2.2-11.6-5.6c-1.5-5.4,4.7-4.4,13.4-3
		C182.7,48.5,184.7,52.6,181.6,56.1z"/>
	<path id="Path_659_00000102502993723597070130000009412988395718191532_" class="st2" d="M48.9,72.5v-4.6c0-1.1,0.9-2,2-1.9l0,0
		c1.1,0,2,0.8,2,1.9v4.6H48.9z"/>
	<path id="Path_659_00000085234236769236421840000004516938188285053103_" class="st2" d="M130.4,73.5v-4.6c0-1.1,0.9-2,2-1.9l0,0
		c1.1,0,2,0.8,2,1.9v4.6H130.4z"/>
	<path id="Path_659_00000151517564178950207390000001561423464941057469_" class="st2" d="M109.4,113.1v-4.6c0-1.1,0.9-2,2-1.9l0,0
		c1.1,0,2,0.8,2,1.9v4.6H109.4z"/>
	<path id="Path_659_00000003789826212955907200000013064881155778619801_" class="st2" d="M171.5,86.7v-4.6c0-1.1,0.9-2,2-1.9l0,0
		c1.1,0,2,0.8,2,1.9v4.6H171.5z"/>
	<path id="Path_659_00000081642348221211447670000009561059272899813549_" class="st2" d="M42.5,89.9v-2.7c0-0.6,0.5-1.1,1.2-1.1
		l0,0c0.6,0,1.2,0.5,1.2,1.1v2.7H42.5z"/>
	<path id="Path_659_00000132055794533714017090000004516247350062224310_" class="st2" d="M78,95.1v-4.6c0-1.1,0.9-2,2-1.9l0,0
		c1.1,0,2,0.8,2,1.9v4.6H78z"/>
	<path id="Path_659_00000042711385881932993360000005424686808453713835_" class="st2" d="M141.3,89.2v-2.7c0-0.6,0.5-1.1,1.2-1.1
		l0,0c0.6,0,1.2,0.5,1.2,1.1v2.7H141.3z"/>
	<path id="Path_659_00000013912122082890789940000012324899404318013852_" class="st2" d="M132.4,103.9v-2.7c0-0.6,0.5-1.1,1.2-1.1
		l0,0c0.6,0,1.2,0.5,1.2,1.1v2.7H132.4z"/>
	<path id="Path_659_00000032619922811273140010000005254426655091859624_" class="st2" d="M177.4,98.9v-2.7c0-0.6,0.5-1.1,1.2-1.1
		l0,0c0.6,0,1.2,0.5,1.2,1.1v2.7H177.4z"/>
	<path id="Path_659_00000158006245389912726000000018014470519162134956_" class="st2" d="M102.8,100.8v-2.7c0-0.6,0.5-1.1,1.2-1.1
		l0,0c0.6,0,1.2,0.5,1.2,1.1v2.7H102.8z"/>
	<g>
		<path class="st3" d="M77.7,35.9h-3.7c-0.5,0-0.7-0.3-0.7-0.6l-0.4-2.5c0-0.3,0.4-0.2,0.9-0.2H78c0.5,0,0.9-0.2,0.9,0.2l-0.4,2.5
			C78.4,35.6,78.2,35.9,77.7,35.9z"/>
		<path class="st3" d="M87.4,14.8c0,7.4-9.4,15.5-11.6,15.5c-2.3,0-11.6-8.1-11.6-15.5c0-6,5.2-10.8,11.6-10.8S87.4,8.8,87.4,14.8z"
			/>
		<path class="st3" d="M75.8,4c2,0.5,5.6,6.4,4.2,14.7c-1.2,7-3.9,11.5-3.9,11.5"/>
		<path class="st3" d="M80.2,16.3c0,2.2-9,2.4-8.9-0.5"/>
		<path class="st3" d="M80.2,13.2c0,2.2-8.8,2.4-8.8-0.5"/>
		<path class="st3" d="M71.3,16.3c-1.8,2.1-7.1,0.8-7.1-1.5"/>
		<path class="st3" d="M71.3,12.9c-1.6,2.1-6.5,0.8-6.5-1.5"/>
		<path class="st3" d="M80.3,16.3c1.8,2.1,7.1,0.8,7.1-1.5"/>
		<path class="st3" d="M80.3,13.4c1.7,2.1,6.7,0.8,6.7-1.5"/>
		<path class="st3" d="M75.8,4c-2,0.5-5.6,6.4-4.2,14.7c1.2,7,3.9,11.5,3.9,11.5"/>
		<line class="st3" x1="73.5" y1="32.5" x2="74.2" y2="30.2"/>
		<line class="st3" x1="78" y1="32.5" x2="77.3" y2="30.2"/>
	</g>
	<g>
		<path class="st3" d="M101.1,58.5h-2.8c-0.4,0-0.6-0.2-0.6-0.4l-0.3-1.9c0-0.2,0.3-0.1,0.7-0.1h3.3c0.4,0,0.7-0.1,0.7,0.1l-0.3,1.9
			C101.6,58.3,101.4,58.5,101.1,58.5z"/>
		<path class="st3" d="M108.4,42.6c0,5.6-7.1,11.7-8.7,11.7c-1.7,0-8.7-6.1-8.7-11.7c0-4.5,3.9-8.2,8.7-8.2
			C104.4,34.5,108.4,38.1,108.4,42.6z"/>
		<path class="st3" d="M99.6,34.5c1.5,0.4,4.2,4.8,3.1,11.1c-0.9,5.3-3,8.6-3,8.6"/>
		<path class="st3" d="M103,43.8c0,1.6-6.8,1.8-6.7-0.4"/>
		<path class="st3" d="M103,41.4c0,1.6-6.7,1.8-6.6-0.4"/>
		<path class="st3" d="M96.2,43.8c-1.4,1.6-5.4,0.6-5.4-1.1"/>
		<path class="st3" d="M96.2,41.2c-1.2,1.6-4.9,0.6-4.9-1.1"/>
		<path class="st3" d="M103,43.8c1.4,1.6,5.4,0.6,5.4-1.1"/>
		<path class="st3" d="M103,41.5c1.3,1.6,5,0.6,5-1.1"/>
		<path class="st3" d="M99.6,34.5c-1.5,0.4-4.2,4.8-3.1,11.1c0.9,5.3,2.9,8.6,2.9,8.6"/>
		<line class="st3" x1="97.9" y1="56" x2="98.5" y2="54.2"/>
		<line class="st3" x1="101.3" y1="56" x2="100.8" y2="54.2"/>
	</g>
</g>
</svg>
