<?xml version="1.0" encoding="utf-8"?>
<!-- Generator: Adobe Illustrator 26.4.1, SVG Export Plug-In . SVG Version: 6.00 Build 0)  -->
<svg version="1.1" id="Layer_1" xmlns="http://www.w3.org/2000/svg" xmlns:xlink="http://www.w3.org/1999/xlink" x="0px" y="0px"
	 width="215px" height="134px" viewBox="0 0 215 134" style="enable-background:new 0 0 215 134;" xml:space="preserve">
<style type="text/css">
	.st0{display:none;fill:#C4A377;}
	.st1{fill:none;stroke:#C4A377;stroke-miterlimit:10;}
	.st2{fill:none;stroke:#FFFFFF;stroke-linecap:round;stroke-miterlimit:10;}
	.st3{fill:none;stroke:#FFFFFF;stroke-width:0.75;stroke-linecap:round;stroke-linejoin:round;stroke-miterlimit:10;}
	.st4{fill:none;stroke:#FFFFFF;stroke-width:0.75;stroke-linecap:round;stroke-linejoin:round;}
</style>
<rect x="-137" y="-36" class="st0" width="378" height="231"/>
<g id="IHLARA_VADİSİ_00000147912963410737506410000008501831312324473015_">
	<path id="Line_172_00000041279938519329072790000011731715431189644675_" class="st1" d="M238.9,129.1"/>
	<path id="Line_172_00000072262366994195098140000010168389249395689647_" class="st1" d="M-23.9,129.1"/>
	<path class="st2" d="M25.3,5.3c16.9-1.2,44.3,0,50.7,3s-0.1,8,3.3,10s7.6,2,11.5,1.9c12.5-0.2,32.8-5.2,47.1,2.4
		c19.8,10.5-30.7,16.1-24.6,21.4c9.1,8.1,67.6,17,96.2,48.8"/>
	<path class="st2" d="M25.3,5.3c7.2,2,17.8,3.5,20.9,6.2c6.9,6-12.6,4.6-11.7,8.5c0.9,3.9,37.4,0.5,42.7,7.8
		c3.2,4.5-11.7,1.2-17,12.8c-4.8,10.6,14.5,22.3,32.6,46.8c6.3,8.5,10.3,18.5,9.4,34"/>
	<path class="st2" d="M112.7,43.2c-1.2,8.9,1.2,14.6,0.9,21.9"/>
	<path class="st2" d="M77.5,29.2c-0.2,6.5-1.3,10.3,0,22"/>
	<g>
		<path class="st3" d="M137.8,70.5c0.1-0.2,0.1-0.5,0.1-0.7c0-1.3-0.9-2.4-2.1-2.4c-0.6,0-1.1,0.3-1.5,0.7c-0.3-0.2-0.7-0.4-1.1-0.4
			c-1.2,0-2.1,1.1-2.1,2.4c0,0.3,0,0.6,0.1,0.8c-0.6,0.5-1,1.3-1,2.2c0,1.6,1.2,2.9,2.6,2.9c0.7,0,1.3-0.3,1.8-0.8
			c0.5,0.7,1.3,1.1,2.2,1.1c1.5,0,2.8-1.4,2.8-3.1C139.5,72.1,138.8,71,137.8,70.5z"/>
		<path class="st3" d="M134.5,70.1c0,2.9,0,6.3,0,9.2"/>
		<line class="st3" x1="133.3" y1="70.6" x2="134.5" y2="71.6"/>
		<line class="st3" x1="135.8" y1="71.3" x2="134.5" y2="72.4"/>
		<line class="st3" x1="136.6" y1="72.8" x2="134.5" y2="74.5"/>
		<line class="st3" x1="132.7" y1="72.2" x2="134.5" y2="73.7"/>
	</g>
	<g>
		<path class="st3" d="M144.2,65.7c0.4,2.1-0.3,3.9-3,3.9c-2.7,0-3.2-1.8-3-3.9c0.3-2.2,1.7-3.9,3-3.9
			C142.4,61.8,143.8,63.4,144.2,65.7z"/>
		<path class="st3" d="M141.3,63.9c0,2.4,0,6.7,0,9.2"/>
		<line class="st3" x1="142.2" y1="65.3" x2="141.3" y2="66.1"/>
		<line class="st3" x1="142.9" y1="66.9" x2="141.3" y2="68.3"/>
		<line class="st3" x1="140.3" y1="65.3" x2="141.3" y2="66.1"/>
		<line class="st3" x1="139.6" y1="66.9" x2="141.2" y2="68.2"/>
	</g>
	<g>
		<g>
			<path class="st3" d="M78.2,51.7c0-1.3,0.7-2.2,1.7-2.7c-0.1-0.2-0.1-0.5-0.1-0.7c0-1.3,1-2.4,2.2-2.4c0.6,0,1.1,0.3,1.5,0.7
				c0.3-0.2,0.7-0.4,1.1-0.4c1.2,0,2.2,1.1,2.2,2.4c0,0.3,0,0.6-0.1,0.8c0.6,0.5,1,1.4,1,2.3c0,1.6-1.2,2.9-2.6,2.9
				c-0.7,0-1.3-0.3-1.8-0.8c-0.5,0.7-1.4,1.2-2.2,1.2c0,0-0.3-1.4-1-2.2C78.9,51.5,78.2,51.7,78.2,51.7z"/>
			<path class="st3" d="M83.2,48.6c0,2.9,0,5.4,0,8.3"/>
			<line class="st3" x1="84.4" y1="49.2" x2="83.2" y2="50.2"/>
			<line class="st3" x1="82" y1="50" x2="83.2" y2="51"/>
			<line class="st3" x1="81.1" y1="51.2" x2="83.2" y2="53"/>
			<line class="st3" x1="85.1" y1="50.6" x2="83.3" y2="52.2"/>
		</g>
		<g>
			<path class="st3" d="M75.3,55.4c-0.4,2,0.3,3.7,2.8,3.7c2.6,0,3.1-1.7,2.8-3.7c-0.3-2.1-1.6-3.7-2.8-3.7
				C77,51.7,75.7,53.2,75.3,55.4z"/>
			<path class="st3" d="M78.1,54.3c0,2.2,0,4.4,0,6.5"/>
			<line class="st3" x1="77.2" y1="55.4" x2="78.1" y2="56.1"/>
			<line class="st3" x1="76.6" y1="56.5" x2="78.1" y2="57.8"/>
			<line class="st3" x1="79.1" y1="55.3" x2="78.2" y2="56.1"/>
			<line class="st3" x1="79.7" y1="56.5" x2="78.2" y2="57.8"/>
		</g>
	</g>
	<g>
		<g>
			<path class="st3" d="M100.7,79.9c0-1.6-0.9-2.8-2.1-3.4c0.1-0.3,0.1-0.6,0.1-0.9c0-1.7-1.2-3-2.7-3c-0.8,0-1.4,0.3-1.9,0.9
				c-0.4-0.3-0.9-0.4-1.4-0.4c-1.5,0-2.7,1.4-2.7,3c0,0.4,0.1,0.7,0.2,1c-0.8,0.7-1.2,1.7-1.2,2.9c0,2,1.5,3.7,3.3,3.7
				c0.9,0,1.6-0.4,2.2-1c0.7,0.9,1.7,1.5,2.8,1.5c0,0,0.3-1.8,1.2-2.8C99.8,79.6,100.7,80,100.7,79.9z"/>
			<path class="st3" d="M94.4,76.1c0,3.6,0,6.7,0,10.4"/>
			<line class="st3" x1="92.9" y1="76.7" x2="94.4" y2="78.1"/>
			<line class="st3" x1="96" y1="77.7" x2="94.4" y2="79"/>
			<line class="st3" x1="97.1" y1="79.3" x2="94.4" y2="81.6"/>
			<line class="st3" x1="92" y1="78.6" x2="94.3" y2="80.5"/>
		</g>
		<g>
			<path class="st3" d="M104.3,84.5c0.5,2.5-0.4,4.7-3.6,4.7c-3.2,0-3.9-2.1-3.6-4.7c0.3-2.7,2-4.7,3.6-4.7
				C102.1,79.9,103.8,81.8,104.3,84.5z"/>
			<path class="st3" d="M100.7,83.1c0,2.7,0,5.5,0,8.2"/>
			<line class="st3" x1="101.9" y1="84.5" x2="100.7" y2="85.5"/>
			<line class="st3" x1="102.7" y1="86" x2="100.7" y2="87.6"/>
			<line class="st3" x1="99.6" y1="84.5" x2="100.7" y2="85.4"/>
			<line class="st3" x1="98.8" y1="85.9" x2="100.7" y2="87.6"/>
		</g>
	</g>
	<g>
		<g>
			<path class="st3" d="M104.2,90.5c0-1.4,0.7-2.4,1.8-2.9c-0.1-0.2-0.1-0.5-0.1-0.8c0-1.4,1-2.6,2.3-2.6c0.6,0,1.2,0.3,1.6,0.8
				c0.4-0.2,0.8-0.4,1.2-0.4c1.3,0,2.3,1.2,2.3,2.6c0,0.3-0.1,0.6-0.1,0.9c0.6,0.6,1.1,1.5,1.1,2.5c0,1.7-1.3,3.1-2.8,3.1
				c-0.7,0-1.4-0.3-1.9-0.8c-0.6,0.8-1.5,1.2-2.4,1.2c0,0-0.3-1.5-1-2.4C105,90.3,104.2,90.6,104.2,90.5z"/>
			<path class="st3" d="M109.6,87.2c0,3.1,0,5.8,0,8.9"/>
			<line class="st3" x1="110.9" y1="87.8" x2="109.6" y2="88.9"/>
			<line class="st3" x1="108.3" y1="88.6" x2="109.6" y2="89.8"/>
			<line class="st3" x1="107.3" y1="90" x2="109.6" y2="91.9"/>
			<line class="st3" x1="111.6" y1="89.4" x2="109.6" y2="91.1"/>
		</g>
		<g>
			<path class="st3" d="M101.1,94.5c-0.4,2.2,0.3,4,3.1,4c2.8,0,3.3-1.8,3.1-4c-0.3-2.3-1.7-4-3.1-4C103,90.5,101.5,92.1,101.1,94.5
				z"/>
			<path class="st3" d="M104.1,93.3c0,2.3,0,4.7,0,7"/>
			<line class="st3" x1="103.2" y1="94.5" x2="104.1" y2="95.3"/>
			<line class="st3" x1="102.5" y1="95.7" x2="104.1" y2="97.1"/>
			<line class="st3" x1="105.1" y1="94.4" x2="104.2" y2="95.3"/>
			<line class="st3" x1="105.8" y1="95.7" x2="104.2" y2="97.1"/>
		</g>
	</g>
	<g>
		<g>
			<path class="st3" d="M91.9,63.1c0-1.5-0.8-2.6-1.9-3.1c0.1-0.3,0.1-0.5,0.1-0.8c0-1.5-1.1-2.8-2.5-2.8c-0.7,0-1.3,0.3-1.8,0.8
				c-0.4-0.3-0.8-0.4-1.3-0.4c-1.4,0-2.5,1.2-2.5,2.8c0,0.3,0.1,0.7,0.2,0.9c-0.7,0.6-1.1,1.6-1.1,2.6c0,1.9,1.3,3.4,3,3.4
				c0.8,0,1.5-0.3,2-0.9c0.6,0.8,1.6,1.3,2.6,1.3c0,0,0.3-1.6,1.1-2.6C91.1,62.9,91.9,63.2,91.9,63.1z"/>
			<path class="st3" d="M86.1,59.6c0,3.3,0,6.2,0,9.5"/>
			<line class="st3" x1="84.7" y1="60.2" x2="86.1" y2="61.4"/>
			<line class="st3" x1="87.5" y1="61.1" x2="86.1" y2="62.3"/>
			<line class="st3" x1="88.5" y1="62.6" x2="86.1" y2="64.6"/>
			<line class="st3" x1="84" y1="61.9" x2="86.1" y2="63.7"/>
		</g>
		<g>
			<path class="st3" d="M95.2,67.4c0.4,2.3-0.3,4.3-3.3,4.3c-2.9,0-3.6-1.9-3.3-4.3c0.3-2.4,1.8-4.3,3.3-4.3
				C93.2,63.1,94.7,64.8,95.2,67.4z"/>
			<path class="st3" d="M91.9,66.1c0,2.5,0,4.3,0,6.8"/>
			<line class="st3" x1="93" y1="67.4" x2="91.9" y2="68.2"/>
			<line class="st3" x1="93.7" y1="68.7" x2="91.9" y2="70.2"/>
			<line class="st3" x1="90.9" y1="67.3" x2="91.9" y2="68.2"/>
			<line class="st3" x1="90.1" y1="68.6" x2="91.9" y2="70.1"/>
		</g>
	</g>
	<g>
		<g>
			<path class="st3" d="M155,88.3c0-1.8-0.9-3.1-2.3-3.7c0.1-0.3,0.1-0.6,0.1-1c0-1.8-1.3-3.3-3-3.3c-0.8,0-1.6,0.4-2.1,1
				c-0.4-0.3-1-0.5-1.5-0.5c-1.6,0-3,1.5-3,3.3c0,0.4,0.1,0.8,0.2,1.1c-0.8,0.7-1.3,1.9-1.3,3.1c0,2.2,1.6,4,3.6,4
				c0.9,0,1.8-0.4,2.4-1.1c0.7,1,1.9,1.6,3.1,1.6c0,0,0.4-1.9,1.3-3.1C154,88,155,88.4,155,88.3z"/>
			<path class="st3" d="M148.1,84.1c0,4,0,7.4,0,11.3"/>
			<line class="st3" x1="146.4" y1="84.8" x2="148.1" y2="86.3"/>
			<line class="st3" x1="149.8" y1="85.9" x2="148.1" y2="87.4"/>
			<line class="st3" x1="151" y1="87.6" x2="148.1" y2="90.1"/>
			<line class="st3" x1="145.5" y1="86.9" x2="148" y2="89"/>
		</g>
		<g>
			<path class="st3" d="M158.9,93.4c0.5,2.8-0.4,5.1-3.9,5.1c-3.5,0-4.3-2.3-3.9-5.1c0.4-2.9,2.2-5.1,3.9-5.1
				C156.5,88.3,158.3,90.3,158.9,93.4z"/>
			<path class="st3" d="M155,91.8c0,3,0,6,0,9"/>
			<line class="st3" x1="156.2" y1="93.3" x2="155" y2="94.4"/>
			<line class="st3" x1="157.1" y1="94.9" x2="155" y2="96.7"/>
			<line class="st3" x1="153.7" y1="93.3" x2="155" y2="94.3"/>
			<line class="st3" x1="152.8" y1="94.9" x2="155" y2="96.7"/>
		</g>
	</g>
	<g>
		<g>
			<path class="st3" d="M172.5,89.6c0-1.8-0.9-3.1-2.3-3.7c0.1-0.3,0.1-0.6,0.1-1c0-1.8-1.3-3.3-3-3.3c-0.8,0-1.6,0.4-2.1,1
				c-0.4-0.3-1-0.5-1.5-0.5c-1.6,0-3,1.5-3,3.3c0,0.4,0.1,0.8,0.2,1.1c-0.8,0.7-1.3,1.9-1.3,3.1c0,2.2,1.6,4,3.6,4
				c0.9,0,1.8-0.4,2.4-1.1c0.7,1,1.9,1.6,3.1,1.6c0,0,0.4-1.9,1.3-3.1C171.5,89.3,172.5,89.7,172.5,89.6z"/>
			<path class="st3" d="M165.6,85.4c0,4,0,7.4,0,11.3"/>
			<line class="st3" x1="163.9" y1="86.2" x2="165.6" y2="87.6"/>
			<line class="st3" x1="167.3" y1="87.2" x2="165.6" y2="88.7"/>
			<line class="st3" x1="168.5" y1="88.9" x2="165.6" y2="91.4"/>
			<line class="st3" x1="163" y1="88.2" x2="165.5" y2="90.3"/>
		</g>
		<g>
			<path class="st3" d="M176.4,94.7c0.5,2.8-0.4,5.1-3.9,5.1c-3.5,0-4.3-2.3-3.9-5.1c0.4-2.9,2.2-5.1,3.9-5.1
				C174,89.6,175.8,91.6,176.4,94.7z"/>
			<path class="st3" d="M172.5,93.1c0,3,0,6,0,9"/>
			<line class="st3" x1="173.8" y1="94.7" x2="172.5" y2="95.7"/>
			<line class="st3" x1="174.7" y1="96.2" x2="172.5" y2="98"/>
			<line class="st3" x1="171.3" y1="94.6" x2="172.5" y2="95.7"/>
			<line class="st3" x1="170.4" y1="96.2" x2="172.5" y2="98"/>
		</g>
	</g>
	<g>
		<g>
			<path class="st3" d="M156.9,74.5c0-1.8,0.9-3.1,2.3-3.7c-0.1-0.3-0.1-0.6-0.1-1c0-1.8,1.3-3.3,3-3.3c0.8,0,1.6,0.4,2.1,1
				c0.4-0.3,1-0.5,1.5-0.5c1.6,0,3,1.5,3,3.3c0,0.4-0.1,0.8-0.2,1.1c0.8,0.7,1.3,1.9,1.3,3.1c0,2.2-1.6,4-3.6,4
				c-0.9,0-1.8-0.4-2.4-1.1c-0.7,1-1.9,1.6-3.1,1.6c0,0-0.4-1.9-1.3-3.1C157.9,74.2,156.9,74.6,156.9,74.5z"/>
			<path class="st3" d="M163.8,70.3c0,4,0,7.4,0,11.3"/>
			<line class="st3" x1="165.5" y1="71.1" x2="163.8" y2="72.5"/>
			<line class="st3" x1="162.1" y1="72.1" x2="163.8" y2="73.6"/>
			<line class="st3" x1="160.9" y1="73.9" x2="163.8" y2="76.3"/>
			<line class="st3" x1="166.4" y1="73.1" x2="163.9" y2="75.2"/>
		</g>
		<g>
			<path class="st3" d="M153,79.6c-0.5,2.8,0.4,5.1,3.9,5.1c3.5,0,4.3-2.3,3.9-5.1c-0.4-2.9-2.2-5.1-3.9-5.1
				C155.3,74.5,153.5,76.5,153,79.6z"/>
			<path class="st3" d="M156.8,78c0,3,0,6,0,9"/>
			<line class="st3" x1="155.6" y1="79.6" x2="156.8" y2="80.6"/>
			<line class="st3" x1="154.7" y1="81.1" x2="156.8" y2="82.9"/>
			<line class="st3" x1="158.1" y1="79.5" x2="156.9" y2="80.6"/>
			<line class="st3" x1="159" y1="81.1" x2="156.9" y2="82.9"/>
		</g>
	</g>
	<g>
		<g>
			<path class="st3" d="M123.1,62.6c0-1.6,0.9-2.8,2.1-3.4c-0.1-0.3-0.1-0.6-0.1-0.9c0-1.7,1.2-3,2.7-3c0.8,0,1.4,0.3,1.9,0.9
				c0.4-0.3,0.9-0.4,1.4-0.4c1.5,0,2.7,1.4,2.7,3c0,0.4-0.1,0.7-0.2,1c0.8,0.7,1.2,1.7,1.2,2.9c0,2-1.5,3.7-3.3,3.7
				c-0.9,0-1.6-0.4-2.2-1c-0.7,0.9-1.7,1.5-2.8,1.5c0,0-0.3-1.8-1.2-2.8C124,62.4,123.1,62.7,123.1,62.6z"/>
			<path class="st3" d="M129.4,58.5c0,4.1,0,7.5,0,11.6"/>
			<line class="st3" x1="130.9" y1="59.5" x2="129.4" y2="60.8"/>
			<line class="st3" x1="127.8" y1="60.5" x2="129.4" y2="61.8"/>
			<line class="st3" x1="126.7" y1="62" x2="129.4" y2="64.3"/>
			<line class="st3" x1="131.8" y1="61.3" x2="129.5" y2="63.3"/>
		</g>
		<g>
			<path class="st3" d="M119.5,67.3c-0.5,2.5,0.4,4.7,3.6,4.7c3.2,0,3.9-2.1,3.6-4.7c-0.3-2.7-2-4.7-3.6-4.7
				C121.7,62.6,120,64.5,119.5,67.3z"/>
			<path class="st3" d="M123,65.9c0,2.7,0,5.5,0,8.2"/>
			<line class="st3" x1="121.9" y1="67.3" x2="123" y2="68.2"/>
			<line class="st3" x1="121.1" y1="68.7" x2="123" y2="70.4"/>
			<line class="st3" x1="124.2" y1="67.2" x2="123.1" y2="68.2"/>
			<line class="st3" x1="125" y1="68.7" x2="123.1" y2="70.3"/>
			<g>
				<path class="st3" d="M150.5,71.9c0.1-0.2,0.1-0.5,0.1-0.7c0-1.3-0.9-2.4-2.1-2.4c-0.6,0-1.1,0.3-1.5,0.7
					c-0.3-0.2-0.7-0.4-1.1-0.4c-1.2,0-2.1,1.1-2.1,2.4c0,0.3,0,0.6,0.1,0.8c-0.6,0.5-1,1.3-1,2.2c0,1.6,1.2,2.9,2.6,2.9
					c0.7,0,1.3-0.3,1.8-0.8c0.5,0.7,1.3,1.1,2.2,1.1c1.5,0,2.8-1.4,2.8-3.1C152.2,73.5,151.5,72.4,150.5,71.9z"/>
				<path class="st3" d="M147.2,71.5c0,2.9,0,6.3,0,9.2"/>
				<line class="st3" x1="146" y1="72" x2="147.2" y2="73"/>
				<line class="st3" x1="148.4" y1="72.8" x2="147.2" y2="73.8"/>
				<line class="st3" x1="149.3" y1="74.2" x2="147.2" y2="75.9"/>
				<line class="st3" x1="145.4" y1="73.6" x2="147.2" y2="75.2"/>
			</g>
			<g>
				<path class="st3" d="M143.8,79.7c0.4,2.1-0.3,3.9-3,3.9c-2.7,0-3.2-1.8-3-3.9c0.3-2.2,1.7-3.9,3-3.9
					C142,75.8,143.3,77.4,143.8,79.7z"/>
				<path class="st3" d="M140.8,77c0,2.4,0,6.7,0,9.2"/>
				<line class="st3" x1="141.7" y1="79.3" x2="140.8" y2="80.1"/>
				<line class="st3" x1="142.4" y1="80.9" x2="140.8" y2="82.2"/>
				<line class="st3" x1="139.8" y1="79.2" x2="140.8" y2="80"/>
				<line class="st3" x1="139.2" y1="80.8" x2="140.8" y2="82.2"/>
			</g>
		</g>
	</g>
	<g>
		<path class="st3" d="M116.4,100.2c0.5,3-0.4,5.4-4.2,5.4c-3.8,0-4.5-2.5-4.2-5.4c0.4-3.1,2.3-5.4,4.2-5.4
			C113.9,94.8,115.8,97,116.4,100.2z"/>
		<path class="st3" d="M112.3,96.5c0,3.4,0,9.5,0,12.9"/>
		<line class="st3" x1="113.6" y1="99.7" x2="112.3" y2="100.8"/>
		<line class="st3" x1="114.6" y1="101.9" x2="112.3" y2="103.8"/>
		<line class="st3" x1="110.9" y1="99.6" x2="112.2" y2="100.7"/>
		<line class="st3" x1="110" y1="101.9" x2="112.3" y2="103.8"/>
	</g>
	<g>
		<g id="Group_1149_00000057140063487329675870000017808998654889000068_" transform="translate(1457.653 588.103)">
			<g id="Group_1147_00000135660075120493317000000008720061439949473719_" transform="translate(0 0.033)">
				<path id="Path_636_00000118368733206384167200000001748631608568718734_" class="st4" d="M-1333.7-492.1L-1333.7-492.1
					c1.1,1.6,2.9,1.6,4,0l0,0"/>
				<path id="Path_637_00000096748107926308591180000000847954552123551643_" class="st4" d="M-1329.7-492.1L-1329.7-492.1
					c1.1,1.6,2.9,1.6,4,0l0,0"/>
				<path id="Path_638_00000022548500878413051950000005174251235588059050_" class="st4" d="M-1325.7-492.1L-1325.7-492.1
					c1.1,1.6,2.9,1.6,4,0l0,0"/>
			</g>
		</g>
		<g id="Group_1149_00000129924503161527651750000011343726154796300684_" transform="translate(1457.653 588.103)">
			<g id="Group_1147_00000070839545504054409750000002826305556754860981_" transform="translate(0 0.033)">
				<path id="Path_636_00000155868412056458330260000014811204291918249904_" class="st4" d="M-1329-483.4L-1329-483.4
					c1.1,1.6,2.9,1.6,4,0l0,0"/>
				<path id="Path_637_00000073721096816606060760000011099733908348132519_" class="st4" d="M-1325-483.4L-1325-483.4
					c1.1,1.6,2.9,1.6,4,0l0,0"/>
				<path id="Path_638_00000137133509630426778130000005293416086421001646_" class="st4" d="M-1321-483.4L-1321-483.4
					c1.1,1.6,2.9,1.6,4,0l0,0"/>
			</g>
		</g>
		<g id="Group_1149_00000034076889726735007880000005512692616822577587_" transform="translate(1457.653 588.103)">
			<g id="Group_1147_00000123403385624461244860000004825777450650707860_" transform="translate(0 0.033)">
				<path id="Path_636_00000067217563439950148230000017457480971871211700_" class="st4" d="M-1335.7-496.6L-1335.7-496.6
					c1.1,1.6,2.9,1.6,4,0l0,0"/>
				<path id="Path_637_00000100341084163571208370000014286047668397673628_" class="st4" d="M-1331.7-496.6L-1331.7-496.6
					c1.1,1.6,2.9,1.6,4,0l0,0"/>
				<path id="Path_638_00000021077134142728289190000003048449547857164474_" class="st4" d="M-1327.7-496.6L-1327.7-496.6
					c1.1,1.6,2.9,1.6,4,0l0,0"/>
			</g>
		</g>
		<g id="Group_1149_00000141429201042837487000000013707062591225893797_" transform="translate(1457.653 588.103)">
			<g id="Group_1147_00000048499990066903462130000009210242458797588404_" transform="translate(0 0.033)">
				<path id="Path_636_00000104695102257596369560000016800656960225664664_" class="st4" d="M-1337.7-501.1L-1337.7-501.1
					c1.1,1.6,2.9,1.6,4,0l0,0"/>
				<path id="Path_637_00000035529593932829429570000006041507803876058813_" class="st4" d="M-1333.7-501.1L-1333.7-501.1
					c1.1,1.6,2.9,1.6,4,0l0,0"/>
				<path id="Path_638_00000155126466716939033860000017614994352455048854_" class="st4" d="M-1329.7-501.1L-1329.7-501.1
					c1.1,1.6,2.9,1.6,4,0l0,0"/>
			</g>
		</g>
		<g id="Group_1149_00000142886033562218342780000017715894775651316118_" transform="translate(1457.653 588.103)">
			<g id="Group_1147_00000165941148688545916960000002927079447033706412_" transform="translate(0 0.033)">
				<path id="Path_636_00000036231035707381422820000016168518570006498181_" class="st4" d="M-1340.1-505.7L-1340.1-505.7
					c1.1,1.6,2.9,1.6,4,0l0,0"/>
				<path id="Path_637_00000131349138498950624980000000719072814805794223_" class="st4" d="M-1336.1-505.7L-1336.1-505.7
					c1.1,1.6,2.9,1.6,4,0l0,0"/>
				<path id="Path_638_00000060715697671053229050000008380247246590945209_" class="st4" d="M-1332.1-505.7L-1332.1-505.7
					c1.1,1.6,2.9,1.6,4,0l0,0"/>
			</g>
		</g>
		<g id="Group_1149_00000117638130791082143310000013445054358334311049_" transform="translate(1457.653 588.103)">
			<g id="Group_1147_00000045618362908422821540000008868648419671596691_" transform="translate(0 0.033)">
				<path id="Path_636_00000052806901931502687210000009816068027101378442_" class="st4" d="M-1352.6-514.3L-1352.6-514.3
					c1.1,1.6,2.9,1.6,4,0l0,0"/>
				<path id="Path_637_00000062163571776039637330000005010294033435600063_" class="st4" d="M-1348.6-514.3L-1348.6-514.3
					c1.1,1.6,2.9,1.6,4,0l0,0"/>
				<path id="Path_638_00000132063086939310189560000018357629001603920806_" class="st4" d="M-1344.6-514.3L-1344.6-514.3
					c1.1,1.6,2.9,1.6,4,0l0,0"/>
			</g>
		</g>
		<g id="Group_1149_00000044883770292629400470000000594424342253059457_" transform="translate(1457.653 588.103)">
			<g id="Group_1147_00000044896481907724191450000017518429011357943480_" transform="translate(0 0.033)">
				<path id="Path_636_00000130632261609987450070000014547140797577909685_" class="st4" d="M-1358.8-518.6L-1358.8-518.6
					c1.1,1.6,2.9,1.6,4,0l0,0"/>
				<path id="Path_637_00000056421367823941325770000018354708142622241717_" class="st4" d="M-1354.8-518.6L-1354.8-518.6
					c1.1,1.6,2.9,1.6,4,0l0,0"/>
				<path id="Path_638_00000145746506475764541900000003219634761850601870_" class="st4" d="M-1350.8-518.6L-1350.8-518.6
					c1.1,1.6,2.9,1.6,4,0l0,0"/>
			</g>
		</g>
		<g>
			<g id="Group_1149_00000103966019139271872940000016697526235310340999_" transform="translate(1457.653 588.103)">
				<g id="Group_1147_00000021113778709423687350000000035102124530840506_" transform="translate(0 0.033)">
					<path id="Path_636_00000051347648164128623460000005551831309796863881_" class="st4" d="M-1342.6-510.1L-1342.6-510.1
						c1.1,1.6,2.9,1.6,4,0l0,0"/>
					<path id="Path_637_00000114039195228828931170000012494171409315295917_" class="st4" d="M-1338.6-510.1L-1338.6-510.1
						c1.1,1.6,2.9,1.6,4,0l0,0"/>
					<path id="Path_638_00000094597845530974898170000010628833628559426488_" class="st4" d="M-1334.6-510.1L-1334.6-510.1
						c1.1,1.6,2.9,1.6,4,0l0,0"/>
				</g>
			</g>
			<g id="Group_1149_00000044897045218619518470000007243066205752449671_" transform="translate(1457.653 588.103)">
				<g id="Group_1147_00000160164092873535775900000014550425181675803576_" transform="translate(0 0.033)">
					<path id="Path_636_00000160911434250438095460000013071098775460981677_" class="st4" d="M-1346.6-510.1L-1346.6-510.1
						c1.1,1.6,2.9,1.6,4,0l0,0"/>
					<path id="Path_637_00000181799190346628565660000011696584350840521659_" class="st4" d="M-1342.6-510.1L-1342.6-510.1
						c1.1,1.6,2.9,1.6,4,0l0,0"/>
					<path id="Path_638_00000046308544789744441050000006265294200127102097_" class="st4" d="M-1338.6-510.1L-1338.6-510.1
						c1.1,1.6,2.9,1.6,4,0l0,0"/>
				</g>
			</g>
		</g>
		<g id="Group_1149_00000077322962387945091220000008744546205622686632_" transform="translate(1457.653 588.103)">
			<g id="Group_1147_00000105392834233168305380000005179749810673220002_" transform="translate(0 0.033)">
				<path id="Path_636_00000096051440641633747420000008420525031078530987_" class="st4" d="M-1360.8-523.3L-1360.8-523.3
					c1.1,1.6,2.9,1.6,4,0l0,0"/>
				<path id="Path_637_00000029756883953902207540000011121853161606391446_" class="st4" d="M-1356.8-523.3L-1356.8-523.3
					c1.1,1.6,2.9,1.6,4,0l0,0"/>
				<path id="Path_638_00000098210972267229974790000007648052699632422274_" class="st4" d="M-1352.8-523.3L-1352.8-523.3
					c1.1,1.6,2.9,1.6,4,0l0,0"/>
			</g>
		</g>
		<g id="Group_1149_00000009590969362943139590000011006601127924939937_" transform="translate(1457.653 588.103)">
			<g id="Group_1147_00000151508101621647521380000006846224739531065252_" transform="translate(0 0.033)">
				<path id="Path_636_00000091713598820008310290000015377246017071713183_" class="st4" d="M-1362.8-527.8L-1362.8-527.8
					c1.1,1.6,2.9,1.6,4,0l0,0"/>
				<path id="Path_637_00000031193239075981669700000006635342597949649567_" class="st4" d="M-1358.8-527.8L-1358.8-527.8
					c1.1,1.6,2.9,1.6,4,0l0,0"/>
				<path id="Path_638_00000108993685164096828970000003939457509561656193_" class="st4" d="M-1354.8-527.8L-1354.8-527.8
					c1.1,1.6,2.9,1.6,4,0l0,0"/>
			</g>
		</g>
		<g id="Group_1150_00000047047996093421512270000009726426768162661008_" transform="translate(1466.105 592.051)">
			<path id="Path_644_00000181052879866841888430000001212552281390187697_" class="st4" d="M-1340-491.5L-1340-491.5
				c1.1,1.6,2.9,1.6,4,0l0,0"/>
			<path id="Path_645_00000021120446828473809480000003552545980221004162_" class="st4" d="M-1336.1-491.5L-1336.1-491.5
				c1.1,1.6,2.9,1.6,4,0l0,0"/>
		</g>
		<g id="Group_1150_00000038410074442450613840000008426883417110390416_" transform="translate(1466.105 592.051)">
			<path id="Path_644_00000027586198875489443910000015989370442173654460_" class="st4" d="M-1369.2-536.5L-1369.2-536.5
				c1.1,1.6,2.9,1.6,4,0l0,0"/>
			<path id="Path_645_00000000205966183655130160000009801418888121425583_" class="st4" d="M-1365.2-536.5L-1365.2-536.5
				c1.1,1.6,2.9,1.6,4,0l0,0"/>
		</g>
		<g id="Group_1150_00000118378961285886362920000010471069964482102194_" transform="translate(1466.105 592.051)">
			<path id="Path_644_00000056385415125519730680000011842315692548266115_" class="st4" d="M-1373.3-540.6L-1373.3-540.6
				c1.1,1.6,2.9,1.6,4,0l0,0"/>
			<path id="Path_645_00000052811241017320009990000018377815307207177373_" class="st4" d="M-1369.3-540.6L-1369.3-540.6
				c1.1,1.6,2.9,1.6,4,0l0,0"/>
		</g>
	</g>
</g>
</svg>
