<?xml version="1.0" encoding="utf-8"?>
<!-- Generator: Adobe Illustrator 26.4.1, SVG Export Plug-In . SVG Version: 6.00 Build 0)  -->
<svg version="1.1" id="Layer_1" xmlns="http://www.w3.org/2000/svg" xmlns:xlink="http://www.w3.org/1999/xlink" x="0px" y="0px"
	 width="215px" height="134px" viewBox="0 0 215 134" style="enable-background:new 0 0 215 134;" xml:space="preserve">
<style type="text/css">
	.st0{display:none;fill:#C4A377;}
	.st1{fill:none;stroke:#C4A377;stroke-miterlimit:10;}
	.st2{fill:none;stroke:#FFFFFF;stroke-width:0.85;stroke-linecap:round;stroke-linejoin:round;stroke-miterlimit:10;}
	.st3{fill:none;stroke:#FFFFFF;stroke-width:0.75;stroke-linecap:round;stroke-linejoin:round;stroke-miterlimit:10;}
	.st4{fill:none;stroke:#FFFFFF;stroke-width:0.5;stroke-linecap:round;stroke-linejoin:round;stroke-miterlimit:10;}
</style>
<rect x="-137" y="-36" class="st0" width="378" height="231"/>
<g id="KAYMAKLI_YERALTI_ŞEHRİ_00000053513376445438517330000011896727063493133207_">
	<path id="Line_172_00000040562201237273988320000017210608616293151673_" class="st1" d="M236.1,123"/>
	<path id="Line_172_00000080926072537689097100000007053450793139850368_" class="st1" d="M-21.1,123"/>
	<path class="st2" d="M39.9,112.3c0,0,44.8,1.5,71,0c25.9-1.5,65.8,1.9,65.8,1.9c7.9,0,6.4-7.9,6.4-14.9c0,0-2.5-34.2,0.4-48.5
		c3-15.4-0.1-30.6-0.1-30.6c-1.5-10.8-16.9-6.4-18.6-6.4c0,0-25.7,2.6-54-1s-60-1-68.4-0.7S28,9.5,28.8,24.6c0,0,0.9,9-1.2,27.3
		c-2.1,17.9-0.6,50.5-0.6,50.5C27,104.1,27.5,112.3,39.9,112.3z"/>
	<path class="st2" d="M98.4,91c0,0,7.3,1.4,10.3-1.3c4.7-4.1-14.7-46,10.6-44.4c28.9,1.8,2.4,46,8.5,48c5.5,1.7,13,2.4,19.7,2.4
		c3.9,0-13.6-48.1,10.5-47.5c30,0.8,1.1,47.2,6.3,47.9c6.7,1,18.7,3.2,18.8,3.2"/>
	<path class="st2" d="M124.8,46.4c-22.1,0-9.8,33-10.9,40.7c-0.7,5.4-12.3,4.2-12.3,4.2"/>
	<path class="st2" d="M166.1,50.1c-23.3-3.6-12.9,34.1-14,41.8c-0.7,5.4-8.4,3.6-8.4,3.6"/>
	<path class="st2" d="M26.8,62.7c0,0,13.6,2.8,20.3,2.8c3.9,0-13.6-48.1,10.5-47.5c30,0.8,1.2,46.8,6.3,47.9c6,1.4,8.9,2.1,8.9,2.1"
		/>
	<path class="st2" d="M65.6,19.9c-23.3-3.6-12.9,34.1-14,41.8c-0.7,5.4-8.4,3.6-8.4,3.6"/>
	<polyline class="st3" points="84.3,88.5 84.3,84 80.9,83.3 80.8,78 77,77.5 77,73.2 72.9,72.8 72.8,68 	"/>
	<path class="st3" d="M64.3,86.5"/>
	<path class="st3" d="M81.4,84.1"/>
	<line class="st4" x1="77" y1="77.5" x2="60.2" y2="81.4"/>
	<line class="st4" x1="80.8" y1="78.2" x2="63.2" y2="82.5"/>
	<line class="st4" x1="72.9" y1="72.8" x2="56.7" y2="76.5"/>
	<line class="st3" x1="72.4" y1="68.1" x2="55.6" y2="72"/>
	<line class="st4" x1="77.2" y1="73.7" x2="59.5" y2="78"/>
	<line class="st4" x1="80.7" y1="83.3" x2="63.9" y2="87.2"/>
	<line class="st4" x1="84.4" y1="84.4" x2="66.3" y2="88.5"/>
	<line class="st3" x1="84.4" y1="88.4" x2="66.4" y2="92.6"/>
	<path class="st3" d="M180.6,112.3c0,0-30.5-7.1-61.3-7.7c-30.7-0.6-52.9-12-52.9-12"/>
	<line class="st3" x1="55.6" y1="72" x2="26.8" y2="67.2"/>
	<line class="st3" x1="98.4" y1="91" x2="84.3" y2="88.4"/>
</g>
</svg>
