<?xml version="1.0" encoding="utf-8"?>
<!-- Generator: Adobe Illustrator 26.4.1, SVG Export Plug-In . SVG Version: 6.00 Build 0)  -->
<svg version="1.1" id="Layer_1" xmlns="http://www.w3.org/2000/svg" xmlns:xlink="http://www.w3.org/1999/xlink" x="0px" y="0px"
	 width="215px" height="134px" viewBox="0 0 215 134" style="enable-background:new 0 0 215 134;" xml:space="preserve">
<style type="text/css">
	.st0{fill:#C4A377;}
	.st1{fill:none;stroke:#C4A377;stroke-miterlimit:10;}
	.st2{fill:none;stroke:#FFFFFF;stroke-linecap:round;stroke-linejoin:round;stroke-miterlimit:10;}
	.st3{fill:#605651;stroke:#FFFFFF;stroke-linecap:round;stroke-linejoin:round;stroke-miterlimit:10;}
</style>
<rect x="-137" y="-36" class="st0" width="378" height="231"/>
<g id="MUSTAFAPAŞA_KÖYÜ_00000023240983768490391320000003783426433236011690_">
	<g id="Group_1204_00000111873112689673348090000010847226591789192116_" transform="translate(-18474 -14576)">
		<path id="Line_172_00000131342268171050821260000014578747228852361871_" class="st1" d="M18733,14701.3"/>
		<path id="Line_172_00000072276453594782431070000009057304107235506354_" class="st1" d="M18430,14701.3"/>
		<g id="Group_1171_00000173161544586474515670000005376373027355296650_" transform="translate(-147.655 4171.896)">
			<path id="Path_655_00000024686035007628710600000016623821504858345639_" class="st2" d="M18691.1,10465.7v-9.9
				c-0.1-2.3-2-4.2-4.3-4.2l0,0c-2.3,0-4.3,1.8-4.3,4.2v9.9H18691.1z"/>
			<path id="Path_656_00000130619272944642631440000016705097106024666801_" class="st2" d="M18704,10465.7v-9.9
				c-0.1-2.3-2-4.2-4.3-4.2l0,0c-2.3,0-4.3,1.8-4.4,4.2v9.9H18704z"/>
			<path id="Path_655_00000108274858222709996230000002173303646588636302_" class="st2" d="M18691.1,10496.8v-9.9
				c-0.1-2.3-2-4.2-4.3-4.2l0,0c-2.3,0-4.3,1.8-4.3,4.2v9.9H18691.1z"/>
			<path id="Path_656_00000083794574787298714760000002092415526925498496_" class="st2" d="M18704,10496.8v-9.9
				c-0.1-2.3-2-4.2-4.3-4.2l0,0c-2.3,0-4.3,1.8-4.4,4.2v9.9H18704z"/>
			<path id="Path_655_00000041265640130899962690000001157553531834758051_" class="st2" d="M18757.7,10496.8v-9.9
				c-0.1-2.3-2-4.2-4.3-4.2l0,0c-2.3,0-4.3,1.8-4.3,4.2v9.9H18757.7z"/>
			<path id="Path_656_00000165946515048242600220000008553314658589154747_" class="st2" d="M18770.7,10496.8v-9.9
				c-0.1-2.3-2-4.2-4.3-4.2l0,0c-2.3,0-4.3,1.8-4.4,4.2v9.9H18770.7z"/>
			<path id="Path_659_00000138543105177421553980000010400789950767339954_" class="st2" d="M18759.2,10465.1v-9.9
				c-0.1-2.3-2-4.2-4.4-4.2l0,0c-2.3,0-4.3,1.8-4.3,4.2v9.9H18759.2z"/>
			<path id="Path_660_00000143614230119738218220000009672045626121039504_" class="st2" d="M18772.1,10465.1v-9.9
				c-0.1-2.3-2-4.2-4.3-4.2l0,0c-2.3,0-4.3,1.8-4.4,4.2v9.9H18772.1z"/>
			<path id="Path_662_00000018956547035970538560000007721632143211266690_" class="st2" d="M18719.9,10500.8v-13.4
				c0.1-4.1,3.5-7.3,7.6-7.3l0,0c4.1-0.1,7.5,3.2,7.6,7.3v13.4"/>
			
				<line id="Line_345_00000141445245028693715510000006008075107964175753_" class="st2" x1="18643.1" y1="10514.8" x2="18812.4" y2="10514.8"/>
			
				<line id="Line_346_00000027600167028154211040000016759737423689330107_" class="st2" x1="18670.6" y1="10436.6" x2="18712.3" y2="10436.6"/>
			
				<line id="Line_346_00000097500186151038971790000010452135069639106729_" class="st2" x1="18741.9" y1="10436.6" x2="18784.4" y2="10436.6"/>
			<path id="Path_664_00000067933215002826759000000008870372990987565710_" class="st2" d="M18670.6,10436.6l55.6-23.8l58.2,23.8"
				/>
			<g>
				<g>
					
						<line id="Line_346_00000142140175867762409770000010090757802654179243_" class="st2" x1="18743.4" y1="10466.2" x2="18711.6" y2="10466.2"/>
					
						<line id="Line_346_00000001642598164957607660000005151550521688150189_" class="st2" x1="18739.2" y1="10472.8" x2="18715.7" y2="10472.8"/>
					
						<line id="Line_346_00000137831155523400621500000005646162231914351776_" class="st2" x1="18715.7" y1="10472.8" x2="18711.6" y2="10466.2"/>
					
						<line id="Line_346_00000085958009446309635430000000181249446741339024_" class="st2" x1="18739.3" y1="10472.8" x2="18743.4" y2="10466.2"/>
				</g>
				<g>
					
						<line id="Line_346_00000072261023151599725970000011184412357280776121_" class="st2" x1="18711.6" y1="10441.3" x2="18711.6" y2="10466.2"/>
					
						<line id="Line_346_00000070803143329096908430000000253290750177412784_" class="st2" x1="18743.4" y1="10441.3" x2="18743.4" y2="10466.2"/>
					<g>
						<path id="Path_662_00000026125890878129175400000005931771701044135819_" class="st2" d="M18711.6,10457.5v-3.9
							c0.1-4.3,3.7-7.7,7.9-7.6l0,0c4.3-0.1,7.8,3.3,7.9,7.6v3.9"/>
						<path id="Path_662_00000048485025649712758920000017107859994538045059_" class="st2" d="M18727.5,10465.1v-11.4
							c0.1-4.3,3.7-7.7,7.9-7.6l0,0c4.3-0.1,7.8,3.3,7.9,7.6v3.9"/>
					</g>
				</g>
				<g>
					
						<line id="Line_346_00000114072541784262667880000004324061114631007113_" class="st2" x1="18704.2" y1="10441.3" x2="18750.7" y2="10441.3"/>
					<path id="Path_664_00000083775669003846055480000009732031067560919970_" class="st2" d="M18704.2,10441.3l22.2-12.9l24.3,12.9
						"/>
				</g>
			</g>
			
				<line id="Line_347_00000117665871317330892080000006715720797450727831_" class="st2" x1="18675" y1="10466" x2="18675" y2="10437.4"/>
			<g id="Group_1171-2_00000163053969306466228600000016771557943774841732_">
				<path id="Path_666_00000131338970614010325350000012993315710674273670_" class="st2" d="M18801.3,10492v-9.9
					c-0.1-2.3-2-4.2-4.4-4.2l0,0c-2.3,0-4.3,1.8-4.3,4.2v9.9H18801.3z"/>
				<path id="Path_667_00000053513101138357581130000012891657389974012576_" class="st2" d="M18812.4,10514.8l-0.2-48.8h-9.4"/>
				<path id="Path_669_00000026162264980561363400000014535244604609563034_" class="st2" d="M18802.8,10466h-23v48.4"/>
			</g>
			<path id="Path_671_00000036219857043157505020000004942016193615962037_" class="st2" d="M18759.9,10478.9"/>
			<path id="Path_672_00000101088562963434944700000005213839620109345196_" class="st2" d="M18759.9,10513.8"/>
			
				<line id="Line_355_00000005956548847073406920000010218649329282301590_" class="st2" x1="18720" y1="10487.2" x2="18735" y2="10487.2"/>
			
				<line id="Line_359_00000020381740366850807870000014744361054150326935_" class="st2" x1="18779.9" y1="10466" x2="18779.9" y2="10437.4"/>
			<g id="Group_1172_00000134226448261269521720000005506627031253856703_">
				<path id="Path_673_00000076586024561325440050000005868784846734599580_" class="st2" d="M18653.9,10492v-9.9
					c0.1-2.3,2-4.2,4.3-4.2l0,0c2.3,0,4.3,1.8,4.3,4.2v9.9H18653.9z"/>
				<path id="Path_674_00000126293942285978452440000000061668681456192909_" class="st2" d="M18643,10514.8v-48.8h21.3"/>
				<path id="Path_676_00000157273517489603071050000004645412438398955955_" class="st2" d="M18662.8,10466h12.2v48.3"/>
			</g>
			<path id="Path_664_00000083798815908852843590000014243580578696696461_" class="st2" d="M18639.2,10465.7l9.7-8.3h26"/>
			<path class="st3" d="M18639.2,10466c11.9,0,23.8,0,35.7,0"/>
			<path id="Path_664_00000036947214422498648620000014400517492331427980_" class="st2" d="M18815.6,10465.5l-9.7-8.3h-26"/>
			<path class="st3" d="M18815.6,10465.9c-11.9,0-23.8,0-35.7,0"/>
			<path class="st2" d="M18754.2,10514.8L18754.2,10514.8c-1.3,0-3.2,0-4.4,0c0-1.2,0-3.1,0-4.3h-0.3c-1.2,0-3.1,0-4.3,0
				c0-1.2,0-3.1,0-4.3h-0.1c-1.2,0-3.1,0-4.3,0c0-1.2,0-3.1,0-4.3c-7.4,0-19.1,0-26.5,0c0,1.2,0,3.1,0,4.3c-1.2,0-3.1,0-4.3,0h-0.1
				c0,1.2,0,3.1,0,4.3c-1.2,0-3.1,0-4.3,0h-0.3c0,1.2,0,3.1,0,4.3c-1.2,0-3.1,0-4.3,0h-0.1"/>
		</g>
	</g>
</g>
</svg>
