<?xml version="1.0" encoding="utf-8"?>
<!-- Generator: Adobe Illustrator 26.4.1, SVG Export Plug-In . SVG Version: 6.00 Build 0)  -->
<svg version="1.1" id="Layer_1" xmlns="http://www.w3.org/2000/svg" xmlns:xlink="http://www.w3.org/1999/xlink" x="0px" y="0px"
	 width="215px" height="134px" viewBox="0 0 215 134" style="enable-background:new 0 0 215 134;" xml:space="preserve">
<style type="text/css">
	.st0{display:none;fill:#C4A377;}
	.st1{fill:none;stroke:#C4A377;stroke-miterlimit:10;}
	.st2{fill:none;stroke:#FFFFFF;stroke-width:0.75;stroke-linecap:round;stroke-linejoin:round;stroke-miterlimit:10;}
	.st3{fill:none;stroke:#FFFFFF;stroke-linecap:round;stroke-linejoin:round;stroke-miterlimit:10;}
	.st4{fill:none;stroke:#FFFFFF;stroke-width:0.85;stroke-linecap:round;stroke-linejoin:round;stroke-miterlimit:10;}
	.st5{fill:none;stroke:#FFFFFF;stroke-width:0.5;stroke-linecap:round;stroke-linejoin:round;stroke-miterlimit:10;}
</style>
<rect x="-137" y="-36" class="st0" width="378" height="231"/>
<g id="ORTAHİSAR_00000093864870795629446500000015048962224052914622_">
	<path id="Line_172_00000136397541500021887930000016337637542541810109_" class="st1" d="M225.6,129"/>
	<path id="Line_172_00000089541712242059613210000001905641005860274820_" class="st1" d="M-10.6,129"/>
	<g>
		<g>
			<g id="Group_1204_00000103955766744258273020000016990958770286766252_" transform="translate(-18474 -14576)">
				<g id="Group_1171_00000146458899433882961920000010325092312707236782_" transform="translate(-147.655 4171.896)">
					<path id="Path_655_00000145037710647742117590000014691447578544010643_" class="st2" d="M18692.5,10509v-3.7
						c0-0.9-0.8-1.6-1.6-1.6l0,0c-0.9,0-1.6,0.7-1.6,1.6v3.7H18692.5z"/>
					<path id="Path_659_00000096772571898423229920000015201982349735864716_" class="st2" d="M18710.7,10509v-3.7
						c0-0.9-0.8-1.6-1.6-1.6l0,0c-0.9,0-1.6,0.7-1.6,1.6v3.7H18710.7z"/>
					<path id="Path_662_00000109005660410565434890000009417512244940854674_" class="st2" d="M18696.5,10512.7v-5.4
						c0.1-2,1.7-3.6,3.8-3.6l0,0c2,0,3.7,1.6,3.8,3.6v5.4"/>
					
						<line id="Line_345_00000135689220330120055120000000113414852066782633_" class="st2" x1="18685.8" y1="10512.8" x2="18714.9" y2="10512.8"/>
					<path id="Line_347_00000099654858868143070150000004966316371795824535_" class="st2" d="M18685.6,10499.6"/>
					<path id="Line_347_00000122000329895109770480000005504988808336829604_" class="st2" d="M18685.6,10507.6"/>
					<path id="Path_671_00000171720316772232911580000007064328269041207996_" class="st2" d="M18709.3,10503.4"/>
					
						<line id="Line_355_00000033366180977848380210000008297416004129584258_" class="st2" x1="18696.6" y1="10507.2" x2="18704" y2="10507.2"/>
					
						<line id="Line_355_00000133497036358820390680000018290301951345641399_" class="st2" x1="18700.3" y1="10507.2" x2="18700.3" y2="10512.7"/>
					<path id="Line_358_00000171682882223183598450000015123436623999529613_" class="st2" d="M18710.5,10506.8"/>
					
						<line id="Line_359_00000075136729991281992530000004928278150969096328_" class="st2" x1="18714.9" y1="10512.8" x2="18714.9" y2="10499.6"/>
					
						<line id="Line_359_00000124848463656074405230000016070659974536831914_" class="st2" x1="18685.8" y1="10512.8" x2="18685.8" y2="10499.6"/>
					<polygon class="st2" points="18714.9,10499.5 18685.8,10499.5 18693.5,10492.5 18707.2,10492.5 					"/>
				</g>
			</g>
		</g>
		<g>
			<g id="Group_1204_00000106857434821424369540000007314459522427463589_" transform="translate(-18474 -14576)">
				<g id="Group_1171_00000155853927204393368430000015183394957706433929_" transform="translate(-147.655 4171.896)">
					<path id="Path_655_00000182487519054523280480000017856679744588785569_" class="st2" d="M18684.8,10494.3v-3.7
						c0-0.9-0.8-1.6-1.6-1.6l0,0c-0.9,0-1.6,0.7-1.6,1.6v3.7H18684.8z"/>
					<path class="st2" d="M18703,10492.4v-1.9c0-0.9-0.8-1.6-1.6-1.6c-0.9,0-1.6,0.7-1.6,1.6v1.9H18703z"/>
					<path id="Path_662_00000055692214818336443510000010398300103157836194_" class="st2" d="M18688.8,10496.6v-4
						c0.1-2,1.7-3.6,3.8-3.6l0,0c2,0,3.7,1.4,3.8,3.5l0-0.3"/>
					<path id="Line_347_00000045586095416970462330000017644350295393125512_" class="st2" d="M18677.8,10484.8"/>
					<path id="Line_347_00000145024039176303660320000017930945282951363220_" class="st2" d="M18677.8,10492.9"/>
					<path id="Path_671_00000013909664256435821990000013265917227759332286_" class="st2" d="M18701.6,10488.7"/>
					<path id="Line_358_00000024723821914298957410000016179620418271595422_" class="st2" d="M18702.8,10492.1"/>
					
						<line id="Line_359_00000028326495448228449080000016701741241528653758_" class="st2" x1="18707.2" y1="10492.5" x2="18707.2" y2="10484.8"/>
					
						<line id="Line_359_00000049189976804478609540000003974439314238964656_" class="st2" x1="18678.1" y1="10492.5" x2="18678.1" y2="10484.8"/>
					<polygon class="st2" points="18707.2,10484.8 18678.1,10484.8 18685.8,10477.7 18699.5,10477.7 					"/>
				</g>
			</g>
		</g>
		<g>
			<g id="Group_1204_00000070076474827949340300000014138295450658449341_" transform="translate(-18474 -14576)">
				<g id="Group_1171_00000013880225441848861020000011136456272725130393_" transform="translate(-147.655 4171.896)">
					<path id="Path_655_00000123413698185143509330000006981367770990433948_" class="st2" d="M18669.1,10509v-3.7
						c0-0.9-0.8-1.6-1.6-1.6l0,0c-0.9,0-1.6,0.7-1.6,1.6v3.7H18669.1z"/>
					<path id="Path_659_00000058549781861044118160000002640792772923346095_" class="st2" d="M18674.6,10509v-3.7
						c0-0.9-0.8-1.6-1.6-1.6l0,0c-0.9,0-1.6,0.7-1.6,1.6v3.7H18674.6z"/>
					<path id="Path_662_00000034065280563578220070000003693643700782278808_" class="st2" d="M18677.3,10512.7v-5.4
						c0-2,1.3-3.6,2.8-3.6l0,0c1.5,0,2.8,1.6,2.8,3.6v5.4"/>
					
						<line id="Line_345_00000025440201328088168140000001453292436354513841_" class="st2" x1="18663.3" y1="10512.8" x2="18685.8" y2="10512.8"/>
					<path id="Path_671_00000041274845333898006900000016892499602558732211_" class="st2" d="M18684.5,10503.4"/>
					<path id="Line_358_00000133516004686950731870000015749213682877256895_" class="st2" d="M18685.7,10506.8"/>
					
						<line id="Line_359_00000127043121592012585190000016580409311632493215_" class="st2" x1="18685.8" y1="10512.8" x2="18685.8" y2="10499.6"/>
					
						<line id="Line_359_00000080911616107990509120000010335698941980147632_" class="st2" x1="18663.3" y1="10512.8" x2="18663.3" y2="10499.6"/>
					<polygon class="st2" points="18685.8,10499.6 18663.3,10499.6 18670.4,10492.6 18678.8,10492.6 					"/>
				</g>
			</g>
		</g>
		<g>
			<g id="Group_1204_00000093162844016280285250000004151545410731987605_" transform="translate(-18474 -14576)">
				<g id="Group_1171_00000176737483740574096810000018283465762060372652_" transform="translate(-147.655 4171.896)">
					<path id="Path_659_00000016065769423336202210000009897796123907827856_" class="st2" d="M18727.3,10501.9v-3.7
						c0-0.9-0.8-1.6-1.6-1.6l0,0c-0.9,0-1.6,0.7-1.6,1.6v3.7H18727.3z"/>
					<path id="Path_662_00000181795328315872460100000014229802406926571661_" class="st2" d="M18717.1,10505.7v-5.4
						c0-2,1.2-3.7,2.5-3.6l0,0c1.4,0,2.5,1.6,2.5,3.6v5.4"/>
					
						<line id="Line_345_00000104673750617919725030000000861029276352045758_" class="st2" x1="18714.9" y1="10505.7" x2="18730" y2="10505.7"/>
					<path id="Path_671_00000126282660686563083100000003629196533535750538_" class="st2" d="M18728.6,10496.4"/>
					<path id="Line_358_00000086660933117613504870000004142553864271258531_" class="st2" d="M18729.8,10499.8"/>
					
						<line id="Line_359_00000062913075272019216710000005783835038862879876_" class="st2" x1="18730" y1="10505.7" x2="18730" y2="10492.5"/>
					<path id="Line_359_00000002376690602686512900000013160932146321241251_" class="st2" d="M18707.5,10492.5"/>
					<path id="Line_359_00000108270022674059036500000000020862158218494593_" class="st2" d="M18707.5,10505.7"/>
					<polygon class="st2" points="18730,10492.5 18707.5,10492.5 18714.5,10485.5 18722.9,10485.5 					"/>
				</g>
			</g>
		</g>
		<g>
			<g id="Group_1204_00000146492504484746455640000002554344659526525078_" transform="translate(-18474 -14576)">
				<g id="Group_1171_00000144307949150562099560000001268464477410257571_" transform="translate(-147.655 4171.896)">
					<path id="Path_659_00000008148703249984613280000007076643662276442543_" class="st2" d="M18650.6,10501.9v-3.7
						c0-0.9,0.8-1.6,1.6-1.6l0,0c0.9,0,1.6,0.7,1.6,1.6v3.7H18650.6z"/>
					<path id="Path_662_00000061441828099028602670000002392479853566490773_" class="st2" d="M18661.3,10505.7v-5.4
						c0-2-1.3-3.6-2.8-3.6l0,0c-1.5,0-2.8,1.6-2.8,3.6v5.4"/>
					
						<line id="Line_345_00000098933646609408629060000010917112297664142731_" class="st2" x1="18662.9" y1="10505.7" x2="18647.9" y2="10505.7"/>
					<path id="Path_671_00000057870695781992661670000011849528057732131762_" class="st2" d="M18649.2,10496.4"/>
					<path id="Line_358_00000065069907324673791830000001553853429937543586_" class="st2" d="M18648,10499.8"/>
					
						<line id="Line_359_00000024713629889863444620000000531289348684257964_" class="st2" x1="18647.9" y1="10505.7" x2="18647.9" y2="10492.5"/>
					<path id="Line_359_00000133506311331630702510000016912667195464426115_" class="st2" d="M18670.4,10492.5"/>
					<path id="Line_359_00000036941508953307083190000016882948754338684544_" class="st2" d="M18670.4,10505.7"/>
					<polygon class="st2" points="18647.9,10492.5 18670.4,10492.5 18663.3,10485.5 18654.9,10485.5 					"/>
				</g>
			</g>
		</g>
	</g>
	<g>
		<g>
			<g id="Group_1204_00000099645982810999046820000000521363275723408536_" transform="translate(-18474 -14576)">
				<g id="Group_1171_00000060746157379489820740000016237105162634302086_" transform="translate(-147.655 4171.896)">
					<path id="Path_655_00000095302037429433843990000013086582878148944771_" class="st2" d="M18759.2,10508.3v-3.7
						c0-0.9-0.8-1.6-1.6-1.6l0,0c-0.9,0-1.6,0.7-1.6,1.6v3.7H18759.2z"/>
					<path id="Path_659_00000033335147791960448430000004950695611290924447_" class="st2" d="M18777.4,10508.3v-3.7
						c0-0.9-0.8-1.6-1.6-1.6l0,0c-0.9,0-1.6,0.7-1.6,1.6v3.7H18777.4z"/>
					<path id="Path_662_00000136380788021020491340000006587704179861117859_" class="st2" d="M18763.2,10512v-5.4
						c0.1-2,1.7-3.6,3.8-3.6l0,0c2,0,3.7,1.6,3.8,3.6v5.4"/>
					
						<line id="Line_345_00000115504053465095914400000000628437143970888099_" class="st2" x1="18752.5" y1="10512.1" x2="18781.6" y2="10512.1"/>
					<path id="Line_347_00000072985179787449811810000015558862759878870149_" class="st2" d="M18752.2,10498.9"/>
					<path id="Line_347_00000114054307704725666210000009560425786323199875_" class="st2" d="M18752.2,10506.9"/>
					<path id="Path_671_00000072259589245650551910000008355164851661943961_" class="st2" d="M18776,10502.7"/>
					
						<line id="Line_355_00000105415195811617867370000010402698888508713386_" class="st2" x1="18763.3" y1="10506.5" x2="18770.7" y2="10506.5"/>
					
						<line id="Line_355_00000013891181734103667270000006527925423529867678_" class="st2" x1="18767" y1="10506.5" x2="18767" y2="10512"/>
					<path id="Line_358_00000158019167817143033140000005428033108448155818_" class="st2" d="M18777.2,10506.1"/>
					
						<line id="Line_359_00000026163012124400345270000011805728291244359577_" class="st2" x1="18781.6" y1="10512.1" x2="18781.6" y2="10498.9"/>
					
						<line id="Line_359_00000056396963124387990900000011868469940480386700_" class="st2" x1="18752.5" y1="10512.1" x2="18752.5" y2="10498.9"/>
					<polygon class="st2" points="18781.6,10498.8 18752.5,10498.8 18760.2,10491.8 18773.9,10491.8 					"/>
				</g>
			</g>
		</g>
		<g>
			<g id="Group_1204_00000124129674729990223920000017358631309052884402_" transform="translate(-18474 -14576)">
				<g id="Group_1171_00000112599822274541752010000013086858738570595975_" transform="translate(-147.655 4171.896)">
					<path id="Path_655_00000048485006280980107110000006511880812910600577_" class="st2" d="M18751.5,10493.5v-3.7
						c0-0.9-0.7-1.6-1.6-1.6l0,0c-0.9,0-1.6,0.7-1.6,1.6v3.7H18751.5z"/>
					<path class="st2" d="M18769.7,10491.7v-1.9c0-0.9-0.8-1.6-1.6-1.6c-0.9,0-1.6,0.7-1.6,1.6v1.9H18769.7z"/>
					<path id="Path_662_00000096034417404478346400000004106677388382400905_" class="st2" d="M18755.5,10495.9v-4
						c0.1-2,1.7-3.6,3.8-3.6l0,0c2,0,3.7,1.4,3.8,3.5l0-0.3"/>
					<path id="Line_347_00000113338500793152200350000012154105863164177297_" class="st2" d="M18744.5,10484.1"/>
					<path id="Line_347_00000127038649668990413510000006980107101190106033_" class="st2" d="M18744.5,10492.2"/>
					<path id="Path_671_00000076566287209361873020000005274076881084364970_" class="st2" d="M18768.3,10488"/>
					<path id="Line_358_00000100371778822415321560000011452248575039510685_" class="st2" d="M18769.5,10491.4"/>
					
						<line id="Line_359_00000126314037431434326550000009111514193564004226_" class="st2" x1="18773.9" y1="10491.8" x2="18773.9" y2="10484.1"/>
					
						<line id="Line_359_00000132089258031547112510000015480686783681604500_" class="st2" x1="18744.8" y1="10491.8" x2="18744.8" y2="10484.1"/>
					<polygon class="st2" points="18773.9,10484 18744.8,10484 18752.5,10477 18766.2,10477 					"/>
				</g>
			</g>
		</g>
		<g>
			<g id="Group_1204_00000021797734344962233220000001004660293518592643_" transform="translate(-18474 -14576)">
				<g id="Group_1171_00000149370000301463244010000001932754072635818374_" transform="translate(-147.655 4171.896)">
					<path id="Path_655_00000120538868649461752680000003538415487763477412_" class="st2" d="M18735.8,10508.3v-3.7
						c0-0.9-0.8-1.6-1.6-1.6l0,0c-0.9,0-1.6,0.7-1.6,1.6v3.7H18735.8z"/>
					<path id="Path_659_00000080189069272897758470000014054056858456054173_" class="st2" d="M18741.3,10508.3v-3.7
						c0-0.9-0.8-1.6-1.6-1.6l0,0c-0.9,0-1.6,0.7-1.6,1.6v3.7H18741.3z"/>
					<path id="Path_662_00000031173512986170930910000005981357336453521064_" class="st2" d="M18744,10512v-5.4
						c0-2,1.3-3.6,2.8-3.6l0,0c1.5,0,2.8,1.6,2.8,3.6v5.4"/>
					
						<line id="Line_345_00000130615411785058864070000013761415440348680092_" class="st2" x1="18730" y1="10512.1" x2="18752.5" y2="10512.1"/>
					<path id="Path_671_00000121253090246237435040000002649202612965868442_" class="st2" d="M18751.2,10502.7"/>
					<path id="Line_358_00000019658136168953210470000007632994628073396609_" class="st2" d="M18752.4,10506.1"/>
					
						<line id="Line_359_00000132802271173118577200000016415433335490473862_" class="st2" x1="18752.5" y1="10512.1" x2="18752.5" y2="10498.9"/>
					
						<line id="Line_359_00000112625183056881738040000008102080720633858205_" class="st2" x1="18730" y1="10512.1" x2="18730" y2="10498.9"/>
					<polygon class="st2" points="18752.5,10498.9 18730,10498.9 18737.1,10491.9 18745.4,10491.9 					"/>
				</g>
			</g>
		</g>
		<g>
			<g id="Group_1204_00000072272894563752849990000008491117328678238088_" transform="translate(-18474 -14576)">
				<g id="Group_1171_00000077294514320005736410000006025601154126415283_" transform="translate(-147.655 4171.896)">
					
						<line id="Line_345_00000111883882319079774070000016712709027346657979_" class="st2" x1="18781.6" y1="10505" x2="18796.6" y2="10505"/>
					<path id="Path_671_00000077319930846047288390000006943091536648879028_" class="st2" d="M18795.3,10495.7"/>
					<path id="Line_358_00000006693855045937364610000001887916236082053014_" class="st2" d="M18796.5,10499.1"/>
					
						<line id="Line_359_00000056421558932727338070000003057031863995358853_" class="st2" x1="18796.6" y1="10505" x2="18796.6" y2="10491.8"/>
					<path id="Line_359_00000121259816288684189680000015887807169191515831_" class="st2" d="M18774.1,10491.8"/>
					<path id="Line_359_00000073686947258554689400000010270749958676686720_" class="st2" d="M18774.1,10505"/>
					<polygon class="st2" points="18796.6,10491.8 18774.1,10491.8 18781.2,10484.8 18789.6,10484.8 					"/>
					<path id="Path_659_00000021115679688684044210000015956074334453604010_" class="st2" d="M18794.2,10500.5v-3.7
						c0-0.9-0.8-1.6-1.6-1.6l0,0c-0.9,0-1.6,0.7-1.6,1.6v3.7H18794.2z"/>
					<path id="Path_662_00000105386928936631418250000003919181087501400462_" class="st2" d="M18784,10504.3v-5.4
						c0-2,1.2-3.7,2.5-3.6l0,0c1.4,0,2.5,1.6,2.5,3.6v5.4"/>
				</g>
			</g>
		</g>
	</g>
	<g>
		<path class="st3" d="M54.3,78.7c6.3-6.7,10.2-25.6,12.3-34.4c1.2-5,9.8,6.6,13.6-4.9C81,36.9,87.4,10,91.1,6.1
			c2.7-2.9,3.3,0.9,4.5,2.2c2.5,2.5,4.8-3.6,7.7-2.3c3.9,1.8-0.7,7.2,10.3,1.1c7-3.9,13.3,36.9,27.5,65.9"/>
		<path id="Path_659_00000054258279010229783450000000390921636156447167_" class="st4" d="M109.7,20.2v-2.7c0-0.6,0.5-1.1,1.2-1.1
			l0,0c0.6,0,1.2,0.5,1.2,1.1v2.7H109.7z"/>
		<path id="Path_659_00000101787535693586120660000004272471131681529533_" class="st4" d="M90.3,38.2v-2.7c0-0.6-0.5-1.1-1.2-1.1
			l0,0c-0.6,0-1.2,0.5-1.2,1.1v2.7H90.3z"/>
		<path id="Path_659_00000106116973375790568350000006473972949099680385_" class="st5" d="M95.4,24.5v-1.6c0-0.4-0.3-0.7-0.7-0.7
			l0,0c-0.4,0-0.7,0.3-0.7,0.7v1.6H95.4z"/>
		<path id="Path_659_00000101803199314080413580000002239114072712630691_" class="st4" d="M104.7,54.2v-2.7c0-0.6-0.5-1.1-1.2-1.1
			l0,0c-0.6,0-1.2,0.5-1.2,1.1v2.7H104.7z"/>
		<path id="Path_659_00000120547837004877368790000010246566715865805728_" class="st5" d="M74,53.4v-1.6c0-0.4,0.3-0.7,0.7-0.7l0,0
			c0.4,0,0.7,0.3,0.7,0.7v1.6H74z"/>
		<path id="Path_659_00000178193665351066517440000007868117398590530494_" class="st5" d="M105,37.4v-1.6c0-0.4,0.3-0.7,0.7-0.7
			l0,0c0.4,0,0.7,0.3,0.7,0.7v1.6H105z"/>
		<path id="Path_659_00000021814767635046603690000000511339703671207299_" class="st5" d="M121.7,40.5v-1.6c0-0.4,0.3-0.7,0.7-0.7
			l0,0c0.4,0,0.7,0.3,0.7,0.7v1.6H121.7z"/>
	</g>
	<g>
		<path class="st2" d="M160.2,72.2c0.6,3.4-0.5,6.2-4.7,6.2c-4.3,0-5.2-2.8-4.7-6.2c0.5-3.5,2.6-6.2,4.7-6.2
			C157.4,66,159.6,68.6,160.2,72.2z"/>
		<path class="st2" d="M155.5,69.3c0,3.9,0,11.4,0,15.4"/>
		<line class="st2" x1="157.1" y1="71.6" x2="155.6" y2="72.9"/>
		<line class="st2" x1="158.1" y1="74.1" x2="155.5" y2="76.3"/>
		<line class="st2" x1="154" y1="71.6" x2="155.5" y2="72.8"/>
		<line class="st2" x1="152.9" y1="74.1" x2="155.5" y2="76.2"/>
	</g>
	<g>
		<path class="st2" d="M39.5,110.3c0.6,3.4-0.5,6.2-4.7,6.2c-4.3,0-5.2-2.8-4.7-6.2c0.5-3.5,2.6-6.2,4.7-6.2
			C36.6,104.1,38.8,106.6,39.5,110.3z"/>
		<path class="st2" d="M34.8,107.4c0,3.9,0,8.2,0,12.1"/>
		<line class="st2" x1="36.3" y1="109.7" x2="34.8" y2="111"/>
		<line class="st2" x1="37.4" y1="112.2" x2="34.8" y2="114.4"/>
		<line class="st2" x1="33.3" y1="109.6" x2="34.8" y2="110.9"/>
		<line class="st2" x1="32.2" y1="112.1" x2="34.8" y2="114.3"/>
	</g>
	<g>
		<g>
			<path class="st2" d="M176.1,100.7c0-2.2,1.2-3.7,2.8-4.5c-0.1-0.4-0.2-0.8-0.2-1.2c0-2.2,1.6-4,3.6-4c1,0,1.9,0.5,2.6,1.2
				c0.5-0.4,1.2-0.6,1.9-0.6c2,0,3.6,1.8,3.6,4c0,0.5-0.1,0.9-0.2,1.4c1,0.9,1.6,2.3,1.6,3.8c0,2.7-2,4.9-4.4,4.9
				c-1.1,0-2.2-0.5-3-1.3c-0.9,1.2-2.3,1.9-3.7,1.9c0,0-0.4-2.3-1.6-3.7C177.3,100.3,176.1,100.8,176.1,100.7z"/>
			<path class="st2" d="M184.5,95.6c0,4.8,0,8.9,0,13.8"/>
			<line class="st2" x1="186.6" y1="96.5" x2="184.5" y2="98.2"/>
			<line class="st2" x1="182.5" y1="97.8" x2="184.5" y2="99.6"/>
			<line class="st2" x1="181" y1="99.9" x2="184.5" y2="102.9"/>
			<line class="st2" x1="187.7" y1="98.9" x2="184.6" y2="101.5"/>
		</g>
		<g>
			<path class="st2" d="M171.4,106.9c-0.6,3.4,0.5,6.2,4.7,6.2c4.3,0,5.2-2.8,4.7-6.2c-0.5-3.6-2.7-6.2-4.7-6.2
				C174.3,100.7,172.1,103.2,171.4,106.9z"/>
			<path class="st2" d="M176.1,105c0,3.6,0,7.3,0,10.9"/>
			<line class="st2" x1="174.6" y1="106.8" x2="176.1" y2="108.1"/>
			<line class="st2" x1="173.5" y1="108.8" x2="176.1" y2="110.9"/>
			<line class="st2" x1="177.6" y1="106.8" x2="176.1" y2="108.1"/>
			<line class="st2" x1="178.7" y1="108.7" x2="176.1" y2="110.9"/>
		</g>
	</g>
	<g>
		<g>
			<path class="st2" d="M49.6,72.5c0-2.2-1.2-3.7-2.8-4.5c0.1-0.4,0.2-0.8,0.2-1.2c0-2.2-1.6-4-3.6-4c-1,0-1.9,0.5-2.6,1.2
				c-0.5-0.4-1.2-0.6-1.9-0.6c-2,0-3.6,1.8-3.6,4c0,0.5,0.1,0.9,0.2,1.4c-1,0.9-1.6,2.3-1.6,3.8c0,2.7,2,4.9,4.4,4.9
				c1.1,0,2.2-0.5,3-1.3c0.9,1.2,2.3,1.9,3.7,1.9c0,0,0.4-2.3,1.6-3.7C48.4,72.2,49.6,72.6,49.6,72.5z"/>
			<path class="st2" d="M41.2,67.5c0,4.8,0,8.9,0,13.8"/>
			<line class="st2" x1="39.1" y1="68.4" x2="41.2" y2="70.1"/>
			<line class="st2" x1="43.2" y1="69.7" x2="41.2" y2="71.4"/>
			<line class="st2" x1="44.7" y1="71.8" x2="41.2" y2="74.7"/>
			<line class="st2" x1="38" y1="70.8" x2="41.1" y2="73.4"/>
		</g>
		<g>
			<path class="st2" d="M54.3,78.7c0.6,3.4-0.5,6.2-4.7,6.2c-4.3,0-5.2-2.8-4.7-6.2c0.5-3.6,2.7-6.2,4.7-6.2
				C51.4,72.5,53.6,75,54.3,78.7z"/>
			<path class="st2" d="M49.6,76.9c0,3.6,0,7.3,0,10.9"/>
			<line class="st2" x1="51.1" y1="78.7" x2="49.6" y2="80"/>
			<line class="st2" x1="52.2" y1="80.6" x2="49.6" y2="82.8"/>
			<line class="st2" x1="48.1" y1="78.6" x2="49.6" y2="79.9"/>
			<line class="st2" x1="47" y1="80.6" x2="49.6" y2="82.8"/>
		</g>
	</g>
	<g>
		<g>
			<path class="st2" d="M107.5,111.3c0-1.8-0.9-3-2.3-3.7c0.1-0.3,0.1-0.6,0.1-1c0-1.8-1.3-3.3-2.9-3.3c-0.8,0-1.5,0.4-2.1,1
				c-0.4-0.3-1-0.5-1.5-0.5c-1.6,0-2.9,1.5-2.9,3.3c0,0.4,0.1,0.8,0.2,1.1c-0.8,0.7-1.3,1.8-1.3,3.1c0,2.2,1.6,4,3.6,4
				c0.9,0,1.8-0.4,2.4-1.1c0.7,1,1.8,1.6,3,1.6c0,0,0.4-1.9,1.3-3C106.5,111,107.5,111.4,107.5,111.3z"/>
			<path class="st2" d="M100.7,106.8c0,4.4,0,8.1,0,12.5"/>
			<line class="st2" x1="99" y1="107.9" x2="100.7" y2="109.3"/>
			<line class="st2" x1="102.4" y1="109" x2="100.7" y2="110.4"/>
			<line class="st2" x1="103.5" y1="110.7" x2="100.7" y2="113.1"/>
			<line class="st2" x1="98.1" y1="109.9" x2="100.6" y2="112"/>
		</g>
		<g>
			<path class="st2" d="M111.4,116.3c0.5,2.7-0.4,5-3.9,5c-3.5,0-4.2-2.3-3.9-5c0.4-2.9,2.2-5,3.9-5
				C109,111.3,110.8,113.3,111.4,116.3z"/>
			<path class="st2" d="M107.5,114.8c0,3,0,5.9,0,8.9"/>
			<line class="st2" x1="108.8" y1="116.3" x2="107.5" y2="117.4"/>
			<line class="st2" x1="109.6" y1="117.9" x2="107.5" y2="119.7"/>
			<line class="st2" x1="106.3" y1="116.3" x2="107.5" y2="117.3"/>
			<line class="st2" x1="105.4" y1="117.8" x2="107.5" y2="119.6"/>
		</g>
	</g>
</g>
</svg>
