<?xml version="1.0" encoding="utf-8"?>
<!-- Generator: Adobe Illustrator 26.4.1, SVG Export Plug-In . SVG Version: 6.00 Build 0)  -->
<svg version="1.1" id="Layer_1" xmlns="http://www.w3.org/2000/svg" xmlns:xlink="http://www.w3.org/1999/xlink" x="0px" y="0px"
	 width="215px" height="134px" viewBox="0 0 215 134" style="enable-background:new 0 0 215 134;" xml:space="preserve">
<style type="text/css">
	.st0{display:none;fill:#C4A377;}
	.st1{fill:none;stroke:#C4A377;stroke-miterlimit:10;}
	.st2{fill:none;stroke:#FFFFFF;stroke-linecap:round;stroke-linejoin:round;stroke-miterlimit:10;}
</style>
<rect x="-55" y="-47" class="st0" width="378" height="231"/>
<g id="PAŞAVBAĞ_VADİSİ_00000039844903909197079470000009825613645985331594_">
	<path id="Line_172_00000125571058139627910270000009962374722016469891_" class="st1" d="M230.3,128"/>
	<path id="Line_172_00000147197347246900351460000000688371554653070526_" class="st1" d="M-15.3,127.9"/>
	<path class="st2" d="M115.1,64.2c-2.6-11.9-1.4-21.3-6.1-26.6"/>
	<path class="st2" d="M89.6,78.4c0.7-9,4-14.1,6.6-37.9"/>
	<path class="st2" d="M90.9,39.5c-1.1,3,5.3,0.5,12.2-1.1c6.3-1.4,14.9-2,12.4-4c-6.6-5.3-7.2-8.5-13.6-7.8
		C96.2,27.2,92.7,34.7,90.9,39.5z"/>
	<path class="st2" d="M113.7,122.3c-1.4-26.1,2.3-34.6,1.6-48.8c-1.1-20,2.5-24.4,3.3-48.7"/>
	<path class="st2" d="M160.7,120.6c0-7-4.9-21.1-5-30.7c-0.2-17.6-6.7-22.7-6.9-32.6c-0.1-11-10-12.6-10.8-30.1"/>
	<path class="st2" d="M145.8,21.1c3,3.9-6.6,7.3-16.2,5.6c-18.6-3.3-17.8-8.3-14.3-11c6-4.5,12.9-9.2,16.3-9.7
		C135.2,5.6,139.8,13.2,145.8,21.1z"/>
	<path id="Path_659_00000180329989859361441810000017840828691877227918_" class="st2" d="M106,82.5v-5.8c0-1.4-1.2-2.5-2.5-2.4l0,0
		c-1.4,0-2.5,1.1-2.5,2.4v5.8H106z"/>
	<path id="Path_659_00000103972281213347064500000003436565528136637576_" class="st2" d="M129.2,58.7V53c0-1.4,1.2-2.5,2.5-2.4l0,0
		c1.4,0,2.5,1.1,2.5,2.4v5.8H129.2z"/>
	<path id="Path_659_00000031925411609422868890000003662252401062323091_" class="st2" d="M104.9,61.1v-3.4c0-0.8-0.7-1.4-1.5-1.4
		l0,0c-0.8,0-1.5,0.6-1.5,1.4v3.4H104.9z"/>
	<path class="st2" d="M58.6,117.6C62,105,58.7,100,58.2,88.7c-1-22.3,5.6-41,7.8-63.6"/>
	<path class="st2" d="M99.7,120.6c0.3-12.4-1.4-18.1-4.7-26.1c-7.7-18.8-9.3-32.3-9.6-65.2"/>
	<path class="st2" d="M89.6,27.2c0.4,4.4-4.5,0.7-14-1.5c-8.7-2-20.6-2.8-17.1-5.5c9.1-7.2,10-12.6,18.7-10.7
		C83,10.8,89.1,22.8,89.6,27.2z"/>
	<path id="Path_659_00000165228747761052681290000000811612257846174098_" class="st2" d="M70,57.2v-5.8c0-1.4,1.2-2.5,2.5-2.4l0,0
		c1.4,0,2.5,1.1,2.5,2.4v5.8H70z"/>
	<path id="Path_659_00000015317905696406535670000014481415150396526990_" class="st2" d="M66,76.6v-3.4c0-0.8,0.7-1.4,1.5-1.4l0,0
		c0.8,0,1.5,0.6,1.5,1.4v3.4H66z"/>
	<path id="Path_659_00000090264325084585964800000008348432431573017221_" class="st2" d="M142.9,78.4v-3.4c0-0.8,0.7-1.4,1.5-1.4
		l0,0c0.8,0,1.5,0.6,1.5,1.4v3.4H142.9z"/>
	<path id="Path_659_00000029036337206484167530000008462872890743355016_" class="st2" d="M131.7,96.9v-3.4c0-0.8,0.7-1.4,1.5-1.4
		l0,0c0.8,0,1.5,0.6,1.5,1.4v3.4H131.7z"/>
</g>
</svg>
