<?xml version="1.0" encoding="utf-8"?>
<!-- Generator: Adobe Illustrator 26.4.1, SVG Export Plug-In . SVG Version: 6.00 Build 0)  -->
<svg version="1.1" id="Layer_1" xmlns="http://www.w3.org/2000/svg" xmlns:xlink="http://www.w3.org/1999/xlink" x="0px" y="0px"
	 width="215px" height="134px" viewBox="0 0 215 134" style="enable-background:new 0 0 215 134;" xml:space="preserve">
<style type="text/css">
	.st0{display:none;fill:#C4A377;}
	.st1{fill:none;stroke:#C4A377;stroke-miterlimit:10;}
	.st2{fill:none;stroke:#FFFFFF;stroke-width:0.85;stroke-linecap:round;stroke-linejoin:round;stroke-miterlimit:10;}
	.st3{fill:none;stroke:#FFFFFF;stroke-linecap:round;stroke-linejoin:round;stroke-miterlimit:10;}
	.st4{fill:none;stroke:#FFFFFF;stroke-width:0.5;stroke-linecap:round;stroke-linejoin:round;stroke-miterlimit:10;}
</style>
<rect x="-52" y="-30" class="st0" width="378" height="231"/>
<g id="UÇHİSAR_00000052808938798633428050000003537806765108931994_">
	<path id="Line_172_00000109713421170444741130000009143002898793476753_" class="st1" d="M223.7,130.5"/>
	<path id="Line_172_00000180324926879006374920000017728318655399473307_" class="st1" d="M-8.7,130.5"/>
	<g>
		<g>
			<g id="Group_1204_00000183243485764175291440000006831550517731123596_" transform="translate(-18474 -14576)">
				<g id="Group_1171_00000019675915282588744970000005219380244094126012_" transform="translate(-147.655 4171.896)">
					<path id="Path_655_00000171705855061615672920000013486697428236015009_" class="st2" d="M18733.4,10523.1v-5.2
						c0-1.2-1.1-2.2-2.3-2.2l0,0c-1.2,0-2.3,1-2.3,2.2v5.2H18733.4z"/>
					<path id="Path_659_00000094592024856027620110000002968115974357813915_" class="st2" d="M18759,10523.1v-5.2
						c0-1.2-1.1-2.2-2.3-2.2l0,0c-1.2,0-2.3,1-2.3,2.2v5.2H18759z"/>
					<path id="Path_662_00000096053587274624464180000000287322950589183147_" class="st2" d="M18739,10528.4v-7.6
						c0.1-2.9,2.4-5.1,5.3-5.1l0,0c2.9-0.1,5.2,2.2,5.3,5.1v7.6"/>
					
						<line id="Line_345_00000013898743021895000670000014442397470061116069_" class="st2" x1="18724" y1="10528.5" x2="18764.9" y2="10528.5"/>
					<path id="Line_347_00000076566767128233489200000008464709989341418405_" class="st2" d="M18723.6,10509.9"/>
					<path id="Line_347_00000165933052650883659990000011413586536953409158_" class="st2" d="M18723.6,10521.2"/>
					<path id="Path_671_00000010312863045602948300000017094929062305418885_" class="st2" d="M18757,10515.3"/>
					
						<line id="Line_355_00000134937736295140746030000008073525101705168055_" class="st2" x1="18739.1" y1="10520.6" x2="18749.6" y2="10520.6"/>
					
						<line id="Line_355_00000152979690223858443020000002267920259674737830_" class="st2" x1="18744.4" y1="10520.6" x2="18744.4" y2="10528.3"/>
					<path id="Line_358_00000110447754594347773550000002731536958687770280_" class="st2" d="M18758.7,10520.1"/>
					
						<line id="Line_359_00000001649278944817173520000016829530849915433656_" class="st2" x1="18764.9" y1="10528.5" x2="18764.9" y2="10509.9"/>
					
						<line id="Line_359_00000021827856791804151710000008366555173004366989_" class="st2" x1="18724" y1="10528.5" x2="18724" y2="10509.9"/>
					<polygon class="st2" points="18764.9,10509.7 18724,10509.7 18734.8,10499.9 18754.1,10499.9 					"/>
				</g>
			</g>
		</g>
		<g>
			<g id="Group_1204_00000115490756379341295460000010522141478646573747_" transform="translate(-18474 -14576)">
				<g id="Group_1171_00000093163532732334455170000011268900235928424578_" transform="translate(-147.655 4171.896)">
					<path id="Path_655_00000078006536688601113630000002293726742239201471_" class="st2" d="M18722.5,10502.4v-5.2
						c0-1.2-1.1-2.2-2.3-2.2l0,0c-1.2,0-2.3,1-2.3,2.2v5.2H18722.5z"/>
					<path class="st2" d="M18748.1,10499.8v-2.7c0-1.2-1.1-2.2-2.3-2.2c-1.2,0-2.3,1-2.3,2.2v2.7H18748.1z"/>
					<path id="Path_662_00000164474843544384024190000008129194853707845538_" class="st2" d="M18728.2,10505.7v-5.6
						c0.1-2.9,2.4-5.1,5.3-5.1l0,0c2.9-0.1,5.2,2,5.3,4.9l0-0.4"/>
					<path id="Line_347_00000103972270559982893910000009841118197407272609_" class="st2" d="M18712.7,10489.2"/>
					<path id="Line_347_00000085944550486216887720000016003089787316389527_" class="st2" d="M18712.7,10500.4"/>
					<path id="Path_671_00000012466997317219487250000018303765112125204362_" class="st2" d="M18746.2,10494.6"/>
					<path id="Line_358_00000181806206471537208890000000668758288638074032_" class="st2" d="M18747.8,10499.4"/>
					
						<line id="Line_359_00000088854645530643635240000009748712154987793287_" class="st2" x1="18754" y1="10499.9" x2="18754" y2="10489.2"/>
					
						<line id="Line_359_00000122722818431243329520000009713317245230214810_" class="st2" x1="18713.1" y1="10499.9" x2="18713.1" y2="10489.2"/>
					<polygon class="st2" points="18754,10489 18713.1,10489 18724,10479.2 18743.2,10479.2 					"/>
				</g>
			</g>
		</g>
		<g>
			<g id="Group_1204_00000072253648336462021460000009256196715994152362_" transform="translate(-18474 -14576)">
				<g id="Group_1171_00000078748142500097772480000017899670275471463829_" transform="translate(-147.655 4171.896)">
					<path id="Path_655_00000135657200482355400620000000782834436062862220_" class="st2" d="M18700.4,10523.1v-5.2
						c0-1.2-1.1-2.2-2.3-2.2l0,0c-1.2,0-2.3,1-2.3,2.2v5.2H18700.4z"/>
					<path id="Path_659_00000045611100263391542300000004323693664612249517_" class="st2" d="M18708.2,10523.1v-5.2
						c0-1.2-1.1-2.2-2.3-2.2l0,0c-1.2,0-2.3,1-2.3,2.2v5.2H18708.2z"/>
					<path id="Path_662_00000041253843747354267970000001888627063552656553_" class="st2" d="M18712,10528.4v-7.6
						c0.1-2.9,1.8-5.1,3.9-5.1l0,0c2.1-0.1,3.9,2.2,3.9,5.1v7.6"/>
					
						<line id="Line_345_00000091707483726457966220000018011131731248022973_" class="st2" x1="18692.3" y1="10528.5" x2="18724" y2="10528.5"/>
					<path id="Path_671_00000106831180317843811530000015611873903429329547_" class="st2" d="M18722.1,10515.3"/>
					<path id="Line_358_00000062193419111789614030000003120138063227904427_" class="st2" d="M18723.8,10520.1"/>
					
						<line id="Line_359_00000130609000467558769180000000014104772945777322_" class="st2" x1="18724" y1="10528.5" x2="18724" y2="10509.9"/>
					
						<line id="Line_359_00000156552427920548509120000008520387448239356819_" class="st2" x1="18692.3" y1="10528.5" x2="18692.3" y2="10509.9"/>
					<polygon class="st2" points="18724,10509.9 18692.3,10509.9 18702.2,10500 18714,10500 					"/>
				</g>
			</g>
		</g>
		<g>
			<g id="Group_1204_00000097500430663167073920000011883377044241804934_" transform="translate(-18474 -14576)">
				<g id="Group_1171_00000151539247193888423980000004153218814413414577_" transform="translate(-147.655 4171.896)">
					<path id="Path_659_00000049902341005866999980000014633328434632225156_" class="st2" d="M18782.2,10513.2v-5.2
						c0-1.2-1.1-2.2-2.3-2.2l0,0c-1.2,0-2.3,1-2.3,2.2v5.2H18782.2z"/>
					<path id="Path_662_00000145053491501144162590000008876888819705106331_" class="st2" d="M18767.2,10518.5v-7.6
						c0.1-2.9,1.8-5.1,3.9-5.1l0,0c2.1-0.1,3.9,2.2,3.9,5.1v7.6"/>
					
						<line id="Line_345_00000063613880003690366340000013401824795150130587_" class="st2" x1="18764.9" y1="10518.5" x2="18786" y2="10518.5"/>
					<path id="Path_671_00000159438865519146240550000005934416487151394442_" class="st2" d="M18784.2,10505.4"/>
					<path id="Line_358_00000009576381434858774830000014573797726591114642_" class="st2" d="M18785.9,10510.2"/>
					
						<line id="Line_359_00000023966733198366982920000008429407333475182229_" class="st2" x1="18786" y1="10518.5" x2="18786" y2="10499.9"/>
					<path id="Line_359_00000045601426375327361660000005273616778829140638_" class="st2" d="M18754.4,10499.9"/>
					<path id="Line_359_00000122709756867726296240000013580066805184722560_" class="st2" d="M18754.4,10518.5"/>
					<polygon class="st2" points="18786,10499.9 18754.4,10499.9 18764.3,10490.1 18776.1,10490.1 					"/>
				</g>
			</g>
		</g>
		<g>
			<g id="Group_1204_00000022555597729786554740000001613602304407346829_" transform="translate(-18474 -14576)">
				<g id="Group_1171_00000135665124205138999480000014994511510601423276_" transform="translate(-147.655 4171.896)">
					<path id="Path_659_00000183225891957458622670000016749988753258936455_" class="st2" d="M18674.5,10513.2v-5.2
						c0-1.2,1.1-2.2,2.3-2.2l0,0c1.2,0,2.3,1,2.3,2.2v5.2H18674.5z"/>
					<path id="Path_662_00000052790063759890163020000016892307704906332560_" class="st2" d="M18689.5,10518.5v-7.6
						c-0.1-2.9-1.8-5.1-3.9-5.1l0,0c-2.1-0.1-3.9,2.2-3.9,5.1v7.6"/>
					
						<line id="Line_345_00000116955640409199188270000006348055218349545638_" class="st2" x1="18691.7" y1="10518.5" x2="18670.6" y2="10518.5"/>
					<path id="Path_671_00000067216915492177524750000012139741285176319675_" class="st2" d="M18672.5,10505.4"/>
					<path id="Line_358_00000049223164559310087970000000164150648893011366_" class="st2" d="M18670.8,10510.2"/>
					
						<line id="Line_359_00000172412771763139733140000017521667590370004117_" class="st2" x1="18670.6" y1="10518.5" x2="18670.6" y2="10499.9"/>
					<path id="Line_359_00000163037561590922094330000003510422858196163728_" class="st2" d="M18702.2,10499.9"/>
					<path id="Line_359_00000158716994677095678800000010369558030731400122_" class="st2" d="M18702.2,10518.5"/>
					<polygon class="st2" points="18670.6,10499.9 18702.2,10499.9 18692.3,10490.1 18680.5,10490.1 					"/>
				</g>
			</g>
		</g>
	</g>
	<g>
		<path class="st3" d="M68,63.7c-1.2-3-1.5-6.6-4.4-10.7c-1.4-1.9-3.3-6-3.8-8.3c-0.1-0.4-0.2-0.8-0.5-1.1c-0.7-0.7-1.8-0.4-2.7,0
			c-1.6,0.7-3.4,1.8-3.9,3.5c-0.2,0.8-0.2,1.7-0.1,2.6c0.2,4.3-1.9,6-4.2,9.7c-0.7,1.1-5.2-3.9-6.9-0.4c-0.7,1.5-6.3,26.2-13.3,32"
			/>
		<path class="st3" d="M84.3,77.2c4.6-5.1,3.7-13.5,6.6-17.6c1.4-1.9,5.1-10.1,9-8.1c0.8,0.4,2,3.9,2,4.8c-0.2,4.3,9.4,5.7,11.1,9.2
			c0.7,1.5,1.4,3.7,8.4,9.5"/>
		<path class="st3" d="M181.2,93.1c-2.7-2.9-4.5-7.4-5.4-11.2c-0.5-2.2-0.1-4.3-0.4-6.4c-0.6-5.4-5.1-8.8-6.7-13.8
			c-0.4-1.1-1.2-6.2-3.2-5c-0.7,0.4-0.2,1.8-0.7,2.3c-1.1,1.1-2.5-0.3-3.7,0.3c-1.7,0.8-1.9,3.9-2.4,5.4c-0.5,1.6-2,8-3.7,7.7
			c-1.3-0.2-2.2-4.6-3.6-4.5c-1,0.1-4.3,7.1-4.8,8.1"/>
		<path class="st3" d="M62.5,86c6.2-6.6,4.2-16.7,6.2-25.4c1.1-4.9,7.3-9.1,7.9-14c1.4-12.3,2.2-19.9,5.9-31.2
			c0.8-2.5,2.6-14.1,7.2-11.4c1.7,1,0.5,4,1.7,5.2c2.4,2.5,5.6-0.7,8.5,0.6c3.8,1.8,4.3,8.7,5.3,12.2c1,3.6,4.6,18.1,8.5,17.4
			c3-0.6,5.5-8.6,8.1-10.2c2.8-1.7,20,32.6,17.9,45"/>
		<path class="st3" d="M132.8,45.6c6.7-12.8,7.2-31.2,15.8-16c3.2,6.8,2.4,14.7,4.5,21.9c1.6,5.5,4.6,10.4,3.5,19.7"/>
		<path id="Path_659_00000162335966132147668890000002816171137233288369_" class="st2" d="M94.1,30.5v-2.7c0-0.6,0.5-1.1,1.2-1.1
			l0,0c0.6,0,1.2,0.5,1.2,1.1v2.7H94.1z"/>
		<path id="Path_659_00000132088134409402883440000005065527829463342525_" class="st4" d="M90.2,23.4v-1.6c0-0.4,0.3-0.7,0.7-0.7
			l0,0c0.4,0,0.7,0.3,0.7,0.7v1.6H90.2z"/>
		<path id="Path_659_00000154401461207200161380000006248283962603835288_" class="st2" d="M121.2,58.9v-2.7c0-0.6-0.5-1.1-1.2-1.1
			l0,0c-0.6,0-1.2,0.5-1.2,1.1v2.7H121.2z"/>
		<path id="Path_659_00000092430232497665091860000011860954918445819818_" class="st4" d="M125,51.8v-1.6c0-0.4-0.3-0.7-0.7-0.7
			l0,0c-0.4,0-0.7,0.3-0.7,0.7v1.6H125z"/>
		<path id="Path_659_00000075139452565275331460000000960520787806517677_" class="st2" d="M143.3,45v-2.7c0-0.6-0.5-1.1-1.2-1.1
			l0,0c-0.6,0-1.2,0.5-1.2,1.1V45H143.3z"/>
		<path id="Path_659_00000089555906096480550890000012690268786378592385_" class="st2" d="M58.6,68v-2.7c0-0.6-0.5-1.1-1.2-1.1l0,0
			c-0.6,0-1.2,0.5-1.2,1.1V68H58.6z"/>
	</g>
	<g>
		<path class="st2" d="M87.5,82.1c0.1-0.3,0.1-0.7,0.1-1.1c0-2.1-1.5-3.7-3.3-3.7c-0.9,0-1.8,0.4-2.4,1.1c-0.5-0.3-1.1-0.6-1.7-0.6
			c-1.8,0-3.3,1.7-3.3,3.7c0,0.4,0.1,0.9,0.2,1.3c-0.9,0.8-1.5,2.1-1.5,3.5c0,2.5,1.8,4.5,4,4.5c1.1,0,2-0.5,2.7-1.2
			c0.8,1.1,2,1.8,3.4,1.8c2.4,0,4.4-2.2,4.4-4.9C90.1,84.5,89,82.8,87.5,82.1z"/>
		<path class="st2" d="M82.3,81.3c0,4.5,0,9.9,0,14.4"/>
		<line class="st2" x1="80.4" y1="82.1" x2="82.3" y2="83.7"/>
		<line class="st2" x1="84.2" y1="83.4" x2="82.3" y2="85"/>
		<line class="st2" x1="85.6" y1="85.6" x2="82.3" y2="88.3"/>
		<line class="st2" x1="79.4" y1="84.7" x2="82.2" y2="87.1"/>
	</g>
	<g>
		<path class="st2" d="M142,79.4c0.6,3.3-0.5,6.1-4.7,6.1c-4.2,0-5.1-2.8-4.7-6.1c0.5-3.5,2.6-6.1,4.7-6.1
			C139.2,73.3,141.3,75.8,142,79.4z"/>
		<path class="st2" d="M137.4,76.5c0,3.8,0,10.6,0,14.4"/>
		<line class="st2" x1="138.9" y1="78.8" x2="137.4" y2="80.1"/>
		<line class="st2" x1="139.9" y1="81.3" x2="137.4" y2="83.4"/>
		<line class="st2" x1="135.9" y1="78.8" x2="137.3" y2="80"/>
		<line class="st2" x1="134.8" y1="81.2" x2="137.3" y2="83.4"/>
	</g>
	<g>
		<g>
			<path class="st2" d="M40.7,101.8c0-2.6-1.4-4.4-3.3-5.4c0.1-0.4,0.2-0.9,0.2-1.4c0-2.6-1.9-4.7-4.2-4.7c-1.2,0-2.2,0.5-3,1.4
				c-0.6-0.4-1.4-0.7-2.2-0.7c-2.3,0-4.2,2.1-4.2,4.7c0,0.6,0.1,1.1,0.3,1.6c-1.2,1.1-1.9,2.7-1.9,4.5c0,3.2,2.3,5.8,5.2,5.8
				c1.4,0,2.6-0.6,3.5-1.5c1,1.4,2.7,2.3,4.4,2.3c0,0,0.5-2.8,1.9-4.4C39.3,101.4,40.7,101.9,40.7,101.8z"/>
			<path class="st2" d="M30.8,95.8c0,5.7,0,10.6,0,16.3"/>
			<line class="st2" x1="28.4" y1="96.8" x2="30.8" y2="98.9"/>
			<line class="st2" x1="33.2" y1="98.4" x2="30.8" y2="100.4"/>
			<line class="st2" x1="35" y1="100.9" x2="30.8" y2="104.4"/>
			<line class="st2" x1="27.1" y1="99.7" x2="30.7" y2="102.8"/>
		</g>
		<g>
			<path class="st2" d="M46.3,109.1c0.7,4-0.6,7.3-5.6,7.3c-5.1,0-6.1-3.3-5.6-7.3c0.5-4.2,3.1-7.3,5.6-7.3
				C42.9,101.8,45.5,104.7,46.3,109.1z"/>
			<path class="st2" d="M40.8,106.9c0,4.3,0,8.6,0,12.9"/>
			<line class="st2" x1="42.6" y1="109.1" x2="40.8" y2="110.6"/>
			<line class="st2" x1="43.8" y1="111.3" x2="40.8" y2="113.9"/>
			<line class="st2" x1="38.9" y1="109" x2="40.7" y2="110.5"/>
			<line class="st2" x1="37.7" y1="111.3" x2="40.7" y2="113.9"/>
		</g>
	</g>
	<g>
		<g>
			<path class="st2" d="M172.9,104.8c0-2.6,1.4-4.4,3.3-5.4c-0.1-0.4-0.2-0.9-0.2-1.4c0-2.6,1.9-4.7,4.2-4.7c1.2,0,2.2,0.5,3,1.4
				c0.6-0.4,1.4-0.7,2.2-0.7c2.3,0,4.2,2.1,4.2,4.7c0,0.6-0.1,1.1-0.3,1.6c1.2,1.1,1.9,2.7,1.9,4.5c0,3.2-2.3,5.8-5.2,5.8
				c-1.4,0-2.6-0.6-3.5-1.5c-1,1.4-2.7,2.3-4.4,2.3c0,0-0.5-2.8-1.9-4.4C174.4,104.4,172.9,104.9,172.9,104.8z"/>
			<path class="st2" d="M182.8,98.3c0,6.4,0,11.8,0,18.2"/>
			<line class="st2" x1="185.3" y1="99.8" x2="182.8" y2="101.9"/>
			<line class="st2" x1="180.4" y1="101.4" x2="182.8" y2="103.5"/>
			<line class="st2" x1="178.7" y1="103.9" x2="182.8" y2="107.4"/>
			<line class="st2" x1="186.6" y1="102.7" x2="183" y2="105.8"/>
		</g>
		<g>
			<path class="st2" d="M167.3,112.1c-0.7,4,0.6,7.3,5.6,7.3c5.1,0,6.1-3.3,5.6-7.3c-0.5-4.2-3.1-7.3-5.6-7.3
				C170.7,104.8,168.1,107.7,167.3,112.1z"/>
			<path class="st2" d="M172.9,109.9c0,4.3,0,8.6,0,12.9"/>
			<line class="st2" x1="171.1" y1="112.1" x2="172.9" y2="113.6"/>
			<line class="st2" x1="169.8" y1="114.3" x2="172.9" y2="116.9"/>
			<line class="st2" x1="174.7" y1="112" x2="172.9" y2="113.5"/>
			<line class="st2" x1="176" y1="114.3" x2="172.9" y2="116.9"/>
		</g>
	</g>
</g>
</svg>
