<?xml version="1.0" encoding="utf-8"?>
<!-- Generator: Adobe Illustrator 26.4.1, SVG Export Plug-In . SVG Version: 6.00 Build 0)  -->
<svg version="1.1" id="Layer_1" xmlns="http://www.w3.org/2000/svg" xmlns:xlink="http://www.w3.org/1999/xlink" x="0px" y="0px"
	 width="215px" height="134px" viewBox="0 0 215 134" style="enable-background:new 0 0 215 134;" xml:space="preserve">
<style type="text/css">
	.st0{display:none;fill:#C4A377;}
	.st1{fill:none;stroke:#C4A377;stroke-miterlimit:10;}
	.st2{fill:none;stroke:#FFFFFF;stroke-linecap:round;stroke-linejoin:round;stroke-miterlimit:10;}
	.st3{fill:none;stroke:#FFFFFF;stroke-width:0.85;stroke-linecap:round;stroke-linejoin:round;stroke-miterlimit:10;}
</style>
<rect x="-137" y="-36" class="st0" width="378" height="231"/>
<g id="ÜRGÜP_00000181059834465825559760000012834608109802810767_">
	<path id="Line_172_00000143582234565631193430000012202752335547451548_" class="st1" d="M217,128.2"/>
	<path id="Line_172_00000161633515847622155370000005155907869022932380_" class="st1" d="M-2,128.2"/>
	<path class="st2" d="M68.9,121.4c8.2-25.6,5.5-54.8,8.9-69.7c2.9-12.5-1.3-16.6,0.8-26.1"/>
	<path class="st2" d="M131.4,124.5c0-7.4-14-29.9-14.1-40c-0.2-18.5-6-17.2-6.2-27.5c-0.1-11.6-10.7-13-11.5-31.5"/>
	<path class="st2" d="M151.3,120.1c-1.7-36-6.4-38.1-7.5-46.7c-1.5-11.5-2.6-20.9-5.3-26.6"/>
	<path class="st2" d="M106.9,20.6c0,5.2-6.4,5.2-16.7,5c-19.9-0.4-20.1-1.9-18.2-6.2c2.9-6.8,9.6-14.2,13.2-13.7
		C91.3,6.6,106.9,16,106.9,20.6z"/>
	<path class="st2" d="M69.4,61.9c1,3.2-4.6,4.2-9.5,3c-4.5-1.1-7.8-2.5-7.8-4.7c0-2.2,5.9-4.6,8.7-6.1
		C63.5,52.4,67.7,56.6,69.4,61.9z"/>
	<path class="st2" d="M113.3,66c7.7-14.8,2.9-16.8,6.9-24.8"/>
	<path class="st2" d="M73.9,97.2c-8.1-20.1-6.5-26.4-6.5-31.2"/>
	<path class="st2" d="M51,120.1c-3.8-23.1,6.1-48,4-56.9"/>
	<path class="st2" d="M143.6,44.9c-3.4,4-6.2,1.1-11.7-0.5c-9-2.6-18.5-3.9-15.3-7.3c7.4-7.9,12.5-10.1,16.1-9.7
		C137.6,27.8,147.6,40.2,143.6,44.9z"/>
	<path id="Path_659_00000090287823492303155580000001950471702953548473_" class="st3" d="M93.8,59.2v-6c0-1.4,1.2-2.6,2.7-2.6l0,0
		c1.4,0,2.6,1.1,2.7,2.6v6H93.8z"/>
	<path id="Path_659_00000109722718374307152380000011848704519061291935_" class="st3" d="M58.1,102v-6c0-1.4,1.2-2.6,2.7-2.6l0,0
		c1.4,0,2.6,1.1,2.7,2.6v6H58.1z"/>
	<path id="Path_659_00000051342826018909903590000000077534714762174346_" class="st3" d="M128.8,79.4v-6c0-1.4,1.2-2.6,2.7-2.6l0,0
		c1.4,0,2.6,1.1,2.7,2.6v6H128.8z"/>
	<path id="Path_659_00000082359492892019976300000009137458844709878713_" class="st3" d="M85.4,82.1v-3.5c0-0.8,0.7-1.5,1.6-1.5
		l0,0c0.8,0,1.5,0.7,1.6,1.5v3.5H85.4z"/>
	<path id="Path_659_00000147922045248252613280000011126211408893323696_" class="st3" d="M60,81.7v-3.5c0-0.8,0.7-1.5,1.6-1.5l0,0
		c0.8,0,1.5,0.7,1.6,1.5v3.5H60z"/>
	<path class="st2" d="M150.9,61c-1,3.2,4.6,1.2,9.5,0c4.5-1.1,7.2,1.6,7.2-0.6c0-2.2-5.1-7.1-8-8.7C156.8,50.1,152.5,55.7,150.9,61z
		"/>
	<path class="st2" d="M149.6,98.1c0-22.1,5.3-30,5.3-34.8"/>
	<path class="st2" d="M169.3,117.8c3.8-23.1-7.5-47.4-5.4-56.2"/>
	<path id="Path_659_00000016045419647447764830000006441429263698330512_" class="st3" d="M162.3,99.8v-6c0-1.4-1.2-2.6-2.7-2.6l0,0
		c-1.4,0-2.6,1.1-2.7,2.6v6H162.3z"/>
	<path id="Path_659_00000100349397732578996900000012395560631227960960_" class="st3" d="M160.4,79.4v-3.5c0-0.8-0.7-1.5-1.6-1.5
		l0,0c-0.8,0-1.5,0.7-1.6,1.5v3.5H160.4z"/>
	<path id="Path_659_00000026146687217298870950000001239231713710566801_" class="st3" d="M136.9,98.2v-3.5c0-0.8,0.7-1.5,1.6-1.5
		l0,0c0.8,0,1.5,0.7,1.6,1.5v3.5H136.9z"/>
	<path id="Path_659_00000056403845222973126820000006301083825930849458_" class="st3" d="M103.8,95.7v-3.5c0-0.8,0.7-1.5,1.6-1.5
		l0,0c0.8,0,1.5,0.7,1.6,1.5v3.5H103.8z"/>
</g>
</svg>
