<?xml version="1.0" encoding="utf-8"?>
<!-- Generator: Adobe Illustrator 19.0.0, SVG Export Plug-In . SVG Version: 6.00 Build 0)  -->
<svg version="1.1" id="Layer_1" xmlns="http://www.w3.org/2000/svg" xmlns:xlink="http://www.w3.org/1999/xlink" x="0px" y="0px"
	 viewBox="0 0 305 391" style="enable-background:new 0 0 305 391;" xml:space="preserve">
<style type="text/css">
	.st0{fill:#382B25;}
</style>
<path class="st0" d="M33.2,365.3c-0.2-1.7-0.3-2.8-0.5-3.7c-1-0.3-2.2-0.6-3.4-0.6c-3.5,0-5.6,2.2-5.6,4.8c0,3.1,2.7,4.4,4.5,5.3
	c2,1.1,3.5,2,3.5,4c0,2-1.2,3.2-3.2,3.2c-2.8,0-4-2.7-4.4-4.4l-0.8,0.2c0.2,1.3,0.5,3.6,0.7,4.2c0.2,0.1,0.6,0.3,1.3,0.6
	c0.7,0.2,1.5,0.4,2.6,0.4c3.6,0,6-2.3,6-5.1c0-3-2.6-4.3-4.7-5.4c-2.1-1.1-3.4-2-3.4-4c0-1.5,0.9-3,3-3c2.3,0,3.1,1.9,3.5,3.6
	L33.2,365.3z M60.3,361.4h-6.4v0.8c1.9,0.1,2.5,0.5,2.6,1.5c0.1,0.8,0.2,2,0.2,4.5v2.1c0,4.5-1.2,7.7-5.1,7.7
	c-3.3,0-5.1-2.5-5.1-6.8v-6.2c0-2.4,0.2-2.6,2.3-2.7v-0.8h-7v0.8c2.1,0.2,2.3,0.3,2.3,2.7v6.8c0,3.2,0.8,5.2,2.4,6.4
	c1.2,0.9,2.8,1.3,4.3,1.3c1.8,0,3.6-0.6,4.8-1.9c1.6-1.6,2.1-3.9,2.1-7.1v-2.2c0-2.5,0.1-3.6,0.1-4.4c0.1-1.1,0.8-1.5,2.4-1.6V361.4
	z M80.8,374.5c-0.4,1.2-0.9,2.1-1.4,2.6c-0.6,0.7-1.5,0.8-3,0.8c-1.1,0-2.1-0.1-2.6-0.4c-0.5-0.3-0.6-0.8-0.6-2.3v-10.7
	c0-2.3,0.2-2.4,2.4-2.6v-0.8h-7v0.8c2.2,0.2,2.4,0.3,2.4,2.6v10.8c0,2.3-0.2,2.5-2.5,2.6v0.8h12.2c0.2-0.8,0.8-3.4,1-4.2L80.8,374.5
	z M102.8,365.5c-0.1-1.6-0.3-3.5-0.3-4.8H102c-0.4,0.5-0.6,0.7-1.4,0.7H89.9c-0.8,0-1.1-0.1-1.5-0.7h-0.5c-0.1,1.5-0.2,3.2-0.3,4.9
	h0.8c0.3-1.2,0.5-1.9,0.9-2.4c0.4-0.6,0.9-0.8,3.1-0.8H94v13.3c0,2.1-0.2,2.4-2.7,2.6v0.8h7.7v-0.8c-2.6-0.2-2.8-0.4-2.8-2.6v-13.3
	h1.9c2,0,2.5,0.2,2.9,0.8c0.3,0.4,0.6,1.1,0.9,2.4L102.8,365.5z M126.3,378.9v-0.8c-1.8-0.2-2.1-0.4-3-2.7
	c-1.7-4.7-3.5-9.8-5.2-14.5l-0.8,0.2l-5.6,14.2c-0.9,2.4-1.3,2.5-3,2.8v0.8h5.9v-0.8c-2-0.2-2.3-0.5-1.7-2.2
	c0.4-1.1,0.8-2.3,1.2-3.5h5.8c0.6,1.6,1.1,3.1,1.5,4.2c0.4,1.1,0.1,1.3-1.6,1.5v0.8H126.3z M119.4,371.4h-5c0.8-2.2,1.7-4.6,2.5-6.9
	h0.1L119.4,371.4z M152.7,361.4h-6.4v0.8c1.9,0.1,2.5,0.5,2.6,1.7c0.1,0.8,0.2,2,0.2,4.5v6.6h-0.1l-11.3-13.6h-4v0.8
	c1.3,0.1,1.9,0.3,2.4,1c0.5,0.6,0.5,0.8,0.5,2.7v5.9c0,2.5-0.1,3.8-0.2,4.6c-0.1,1.3-0.8,1.7-2.4,1.8v0.8h6.4v-0.8
	c-1.8-0.1-2.5-0.4-2.6-1.8c-0.1-0.8-0.2-2.1-0.2-4.6V365h0.1l11.5,14.1h0.8v-10.9c0-2.5,0.1-3.7,0.2-4.5c0.1-1.2,0.8-1.5,2.3-1.6
	V361.4z M177.1,378.9v-0.8c-1.8-0.2-2.1-0.4-3-2.7c-1.7-4.7-3.5-9.8-5.2-14.5l-0.8,0.2l-5.6,14.2c-0.9,2.4-1.3,2.5-3,2.8v0.8h5.9
	v-0.8c-2-0.2-2.3-0.5-1.7-2.2c0.4-1.1,0.8-2.3,1.2-3.5h5.8c0.6,1.6,1.1,3.1,1.5,4.2c0.4,1.1,0.1,1.3-1.6,1.5v0.8H177.1z
	 M170.2,371.4h-5c0.8-2.2,1.7-4.6,2.5-6.9h0.1L170.2,371.4z M203.8,361.4h-7v0.8c2.1,0.2,2.3,0.3,2.3,2.6v4.4h-9.2v-4.4
	c0-2.2,0.2-2.4,2.3-2.6v-0.8h-7v0.8c2.2,0.2,2.4,0.3,2.4,2.6v10.9c0,2.3-0.2,2.4-2.4,2.6v0.8h7.1v-0.8c-2.2-0.2-2.4-0.3-2.4-2.6
	v-5.4h9.2v5.4c0,2.3-0.2,2.4-2.5,2.6v0.8h7.2v-0.8c-2.2-0.2-2.4-0.3-2.4-2.6v-10.9c0-2.2,0.2-2.4,2.4-2.6V361.4z M234.7,378.9v-0.8
	c-2.3-0.2-2.4-0.4-2.5-3.2l-0.3-9.8c-0.1-2.8,0.1-2.8,2.5-3.1v-0.8h-4.6l-6.2,13.5l-6.1-13.5H213v0.8c2.5,0.2,2.6,0.4,2.3,3.9
	l-0.4,5.6c-0.2,2.8-0.4,4-0.5,4.9c-0.2,1.1-0.7,1.4-2.3,1.6v0.8h6.3v-0.8c-1.8-0.2-2.4-0.4-2.5-1.7c0-1.1,0-2.3,0.1-4.5l0.4-7.7h0.1
	l6,14.4h0.5l6.6-14.8h0.1l0.1,11c0,2.9-0.1,3-2.3,3.2v0.8H234.7z M256,374.5c-0.4,1.1-0.9,2-1.3,2.5c-0.6,0.7-1.3,0.9-3.4,0.9
	c-1.4,0-2.3,0-2.8-0.4c-0.5-0.4-0.6-0.9-0.6-2.2v-5.1h2.6c2.3,0,2.5,0.2,2.9,2.1h0.8v-5.2h-0.8c-0.3,1.8-0.5,2-2.9,2h-2.5v-6.1
	c0-0.8,0.1-0.9,0.9-0.9h2.1c1.9,0,2.7,0.2,3.1,0.8c0.4,0.6,0.6,1.2,0.9,2.3l0.8-0.1c-0.1-1.4-0.2-3.2-0.2-3.9h-12v0.8
	c2.1,0.2,2.3,0.3,2.3,2.7v10.7c0,2.2-0.2,2.4-2.7,2.6v0.8h13c0.2-0.8,0.8-3.4,0.9-4.3L256,374.5z M279.8,365.5
	c-0.1-1.6-0.3-3.5-0.3-4.8H279c-0.4,0.5-0.6,0.7-1.4,0.7H267c-0.8,0-1.1-0.1-1.5-0.7h-0.5c-0.1,1.5-0.2,3.2-0.3,4.9h0.8
	c0.3-1.2,0.5-1.9,0.9-2.4c0.4-0.6,0.9-0.8,3.1-0.8h1.7v13.3c0,2.1-0.2,2.4-2.7,2.6v0.8h7.7v-0.8c-2.6-0.2-2.8-0.4-2.8-2.6v-13.3h1.9
	c2,0,2.5,0.2,2.9,0.8c0.3,0.4,0.6,1.1,0.9,2.4L279.8,365.5z"/>
<path class="st0" d="M41.7,268.7h-0.2c-3.6,9.5-7,19.1-10.4,28.3h20.4L41.7,268.7z M215.4,118c0.6,24.2-6.9,43.4-21.8,55.7
	c-33.4,27.5-41.1,32.9-42,52.7c0,0,3.1-1.3,22.4-11.8C239.1,179.1,216.9,121.2,215.4,118z M109.5,173.7
	c-15-12.3-22.4-31.5-21.8-55.7c-1.5,3.2-23.7,61.1,41.5,96.5c19.3,10.5,22.4,11.8,22.4,11.8C150.6,206.6,142.9,201.2,109.5,173.7z
	 M145,151.1c1.8,1.5,5.4,3.4,6.6,6.3c1.1-2.8,4.8-4.8,6.6-6.3c4.9-4.2,11.7-10,23.1-23.3c18.6-21.7,12.2-49.6,4.4-71.9
	c-1.5-4.6-5.8-16.9-5.8-17.1c0.3,3.8,7,53.4-12.1,73.2c-7.4,7.7-16.2,17.7-16.2,28.5c0-10.7-8.7-20.7-16.2-28.5
	c-19.1-19.8-12.4-69.3-12.1-73.2c0,0.1-4.3,12.5-5.8,17.1c-7.7,22.3-14.2,50.2,4.4,71.9C133.2,141.1,140,146.9,145,151.1z
	 M115.3,166.7c17.4,14.3,30.2,20.9,36.3,35c6.1-14.1,18.9-20.7,36.3-35c24.8-20.4,24.5-65.5,13.4-88.5c1.8,16.2,1.1,41.3-11.7,55.5
	c-12.2,13.5-20.4,19.9-25.5,24.3c0,0-0.1,0.1-0.1,0.1c-6.7,5.7-12.3,14.1-12.3,22.9c0-8.8-5.6-17.1-12.3-22.9c0,0-0.1-0.1-0.1-0.1
	c-5.2-4.4-13.3-10.8-25.5-24.3c-12.8-14.2-13.5-39.3-11.7-55.5C90.8,101.2,90.4,146.3,115.3,166.7z M155.6,104.3
	c0.3-0.4,0.9-1.9,1.2-3.8c2.4-1.1,7.3-1.4,9.4-7.4c3.7-10.9,5.1-21.1,3.9-54.4c-0.5-13.7-10.7-13-11.9-15.8c-0.4-1-1.4-1.5-2.4-1.9
	c0.4-0.3,0.8-0.6,1-1.1c1-1.7-2.9-3.4-3.6-5.6c-0.7-2.2-1.6-4.5-1.6-4.5s-1,2.4-1.6,4.5c-0.7,2.2-4.5,3.9-3.6,5.6
	c0.3,0.5,0.6,0.8,1,1.1c-1,0.3-2,0.9-2.4,1.9c-1.2,2.8-11.4,2.1-11.9,15.8c-1.2,33.3,0.2,43.5,3.9,54.4c2,6,6.9,6.3,9.4,7.4
	c0.3,1.9,0.8,3.4,1.2,3.8c0.5,0.6,1.2-0.3,1.9-0.3c0.7,0,2.1,2.4,2.1,2.4s1.4-2.4,2.1-2.4C154.3,104,155.1,104.9,155.6,104.3z
	 M258.1,268.7h-0.2c-3.6,9.5-7,19.1-10.4,28.3h20.4L258.1,268.7z M268.8,328.1v-3.7c7.2-0.9,8-1.8,6.7-6c-1.6-4.3-3.6-10-5.8-16.2
	h-24.2c-1.6,4.5-3.1,8.9-4.6,13.4c-2.3,6.9-1.5,8,7,8.8v3.7h-25v-3.7c7.2-1,8.8-1.6,12.7-11.5l23.1-57.8l3.9-1.1
	c6.9,18.8,14.5,40.3,21.5,59.2c3.5,9.6,5,10.6,12.4,11.3v3.7H268.8z M230.4,259.4c-7.7,1-8.7,1.9-11.9,10.7
	c-2.5,6.8-9.2,28.1-18.5,59.1h-4c-6.1-17.7-13.3-37.9-19.3-55h-0.2c-6.4,19.5-12.6,37.2-18.3,55h-4c-5.8-20.1-12.1-39.3-18.2-59.2
	c-2.8-8.8-4.6-9.8-11.4-10.6v-3.7h27.5v3.7c-8.2,0.9-8.4,1.8-6.9,7.1c4.5,14.9,8.7,29.8,13.6,45.5h0.2c6-19.1,12.4-37.2,18.1-55.3
	h3.8c6.1,18.3,12.6,36,19.3,55.4h0.2c4.7-14.8,10.9-36.4,12.7-44.1c1.3-6.5,0.9-7.7-7.6-8.6v-3.7h24.8V259.4z M117.2,259.4
	c-8.8,0.7-9.7,1.4-9.7,10.6v41c0,14.8-2.5,22.8-9.8,29.4c-3.8,3.3-7.4,5.3-10.5,6.2l-1.7-3.7c6.5-3.1,9.8-8.2,11-14.7
	c1-5.4,1.2-11.7,1.2-20.9v-37.3c0-9.1-0.9-9.9-10.1-10.6v-3.7h29.5V259.4z M52.3,328.1v-3.7c7.2-0.9,8-1.8,6.7-6
	c-1.6-4.3-3.6-10-5.8-16.2H29.1c-1.6,4.5-3.1,8.9-4.6,13.4c-2.3,6.9-1.5,8,7,8.8v3.7h-25v-3.7c7.2-1,8.8-1.6,12.7-11.5l23.1-57.8
	l3.9-1.1c6.9,18.8,14.5,40.3,21.5,59.2c3.5,9.6,5,10.6,12.4,11.3v3.7H52.3z"/>
</svg>
