<?xml version="1.0" encoding="utf-8"?>
<!-- Generator: Adobe Illustrator 22.1.0, SVG Export Plug-In . SVG Version: 6.00 Build 0)  -->
<svg version="1.1" id="Layer_1" xmlns="http://www.w3.org/2000/svg" xmlns:xlink="http://www.w3.org/1999/xlink" x="0px" y="0px"
	 width="9.8px" height="9.9px" viewBox="0 0 9.8 9.9" style="enable-background:new 0 0 9.8 9.9;" xml:space="preserve">
<style type="text/css">
	.st0{fill:#FFFFFF;}
</style>
<path id="Path_768" class="st0" d="M8.8,2.6L7.7,3.7l1.1,4.8c0,0.1,0,0.2-0.1,0.2L7.8,9.4H7.7l0,0c-0.1,0-0.1-0.1-0.1-0.1L5.7,5.8
	L3.9,7.6l0.4,1.3c0,0.1,0,0.2-0.1,0.2L3.5,9.8c0,0-0.1,0.1-0.2,0.1l0,0c-0.1,0-0.1,0-0.2-0.1L1.8,8.1L0.1,6.8C0,6.8,0,6.7,0,6.6
	s0-0.1,0.1-0.2l0.7-0.7c0,0,0.1-0.1,0.2-0.1c0,0,0,0,0.1,0L2.4,6l1.8-1.8L0.7,2.3c-0.1,0-0.1-0.1-0.1-0.2s0-0.1,0.1-0.2L1.6,1
	c0.1-0.1,0.1-0.1,0.2-0.1L6.4,2l1.1-1.1c0.7-0.7,1.8-1.1,2.2-0.7C9.9,0.8,9.5,1.9,8.8,2.6z"/>
</svg>
