<?xml version="1.0" encoding="UTF-8"?>
<svg id="Layer_1" xmlns="http://www.w3.org/2000/svg" width="299.6" height="390" version="1.1" viewBox="0 0 299.6 390">
  <!-- Generator: Adobe Illustrator 30.1.0, SVG Export Plug-In . SVG Version: 2.1.1 Build 136)  -->
  <defs>
    <style>
      .st0 {
        fill: #583628;
      }
    </style>
  </defs>
  <path class="st0" d="M31.5,365.7c-.2-1.7-.3-2.8-.5-3.7-1-.3-2.2-.6-3.4-.6-3.5,0-5.6,2.2-5.6,4.8s2.7,4.4,4.5,5.3c2,1.1,3.5,2,3.5,4s-1.2,3.2-3.2,3.2-4-2.7-4.4-4.4l-.8.2c.2,1.3.5,3.6.7,4.2.2.1.6.3,1.3.6.7.2,1.5.4,2.6.4,3.6,0,6-2.3,6-5.1s-2.6-4.3-4.7-5.4-3.4-2-3.4-4,.9-3,3-3,3.1,1.9,3.5,3.6h.9ZM58.6,361.8h-6.4v.8c1.9.1,2.5.5,2.6,1.5.1.8.2,2,.2,4.5v2.1c0,4.5-1.2,7.7-5.1,7.7s-5.1-2.5-5.1-6.8v-6.2c0-2.4.2-2.6,2.3-2.7v-.8h-7v.8c2.1.2,2.3.3,2.3,2.7v6.8c0,3.2.8,5.2,2.4,6.4,1.2.9,2.8,1.3,4.3,1.3s3.6-.6,4.8-1.9c1.6-1.6,2.1-3.9,2.1-7.1v-2.2c0-2.5.1-3.6.1-4.4.1-1.1.8-1.5,2.4-1.6v-.9h0ZM79.1,374.9c-.4,1.2-.9,2.1-1.4,2.6-.6.7-1.5.8-3,.8s-2.1-.1-2.6-.4-.6-.8-.6-2.3v-10.7c0-2.3.2-2.4,2.4-2.6v-.8h-7v.8c2.2.2,2.4.3,2.4,2.6v10.8c0,2.3-.2,2.5-2.5,2.6v.8h12.2c.2-.8.8-3.4,1-4.2h-.9ZM101.1,365.9c-.1-1.6-.3-3.5-.3-4.8h-.5c-.4.5-.6.7-1.4.7h-10.7c-.8,0-1.1-.1-1.5-.7h-.5c-.1,1.5-.2,3.2-.3,4.9h.8c.3-1.2.5-1.9.9-2.4.4-.6.9-.8,3.1-.8h1.7v13.3c0,2.1-.2,2.4-2.7,2.6v.8h7.7v-.8c-2.6-.2-2.8-.4-2.8-2.6v-13.3h1.9c2,0,2.5.2,2.9.8.3.4.6,1.1.9,2.4h.8ZM124.6,379.3v-.8c-1.8-.2-2.1-.4-3-2.7-1.7-4.7-3.5-9.8-5.2-14.5l-.8.2-5.6,14.2c-.9,2.4-1.3,2.5-3,2.8v.8h5.9v-.8c-2-.2-2.3-.5-1.7-2.2.4-1.1.8-2.3,1.2-3.5h5.8c.6,1.6,1.1,3.1,1.5,4.2s.1,1.3-1.6,1.5v.8h6.5ZM117.7,371.7h-5c.8-2.2,1.7-4.6,2.5-6.9h.1l2.4,6.9ZM151,361.8h-6.4v.8c1.9.1,2.5.5,2.6,1.7.1.8.2,2,.2,4.5v6.6h-.1l-11.3-13.6h-4v.8c1.3.1,1.9.3,2.4,1,.5.6.5.8.5,2.7v5.9c0,2.5-.1,3.8-.2,4.6-.1,1.3-.8,1.7-2.4,1.8v.8h6.4v-.8c-1.8-.1-2.5-.4-2.6-1.8-.1-.8-.2-2.1-.2-4.6v-6.8h.1l11.5,14.1h.8v-10.9c0-2.5.1-3.7.2-4.5.1-1.2.8-1.5,2.3-1.6v-.7h.2ZM175.4,379.3v-.8c-1.8-.2-2.1-.4-3-2.7-1.7-4.7-3.5-9.8-5.2-14.5l-.8.2-5.6,14.2c-.9,2.4-1.3,2.5-3,2.8v.8h5.9v-.8c-2-.2-2.3-.5-1.7-2.2.4-1.1.8-2.3,1.2-3.5h5.8c.6,1.6,1.1,3.1,1.5,4.2s.1,1.3-1.6,1.5v.8h6.5ZM168.5,371.7h-5c.8-2.2,1.7-4.6,2.5-6.9h.1l2.4,6.9ZM202,361.8h-7v.8c2.1.2,2.3.3,2.3,2.6v4.4h-9.2v-4.4c0-2.2.2-2.4,2.3-2.6v-.8h-7v.8c2.2.2,2.4.3,2.4,2.6v10.9c0,2.3-.2,2.4-2.4,2.6v.8h7.1v-.8c-2.2-.2-2.4-.3-2.4-2.6v-5.4h9.2v5.4c0,2.3-.2,2.4-2.5,2.6v.8h7.2v-.8c-2.2-.2-2.4-.3-2.4-2.6v-10.9c0-2.2.2-2.4,2.4-2.6v-.8ZM233,379.3v-.8c-2.3-.2-2.4-.4-2.5-3.2l-.3-9.8c-.1-2.8.1-2.8,2.5-3.1v-.8h-4.6l-6.2,13.5-6.1-13.5h-4.5v.8c2.5.2,2.6.4,2.3,3.9l-.4,5.6c-.2,2.8-.4,4-.5,4.9-.2,1.1-.7,1.4-2.3,1.6v.8h6.3v-.8c-1.8-.2-2.4-.4-2.5-1.7,0-1.1,0-2.3.1-4.5l.4-7.7h.1l6,14.4h.5l6.6-14.8h.1v11c.1,2.9,0,3-2.2,3.2v.8h7.2v.2ZM254.3,374.9c-.4,1.1-.9,2-1.3,2.5-.6.7-1.3.9-3.4.9s-2.3,0-2.8-.4-.6-.9-.6-2.2v-5.1h2.6c2.3,0,2.5.2,2.9,2.1h.8v-5.2h-.8c-.3,1.8-.5,2-2.9,2h-2.5v-6.1c0-.8.1-.9.9-.9h2.1c1.9,0,2.7.2,3.1.8.4.6.6,1.2.9,2.3h.8c-.1-1.5-.2-3.3-.2-4h-12v.8c2.1.2,2.3.3,2.3,2.7v10.7c0,2.2-.2,2.4-2.7,2.6v.8h13c.2-.8.8-3.4.9-4.3h-1.1ZM278,365.9c-.1-1.6-.3-3.5-.3-4.8h-.5c-.4.5-.6.7-1.4.7h-10.6c-.8,0-1.1-.1-1.5-.7h-.5c-.1,1.5-.2,3.2-.3,4.9h.8c.3-1.2.5-1.9.9-2.4.4-.6.9-.8,3.1-.8h1.7v13.3c0,2.1-.2,2.4-2.7,2.6v.8h7.7v-.8c-2.6-.2-2.8-.4-2.8-2.6v-13.3h1.9c2,0,2.5.2,2.9.8.3.4.6,1.1.9,2.4h.7Z"/>
  <path class="st0" d="M40,269.1h-.2c-3.6,9.5-7,19.1-10.4,28.3h20.4l-9.8-28.3ZM213.7,118.4c.6,24.2-6.9,43.4-21.8,55.7-33.4,27.5-41.1,32.9-42,52.7,0,0,3.1-1.3,22.4-11.8,65.1-35.5,42.9-93.4,41.4-96.6ZM107.8,174.1c-15-12.3-22.4-31.5-21.8-55.7-1.5,3.2-23.7,61.1,41.5,96.5,19.3,10.5,22.4,11.8,22.4,11.8-1-19.7-8.7-25.2-42.1-52.6ZM143.3,151.5c1.8,1.5,5.4,3.4,6.6,6.3,1.1-2.8,4.8-4.8,6.6-6.3,4.9-4.2,11.7-10,23.1-23.3,18.6-21.7,12.2-49.6,4.4-71.9-1.5-4.6-5.8-16.9-5.8-17.1.3,3.8,7,53.4-12.1,73.2-7.4,7.7-16.2,17.7-16.2,28.5,0-10.7-8.7-20.7-16.2-28.5-19.1-19.8-12.4-69.3-12.1-73.2,0,0-4.3,12.5-5.8,17.1-7.7,22.3-14.2,50.2,4.4,71.9,11.3,13.3,18.1,19.1,23.1,23.3ZM113.7,167.1c17.4,14.3,30.2,20.9,36.3,35,6.1-14.1,18.9-20.7,36.3-35,24.8-20.4,24.5-65.5,13.4-88.5,1.8,16.2,1.1,41.3-11.7,55.5-12.2,13.5-20.4,19.9-25.5,24.3h-.1c-6.7,5.8-12.3,14.2-12.3,23,0-8.8-5.6-17.1-12.3-22.9h-.1c-5.2-4.5-13.3-10.9-25.5-24.4-12.8-14.2-13.5-39.3-11.7-55.5-11.3,23-11.7,68.1,13.2,88.5ZM154,104.7c.3-.4.9-1.9,1.2-3.8,2.4-1.1,7.3-1.4,9.4-7.4,3.7-10.9,5.1-21.1,3.9-54.4-.5-13.7-10.7-13-11.9-15.8-.4-1-1.4-1.5-2.4-1.9.4-.3.8-.6,1-1.1,1-1.7-2.9-3.4-3.6-5.6-.7-2.2-1.6-4.5-1.6-4.5,0,0-1,2.4-1.6,4.5-.7,2.2-4.5,3.9-3.6,5.6.3.5.6.8,1,1.1-1,.3-2,.9-2.4,1.9-1.2,2.8-11.4,2.1-11.9,15.8-1.2,33.3.2,43.5,3.9,54.4,2,6,6.9,6.3,9.4,7.4.3,1.9.8,3.4,1.2,3.8.5.6,1.2-.3,1.9-.3s2.1,2.4,2.1,2.4c0,0,1.4-2.4,2.1-2.4.6,0,1.4.8,1.9.3ZM256.5,269.1h-.2c-3.6,9.5-7,19.1-10.4,28.3h20.4l-9.8-28.3ZM267.1,328.5v-3.7c7.2-.9,8-1.8,6.7-6-1.6-4.3-3.6-10-5.8-16.2h-24.2c-1.6,4.5-3.1,8.9-4.6,13.4-2.3,6.9-1.5,8,7,8.8v3.7h-25v-3.7c7.2-1,8.8-1.6,12.7-11.5l23.1-57.8,3.9-1.1c6.9,18.8,14.5,40.3,21.5,59.2,3.5,9.6,5,10.6,12.4,11.3v3.7h-27.7ZM228.7,259.7c-7.7,1-8.7,1.9-11.9,10.7-2.5,6.8-9.2,28.1-18.5,59.1h-4c-6.1-17.7-13.3-37.9-19.3-55h-.2c-6.4,19.5-12.6,37.2-18.3,55h-4c-5.8-20.1-12.1-39.3-18.2-59.2-2.8-8.8-4.6-9.8-11.4-10.6v-3.7h27.5v3.7c-8.2.9-8.4,1.8-6.9,7.1,4.5,14.9,8.7,29.8,13.6,45.5h.2c6-19.1,12.4-37.2,18.1-55.3h3.8c6.1,18.3,12.6,36,19.3,55.4h.2c4.7-14.8,10.9-36.4,12.7-44.1,1.3-6.5.9-7.7-7.6-8.6v-3.7h24.8v3.7h.1ZM115.5,259.7c-8.8.7-9.7,1.4-9.7,10.6v41c0,14.8-2.5,22.8-9.8,29.4-3.8,3.3-7.4,5.3-10.5,6.2l-1.7-3.7c6.5-3.1,9.8-8.2,11-14.7,1-5.4,1.2-11.7,1.2-20.9v-37.3c0-9.1-.9-9.9-10.1-10.6v-3.7h29.5v3.7h.1ZM50.7,328.5v-3.7c7.2-.9,8-1.8,6.7-6-1.6-4.3-3.6-10-5.8-16.2h-24.2c-1.6,4.5-3.1,8.9-4.6,13.4-2.3,6.9-1.5,8,7,8.8v3.7H4.8v-3.7c7.2-1,8.8-1.6,12.7-11.5l23.1-57.8,3.9-1.1c6.9,18.8,14.5,40.3,21.5,59.2,3.5,9.6,5,10.6,12.4,11.3v3.7h-27.7Z"/>
  <metadata>
    <sfw xmlns="http://ns.adobe.com/SaveForWeb/1.0/">
      <slices/>
      <sliceSourceBounds x="98.15" y="110.25" width="290.1" height="369.7" bottomLeftOrigin="true"/>
    </sfw>
  </metadata>
</svg>