<svg xmlns="http://www.w3.org/2000/svg" width="68.623" height="46.97" viewBox="0 0 68.623 46.97">
  <g id="Group_1151" data-name="Group 1151" transform="translate(-1457.153 -548.128)">
    <g id="Group_1137" data-name="Group 1137" transform="translate(1457.653 556.708)">
      <g id="Group_1129" data-name="Group 1129" transform="translate(17.193)">
        <path id="Path_619" data-name="Path 619" d="M1479.292,558.8c5.586,0,6.191,6.677,6.191,6.677h1.069v25.692" transform="translate(-1479.292 -558.797)" fill="none" stroke="#fff" stroke-linecap="round" stroke-linejoin="round" stroke-width="1"/>
      </g>
      <g id="Group_1130" data-name="Group 1130" transform="translate(26.471)">
        <path id="Path_620" data-name="Path 620" d="M1498.23,558.8c-5.586,0-6.191,6.677-6.191,6.677h-1.069v25.692" transform="translate(-1490.969 -558.797)" fill="none" stroke="#fff" stroke-linecap="round" stroke-linejoin="round" stroke-width="1"/>
      </g>
      <g id="Group_1131" data-name="Group 1131">
        <path id="Path_621" data-name="Path 621" d="M1457.653,558.8c5.586,0,6.191,6.677,6.191,6.677h1.07v25.692" transform="translate(-1457.653 -558.797)" fill="none" stroke="#fff" stroke-linecap="round" stroke-linejoin="round" stroke-width="1"/>
      </g>
      <g id="Group_1132" data-name="Group 1132" transform="translate(9.956)">
        <path id="Path_622" data-name="Path 622" d="M1477.443,558.8c-5.586,0-6.191,6.677-6.191,6.677h-1.069v25.692" transform="translate(-1470.183 -558.797)" fill="none" stroke="#fff" stroke-linecap="round" stroke-linejoin="round" stroke-width="1"/>
      </g>
      <g id="Group_1133" data-name="Group 1133" transform="translate(50.905)">
        <path id="Path_623" data-name="Path 623" d="M1521.721,558.8c5.586,0,6.191,6.677,6.191,6.677h1.069v25.692" transform="translate(-1521.721 -558.797)" fill="none" stroke="#fff" stroke-linecap="round" stroke-linejoin="round" stroke-width="1"/>
      </g>
      <g id="Group_1134" data-name="Group 1134" transform="translate(60.183)">
        <path id="Path_624" data-name="Path 624" d="M1540.659,558.8c-5.586,0-6.191,6.677-6.191,6.677H1533.4v25.692" transform="translate(-1533.398 -558.797)" fill="none" stroke="#fff" stroke-linecap="round" stroke-linejoin="round" stroke-width="1"/>
      </g>
      <g id="Group_1135" data-name="Group 1135" transform="translate(33.712)">
        <path id="Path_625" data-name="Path 625" d="M1500.082,558.8c5.586,0,6.191,6.677,6.191,6.677h1.069v25.692" transform="translate(-1500.082 -558.797)" fill="none" stroke="#fff" stroke-linecap="round" stroke-linejoin="round" stroke-width="1"/>
      </g>
      <g id="Group_1136" data-name="Group 1136" transform="translate(43.667)">
        <path id="Path_626" data-name="Path 626" d="M1519.872,558.8c-5.586,0-6.191,6.677-6.191,6.677h-1.069v25.692" transform="translate(-1512.611 -558.797)" fill="none" stroke="#fff" stroke-linecap="round" stroke-linejoin="round" stroke-width="1"/>
      </g>
    </g>
    <g id="Group_1146" data-name="Group 1146" transform="translate(1458.289 561.922)">
      <g id="Group_1138" data-name="Group 1138" transform="translate(16.416 0)">
        <path id="Path_627" data-name="Path 627" d="M1479.114,565.359c3.511,0,3.892,4.2,3.892,4.2h.672v23.966" transform="translate(-1479.114 -565.359)" fill="none" stroke="#fff" stroke-linecap="round" stroke-linejoin="round" stroke-width="1"/>
      </g>
      <g id="Group_1139" data-name="Group 1139" transform="translate(28.581 0)">
        <path id="Path_628" data-name="Path 628" d="M1498.989,565.359c-3.511,0-3.892,4.2-3.892,4.2h-.672v23.966" transform="translate(-1494.425 -565.359)" fill="none" stroke="#fff" stroke-linecap="round" stroke-linejoin="round" stroke-width="1"/>
      </g>
      <g id="Group_1140" data-name="Group 1140" transform="translate(0 0.013)">
        <path id="Path_629" data-name="Path 629" d="M1458.453,565.376c2.415.186,3.113,4.4,4.223,4.183v23.966" transform="translate(-1458.453 -565.376)" fill="none" stroke="#fff" stroke-linecap="round" stroke-linejoin="round" stroke-width="1"/>
      </g>
      <g id="Group_1141" data-name="Group 1141" transform="translate(11.866 0)">
        <path id="Path_630" data-name="Path 630" d="M1477.951,565.359c-3.511,0-3.891,4.2-3.891,4.2h-.672v23.966" transform="translate(-1473.388 -565.359)" fill="none" stroke="#fff" stroke-linecap="round" stroke-linejoin="round" stroke-width="1"/>
      </g>
      <g id="Group_1142" data-name="Group 1142" transform="translate(50.118 0)">
        <path id="Path_631" data-name="Path 631" d="M1521.531,565.359c3.511,0,3.892,4.2,3.892,4.2h.672v23.966" transform="translate(-1521.531 -565.359)" fill="none" stroke="#fff" stroke-linecap="round" stroke-linejoin="round" stroke-width="1"/>
      </g>
      <g id="Group_1143" data-name="Group 1143" transform="translate(62.123 0)">
        <path id="Path_632" data-name="Path 632" d="M1541.2,565.359c-3.511,0-3.892,4.2-3.892,4.2h-.672v23.966" transform="translate(-1536.64 -565.359)" fill="none" stroke="#fff" stroke-linecap="round" stroke-linejoin="round" stroke-width="1"/>
      </g>
      <g id="Group_1144" data-name="Group 1144" transform="translate(33.133 0)">
        <path id="Path_633" data-name="Path 633" d="M1500.154,565.359c3.511,0,3.892,4.2,3.892,4.2h.672v23.966" transform="translate(-1500.154 -565.359)" fill="none" stroke="#fff" stroke-linecap="round" stroke-linejoin="round" stroke-width="1"/>
      </g>
      <g id="Group_1145" data-name="Group 1145" transform="translate(45.569 0)">
        <path id="Path_634" data-name="Path 634" d="M1520.369,565.359c-3.512,0-3.892,4.2-3.892,4.2h-.672v23.966" transform="translate(-1515.805 -565.359)" fill="none" stroke="#fff" stroke-linecap="round" stroke-linejoin="round" stroke-width="1"/>
      </g>
    </g>
    <path id="Path_635" data-name="Path 635" d="M1457.653,556.708v-8.08H1525.1v8.08" transform="translate(0)" fill="none" stroke="#fff" stroke-linecap="round" stroke-linejoin="round" stroke-width="1"/>
    <g id="Group_1149" data-name="Group 1149" transform="translate(1457.653 588.103)">
      <g id="Group_1147" data-name="Group 1147" transform="translate(0 0.033)">
        <path id="Path_636" data-name="Path 636" d="M1457.653,598.352h0c2.333,3.353,6.116,3.353,8.448,0h0" transform="translate(-1457.653 -598.352)" fill="none" stroke="#fff" stroke-linecap="round" stroke-linejoin="round" stroke-width="1"/>
        <path id="Path_637" data-name="Path 637" d="M1468.291,598.352h0c2.333,3.353,6.116,3.353,8.448,0h0" transform="translate(-1459.839 -598.352)" fill="none" stroke="#fff" stroke-linecap="round" stroke-linejoin="round" stroke-width="1"/>
        <path id="Path_638" data-name="Path 638" d="M1478.928,598.352h0c2.333,3.353,6.116,3.353,8.448,0h0" transform="translate(-1462.024 -598.352)" fill="none" stroke="#fff" stroke-linecap="round" stroke-linejoin="round" stroke-width="1"/>
        <path id="Path_639" data-name="Path 639" d="M1489.566,598.352h0c2.333,3.353,6.116,3.353,8.448,0h0" transform="translate(-1464.21 -598.352)" fill="none" stroke="#fff" stroke-linecap="round" stroke-linejoin="round" stroke-width="1"/>
      </g>
      <g id="Group_1148" data-name="Group 1148" transform="translate(33.819)">
        <path id="Path_640" data-name="Path 640" d="M1500.217,598.311h0c2.333,3.353,6.115,3.353,8.448,0h0" transform="translate(-1500.217 -598.311)" fill="none" stroke="#fff" stroke-linecap="round" stroke-linejoin="round" stroke-width="1"/>
        <path id="Path_641" data-name="Path 641" d="M1510.855,598.311h0c2.333,3.353,6.115,3.353,8.448,0h0" transform="translate(-1502.403 -598.311)" fill="none" stroke="#fff" stroke-linecap="round" stroke-linejoin="round" stroke-width="1"/>
        <path id="Path_642" data-name="Path 642" d="M1521.492,598.311h0c2.333,3.353,6.116,3.353,8.448,0h0" transform="translate(-1504.588 -598.311)" fill="none" stroke="#fff" stroke-linecap="round" stroke-linejoin="round" stroke-width="1"/>
        <path id="Path_643" data-name="Path 643" d="M1532.13,598.311h0c2.333,3.353,6.116,3.353,8.448,0h0" transform="translate(-1506.774 -598.311)" fill="none" stroke="#fff" stroke-linecap="round" stroke-linejoin="round" stroke-width="1"/>
      </g>
    </g>
    <g id="Group_1150" data-name="Group 1150" transform="translate(1466.105 592.051)">
      <path id="Path_644" data-name="Path 644" d="M1468.291,603.32h0c2.333,3.353,6.116,3.353,8.448,0h0" transform="translate(-1468.291 -603.287)" fill="none" stroke="#fff" stroke-linecap="round" stroke-linejoin="round" stroke-width="1"/>
      <path id="Path_645" data-name="Path 645" d="M1478.928,603.32h0c2.333,3.353,6.116,3.353,8.448,0h0" transform="translate(-1470.476 -603.287)" fill="none" stroke="#fff" stroke-linecap="round" stroke-linejoin="round" stroke-width="1"/>
      <path id="Path_646" data-name="Path 646" d="M1489.566,603.32h0c2.333,3.353,6.116,3.353,8.448,0h0" transform="translate(-1472.662 -603.287)" fill="none" stroke="#fff" stroke-linecap="round" stroke-linejoin="round" stroke-width="1"/>
      <path id="Path_647" data-name="Path 647" d="M1500.217,603.279h0c2.333,3.353,6.115,3.353,8.448,0h0" transform="translate(-1474.85 -603.279)" fill="none" stroke="#fff" stroke-linecap="round" stroke-linejoin="round" stroke-width="1"/>
      <path id="Path_648" data-name="Path 648" d="M1510.855,603.279h0c2.333,3.353,6.115,3.353,8.448,0h0" transform="translate(-1477.036 -603.279)" fill="none" stroke="#fff" stroke-linecap="round" stroke-linejoin="round" stroke-width="1"/>
      <path id="Path_649" data-name="Path 649" d="M1521.492,603.279h0c2.333,3.353,6.116,3.353,8.448,0h0" transform="translate(-1479.221 -603.279)" fill="none" stroke="#fff" stroke-linecap="round" stroke-linejoin="round" stroke-width="1"/>
    </g>
  </g>
</svg>
