<?xml version="1.0" encoding="UTF-8"?>
<svg id="Layer_1" data-name="Layer 1" xmlns="http://www.w3.org/2000/svg" viewBox="0 0 1162.850830078 778.470541247">
  <defs>
    <style>
      .cls-1 {
        fill: #d27e31;
      }
    </style>
  </defs>
  <g>
    <path class="cls-1" d="M358.255615234,492.187216052s-14.119628906,16.625732422-21.526855469,22.16003418c-8.458496094,6.319580078-18.361328125,9.348876953-32.607177734,9.348876953h-14.560546875c-15.35546875,0-37.529541016-3.49230957-37.529541016-34.529541016v-95.160400391h39.700195312c4.473632812,0,9.643310547-.133056641,17.455078125,4.425292969,5.471191406,3.192504883,9.21484375,9.414550781,9.21484375,9.414550781v-38.979980469s-3.548828125,6.298339844-6.440429688,9.189941406c-2.896484375,2.896484375-9.580566406,4.649902344-20.540039062,4.649902344h-39.389648438l1-52.790039062s14.918945312-.754394531,34.382080078-.754394531c35.352783203,0,39.130615234,5.174560547,42.192138672,8.063476562,7.262939453,6.853759766,10.125976562,13.561035156,10.125976562,13.561035156v-23.836425781c0-2.635864258-1.378173828-5.075683594-3.627685547-6.449462891-3.676025391-2.244873047-8.799804688-3.194091797-40.262939453-3.194091797,0,0-27.694580078,1.945556641-51.87109375,1.945556641s-35.958984375-1.945556641-35.958984375-1.945556641c0,0,6.391845703,1.728515625,13.960205078,13.163085938,5.976806641,9.029907227,6.909912109,19.573242188,6.909912109,27.606933594v128.600097656c0,23.304199219-4.615722656,30.490722656-7.967773438,35.693481445-5.477661133,8.502075195-11.90234375,11.936401367-11.90234375,11.936401367h128.765380859c2.374755859,0,4.5390625-1.361328125,5.567382812-3.501831055l18.552490234-38.616943359h-3.640625Z"/>
    <path class="cls-1" d="M128.093017578,320.500082262c-3.676025391-2.244873047-8.799804688-3.194091797-40.262939453-3.194091797,0,0-27.694580078,1.945556641-51.87109375,1.945556641-24.176391602,0-35.958984375-1.945556641-35.958984375-1.945556641,0,0,6.391845703,1.728515625,13.960205078,13.162963867,5.976806641,9.030029297,6.909912109,19.573364258,6.909912109,27.607055664v141.600097656c0,32.845581055-16.870117188,34.629882812-16.870117188,34.629882812h53.793701172s-13.773193359-2.664306641-13.773193359-33.139404297v-107.160400391h39.700195312c4.473876953,0,9.643310547-.133056641,17.455078125,4.425292969,5.471191406,3.192504883,9.21484375,9.414550781,9.21484375,9.414550781v-38.979980469s-3.548828125,6.298339844-6.440429688,9.189941406c-2.896484375,2.896484375-9.580566406,4.649902344-20.540039062,4.649902344h-39.389648438l1-52.790039062s14.919067383-.754394531,34.382080078-.754394531c35.352783203,0,39.130615234,5.174438477,42.192138672,8.063476562,7.262939453,6.853637695,10.125976562,13.561035156,10.125976562,13.561035156v-23.836425781c0-2.635986328-1.378051758-5.075683594-3.627685547-6.449462891Z"/>
    <path class="cls-1" d="M472.961181641,525.471029528c-3.064453125-4.543457031-5.889648438-8.418457031-5.889648438-13.794921875v-172.050292969c.203125-5.371582031,4.62109375-11.028442383,6.044921875-13.639648438,1.903808594-3.491943359,8.825195312-8.680175781,8.825195312-8.680175781,0,0-13.205322266,1-27.9453125,1s-28.9453125-1-28.9453125-1c0,0,7.324707031,4.652099609,10.825195312,8.680175781,2.373779297,2.731689453,6.836914062,8.268066406,7.044921875,13.639648438v172.050292969c-.208007812,5.376464844-3.4140625,10.629272461-6.044921875,13.794921875-3.458740234,4.161743164-10.825195312,8.834960938-10.825195312,8.834960938h56.890625s-8.196044922-6.189208984-9.98046875-8.834960938Z"/>
    <path class="cls-1" d="M536.997802734,568.434774645c.199707031-.069335938.411621094-.140991211.629394531-.213745117-.214355469.002197266-.426757812.00378418-.629394531.00378418v.209960938Z"/>
    <path class="cls-1" d="M606.690673828,339.625814684c.203125-5.371582031,2.017333984-8.83984375,4.044921875-13.639648438,2.579345703-6.104736328,8.825195312-10.680175781,8.825195312-10.680175781,0,0-11.277099609,1-29.383544922,1-17.477050781,0-26.507080078-1-26.507080078-1,0,0,8.324707031,6.652099609,11.825195312,10.680175781,2.374023438,2.731689453,6.836914062,8.268066406,7.044921875,13.639648438l-1.272949219,154.668823242c0,61.940429688-32.810058594,70.307861328-43.640136719,73.926391602,16.614746094-.158935547,67.790527344-6.836181641,67.790527344-74.99621582l1.272949219-153.598999023Z"/>
    <path class="cls-1" d="M865.694335938,339.181234606c-22.427246094-17.953125-52.377929688-26.822998047-83.847412109-22.610595703-31.474365234,4.213134766-55.619384766,18.922485352-72.434082031,42.128540039-16.819335938,23.206665039-25.989257812,49.506958008-21.520019531,82.892700195,4.469482422,33.390625,20.864501953,56.067016602,43.1953125,74.033203125,22.325683594,17.966796875,49.226318359,24.843261719,80.700683594,20.630249023,31.469482422-4.212524414,55.664550781-18.928588867,72.580566406-42.148193359,16.912353516-23.219116211,25.137695312-49.521850586,20.668212891-82.912475586-4.468994141-33.385742188-16.919677734-54.059692383-39.343261719-72.013427734ZM866.012939453,489.46382738c-12.241943359,20.098999023-32.426757812,32.758666992-56.558105469,35.988891602-24.130615234,3.229980469-46.74609375-5.235839844-63.838867188-21.408203125-17.095703125-16.167236328-28.620605469-35.03527832-32.577880859-64.598876953-3.957275391-29.563476562,1.183349609-53.389892578,13.424560547-73.488769531,12.238037109-20.09387207,32.378417969-32.752197266,56.416015625-35.969970703,15.897460938-2.127929688,31.498535156-.916503906,44.800537109,5.625976562,13.302490234,6.546630859,26.265380859,17.866943359,34.896972656,31.955810547,8.627685547,14.094238281,15.249511719,30.894287109,17.861328125,50.40625,3.957275391,29.563598633-2.187255859,51.395263672-14.424560547,71.488891602Z"/>
    <path class="cls-1" d="M1106.100830078,534.305990466h56.75s-8.452148438-1.229003906-17.760742188-18.629882812l-77.663818359-199.079833984-38.961425781.040039062c14.025634766,8.745361328,29.774169922,21.087402344,18.892822266,41.096435547l-64.666992188,153.943359375c-3.100585938,6.408203125-5.129882812,11.266601562-10.08984375,14.569824219-4.959960938,3.308105469-16.98046875,8.060058594-16.98046875,8.060058594h44.309570312s-8.251953125-4.479492188-5.809570312-15.03515625c.534912109-2.312011719,6.473876953-17.723754883,7.302001953-20.203735352l35.294189453-90.08190918,39.603515625.099853516,38.350097656,102.591064453c.823242188,2.479980469,1.600585938,5.986328125,1.240234375,8.439941406-1.287353516,8.76550293-9.809570312,14.189941406-9.809570312,14.189941406ZM1041.615478516,398.966390856l16.747314453-38.379272461,14.707275391,38.617553711-31.454589844-.23828125Z"/>
    <path class="cls-1" d="M212.830322266,620.765951403c-4.509765625-3.372070312-10.615234375-5.059570312-18.315429688-5.059570312h-25.740234375v1.099609375h1.540039062c1.760742188,0,3.245117188.55078125,4.455078125,1.650390625s1.8515625,2.494140625,1.92578125,4.1796875v52.140625c-.07421875,1.61328125-.715820312,2.98828125-1.92578125,4.125-1.209960938,1.137695312-2.694335938,1.705078125-4.455078125,1.705078125h-1.540039062v1.099609375h22.770507812v-1.099609375h-1.540039062c-1.173828125,0-2.23828125-.256835938-3.190429688-.770507812-2.053710938-1.099609375-3.1171875-2.822265625-3.189453125-5.169921875v-55.66015625h10.669921875c5.42578125,0,9.6796875,1.284179688,12.759765625,3.850585938,3.080078125,2.567382812,4.620117188,6.087890625,4.620117188,10.559570312,0,2.494140625-.2578125,4.473632812-.76953125,5.940429688-1.467773438,4.107421875-3.740234375,7.11328125-6.8203125,9.01953125-1.3203125.879882812-2.788085938,1.522460938-4.400390625,1.924804688-1.61328125.404296875-2.859375.643554688-3.739257812.71484375-.880859375.07421875-2.018554688.110351562-3.41015625.110351562-1.39453125,0-2.934570312-.219726562-4.620117188-.66015625v1.100585938c3.740234375,1.759765625,7.551757812,2.639648438,11.439453125,2.639648438,7.846679688,0,13.640625-3.005859375,17.379882812-9.01953125,1.90625-3.080078125,2.860351562-6.672851562,2.860351562-10.780273438,0-5.719726562-2.254882812-10.266601562-6.764648438-13.640625Z"/>
    <path class="cls-1" d="M314.635009766,674.225912341l-27.169921875-60.059570312h-.989257812c-.07421875,1.028320312-.734375,3.080078125-1.98046875,6.16015625-.66015625,1.614257812-9.01953125,19.580078125-25.080078125,53.899414062-1.02734375,2.127929688-2.329101562,3.723632812-3.905273438,4.78515625-1.577148438,1.064453125-3.134765625,1.595703125-4.674804688,1.595703125h-.879882812v1.099609375h21.009765625v-1.099609375h-.879882812c-1.467773438,0-2.567382812-.495117188-3.299804688-1.485351562-.734375-.990234375-1.099609375-1.90625-1.099609375-2.75,0-.841796875.181640625-1.741210938.549804688-2.6953125l6.049804688-14.299804688h27.830078125l6.05078125,14.629882812c.291015625.807617188.439453125,1.6328125.439453125,2.475585938,0,.84375-.3671875,1.7421875-1.099609375,2.694335938-.734375.954101562-1.798828125,1.430664062-3.19140625,1.430664062h-.87890625v1.099609375h22.55078125v-1.099609375h-.880859375c-3.51953125,0-6.34375-2.126953125-8.470703125-6.380859375ZM273.715087891,656.076498278l12.760742188-30.139648438,12.319335938,30.139648438h-25.080078125Z"/>
    <path class="cls-1" d="M362.595947266,615.596029528c-1.3203125,0-3.319335938-.145507812-5.995117188-.439453125-2.677734375-.291992188-4.749023438-.732421875-6.21484375-1.3203125v12.4296875h1.209960938v-1.759765625c0-1.540039062.495117188-2.859375,1.484375-3.959960938.990234375-1.099609375,2.327148438-1.649414062,4.015625-1.649414062h19.909179688v55.76953125c-.073242188,1.614257812-.733398438,3.0078125-1.979492188,4.1796875-1.248046875,1.173828125-2.75,1.760742188-4.509765625,1.760742188h-1.3203125v1.099609375h22.66015625v-1.099609375h-1.209960938c-1.173828125,0-2.23828125-.256835938-3.190429688-.770507812-2.127929688-1.099609375-3.227539062-2.786132812-3.299804688-5.059570312v-55.879882812h19.91015625c1.612304688,0,2.931640625.549804688,3.959960938,1.649414062,1.026367188,1.100585938,1.540039062,2.419921875,1.540039062,3.959960938v1.759765625h1.209960938v-12.4296875c-2.93359375,1.173828125-7.040039062,1.759765625-12.3203125,1.759765625h-35.859375Z"/>
    <path class="cls-1" d="M467.534423828,618.511068591c1.172851562-1.135742188,2.602539062-1.705078125,4.290039062-1.705078125h1.100585938l.109375-1.099609375h-21.669921875v1.099609375h1.209960938c1.100585938,0,2.08984375.2578125,2.970703125.770507812,2.051757812,1.173828125,3.079101562,2.897460938,3.079101562,5.169921875v51.919921875c0,1.614257812-.586914062,3.0078125-1.759765625,4.1796875-1.173828125,1.173828125-2.603515625,1.760742188-4.290039062,1.760742188h-1.209960938v1.099609375h21.669921875l-.109375-1.099609375h-1.100585938c-1.099609375,0-2.127929688-.256835938-3.080078125-.770507812-1.979492188-1.099609375-3.0078125-2.786132812-3.080078125-5.059570312v-52.140625c.072265625-1.612304688.696289062-2.987304688,1.870117188-4.125Z"/>
    <path class="cls-1" d="M551.794189453,653.765951403l-22.220703125-17.159179688c-2.859375-2.346679688-4.290039062-5.115234375-4.290039062-8.305664062,0-3.189453125,1.282226562-5.791992188,3.850585938-7.809570312,2.56640625-2.016601562,5.830078125-3.025390625,9.790039062-3.025390625s7.001953125.84375,9.129882812,2.530273438c2.125976562,1.6875,3.189453125,4.0703125,3.189453125,7.150390625h1.2109375l-.220703125-11.990234375h-3.629882812c-2.93359375-.66015625-6.307617188-.990234375-10.120117188-.990234375-3.813476562,0-7.1328125.71484375-9.955078125,2.145507812-2.823242188,1.4296875-5.0234375,3.354492188-6.599609375,5.774414062-1.578125,2.419921875-2.365234375,5.060546875-2.365234375,7.919921875,0,5.060546875,1.759765625,9.09375,5.280273438,12.100585938l22,16.939453125c2.639648438,2.34765625,3.959960938,5.298828125,3.959960938,8.85546875,0,3.557617188-1.357421875,6.453125-4.0703125,8.689453125-2.713867188,2.23828125-6.490234375,3.35546875-11.330078125,3.35546875-4.620117188,0-8.232421875-1.265625-10.834960938-3.794921875-2.603515625-2.530273438-3.904296875-5.775390625-3.904296875-9.735351562,0-.66015625.036132812-1.3203125.109375-1.979492188h-1.319335938c-.954101562,2.787109375-1.430664062,5.537109375-1.430664062,8.25,0,2.713867188.110351562,4.509765625.330078125,5.389648438,1.90625,1.6875,4.65625,2.969726562,8.25,3.849609375,3.592773438.879882812,7.186523438,1.3203125,10.780273438,1.3203125,5.42578125,0,10.02734375-1.72265625,13.8046875-5.169921875,3.776367188-3.446289062,5.665039062-7.662109375,5.665039062-12.650390625,0-4.985351562-1.6875-8.872070312-5.059570312-11.66015625Z"/>
    <path class="cls-1" d="M635.613525391,653.765951403l-22.220703125-17.159179688c-2.859375-2.346679688-4.290039062-5.115234375-4.290039062-8.305664062,0-3.189453125,1.282226562-5.791992188,3.850585938-7.809570312,2.56640625-2.016601562,5.830078125-3.025390625,9.790039062-3.025390625s7.001953125.84375,9.129882812,2.530273438c2.125976562,1.6875,3.189453125,4.0703125,3.189453125,7.150390625h1.2109375l-.220703125-11.990234375h-3.629882812c-2.93359375-.66015625-6.307617188-.990234375-10.120117188-.990234375-3.813476562,0-7.1328125.71484375-9.955078125,2.145507812-2.823242188,1.4296875-5.0234375,3.354492188-6.599609375,5.774414062-1.578125,2.419921875-2.365234375,5.060546875-2.365234375,7.919921875,0,5.060546875,1.759765625,9.09375,5.280273438,12.100585938l22,16.939453125c2.639648438,2.34765625,3.959960938,5.298828125,3.959960938,8.85546875,0,3.557617188-1.357421875,6.453125-4.0703125,8.689453125-2.713867188,2.23828125-6.490234375,3.35546875-11.330078125,3.35546875-4.620117188,0-8.232421875-1.265625-10.834960938-3.794921875-2.603515625-2.530273438-3.904296875-5.775390625-3.904296875-9.735351562,0-.66015625.036132812-1.3203125.109375-1.979492188h-1.319335938c-.954101562,2.787109375-1.430664062,5.537109375-1.430664062,8.25,0,2.713867188.110351562,4.509765625.330078125,5.389648438,1.90625,1.6875,4.65625,2.969726562,8.25,3.849609375,3.592773438.879882812,7.186523438,1.3203125,10.780273438,1.3203125,5.42578125,0,10.02734375-1.72265625,13.8046875-5.169921875,3.776367188-3.446289062,5.665039062-7.662109375,5.665039062-12.650390625,0-4.985351562-1.6875-8.872070312-5.059570312-11.66015625Z"/>
    <path class="cls-1" d="M731.587158203,672.356771716c-1.209960938,1.61328125-2.969726562,3.0078125-5.279296875,4.1796875-2.310546875,1.173828125-5.153320312,1.759765625-8.525390625,1.759765625h-17.26953125v-27.939453125h19.139648438c.66015625.073242188,1.282226562.219726562,1.870117188.439453125,1.540039062.734375,2.309570312,2.127929688,2.309570312,4.1796875v1.430664062h1.209960938v-15.400390625h-1.209960938v1.430664062c0,1.319335938-.384765625,2.419921875-1.154296875,3.299804688-.770507812.879882812-1.889648438,1.319335938-3.35546875,1.319335938h-18.809570312v-27.939453125h22.879882812c1.612304688,0,2.931640625.549804688,3.959960938,1.649414062,1.025390625,1.100585938,1.540039062,2.420898438,1.540039062,3.959960938v1.650390625l1.209960938.110351562v-12.540039062c-.66015625.293945312-2.127929688.66015625-4.400390625,1.099609375-2.2734375.440429688-4.9140625.66015625-7.919921875.66015625h-32.120117188v1.099609375h1.540039062c1.759765625,0,3.262695312.55078125,4.509765625,1.650390625,1.24609375,1.099609375,1.870117188,2.458007812,1.870117188,4.0703125v52.25c-.073242188,1.61328125-.71484375,2.98828125-1.924804688,4.125-1.209960938,1.137695312-2.6953125,1.705078125-4.455078125,1.705078125h-1.540039062v1.099609375h44.66015625l6.049804688-15.73046875h-1.099609375c-1.248046875,2.640625-2.475585938,4.768554688-3.685546875,6.380859375Z"/>
    <path class="cls-1" d="M828.936767578,672.631185778c-1.578125-1.795898438-3.66796875-4.306640625-6.270507812-7.53515625-2.603515625-3.225585938-3.868164062-4.83984375-3.794921875-4.83984375-3.299804688-4.692382812-6.124023438-7.551757812-8.469726562-8.580078125,4.986328125-.51171875,9.091796875-2.4921875,12.3203125-5.939453125,3.225585938-3.446289062,4.83984375-7.736328125,4.83984375-12.870117188,0-5.1328125-1.999023438-9.276367188-5.995117188-12.4296875-3.998046875-3.15234375-9.443359375-4.73046875-16.334960938-4.73046875h-27.610351562v1.099609375h1.540039062c1.686523438,0,3.134765625.55078125,4.344726562,1.650390625s1.815429688,2.458007812,1.815429688,4.0703125v52.25c0,1.61328125-.60546875,2.98828125-1.815429688,4.125-1.209960938,1.137695312-2.658203125,1.705078125-4.344726562,1.705078125h-1.540039062v1.099609375h22.549804688l-.109375-1.099609375h-1.430664062c-1.173828125,0-2.237304688-.256835938-3.189453125-.770507812-1.98046875-1.171875-3.0078125-2.895507812-3.080078125-5.169921875v-55.549804688h5.830078125c2.56640625,0,4.83984375.038085938,6.8203125.109375,4.471679688.220703125,8.029296875,1.540039062,10.669921875,3.9609375,2.639648438,2.419921875,3.959960938,5.8671875,3.959960938,10.33984375,0,3.51953125-.91796875,6.747070312-2.75,9.6796875-.879882812,1.393554688-2.530273438,2.713867188-4.950195312,3.959960938-1.759765625.879882812-6.9296875,1.3203125-15.509765625,1.3203125v1.099609375c3.4453125,0,7.149414062,2.458007812,11.109375,7.370117188.220703125.293945312,1.9609375,2.732421875,5.225585938,7.315429688,3.26171875,4.583007812,5.114257812,7.168945312,5.5546875,7.754882812,2.051757812,2.493164062,4.326171875,4.583984375,6.8203125,6.26953125,3.299804688,2.274414062,7.845703125,3.41015625,13.639648438,3.41015625h3.41015625v-1.099609375c-3.520507812,0-6.637695312-1.282226562-9.350585938-3.850585938-1.02734375-.952148438-2.328125-2.327148438-3.904296875-4.125Z"/>
    <path class="cls-1" d="M895.760986328,618.511068591c1.172851562-1.135742188,2.602539062-1.705078125,4.290039062-1.705078125h1.100585938l.109375-1.099609375h-21.669921875v1.099609375h1.209960938c1.100585938,0,2.08984375.2578125,2.970703125.770507812,2.051757812,1.173828125,3.079101562,2.897460938,3.079101562,5.169921875v51.919921875c0,1.614257812-.586914062,3.0078125-1.759765625,4.1796875-1.173828125,1.173828125-2.603515625,1.760742188-4.290039062,1.760742188h-1.209960938v1.099609375h21.669921875l-.109375-1.099609375h-1.100585938c-1.099609375,0-2.127929688-.256835938-3.080078125-.770507812-1.979492188-1.099609375-3.0078125-2.786132812-3.080078125-5.059570312v-52.140625c.072265625-1.612304688.696289062-2.987304688,1.870117188-4.125Z"/>
    <path class="cls-1" d="M992.176025391,672.356771716c-1.209960938,1.61328125-2.969726562,3.0078125-5.279296875,4.1796875-2.310546875,1.173828125-5.153320312,1.759765625-8.525390625,1.759765625h-17.26953125v-27.939453125h19.139648438c.66015625.073242188,1.282226562.219726562,1.870117188.439453125,1.540039062.734375,2.309570312,2.127929688,2.309570312,4.1796875v1.430664062h1.209960938v-15.400390625h-1.209960938v1.430664062c0,1.319335938-.384765625,2.419921875-1.154296875,3.299804688-.770507812.879882812-1.889648438,1.319335938-3.35546875,1.319335938h-18.809570312v-27.939453125h22.879882812c1.612304688,0,2.931640625.549804688,3.959960938,1.649414062,1.025390625,1.100585938,1.540039062,2.420898438,1.540039062,3.959960938v1.650390625l1.209960938.110351562v-12.540039062c-.66015625.293945312-2.127929688.66015625-4.400390625,1.099609375-2.2734375.440429688-4.9140625.66015625-7.919921875.66015625h-32.120117188v1.099609375h1.540039062c1.759765625,0,3.262695312.55078125,4.509765625,1.650390625,1.24609375,1.099609375,1.870117188,2.458007812,1.870117188,4.0703125v52.25c-.073242188,1.61328125-.71484375,2.98828125-1.924804688,4.125-1.209960938,1.137695312-2.6953125,1.705078125-4.455078125,1.705078125h-1.540039062v1.099609375h44.66015625l6.049804688-15.73046875h-1.099609375c-1.248046875,2.640625-2.475585938,4.768554688-3.685546875,6.380859375Z"/>
    <path class="cls-1" d="M470.301025391,773.817220934c-.517578125.689453125-1.26953125,1.28515625-2.255859375,1.786132812-.987304688.501953125-2.202148438.751953125-3.642578125.751953125h-7.37890625v-11.9375h8.177734375c.282226562.03125.547851562.09375.798828125.1875.658203125.313476562.987304688.909179688.987304688,1.786132812v.611328125h.516601562v-6.580078125h-.516601562v.610351562c0,.564453125-.165039062,1.034179688-.494140625,1.41015625s-.806640625.564453125-1.43359375.564453125h-8.036132812v-11.938476562h9.775390625c.689453125,0,1.252929688.235351562,1.692382812.705078125.438476562.469726562.658203125,1.034179688.658203125,1.692382812v.705078125l.516601562.046875v-5.358398438c-.282226562.125976562-.909179688.282226562-1.879882812.469726562-.971679688.188476562-2.099609375.282226562-3.383789062.282226562h-13.724609375v.469726562h.658203125c.751953125,0,1.393554688.235351562,1.926757812.705078125.533203125.470703125.799804688,1.05078125.799804688,1.739257812v22.325195312c-.032226562.689453125-.305664062,1.27734375-.823242188,1.762695312-.516601562.486328125-1.151367188.728515625-1.903320312.728515625h-.658203125v.469726562h19.08203125l2.584960938-6.720703125h-.469726562c-.533203125,1.127929688-1.057617188,2.037109375-1.57421875,2.725585938Z"/>
    <path class="cls-1" d="M500.169189453,765.873861559l-9.494140625-7.331054688c-1.22265625-1.002929688-1.833007812-2.185546875-1.833007812-3.548828125s.547851562-2.474609375,1.64453125-3.336914062c1.096679688-.861328125,2.491210938-1.29296875,4.18359375-1.29296875,1.69140625,0,2.991210938.360351562,3.900390625,1.081054688.908203125.721679688,1.36328125,1.739257812,1.36328125,3.055664062h.516601562l-.09375-5.123046875h-1.55078125c-1.25390625-.282226562-2.6953125-.423828125-4.32421875-.423828125-1.629882812,0-3.047851562.305664062-4.252929688.916992188-1.20703125.611328125-2.147460938,1.43359375-2.8203125,2.467773438-.674804688,1.033203125-1.010742188,2.162109375-1.010742188,3.383789062,0,2.162109375.751953125,3.885742188,2.255859375,5.169921875l9.400390625,7.23828125c1.127929688,1.002929688,1.69140625,2.263671875,1.69140625,3.783203125,0,1.520507812-.580078125,2.7578125-1.73828125,3.712890625-1.16015625.956054688-2.7734375,1.43359375-4.840820312,1.43359375-1.974609375,0-3.518554688-.541015625-4.629882812-1.62109375-1.112304688-1.081054688-1.668945312-2.467773438-1.668945312-4.16015625,0-.282226562.015625-.563476562.046875-.845703125h-.563476562c-.407226562,1.19140625-.611328125,2.366210938-.611328125,3.525390625s.046875,1.926757812.141601562,2.302734375c.814453125.720703125,1.989257812,1.268554688,3.524414062,1.64453125s3.0703125.564453125,4.606445312.564453125c2.318359375,0,4.284179688-.736328125,5.8984375-2.208984375,1.61328125-1.47265625,2.419921875-3.274414062,2.419921875-5.405273438,0-2.129882812-.720703125-3.791015625-2.161132812-4.982421875Z"/>
    <path class="cls-1" d="M520.190673828,749.565267809c-.564453125,0-1.41796875-.0625-2.561523438-.1875-1.14453125-.125-2.029296875-.313476562-2.655273438-.564453125v5.310546875h.516601562v-.751953125c0-.657226562.211914062-1.221679688.634765625-1.69140625s.994140625-.705078125,1.71484375-.705078125h8.5078125v23.829101562c-.032226562.689453125-.313476562,1.28515625-.846679688,1.786132812s-1.174804688.751953125-1.926757812.751953125h-.563476562v.469726562h9.681640625v-.469726562h-.516601562c-.501953125,0-.95703125-.109375-1.36328125-.329101562-.909179688-.469726562-1.37890625-1.190429688-1.41015625-2.162109375v-23.875976562h8.506835938c.689453125,0,1.252929688.235351562,1.692382812.705078125.438476562.469726562.658203125,1.034179688.658203125,1.69140625v.751953125h.516601562v-5.310546875c-1.25390625.501953125-3.0078125.751953125-5.263671875.751953125h-15.322265625Z"/>
    <path class="cls-1" d="M551.773681641,773.770345934c-.595703125,0-1.096679688.204101562-1.50390625.611328125s-.610351562.909179688-.610351562,1.50390625c0,.595703125.203125,1.096679688.610351562,1.50390625s.908203125.611328125,1.50390625.611328125c.594726562,0,1.096679688-.204101562,1.50390625-.611328125s.611328125-.908203125.611328125-1.50390625c0-.594726562-.204101562-1.096679688-.611328125-1.50390625s-.909179688-.611328125-1.50390625-.611328125Z"/>
    <path class="cls-1" d="M621.977783203,774.703939684c-.658203125.504882812-1.588867188.756835938-2.79296875.756835938h-9.659179688c.3359375-.336914062.845703125-.846679688,1.532226562-1.533203125.686523438-.685546875,1.288085938-1.294921875,1.806640625-1.827148438.517578125-.53125,1.140625-1.182617188,1.869140625-1.953125.727539062-.76953125,1.37109375-1.491210938,1.931640625-2.163085938.559570312-.671875,1.2734375-1.553710938,2.141601562-2.645507812.868164062-1.092773438,1.736328125-2.534179688,2.604492188-4.326171875.783203125-1.65234375,1.17578125-3.276367188,1.17578125-4.872070312,0-2.576171875-.833007812-4.60546875-2.499023438-6.08984375s-3.899414062-2.2265625-6.69921875-2.2265625c-.896484375,0-1.8203125.112304688-2.771484375.3359375-2.072265625.50390625-3.654296875,1.302734375-4.74609375,2.39453125l.755859375,4.788085938.419921875-.041992188c-.056640625-1.959960938.497070312-3.486328125,1.659179688-4.578125,1.161132812-1.091796875,2.764648438-1.637695312,4.80859375-1.637695312,1.8203125,0,3.26171875.63671875,4.326171875,1.91015625,1.063476562,1.274414062,1.595703125,3.044921875,1.595703125,5.313476562,0,1.51171875-.497070312,3.283203125-1.490234375,5.3125-.994140625,2.03125-2.26171875,4.040039062-3.801757812,6.02734375-2.939453125,3.752929688-5.893554688,7-8.861328125,9.744140625v.419921875h17.219726562l2.015625-5.921875h-.419921875c-.755859375,1.372070312-1.462890625,2.309570312-2.12109375,2.813476562Z"/>
    <path class="cls-1" d="M649.005126953,747.824056872c-3.052734375,0-5.459960938,1.365234375-7.224609375,4.095703125-1.763671875,2.729492188-2.645507812,6.4609375-2.645507812,11.192382812,0,4.732421875.881835938,8.462890625,2.645507812,11.193359375,1.764648438,2.729492188,4.171875,4.094726562,7.224609375,4.094726562,3.05078125,0,5.459960938-1.365234375,7.223632812-4.094726562,1.763671875-2.73046875,2.646484375-6.4609375,2.646484375-11.193359375,0-4.731445312-.8828125-8.462890625-2.646484375-11.192382812-1.763671875-2.73046875-4.172851562-4.095703125-7.223632812-4.095703125ZM654.087158203,773.381674059c-1.232421875,2.505859375-2.926757812,3.758789062-5.08203125,3.758789062-2.157226562,0-3.850585938-1.252929688-5.08203125-3.758789062-1.232421875-2.505859375-1.848632812-5.928710938-1.848632812-10.26953125,0-4.33984375.616210938-7.762695312,1.848632812-10.268554688,1.231445312-2.505859375,2.924804688-3.758789062,5.08203125-3.758789062,2.155273438,0,3.849609375,1.252929688,5.08203125,3.758789062,1.231445312,2.505859375,1.84765625,5.928710938,1.84765625,10.268554688,0,4.340820312-.616210938,7.763671875-1.84765625,10.26953125Z"/>
    <path class="cls-1" d="M681.428955078,776.741049059c-.448242188-.43359375-.672851562-.97265625-.672851562-1.6171875v-27.299804688h-.419921875c-.755859375.896484375-1.58203125,1.526367188-2.477539062,1.890625-.896484375.364257812-2.001953125.629882812-3.318359375.797851562v.419921875h1.596679688c1.287109375,0,1.931640625.686523438,1.931640625,2.057617188v22.133789062c0,.616210938-.231445312,1.1484375-.693359375,1.596679688s-1.000976562.671875-1.6171875.671875h-.881835938l-.041992188.419921875h9.114257812v-.419921875h-.881835938c-.64453125,0-1.190429688-.216796875-1.637695312-.651367188Z"/>
    <path class="cls-1" d="M707.845947266,776.741049059c-.448242188-.43359375-.671875-.97265625-.671875-1.6171875v-27.299804688h-.419921875c-.755859375.896484375-1.58203125,1.526367188-2.478515625,1.890625s-2.001953125.629882812-3.317382812.797851562v.419921875h1.595703125c1.287109375,0,1.931640625.686523438,1.931640625,2.057617188v22.133789062c0,.616210938-.23046875,1.1484375-.692382812,1.596679688s-1.001953125.671875-1.6171875.671875h-.881835938l-.041992188.419921875h9.114257812v-.419921875h-.8828125c-.64453125,0-1.190429688-.216796875-1.637695312-.651367188Z"/>
  </g>
  <g>
    <path class="cls-1" d="M613.354003906,88.63671875c-28.35546875,0-28.35546875,30.530273438-28.35546875,81.110839844,0,55.272949219,1.659179688,81.312988281,16.821289062,81.312988281,10.78515625,0,24.477539062-11.590332031,32.635742188-22.358886719,9.290039062-12.26171875,20.36328125-33.709960938,20.36328125-66.254882812,0-43.458007812-17.05078125-73.810058594-41.46484375-73.810058594ZM629.673339844,225.078125c-6.084960938,8.032226562-18.524414062,19.982421875-27.853515625,19.982421875-10.006835938,0-10.821289062-34.107910156-10.821289062-75.312988281,0-23.966796875,0-44.665039062,3.24609375-57.794921875,3.041015625-12.299316406,8.577148438-17.315917969,19.109375-17.315917969,20.549804688,0,35.46484375,28.518066406,35.46484375,67.810058594,0,30.878417969-10.411132812,51.103027344-19.145507812,62.631347656Z"/>
    <path class="cls-1" d="M610.772949219,126.001525879h-3.577148438c-1.871582031,0-3.38861084,1.517028809-3.38861084,3.38861084s1.517028809,3.38861084,3.38861084,3.38861084h3.577148438c1.871582031,0,3.388671875-1.517028809,3.388671875-3.38861084s-1.517089844-3.38861084-3.388671875-3.38861084Z"/>
    <path class="cls-1" d="M624.681030273,132.778747559h3.577270508c1.871582031,0,3.388549805-1.517028809,3.388549805-3.38861084s-1.516967773-3.38861084-3.388549805-3.38861084h-3.577270508c-1.871582031,0-3.388549805,1.517028809-3.388549805,3.38861084s1.516967773,3.38861084,3.388549805,3.38861084Z"/>
    <path class="cls-1" d="M610.772949219,149.409118652h-3.577148438c-1.871582031,0-3.38861084,1.517028809-3.38861084,3.38861084s1.517028809,3.38861084,3.38861084,3.38861084h3.577148438c1.871582031,0,3.388671875-1.517028809,3.388671875-3.38861084s-1.517089844-3.38861084-3.388671875-3.38861084Z"/>
    <path class="cls-1" d="M628.258300781,149.409118652h-3.577270508c-1.871582031,0-3.388549805,1.517028809-3.388549805,3.38861084s1.516967773,3.38861084,3.388549805,3.38861084h3.577270508c1.871582031,0,3.388549805-1.517028809,3.388549805-3.38861084s-1.516967773-3.38861084-3.388549805-3.38861084Z"/>
    <path class="cls-1" d="M610.772949219,172.816711426h-3.577148438c-1.871582031,0-3.38861084,1.517028809-3.38861084,3.38861084s1.517028809,3.38861084,3.38861084,3.38861084h3.577148438c1.871582031,0,3.388671875-1.517028809,3.388671875-3.38861084s-1.517089844-3.38861084-3.388671875-3.38861084Z"/>
    <path class="cls-1" d="M628.258300781,172.816711426h-3.577270508c-1.871582031,0-3.388549805,1.517028809-3.388549805,3.38861084s1.516967773,3.38861084,3.388549805,3.38861084h3.577270508c1.871582031,0,3.388549805-1.517028809,3.388549805-3.38861084s-1.516967773-3.38861084-3.388549805-3.38861084Z"/>
    <path class="cls-1" d="M610.772949219,196.224304199h-3.577148438c-1.871582031,0-3.38861084,1.517028809-3.38861084,3.38861084s1.517028809,3.38861084,3.38861084,3.38861084h3.577148438c1.871582031,0,3.388671875-1.517028809,3.388671875-3.38861084s-1.517089844-3.38861084-3.388671875-3.38861084Z"/>
    <path class="cls-1" d="M628.258300781,196.224304199h-3.577270508c-1.871582031,0-3.388549805,1.517028809-3.388549805,3.38861084s1.516967773,3.38861084,3.388549805,3.38861084h3.577270508c1.871582031,0,3.388549805-1.517028809,3.388549805-3.38861084s-1.516967773-3.38861084-3.388549805-3.38861084Z"/>
    <path class="cls-1" d="M551.097106934,88.63671875c-24.4140625,0-41.46484375,30.352050781-41.46484375,73.810058594,0,32.544921875,11.073242188,53.993164062,20.36328125,66.254882812,8.158203125,10.768554688,21.850585938,22.358886719,32.635742188,22.358886719,15.162109375,0,16.821289062-26.040039062,16.821289062-81.312988281,0-50.580566406,0-81.110839844-28.35546875-81.110839844ZM573.452575684,169.747558594c0,41.205078125-.814453125,75.312988281-10.821289062,75.312988281-9.329101562,0-21.768554688-11.950195312-27.853515625-19.982421875-8.734375-11.528320312-19.145507812-31.752929688-19.145507812-62.631347656,0-39.291992188,14.915039062-67.810058594,35.46484375-67.810058594,10.532226562,0,16.068359375,5.016601562,19.109375,17.315917969,3.24609375,13.129882812,3.24609375,33.828125,3.24609375,57.794921875Z"/>
    <path class="cls-1" d="M557.255310059,126.001525879h-3.577148438c-1.871582031,0-3.388671875,1.517028809-3.388671875,3.38861084s1.517089844,3.38861084,3.388671875,3.38861084h3.577148438c1.871582031,0,3.38861084-1.517028809,3.38861084-3.38861084s-1.517028809-3.38861084-3.38861084-3.38861084Z"/>
    <path class="cls-1" d="M539.770080566,126.001525879h-3.577270508c-1.871582031,0-3.388549805,1.517028809-3.388549805,3.38861084s1.516967773,3.38861084,3.388549805,3.38861084h3.577270508c1.871582031,0,3.388549805-1.517028809,3.388549805-3.38861084s-1.516967773-3.38861084-3.388549805-3.38861084Z"/>
    <path class="cls-1" d="M557.255310059,149.409118652h-3.577148438c-1.871582031,0-3.388671875,1.517028809-3.388671875,3.38861084s1.517089844,3.38861084,3.388671875,3.38861084h3.577148438c1.871582031,0,3.38861084-1.517028809,3.38861084-3.38861084s-1.517028809-3.38861084-3.38861084-3.38861084Z"/>
    <path class="cls-1" d="M539.770080566,149.409118652h-3.577270508c-1.871582031,0-3.388549805,1.517028809-3.388549805,3.38861084s1.516967773,3.38861084,3.388549805,3.38861084h3.577270508c1.871582031,0,3.388549805-1.517028809,3.388549805-3.38861084s-1.516967773-3.38861084-3.388549805-3.38861084Z"/>
    <path class="cls-1" d="M557.255310059,172.816711426h-3.577148438c-1.871582031,0-3.388671875,1.517028809-3.388671875,3.38861084s1.517089844,3.38861084,3.388671875,3.38861084h3.577148438c1.871582031,0,3.38861084-1.517028809,3.38861084-3.38861084s-1.517028809-3.38861084-3.38861084-3.38861084Z"/>
    <path class="cls-1" d="M539.770080566,172.816711426h-3.577270508c-1.871582031,0-3.388549805,1.517028809-3.388549805,3.38861084s1.516967773,3.38861084,3.388549805,3.38861084h3.577270508c1.871582031,0,3.388549805-1.517028809,3.388549805-3.38861084s-1.516967773-3.38861084-3.388549805-3.38861084Z"/>
    <path class="cls-1" d="M557.255310059,196.224304199h-3.577148438c-1.871582031,0-3.388671875,1.517028809-3.388671875,3.38861084s1.517089844,3.38861084,3.388671875,3.38861084h3.577148438c1.871582031,0,3.38861084-1.517028809,3.38861084-3.38861084s-1.517028809-3.38861084-3.38861084-3.38861084Z"/>
    <path class="cls-1" d="M539.770080566,196.224304199h-3.577270508c-1.871582031,0-3.388549805,1.517028809-3.388549805,3.38861084s1.516967773,3.38861084,3.388549805,3.38861084h3.577270508c1.871582031,0,3.388549805-1.517028809,3.388549805-3.38861084s-1.516967773-3.38861084-3.388549805-3.38861084Z"/>
    <path class="cls-1" d="M646.896240234,89.806640625c-10.453857422-12.403686523-24.362304688-22.426696777-38.605712891-27.450500488,8.678955078-8.886779785,13.592529297-18.880187988,13.177001953-26.952331543-.1953125-3.813476562-1.594726562-6.861328125-4.043945312-8.813964844-2.514648438-2.004394531-5.223632812-2.831054688-8.060546875-2.451171875-3.268554688.435546875-6.110351562,2.45703125-8.422851562,4.755371094-.0546875-7.536621094-1.336914062-17.368652344-6.830078125-23.422851562-3.008544922-3.315856934-6.902282715-5.120422363-11.571655273-5.411437988-.191589355-.038391113-.389465332-.059753418-.592407227-.059753418-.127502441,0-.247619629.014526367-.374023438.016662598-.126403809-.00213623-.246520996-.016662598-.374023437-.016662598-.202819824,0-.40057373.021362305-.592163086.059753418-4.669189453.291015625-8.563293457,2.095581055-11.571899414,5.411437988-5.493164062,6.054199219-6.775390625,15.886230469-6.830078125,23.422851562-2.3125-2.298828125-5.154296875-4.319824219-8.422363281-4.755371094-2.838867188-.380371094-5.546875.446777344-8.060546875,2.451171875-2.449707031,1.952636719-3.848144531,5.000488281-4.044433594,8.813964844-.428649902,8.345092773,4.827453613,18.74609375,14.062438965,27.852294922-14.474731445,4.93536377-27.561462402,13.94708252-38.183532715,26.550537109-16.550292969,19.637207031-25.664550781,46.175292969-25.664550781,74.725097656,0,51.021972656,36.298828125,105.650390625,90.334472656,105.650390625,24.4609375,0,47.640625-12.561523438,65.270507812-35.370605469,15.694335938-20.306152344,25.064453125-46.579101562,25.064453125-70.279785156,0-28.549804688-9.114257812-55.087890625-25.6640625-74.725097656ZM547.668701172,35.711914062c.073730469-1.427734375.443847656-3.35546875,1.792480469-4.430664062,1.604003906-1.279785156,2.779785156-1.294921875,3.52734375-1.1953125,3.530761719.470703125,7.14453125,5.398925781,9.0859375,8.045898438l.210449219.287109375c.922363281,1.252929688,2.580078125,1.740722656,4.031738281,1.183105469,1.450195312-.555175781,2.357910156-2.022949219,2.20703125-3.569335938-.435058594-4.463378906-1.362792969-19.567871094,4.953613281-26.529785156,2.061645508-2.272033691,4.717590332-3.407775879,8.094726562-3.487426758,3.37677002.079650879,6.033081055,1.215393066,8.094726562,3.487426758,6.31640625,6.961425781,5.388671875,22.06640625,4.954101562,26.529785156-.151367188,1.546386719.755859375,3.014160156,2.206054688,3.569335938,1.451171875.557617188,3.110351562.069824219,4.034179688-1.185058594l.208007812-.284667969c1.94140625-2.647460938,5.555664062-7.575683594,9.086914062-8.046386719.747070312-.099609375,1.922851562-.083496094,3.52734375,1.1953125,1.348632812,1.075195312,1.71875,3.002929688,1.791992188,4.430664062.265625,5.16796875-2.8515625,14.025878906-12.396484375,23.388671875-2.444946289,2.397766113-5.082946777,4.310058594-7.636230469,5.830505371,2.022705078-4.904418945,2.371337891-9.113891602,2.392089844-9.391052246.125-1.649414062-1.108398438-3.084472656-2.7578125-3.213867188-1.646484375-.118652344-3.090820312,1.10546875-3.224609375,2.753417969-.006713867.086120605-.068908691,8.262268066-5.490112305,13.981933594-2.142822266.6875-7.194152832.870849609-9.920471191-.074645996-5.436950684-5.719909668-6.188171387-14.183288574-6.194885254-14.261779785-.124511719-1.65234375-1.581542969-2.875488281-3.217285156-2.765625-1.65234375.125-2.890136719,1.565917969-2.765625,3.217773438.020507812.270324707.354919434,4.274780273,2.242553711,9.016479492-2.173156738-1.389770508-4.375915527-3.067993164-6.440795898-5.093139648-9.545410156-9.362792969-12.662597656-18.220703125-12.396972656-23.388671875ZM582.225341797,264.182128906c-3.20300293,0-6.338500977-.209777832-9.403564453-.61114502,2.33605957-1.45703125,5.061645508-3.632080078,7.687744141-6.878967285.348144531-.430053711.899780273-.819641113,1.716064453-.819641113s1.367919922.389587402,1.716064453.819641113c2.586547852,3.197937012,5.26953125,5.355957031,7.58203125,6.812805176-3.072387695.444152832-6.174560547.677307129-9.298339844.677307129ZM642.747802734,231.142089844c-12.150146484,15.720825195-27.038574219,26.222473145-43.072021484,30.652160645-.25189209-.168640137-.535644531-.298278809-.849365234-.367370605-.12890625-.030761719-5.767578125-1.413085938-10.998046875-7.879394531-1.27734375-1.579162598-3.336914062-2.568847656-5.540283203-2.694519043h-.125c-2.203369141.125671387-4.262939453,1.115356445-5.540283203,2.694519043-5.23046875,6.466308594-10.869140625,7.848632812-10.998046875,7.879394531-.416870117.091796875-.778381348.291137695-1.081298828.551269531-40.523254395-10.31652832-66.652587891-55.190063477-66.652587891-97.446411133,0-27.137207031,8.612792969-52.301757812,24.252441406-70.858398438,10.470458984-12.424072266,24.462036133-21.541320801,38.882751465-25.944702148,9.153625488,6.624511719,18.460144043,8.381164551,18.92388916,8.465209961.181152344.032714844,3.063476562.032714844,3.244140625,0,.479797363-.087036133,10.442626953-1.968139648,19.898986816-9.190795898,14.202331543,4.493103027,28.898498535,14.429870605,39.214294434,26.670288086,15.639648438,18.556640625,24.252929688,43.721191406,24.252929688,70.858398438,0,22.41796875-8.901367188,47.319335938-23.8125,66.610351562Z"/>
    <path class="cls-1" d="M605.044677734,83.612792969c1.620117188-.316894531,2.680664062-1.884277344,2.370117188-3.5078125-.310546875-1.626953125-1.877929688-2.693847656-3.509765625-2.383300781-.46484375.088867188-9.821228027,1.983276367-19.189453125,11.435180664v-7.44934082c0-1.656738281-1.342773438-3-3-3-1.656738281,0-3,1.343261719-3,3v7.449279785c-9.368835449-9.451843262-18.725463867-11.346252441-19.189941406-11.435119629-1.624511719-.309570312-3.18359375.750488281-3.500488281,2.37109375-.317871094,1.620605469.741210938,3.194824219,2.360351562,3.51953125.112792969.022949219,11.385253906,2.412109375,20.672363281,15.19921875.586914062.80859375,1.501953125,1.237304688,2.430175781,1.237304688.075622559,0,.151245117-.011657715.226928711-.01739502.07611084.00579834.152038574.017456055.228149414.01739502.928710938,0,1.84375-.428710938,2.430664062-1.237304688,9.262695312-12.754882812,20.501953125-15.164550781,20.670898438-15.198730469Z"/>
  </g>
</svg>