<svg xmlns="http://www.w3.org/2000/svg" width="55.356" height="37.127" viewBox="0 0 55.356 37.127">
  <g id="Group_94" data-name="Group 94" transform="translate(-803.846 -525.451)">
    <path id="Path_92" data-name="Path 92" d="M813.011,562v-9.164a5.244,5.244,0,0,1,5.337-5.113h0a5.245,5.245,0,0,1,5.338,5.113v9.15" fill="none" stroke="#fff" stroke-miterlimit="10" stroke-width="1"/>
    <path id="Path_93" data-name="Path 93" d="M817.1,542.585v-3.913a1.7,1.7,0,0,0-1.727-1.654h0a1.7,1.7,0,0,0-1.726,1.654v3.913Z" fill="none" stroke="#fff" stroke-miterlimit="10" stroke-width="1"/>
    <path id="Path_94" data-name="Path 94" d="M822.241,542.585v-3.913a1.7,1.7,0,0,0-1.726-1.654h0a1.7,1.7,0,0,0-1.726,1.654v3.913Z" fill="none" stroke="#fff" stroke-miterlimit="10" stroke-width="1"/>
    <path id="Path_95" data-name="Path 95" d="M830.149,542.585v-3.913a1.7,1.7,0,0,0-1.726-1.654h0a1.7,1.7,0,0,0-1.726,1.654v3.913Z" fill="none" stroke="#fff" stroke-miterlimit="10" stroke-width="1"/>
    <path id="Path_96" data-name="Path 96" d="M835.294,542.585v-3.913a1.7,1.7,0,0,0-1.727-1.654h0a1.7,1.7,0,0,0-1.726,1.654v3.913Z" fill="none" stroke="#fff" stroke-miterlimit="10" stroke-width="1"/>
    <path id="Path_97" data-name="Path 97" d="M843.279,542.585v-3.913a1.7,1.7,0,0,0-1.727-1.654h0a1.7,1.7,0,0,0-1.726,1.654v3.913Z" fill="none" stroke="#fff" stroke-miterlimit="10" stroke-width="1"/>
    <path id="Path_98" data-name="Path 98" d="M848.423,542.585v-3.913a1.7,1.7,0,0,0-1.726-1.654h0a1.7,1.7,0,0,0-1.726,1.654v3.913Z" fill="none" stroke="#fff" stroke-miterlimit="10" stroke-width="1"/>
    <path id="Path_99" data-name="Path 99" d="M839.093,562.054v-9.221a5.245,5.245,0,0,1,5.338-5.113h0a5.245,5.245,0,0,1,5.338,5.113V562" fill="none" stroke="#fff" stroke-miterlimit="10" stroke-width="1"/>
    <path id="Path_100" data-name="Path 100" d="M826.251,562v-7.649a5.244,5.244,0,0,1,5.338-5.112h0a5.244,5.244,0,0,1,5.338,5.112v7.635" fill="none" stroke="#fff" stroke-miterlimit="10" stroke-width="1"/>
    <line id="Line_121" data-name="Line 121" x2="55.356" transform="translate(803.846 562.078)" fill="none" stroke="#fff" stroke-miterlimit="10" stroke-width="1"/>
    <line id="Line_122" data-name="Line 122" x2="44.729" transform="translate(808.96 531.05)" fill="none" stroke="#fff" stroke-miterlimit="10" stroke-width="1"/>
    <line id="Line_123" data-name="Line 123" y2="29.287" transform="translate(806.718 532.725)" fill="none" stroke="#fff" stroke-miterlimit="10" stroke-width="1"/>
    <line id="Line_124" data-name="Line 124" y2="29.158" transform="translate(856.171 532.725)" fill="none" stroke="#fff" stroke-miterlimit="10" stroke-width="1"/>
    <path id="Path_101" data-name="Path 101" d="M805.362,532.565l5.344-.02V562" fill="none" stroke="#fff" stroke-miterlimit="10" stroke-width="1"/>
    <path id="Path_102" data-name="Path 102" d="M856.889,532.725h-4.547v29.23" fill="none" stroke="#fff" stroke-miterlimit="10" stroke-width="1"/>
    <path id="Path_103" data-name="Path 103" d="M812.52,531.039c0-2.061,2.3-4.52,5.14-4.52s5.14,2.459,5.14,4.52" fill="none" stroke="#fff" stroke-miterlimit="10" stroke-width="1"/>
    <path id="Path_104" data-name="Path 104" d="M825.616,531.039c0-2.061,2.3-4.52,5.14-4.52s5.139,2.459,5.139,4.52" fill="none" stroke="#fff" stroke-miterlimit="10" stroke-width="1"/>
    <path id="Path_105" data-name="Path 105" d="M839.134,531.039c0-2.061,2.3-4.52,5.14-4.52s5.14,2.459,5.14,4.52" fill="none" stroke="#fff" stroke-miterlimit="10" stroke-width="1"/>
    <line id="Line_125" data-name="Line 125" y1="2.129" transform="translate(810.703 531.346)" fill="none" stroke="#fff" stroke-miterlimit="10" stroke-width="1"/>
    <line id="Line_126" data-name="Line 126" y1="0.972" transform="translate(817.742 525.451)" fill="none" stroke="#fff" stroke-miterlimit="10" stroke-width="1"/>
    <line id="Line_127" data-name="Line 127" y1="8.989" transform="translate(816.697 552.686)" fill="none" stroke="#fff" stroke-miterlimit="10" stroke-width="1"/>
    <line id="Line_128" data-name="Line 128" x2="10.676" transform="translate(813.011 552.624)" fill="none" stroke="#fff" stroke-miterlimit="10" stroke-width="1"/>
    <line id="Line_129" data-name="Line 129" x2="10.567" transform="translate(839.168 552.624)" fill="none" stroke="#fff" stroke-miterlimit="10" stroke-width="1"/>
    <line id="Line_130" data-name="Line 130" y1="0.972" transform="translate(830.851 525.451)" fill="none" stroke="#fff" stroke-miterlimit="10" stroke-width="1"/>
    <line id="Line_131" data-name="Line 131" y1="0.972" transform="translate(844.814 525.451)" fill="none" stroke="#fff" stroke-miterlimit="10" stroke-width="1"/>
    <path id="Path_106" data-name="Path 106" d="M844.4,547.825" fill="none" stroke="#fff" stroke-miterlimit="10" stroke-width="1"/>
    <path id="Path_107" data-name="Path 107" d="M844.4,561.675" fill="none" stroke="#fff" stroke-miterlimit="10" stroke-width="1"/>
    <line id="Line_132" data-name="Line 132" x2="10.545" transform="translate(826.36 554.159)" fill="none" stroke="#fff" stroke-miterlimit="10" stroke-width="1"/>
    <line id="Line_133" data-name="Line 133" y1="8.965" transform="translate(820.177 552.711)" fill="none" stroke="#fff" stroke-miterlimit="10" stroke-width="1"/>
    <line id="Line_134" data-name="Line 134" y1="8.989" transform="translate(842.594 552.686)" fill="none" stroke="#fff" stroke-miterlimit="10" stroke-width="1"/>
    <line id="Line_135" data-name="Line 135" y1="9.037" transform="translate(846.073 552.638)" fill="none" stroke="#fff" stroke-miterlimit="10" stroke-width="1"/>
    <line id="Line_136" data-name="Line 136" y1="2.129" transform="translate(852.336 531.346)" fill="none" stroke="#fff" stroke-miterlimit="10" stroke-width="1"/>
  </g>
</svg>
