<svg xmlns="http://www.w3.org/2000/svg" width="70.475" height="43.958" viewBox="0 0 70.475 43.958">
  <g id="Group_305" data-name="Group 305" transform="translate(-1161.8 -605.647)">
    <g id="Group_304" data-name="Group 304">
      <path id="Path_209" data-name="Path 209" d="M1231.138,647.166a1.214,1.214,0,0,1-.878.176c-7.024,0-14.049-.008-21.073.016a2.61,2.61,0,0,1-1.406-.541,3.768,3.768,0,0,0-2.018-.545c-4.449.033-8.9.016-13.346.016-1.405,0-2.811.034-4.214-.013a3.011,3.011,0,0,0-2.108.627,2.218,2.218,0,0,1-1.492.45c-5.181-.017-10.361-.006-15.541-.012q-3.074,0-6.146-.047c-.486-.007-.623.247-.614.664.01.483-.123,1.052.614,1.138a5.462,5.462,0,0,0,.614,0h67.081c1,0,1.451-.655.943-1.479a2.476,2.476,0,0,1-.342-1.154c-.173-1.788-.322-3.584-.623-5.353a31.272,31.272,0,0,1-.139-4.921c-.047-3.687-.015-7.375-.015-11.063,0-2.839-.07-5.68.02-8.516.088-2.757-.8-5.333-1.249-7.991-.831-.832-.461-1.92-.614-2.9" fill="none" stroke="#fff" stroke-miterlimit="10" stroke-width="1"/>
      <path id="Path_210" data-name="Path 210" d="M1226.572,636.718a1.78,1.78,0,0,1-.966.082c-3.365.009-6.731.005-10.1.007a2.286,2.286,0,0,0-.957.09c-.238.565.049,1.185-.232,1.82-2.292.239-4.635.034-6.965.132-.215-.741.039-1.372-.193-1.935-1.685-.464-3.394.053-5.086-.116s-3.408-.075-5.093-.075-3.4-.084-5.094.072-3.4-.251-5.116.1c-.02.2-.055.4-.061.61-.036,1.317-.034,1.317-1.407,1.317-1.551,0-3.1,0-4.653,0-1.121,0-1.128-.015-1.144-1.141,0-.264-.035-.528-.053-.768a2.256,2.256,0,0,0-1-.109c-3.4,0-6.79,0-10.185-.007-.291,0-.6.1-.878-.082" fill="none" stroke="#fff" stroke-miterlimit="10" stroke-width="1"/>
      <path id="Path_211" data-name="Path 211" d="M1205.148,636.542c.024-.635-.452-.924-.88-1.225a11.77,11.77,0,0,0-6.32-2.106,13.309,13.309,0,0,0-6.58,1.145,4.836,4.836,0,0,0-2.726,2.186" fill="none" stroke="#fff" stroke-miterlimit="10" stroke-width="1"/>
      <path id="Path_212" data-name="Path 212" d="M1162.74,647.166c.117-1.229.261-2.456.344-3.688.091-1.353.471-2.67.453-4.038-.026-2.019-.007-4.039-.007-6.058s.018-4.04-.005-6.059-.118-11.835-.072-12.115c.24-1.438,1.921-7.2,1.921-7.2a53.637,53.637,0,0,1,1.6,7,7.773,7.773,0,0,1,.133,1.163c-.079,1.961.022,13.23.022,15.279,0,1.463.01,2.927,0,4.39-.011,1.4.022,2.809-.06,4.216a12.608,12.608,0,0,0,.252,1.841c.168,1.76.4,3.513.6,5.269" fill="none" stroke="#fff" stroke-miterlimit="10" stroke-width="1"/>
      <path id="Path_213" data-name="Path 213" d="M1202.69,646.113c.076-2.816-2.1-4.554-4.477-5.1a6.083,6.083,0,0,0-5.518,1.6,4.313,4.313,0,0,0-1.419,3.495" fill="none" stroke="#fff" stroke-miterlimit="10" stroke-width="1"/>
      <path id="Path_214" data-name="Path 214" d="M1199.968,630.835a2.393,2.393,0,0,1-.615.168c-1.668,0-3.336-.026-5-.035-1.405-.007-2.81.017-4.215-.005-1.727-.028-3.454.009-5.183-.046a17.723,17.723,0,0,0-2.986.066,20.545,20.545,0,0,1-2.836.028c-.281.535.005,1.047-.288,1.519a15.4,15.4,0,0,1-2.4.057c-1.087.017-1.085.005-1.144,1.058a3.272,3.272,0,0,1-.084.441,2.733,2.733,0,0,1-2.46-.44c-1.606-1.312-3.474-1.178-5.355-.967" fill="none" stroke="#fff" stroke-miterlimit="10" stroke-width="1"/>
      <path id="Path_215" data-name="Path 215" d="M1205.412,629.167a1.657,1.657,0,0,1,0,.263c-.248,1.459-.03,1.629,1.407,1.6,2.692-.059,5.385-.017,8.007-.017.3.534,0,1.047.3,1.519a15.348,15.348,0,0,0,2.4.057c1.087.017,1.085.005,1.144,1.058a3.407,3.407,0,0,0,.085.447,2.82,2.82,0,0,0,2.468-.434c.381-.307.96-.394,1.285-.737.447-.471.942-.289,1.427-.327a13.259,13.259,0,0,0,2.634-.09" fill="none" stroke="#fff" stroke-miterlimit="10" stroke-width="1"/>
      <path id="Path_216" data-name="Path 216" d="M1182.934,630.748c-.029-.235-.052-.47-.088-.7a1.289,1.289,0,0,1,.79-1.581,13.038,13.038,0,0,1,2.1-1.038,5.324,5.324,0,0,1,1.323.089q9.79-.035,19.58.01c.5,0,.905-.355,1.406-.2a25.091,25.091,0,0,1,2.8,1.425.687.687,0,0,1,.28.685c-.035.466-.009.936-.009,1.4" fill="none" stroke="#fff" stroke-miterlimit="10" stroke-width="1"/>
      <path id="Path_217" data-name="Path 217" d="M1207.87,627.148a6.759,6.759,0,0,0-3.336-4.215,13.456,13.456,0,0,0-6.76-1.862,16.483,16.483,0,0,0-6.147.808,8.524,8.524,0,0,0-5.349,4.569,4.169,4.169,0,0,0-.183.787" fill="none" stroke="#fff" stroke-miterlimit="10" stroke-width="1"/>
      <path id="Path_218" data-name="Path 218" d="M1228.635,607.919a2.3,2.3,0,0,0-.675,1.577c-.3,1.532-.793,3.034-.984,4.576a12.252,12.252,0,0,0-.156,1.925c.093,2.633.149,5.277.114,7.9-.032,2.455.083,4.925-.124,7.374-.151,1.789.1,3.566-.061,5.366a18.751,18.751,0,0,0,.132,3.333,16.532,16.532,0,0,1-.325,2.716c-.116,1.5-.335,2.987-.511,4.479" fill="none" stroke="#fff" stroke-miterlimit="10" stroke-width="1"/>
      <path id="Path_219" data-name="Path 219" d="M1170.028,617.379v1.954c0,.088.037.205-.006.259-.976,1.235-.634,2.742-.9,4.126a33.622,33.622,0,0,0-.134,4.572c-.076,1.371-.016,2.75-.016,4.126" fill="none" stroke="#fff" stroke-miterlimit="10" stroke-width="1"/>
      <path id="Path_220" data-name="Path 220" d="M1224.992,632.416c0-2.459.019-4.917-.008-7.376a28.886,28.886,0,0,0-.5-4.48,1.162,1.162,0,0,0-.455-.788" fill="none" stroke="#fff" stroke-miterlimit="10" stroke-width="1"/>
      <path id="Path_221" data-name="Path 221" d="M1223.85,619.772a7.734,7.734,0,0,0-.725,3.952c0,.244.062.446-.153.614" fill="none" stroke="#fff" stroke-miterlimit="10" stroke-width="1"/>
      <path id="Path_222" data-name="Path 222" d="M1170.115,619.772a7.674,7.674,0,0,1,.7,4.127" fill="none" stroke="#fff" stroke-miterlimit="10" stroke-width="1"/>
      <path id="Path_223" data-name="Path 223" d="M1169.237,623.9a6.6,6.6,0,0,0,1.585.1,2.2,2.2,0,0,1,.258,1.477c-.024,1.025-.131,2.054-.063,3.072.052.766-.286.9-.9.881-.292-.011-.585,0-.878,0" fill="none" stroke="#fff" stroke-miterlimit="10" stroke-width="1"/>
      <path id="Path_224" data-name="Path 224" d="M1222.709,624.338c.314-.053.27.166.263.351-.028.673-.055,1.347-.089,2.02a1.967,1.967,0,0,0,.177,1.053" fill="none" stroke="#fff" stroke-miterlimit="10" stroke-width="1"/>
      <path id="Path_225" data-name="Path 225" d="M1230.172,622.055a21.593,21.593,0,0,1-3.073-.088" fill="none" stroke="#fff" stroke-miterlimit="10" stroke-width="1"/>
      <path id="Path_226" data-name="Path 226" d="M1170.818,629.43a5.759,5.759,0,0,1,.175,3.074" fill="none" stroke="#fff" stroke-miterlimit="10" stroke-width="1"/>
      <path id="Path_227" data-name="Path 227" d="M1163.794,640.142l3.073.088" fill="none" stroke="#fff" stroke-miterlimit="10" stroke-width="1"/>
      <path id="Path_228" data-name="Path 228" d="M1230.172,640.142a26.932,26.932,0,0,0-3.073.088" fill="none" stroke="#fff" stroke-miterlimit="10" stroke-width="1"/>
      <path id="Path_229" data-name="Path 229" d="M1230.172,623.987a21.738,21.738,0,0,1-3.073-.088" fill="none" stroke="#fff" stroke-miterlimit="10" stroke-width="1"/>
      <path id="Path_230" data-name="Path 230" d="M1227.187,614.68h2.985" fill="none" stroke="#fff" stroke-miterlimit="10" stroke-width="1"/>
      <path id="Path_231" data-name="Path 231" d="M1163.794,614.592a20.379,20.379,0,0,0,2.985.088" fill="none" stroke="#fff" stroke-miterlimit="10" stroke-width="1"/>
      <path id="Path_232" data-name="Path 232" d="M1163.794,623.987h2.985" fill="none" stroke="#fff" stroke-miterlimit="10" stroke-width="1"/>
      <path id="Path_233" data-name="Path 233" d="M1224.728,627.674h-.439c-1.526,0-1.492.029-1.255,1.585a8.98,8.98,0,0,1-.088,2.451,2.389,2.389,0,0,0,.026.794" fill="none" stroke="#fff" stroke-miterlimit="10" stroke-width="1"/>
      <path id="Path_234" data-name="Path 234" d="M1163.794,622.055h2.985" fill="none" stroke="#fff" stroke-miterlimit="10" stroke-width="1"/>
      <path id="Path_235" data-name="Path 235" d="M1196.983,616.524v2.721" fill="none" stroke="#fff" stroke-miterlimit="10" stroke-width="1"/>
      <path id="Path_236" data-name="Path 236" d="M1223.982,616.875l-.044,2.722" fill="none" stroke="#fff" stroke-miterlimit="10" stroke-width="1"/>
      <path id="Path_237" data-name="Path 237" d="M1198.739,620.914c.037-1.2-1.24-1.905-2.546-1.4-.636.244-1.147.589-.966,1.4" fill="none" stroke="#fff" stroke-miterlimit="10" stroke-width="1"/>
      <path id="Path_238" data-name="Path 238" d="M1205.412,630.835a9.264,9.264,0,0,1-3.248.12c-.386-.006-.763.051-1.142.064-.966.035-1.141-.107-1.14-1.062,0-.263.028-.527.042-.79" fill="none" stroke="#fff" stroke-miterlimit="10" stroke-width="1"/>
    </g>
  </g>
</svg>
