<?xml version="1.0" encoding="utf-8"?>
<!-- Generator: Adobe Illustrator 24.0.0, SVG Export Plug-In . SVG Version: 6.00 Build 0)  -->
<svg version="1.1" id="Layer_1" xmlns="http://www.w3.org/2000/svg" xmlns:xlink="http://www.w3.org/1999/xlink" x="0px" y="0px"
	 width="156.2px" height="218.2px" viewBox="0 0 156.2 218.2" style="enable-background:new 0 0 156.2 218.2;" xml:space="preserve"
	>
<style type="text/css">
	.st0{fill:#382B25;}
	.st1{fill:#3F2E2F;}
</style>
<g id="Group_196" transform="translate(-620.164 -186.865)">
	<path id="Path_3" class="st0" d="M641.5,318.4 M758.1,318.4 M700.5,237.7c0.3-0.6,0.6-1.3,0.6-2c1.3-0.6,4-0.7,5.1-4
		c2-5.9,2.7-11.4,2.1-29.3c-0.3-7.4-5.8-7-6.4-8.5c-0.3-0.5-0.7-0.9-1.3-1c0.2-0.1,0.4-0.3,0.5-0.6c0.5-0.9-1.5-1.9-1.9-3
		s-0.9-2.4-0.9-2.4s-0.5,1.3-0.9,2.4c-0.4,1.2-2.4,2.1-1.9,3c0.1,0.2,0.3,0.4,0.5,0.6c-0.6,0.1-1,0.5-1.3,1
		c-0.7,1.5-6.1,1.1-6.4,8.5c-0.7,17.9,0.1,23.4,2.1,29.3c1.1,3.2,3.7,3.4,5.1,4c0.1,0.7,0.3,1.4,0.6,2c0.3,0.3,0.7-0.1,1-0.1
		c0.4,0,1.1,1.3,1.1,1.3s0.8-1.3,1.1-1.3S700.2,238,700.5,237.7L700.5,237.7z M678.7,271.3c9.4,7.7,16.3,11.3,19.5,18.9
		c3.3-7.6,10.2-11.2,19.5-18.9c13.4-11,13.2-35.3,7.2-47.7c1,8.7,0.6,22.3-6.3,29.9c-4.2,4.7-8.8,9.1-13.8,13.1l-0.1,0.1
		c-3.6,3.1-6.6,7.6-6.6,12.3c0-4.7-3-9.2-6.6-12.3l-0.1-0.1c-4.9-4-9.5-8.4-13.8-13.1c-6.9-7.7-7.3-21.2-6.3-29.9
		C665.6,236,665.4,260.3,678.7,271.3z M694.7,263c0.9,0.8,2.9,1.9,3.5,3.4c0.6-1.5,2.6-2.6,3.5-3.4c4.5-3.8,8.7-8,12.5-12.6
		c10-11.7,6.5-26.7,2.4-38.7c-0.8-2.5-3.1-9.1-3.1-9.2c0.2,2.1,3.8,28.7-6.5,39.4c-4,4.2-8.7,9.6-8.7,15.3c0-5.8-4.7-11.2-8.7-15.3
		c-10.3-10.7-6.7-37.4-6.5-39.4c0,0.1-2.3,6.7-3.1,9.2c-4.2,12-7.6,27.1,2.4,38.7C686.1,254.9,690.2,259.1,694.7,263z M675.6,275.1
		c-8.1-6.6-12.1-17-11.8-30c-0.8,1.7-12.8,32.9,22.3,52c10.4,5.6,12.1,6.4,12.1,6.4C697.8,292.8,693.6,289.9,675.6,275.1z
		 M732.7,245.1c0.3,13-3.7,23.4-11.8,30c-18,14.8-22.1,17.7-22.6,28.4c0,0,1.7-0.7,12.1-6.4C745.5,278,733.5,246.8,732.7,245.1
		L732.7,245.1z"/>
</g>
<g id="Group_1397" transform="translate(42.428 -111.659)">
	<g id="Group_1396" transform="translate(71.777 200.388)">
		<path id="Path_844" class="st1" d="M-95.9,104.3c-0.7,1.4-1.5,2.2-2.9,2.2c-2.2,0-3.7-1.8-3.7-4.5c0-2.2,1.3-4.2,3.7-4.2
			c1.3-0.2,2.6,0.8,2.8,2.1l0.4-0.1c-0.1-0.8-0.2-1.3-0.3-2.2c-0.8-0.2-1.7-0.4-2.5-0.4c-3.2,0-5.5,2-5.5,5c0,2.6,2,4.7,4.6,4.7
			c0.2,0,0.3,0,0.5,0c0.9,0,1.8-0.2,2.6-0.4c0.3-0.7,0.6-1.4,0.8-2.2L-95.9,104.3z"/>
		<path id="Path_845" class="st1" d="M-83.9,102.8h-2.6c0.4-1.2,0.9-2.4,1.3-3.6h0L-83.9,102.8z M-80.2,106.8v-0.4
			c-0.9-0.1-1.1-0.2-1.6-1.4c-0.9-2.5-1.9-5.2-2.8-7.6l-0.4,0.1l-3,7.5c-0.5,1.3-0.7,1.3-1.6,1.5v0.4h3.1v-0.4
			c-1.1-0.1-1.2-0.2-0.9-1.1c0.2-0.6,0.4-1.2,0.6-1.8h3c0.3,0.9,0.6,1.6,0.8,2.2c0.2,0.6,0.1,0.7-0.8,0.8v0.4L-80.2,106.8z"/>
		<path id="Path_846" class="st1" d="M-71.7,98.8c0-0.4,0-0.6,0.2-0.7c0.2-0.1,0.5-0.2,0.8-0.2c1.2,0.1,2.2,1.1,2.1,2.4
			c-0.1,1.1-0.9,2-2.1,2.1c-0.4,0-0.7-0.1-1-0.2V98.8z M-74,97.5v0.4c1.1,0.1,1.2,0.1,1.2,1.4v5.7c0,1.2-0.1,1.3-1.3,1.4v0.4h3.9
			v-0.4c-1.3-0.1-1.4-0.2-1.4-1.4v-2.2l1.1,0.3c0.2,0,0.4,0,0.6,0c1.6-0.1,2.8-1.4,2.8-2.9c0-0.8-0.3-1.5-0.9-2
			c-0.7-0.5-1.6-0.7-2.4-0.6L-74,97.5z"/>
		<path id="Path_847" class="st1" d="M-58.4,98.8c0-0.4,0-0.6,0.2-0.7c0.2-0.1,0.5-0.2,0.8-0.2c1.2,0.1,2.2,1.1,2.1,2.4
			c-0.1,1.1-0.9,2-2.1,2.1c-0.4,0-0.7-0.1-1-0.2V98.8z M-60.8,97.5v0.4c1.1,0.1,1.2,0.1,1.2,1.4v5.7c0,1.2-0.1,1.3-1.3,1.4v0.4h3.9
			v-0.4c-1.3-0.1-1.4-0.2-1.4-1.4v-2.2l1.1,0.3c0.2,0,0.4,0,0.6,0c1.6-0.1,2.8-1.4,2.8-2.9c0-0.8-0.3-1.5-0.9-2
			c-0.7-0.5-1.6-0.7-2.4-0.6L-60.8,97.5z"/>
		<path id="Path_848" class="st1" d="M-43.4,102.8H-46c0.4-1.2,0.9-2.4,1.3-3.6h0L-43.4,102.8z M-39.7,106.8v-0.4
			c-0.9-0.1-1.1-0.2-1.6-1.4c-0.9-2.5-1.9-5.2-2.8-7.6l-0.4,0.1l-3,7.5c-0.5,1.3-0.7,1.3-1.6,1.5v0.4h3.1v-0.4
			c-1.1-0.1-1.2-0.2-0.9-1.1c0.2-0.6,0.4-1.2,0.6-1.8h3c0.3,0.9,0.6,1.6,0.8,2.2c0.2,0.6,0.1,0.7-0.8,0.8v0.4L-39.7,106.8z"/>
		<path id="Path_849" class="st1" d="M-31.2,99c0-0.6,0-0.7,0.2-0.8c0.4-0.1,0.7-0.2,1.1-0.2c0.8,0,1.7,0.2,2.4,0.6
			c1.1,0.7,1.8,2.1,1.7,3.4c0,2.3-1.2,4.3-3.9,4.3c-1,0-1.5-0.3-1.5-1.4L-31.2,99z M-33.6,97.5v0.4c1.1,0.1,1.2,0.1,1.2,1.4v5.7
			c0,1.2-0.1,1.3-1.3,1.4v0.4h3.4c1.5,0.1,3-0.3,4.2-1.2c1.2-0.9,1.8-2.3,1.8-3.8c0-1.1-0.4-2.3-1.2-3.1c-1.1-0.9-2.6-1.3-4-1.2
			L-33.6,97.5z"/>
		<path id="Path_850" class="st1" d="M-13,97.8c1.9,0,3.4,1.6,3.4,4.6c0,2.7-1.4,4.1-3,4.1c-2,0-3.5-2-3.5-4.6S-14.6,97.8-13,97.8
			 M-12.7,97.3c-2.6,0-4.8,2.1-4.8,4.7c0,0.1,0,0.2,0,0.2c-0.1,2.5,1.9,4.7,4.5,4.8c0.1,0,0.1,0,0.2,0c2.6,0.1,4.7-2,4.8-4.6
			c0-0.1,0-0.3,0-0.4c0.1-2.5-1.9-4.7-4.5-4.7C-12.6,97.3-12.7,97.3-12.7,97.3L-12.7,97.3z"/>
		<path id="Path_851" class="st1" d="M6.8,104.3c-0.7,1.4-1.5,2.2-2.9,2.2c-2.2,0-3.7-1.8-3.7-4.5c0-2.2,1.3-4.2,3.7-4.2
			c1.3-0.2,2.6,0.8,2.8,2.1L7,99.8c-0.1-0.8-0.2-1.3-0.3-2.2c-0.8-0.2-1.7-0.4-2.5-0.4c-3.2,0-5.5,2-5.5,5c0,2.6,2,4.7,4.6,4.7
			c0.2,0,0.3,0,0.5,0c0.9,0,1.8-0.2,2.6-0.4c0.3-0.7,0.6-1.4,0.8-2.2L6.8,104.3z"/>
		<path id="Path_852" class="st1" d="M17.1,106.8v-0.4c-1.2-0.1-1.3-0.2-1.3-1.4v-5.7c0-1.2,0.1-1.3,1.3-1.4v-0.4h-3.8v0.4
			c1.2,0.1,1.3,0.2,1.3,1.4v5.7c0,1.2-0.1,1.3-1.3,1.4v0.4L17.1,106.8z"/>
		<path id="Path_853" class="st1" d="M28.4,102.8h-2.6c0.4-1.2,0.9-2.4,1.3-3.6h0L28.4,102.8z M32.1,106.8v-0.4
			c-0.9-0.1-1.1-0.2-1.6-1.4c-0.9-2.5-1.9-5.2-2.8-7.6l-0.4,0.1l-3,7.5c-0.5,1.3-0.7,1.3-1.6,1.5v0.4h3.1v-0.4
			c-1.1-0.1-1.2-0.2-0.9-1.1c0.2-0.6,0.4-1.2,0.6-1.8h3c0.3,0.9,0.6,1.6,0.8,2.2c0.2,0.6,0.1,0.7-0.8,0.8v0.4L32.1,106.8z"/>
	</g>
	<path id="Path_854" class="st1" d="M-16.9,282.5v-2c3.8-0.5,4.3-0.9,3.5-3.2c-0.8-2.3-1.9-5.3-3.1-8.6h-12.8
		c-0.8,2.4-1.7,4.7-2.4,7.1c-1.2,3.7-0.8,4.3,3.7,4.7v2h-13.2v-2c3.8-0.5,4.7-0.8,6.7-6.1l12.2-30.7l2.1-0.6
		c3.7,10,7.7,21.4,11.4,31.4c1.8,5.1,2.7,5.6,6.6,6v2L-16.9,282.5z M17.5,246c-4.7,0.4-5.1,0.8-5.1,5.6v21.8
		c0,7.9-1.3,12.1-5.2,15.6c-1.6,1.5-3.5,2.6-5.6,3.3l-0.9-2c3.1-1.4,5.3-4.4,5.9-7.8c0.5-3.7,0.8-7.4,0.6-11.1v-19.8
		c0-4.8-0.5-5.3-5.4-5.6v-2h15.7L17.5,246z M77.5,246c-4.1,0.5-4.6,1-6.3,5.7c-1.3,3.6-4.9,14.9-9.8,31.3h-2.1
		c-3.3-9.4-7-20.1-10.2-29.2h-0.1c-3.4,10.3-6.7,19.7-9.7,29.2h-2.1c-3.1-10.6-6.4-20.9-9.6-31.4c-1.5-4.7-2.4-5.2-6-5.6v-2H36v2
		c-4.4,0.5-4.4,0.9-3.7,3.8c2.4,7.9,4.6,15.8,7.2,24.1h0.1c3.2-10.1,6.6-19.7,9.6-29.3h2c3.3,9.7,6.7,19.1,10.2,29.4h0.1
		c2.5-7.9,5.8-19.3,6.7-23.4c0.7-3.4,0.5-4.1-4-4.6v-2h13.2L77.5,246z M97.9,282.5v-2c3.8-0.5,4.3-0.9,3.5-3.2
		c-0.8-2.3-1.9-5.3-3.1-8.6H85.5c-0.8,2.4-1.7,4.7-2.4,7.1c-1.2,3.7-0.8,4.3,3.7,4.7v2H73.6v-2c3.8-0.5,4.7-0.8,6.7-6.1l12.2-30.7
		l2.1-0.6c3.7,10,7.7,21.4,11.4,31.4c1.8,5.1,2.7,5.6,6.6,6v2L97.9,282.5z M92.2,251h-0.1c-1.9,5-3.7,10.1-5.5,15h10.8L92.2,251z
		 M-22.6,251h-0.1c-1.9,5-3.7,10.1-5.5,15h10.8L-22.6,251z"/>
</g>
</svg>
