<svg xmlns="http://www.w3.org/2000/svg" width="78.727" height="63.235" viewBox="0 0 78.727 63.235">
  <g id="Group_606" data-name="Group 606" transform="translate(-1057.966 -731.697)">
    <g id="Group_309" data-name="Group 309">
      <g id="Group_308" data-name="Group 308">
        <path id="Path_239" data-name="Path 239" d="M1072.3,755.58h-4.037l.286.287.153-10.823-.286.287h3.731l-.286-.287q.077,5.412.153,10.823a.287.287,0,0,0,.573,0q-.076-5.412-.153-10.823a.289.289,0,0,0-.287-.286h-3.731a.29.29,0,0,0-.287.286l-.153,10.823a.289.289,0,0,0,.287.286h4.037A.287.287,0,0,0,1072.3,755.58Z" fill="#fff"/>
      </g>
    </g>
    <g id="Group_311" data-name="Group 311">
      <g id="Group_310" data-name="Group 310">
        <path id="Path_240" data-name="Path 240" d="M1073.211,757.663l-.822,1.941.248-.142h-4.851l.276.21-.747-1.941-.276.363h6.419a.287.287,0,0,0,0-.573h-6.419a.288.288,0,0,0-.276.363l.747,1.94a.294.294,0,0,0,.276.211h4.851a.282.282,0,0,0,.247-.142l.821-1.941C1073.847,757.616,1073.354,757.324,1073.211,757.663Z" fill="#fff"/>
      </g>
    </g>
    <g id="Group_313" data-name="Group 313">
      <g id="Group_312" data-name="Group 312">
        <path id="Path_241" data-name="Path 241" d="M1072.476,767.747h-4.381l.286.286q.059-4.143.117-8.285l-.286.287h4.147l-.286-.287q.059,4.143.117,8.285a.287.287,0,0,0,.573,0q-.058-4.143-.117-8.285a.29.29,0,0,0-.287-.286h-4.147a.288.288,0,0,0-.286.286q-.059,4.143-.117,8.285a.287.287,0,0,0,.286.286h4.381A.286.286,0,0,0,1072.476,767.747Z" fill="#fff"/>
      </g>
    </g>
    <g id="Group_315" data-name="Group 315">
      <g id="Group_314" data-name="Group 314">
        <path id="Path_242" data-name="Path 242" d="M1072.635,778.991a2.384,2.384,0,0,0-.6.01,2.609,2.609,0,0,0-.421.205l-1.169.585a.284.284,0,0,0-.142.247V783.8l.287-.287h-2.721l.287.287.165-11.638,0-.253-.286.287h4.489l-.286-.287q.053,3.682.1,7.364a.286.286,0,0,0,.572,0q-.053-3.682-.1-7.364a.29.29,0,0,0-.287-.286h-4.489a.289.289,0,0,0-.286.286l-.165,11.638,0,.253a.288.288,0,0,0,.286.286h2.721a.289.289,0,0,0,.286-.286v-3.766l-.142.247,1.041-.52.464-.232c.052-.025.014-.015-.113.03h.506A.286.286,0,0,0,1072.635,778.991Z" fill="#fff"/>
      </g>
    </g>
    <g id="Group_317" data-name="Group 317">
      <g id="Group_316" data-name="Group 316">
        <path id="Path_243" data-name="Path 243" d="M1072.749,787.077h-.133l.286.287a4.328,4.328,0,0,1,.11-.794l-.562-.076.012.87a.287.287,0,0,0,.573,0l-.012-.87a.288.288,0,0,0-.563-.076,5.026,5.026,0,0,0-.13.946.287.287,0,0,0,.286.286h.133A.287.287,0,0,0,1072.749,787.077Z" fill="#fff"/>
      </g>
    </g>
    <g id="Group_319" data-name="Group 319">
      <g id="Group_318" data-name="Group 318">
        <path id="Path_244" data-name="Path 244" d="M1073.408,768.033v1.941l.286-.287H1066.9l.286.287v-1.941l-.286.286h6.792a.286.286,0,0,0,0-.572H1066.9a.289.289,0,0,0-.286.286v1.941a.289.289,0,0,0,.286.286h6.792a.289.289,0,0,0,.287-.286v-1.941A.287.287,0,0,0,1073.408,768.033Z" fill="#fff"/>
      </g>
    </g>
    <g id="Group_321" data-name="Group 321">
      <g id="Group_320" data-name="Group 320">
        <path id="Path_245" data-name="Path 245" d="M1073.405,769.9l-.746,1.94.276-.21h-5.3l.276.21-.746-1.94-.276.363h6.791a.287.287,0,0,0,0-.573h-6.791a.288.288,0,0,0-.276.363l.746,1.94a.3.3,0,0,0,.276.21h5.3a.3.3,0,0,0,.276-.21l.746-1.94C1074.09,769.7,1073.536,769.557,1073.405,769.9Z" fill="#fff"/>
      </g>
    </g>
    <g id="Group_323" data-name="Group 323">
      <g id="Group_322" data-name="Group 322">
        <path id="Path_246" data-name="Path 246" d="M1073.184,755.867v1.94l.286-.286h-6.344l.287.286v-1.94l-.287.286h6.344a.287.287,0,0,0,0-.573h-6.344a.289.289,0,0,0-.286.287v1.94a.289.289,0,0,0,.286.287h6.344a.29.29,0,0,0,.287-.287v-1.94A.287.287,0,0,0,1073.184,755.867Z" fill="#fff"/>
      </g>
    </g>
    <g id="Group_325" data-name="Group 325">
      <g id="Group_324" data-name="Group 324">
        <path id="Path_247" data-name="Path 247" d="M1070.335,731.7h-.149a.284.284,0,0,0-.276.21q-.824,6.009-1.648,12.018-.072.522-.143,1.043a.292.292,0,0,0,.276.363h3.732a.292.292,0,0,0,.276-.363q-.825-6.008-1.648-12.017-.072-.522-.143-1.044c-.05-.365-.6-.209-.553.152q.825,6.009,1.648,12.018l.144,1.044.276-.363H1068.4l.276.363q.823-6.009,1.648-12.018.072-.522.143-1.044l-.276.211h.149A.287.287,0,0,0,1070.335,731.7Z" fill="#fff"/>
      </g>
    </g>
    <g id="Group_327" data-name="Group 327">
      <g id="Group_326" data-name="Group 326">
        <path id="Path_248" data-name="Path 248" d="M1126.385,755.58h-4.038l.286.287q.076-5.412.153-10.823l-.286.287h3.732l-.287-.287.153,10.823a.287.287,0,0,0,.573,0l-.153-10.823a.288.288,0,0,0-.286-.286H1122.5a.289.289,0,0,0-.286.286q-.077,5.412-.153,10.823a.288.288,0,0,0,.286.286h4.038A.287.287,0,0,0,1126.385,755.58Z" fill="#fff"/>
      </g>
    </g>
    <g id="Group_329" data-name="Group 329">
      <g id="Group_328" data-name="Group 328">
        <path id="Path_249" data-name="Path 249" d="M1127.486,769.9l-.747,1.94.277-.21h-5.3l.276.21q-.372-.969-.746-1.94l-.276.363h6.792a.287.287,0,0,0,0-.573h-6.792a.288.288,0,0,0-.276.363q.374.969.746,1.94a.3.3,0,0,0,.276.21h5.3a.3.3,0,0,0,.276-.21l.746-1.94C1128.171,769.7,1127.617,769.557,1127.486,769.9Z" fill="#fff"/>
      </g>
    </g>
    <g id="Group_331" data-name="Group 331">
      <g id="Group_330" data-name="Group 330">
        <path id="Path_250" data-name="Path 250" d="M1127.488,768.033v1.941l.287-.287h-6.793l.287.287v-1.941l-.287.286h6.793a.286.286,0,0,0,0-.572h-6.793a.289.289,0,0,0-.286.286v1.941a.289.289,0,0,0,.286.286h6.793a.289.289,0,0,0,.286-.286v-1.941A.287.287,0,0,0,1127.488,768.033Z" fill="#fff"/>
      </g>
    </g>
    <g id="Group_333" data-name="Group 333">
      <g id="Group_332" data-name="Group 332">
        <path id="Path_251" data-name="Path 251" d="M1126.556,767.747h-4.381l.287.286q.058-4.143.117-8.285l-.287.287h4.148l-.287-.287q.059,4.143.117,8.285a.287.287,0,0,0,.573,0q-.059-4.143-.117-8.285a.289.289,0,0,0-.286-.286h-4.148a.289.289,0,0,0-.286.286q-.058,4.143-.117,8.285a.288.288,0,0,0,.286.286h4.381A.286.286,0,0,0,1126.556,767.747Z" fill="#fff"/>
      </g>
    </g>
    <g id="Group_335" data-name="Group 335">
      <g id="Group_334" data-name="Group 334">
        <path id="Path_252" data-name="Path 252" d="M1121.953,784.09h2.125l-.286-.286v.076l.286-.286h-2.126l.286.286V783.8a.287.287,0,0,0-.573,0v.076a.288.288,0,0,0,.286.286h2.126a.289.289,0,0,0,.287-.286V783.8a.29.29,0,0,0-.287-.287h-2.125A.287.287,0,0,0,1121.953,784.09Z" fill="#fff"/>
      </g>
    </g>
    <g id="Group_337" data-name="Group 337">
      <g id="Group_336" data-name="Group 336">
        <path id="Path_253" data-name="Path 253" d="M1126.779,783.517h-2.7l.287.287v-3.766a.284.284,0,0,0-.142-.247l-1.168-.585a2.609,2.609,0,0,0-.421-.205,2.448,2.448,0,0,0-.617-.01l.286.286q.053-3.682.1-7.364l-.287.287h4.49l-.287-.287q.083,5.82.165,11.638l0,.253a.287.287,0,0,0,.573,0q-.083-5.819-.165-11.638l0-.253a.289.289,0,0,0-.286-.286h-4.49a.289.289,0,0,0-.286.286q-.052,3.682-.1,7.364a.289.289,0,0,0,.287.286h.27c.136,0,.346.071.13-.037l.412.206,1.1.553-.142-.247V783.8a.289.289,0,0,0,.286.286h2.7A.287.287,0,0,0,1126.779,783.517Z" fill="#fff"/>
      </g>
    </g>
    <g id="Group_339" data-name="Group 339">
      <g id="Group_338" data-name="Group 338">
        <path id="Path_254" data-name="Path 254" d="M1127.264,755.867v1.94l.287-.286h-6.344l.286.286v-1.94l-.286.286h6.344a.287.287,0,0,0,0-.573h-6.344a.29.29,0,0,0-.287.287v1.94a.29.29,0,0,0,.287.287h6.344a.289.289,0,0,0,.286-.287v-1.94A.287.287,0,0,0,1127.264,755.867Z" fill="#fff"/>
      </g>
    </g>
    <g id="Group_341" data-name="Group 341">
      <g id="Group_340" data-name="Group 340">
        <path id="Path_255" data-name="Path 255" d="M1127.291,757.663q-.411.97-.821,1.941l.247-.142h-4.851l.276.21-.747-1.941-.276.363h6.419a.287.287,0,0,0,0-.573h-6.419a.288.288,0,0,0-.276.363l.747,1.94a.294.294,0,0,0,.276.211h4.851a.281.281,0,0,0,.247-.142l.822-1.941C1127.928,757.616,1127.435,757.324,1127.291,757.663Z" fill="#fff"/>
      </g>
    </g>
    <g id="Group_343" data-name="Group 343">
      <g id="Group_342" data-name="Group 342">
        <path id="Path_256" data-name="Path 256" d="M1124.416,731.7h-.149a.284.284,0,0,0-.277.21q-.823,6.009-1.648,12.018l-.143,1.043a.292.292,0,0,0,.276.363h3.732a.292.292,0,0,0,.276-.363q-.824-6.008-1.648-12.017l-.143-1.044c-.05-.365-.6-.209-.552.152q.823,6.009,1.648,12.018l.143,1.044.276-.363h-3.732l.276.363q.825-6.009,1.648-12.018l.144-1.044-.276.211h.149A.287.287,0,0,0,1124.416,731.7Z" fill="#fff"/>
      </g>
    </g>
    <g id="Group_345" data-name="Group 345">
      <g id="Group_344" data-name="Group 344">
        <path id="Path_257" data-name="Path 257" d="M1086.765,780.038v3.587l.563-.077a1.983,1.983,0,0,0-2.076-1.577,1.937,1.937,0,0,0-1.866,1.833l.287-.287h-3.244c-.114,0,.029.006-.141-.091a5.692,5.692,0,0,0-3.654-.618,5.144,5.144,0,0,0-1.358.391c-.238.1-.465.318-.645.318h-4.038l.286.287v-3.766l-.286.286h16.459a.287.287,0,0,0,0-.573h-16.459a.29.29,0,0,0-.287.287V783.8a.289.289,0,0,0,.287.286h3.977a.6.6,0,0,0,.305-.039,5.173,5.173,0,0,1,4.6-.378c.274.1.619.417.911.417h3.284a.29.29,0,0,0,.286-.286c.061-1.615,2.557-1.647,2.817-.1.054.325.562.238.562-.076v-3.587A.287.287,0,0,0,1086.765,780.038Z" fill="#fff"/>
      </g>
    </g>
    <g id="Group_347" data-name="Group 347">
      <g id="Group_346" data-name="Group 346">
        <path id="Path_258" data-name="Path 258" d="M1087.064,783.517h-.006a.289.289,0,0,0-.286.287v.076l.286-.286h-3.424l.287.286V783.8l-.287.286h.039a.29.29,0,0,0,.286-.286,1.422,1.422,0,0,1,2.819,0c.012.368.585.369.572,0a1.988,1.988,0,0,0-3.964,0l.287-.287h-.039a.289.289,0,0,0-.286.287v.076a.289.289,0,0,0,.286.286h3.424a.289.289,0,0,0,.287-.286V783.8l-.287.286h.006A.287.287,0,0,0,1087.064,783.517Z" fill="#fff"/>
      </g>
    </g>
    <g id="Group_349" data-name="Group 349">
      <g id="Group_348" data-name="Group 348">
        <path id="Path_259" data-name="Path 259" d="M1089.346,781.578V783.8l.286-.287h-1.07l.286.287v-2.21a.249.249,0,0,1,.5-.016c.036.364.61.368.573,0a.837.837,0,0,0-1.106-.769.865.865,0,0,0-.537.9v2.1a.289.289,0,0,0,.286.286h1.07a.289.289,0,0,0,.287-.286v-2.226A.287.287,0,0,0,1089.346,781.578Z" fill="#fff"/>
      </g>
    </g>
    <g id="Group_351" data-name="Group 351">
      <g id="Group_350" data-name="Group 350">
        <path id="Path_260" data-name="Path 260" d="M1092.641,781.578V783.8l.287-.287h-1.07l.286.287v-2.21a.249.249,0,0,1,.5-.016c.037.364.61.368.573,0a.836.836,0,0,0-1.106-.769.866.866,0,0,0-.537.9v2.1a.289.289,0,0,0,.287.286h1.07a.289.289,0,0,0,.286-.286v-2.226A.287.287,0,0,0,1092.641,781.578Z" fill="#fff"/>
      </g>
    </g>
    <g id="Group_353" data-name="Group 353">
      <g id="Group_352" data-name="Group 352">
        <path id="Path_261" data-name="Path 261" d="M1080.076,774.6v4.681l.286-.286h-7.289l.248.43a9.6,9.6,0,0,1,7.041-4.538c.361-.047.366-.62,0-.573a10.206,10.206,0,0,0-7.536,4.822.289.289,0,0,0,.247.431h7.289a.289.289,0,0,0,.287-.286V774.6A.287.287,0,0,0,1080.076,774.6Z" fill="#fff"/>
      </g>
    </g>
    <g id="Group_355" data-name="Group 355">
      <g id="Group_354" data-name="Group 354">
        <path id="Path_262" data-name="Path 262" d="M1086.778,779.277V780l.287-.286h-.008l.287.286v-.722l-.287.286h.008a.286.286,0,0,0,0-.572h-.008a.288.288,0,0,0-.286.286V780a.289.289,0,0,0,.286.287h.008a.289.289,0,0,0,.286-.287v-.722A.287.287,0,0,0,1086.778,779.277Z" fill="#fff"/>
      </g>
    </g>
    <g id="Group_357" data-name="Group 357">
      <g id="Group_356" data-name="Group 356">
        <path id="Path_263" data-name="Path 263" d="M1094.255,779.751h-5.4l.145.534c.125-.062-.149,0-.027,0h5.15c.149,0-.123-.058-.01,0,.33.165.62-.329.289-.495a2.071,2.071,0,0,0-.909-.077h-3.815a2.227,2.227,0,0,0-.967.077.288.288,0,0,0,.145.534h5.4A.287.287,0,0,0,1094.255,779.751Z" fill="#fff"/>
      </g>
    </g>
    <g id="Group_359" data-name="Group 359">
      <g id="Group_358" data-name="Group 358">
        <path id="Path_264" data-name="Path 264" d="M1107.321,777.793v1.484l.286-.286h-.007l.286.286v-1.484l-.286.286h.007a.287.287,0,0,0,0-.573h-.007a.29.29,0,0,0-.287.287v1.484a.289.289,0,0,0,.287.286h.007a.289.289,0,0,0,.287-.286v-1.484A.287.287,0,0,0,1107.321,777.793Z" fill="#fff"/>
      </g>
    </g>
    <g id="Group_361" data-name="Group 361">
      <g id="Group_360" data-name="Group 360">
        <path id="Path_265" data-name="Path 265" d="M1121.6,778.991h-7.3l.286.286v-4.682l-.286.286a9.6,9.6,0,0,1,7.055,4.54.287.287,0,0,0,.495-.289,10.213,10.213,0,0,0-7.55-4.824.287.287,0,0,0-.287.287v4.682a.289.289,0,0,0,.287.286h7.3A.286.286,0,0,0,1121.6,778.991Z" fill="#fff"/>
      </g>
    </g>
    <g id="Group_363" data-name="Group 363">
      <g id="Group_362" data-name="Group 362">
        <path id="Path_266" data-name="Path 266" d="M1124.078,779.751h-18.229c-.107,0,.163.064.037,0l-.144.534h8.553a.289.289,0,0,0,.286-.287v-.722l-.286.286h8.245c.086,0-.2-.077-.09-.02l.256.128,1.228.614c.329.165.619-.329.289-.495q-.615-.306-1.228-.614a1.236,1.236,0,0,0-.584-.186h-8.117a.289.289,0,0,0-.286.287V780l.286-.286h-8.553a.288.288,0,0,0-.144.533,2.754,2.754,0,0,0,1.16.078h17.321A.287.287,0,0,0,1124.078,779.751Z" fill="#fff"/>
      </g>
    </g>
    <g id="Group_365" data-name="Group 365">
      <g id="Group_364" data-name="Group 364">
        <path id="Path_267" data-name="Path 267" d="M1105.819,779.751h-5.4l.145.534c.125-.062-.149,0-.028,0h5.15c.148,0-.124-.058-.01,0,.329.164.62-.33.289-.495a2.071,2.071,0,0,0-.909-.077h-3.815a2.223,2.223,0,0,0-.966.077.288.288,0,0,0,.144.534h5.4A.287.287,0,0,0,1105.819,779.751Z" fill="#fff"/>
      </g>
    </g>
    <g id="Group_367" data-name="Group 367">
      <g id="Group_366" data-name="Group 366">
        <path id="Path_268" data-name="Path 268" d="M1107.321,779.277V780l.286-.286h-.007l.286.286v-.722l-.286.286h.007a.286.286,0,0,0,0-.572h-.007a.289.289,0,0,0-.287.286V780a.29.29,0,0,0,.287.287h.007a.29.29,0,0,0,.287-.287v-.722A.287.287,0,0,0,1107.321,779.277Z" fill="#fff"/>
      </g>
    </g>
    <g id="Group_369" data-name="Group 369">
      <g id="Group_368" data-name="Group 368">
        <path id="Path_269" data-name="Path 269" d="M1102.527,781.578V783.8l.286-.287h-1.069l.287.287v-2.21a.248.248,0,0,1,.5-.016c.037.364.61.368.573,0a.835.835,0,0,0-1.1-.769.866.866,0,0,0-.537.9v2.1a.289.289,0,0,0,.286.286h1.069a.289.289,0,0,0,.287-.286v-2.226A.287.287,0,0,0,1102.527,781.578Z" fill="#fff"/>
      </g>
    </g>
    <g id="Group_371" data-name="Group 371">
      <g id="Group_370" data-name="Group 370">
        <path id="Path_270" data-name="Path 270" d="M1105.823,781.578V783.8l.286-.287h-1.069l.286.287v-2.21a.249.249,0,0,1,.5-.016c.036.364.609.368.572,0a.835.835,0,0,0-1.1-.769.865.865,0,0,0-.537.9v2.1a.289.289,0,0,0,.286.286h1.069a.289.289,0,0,0,.286-.286v-2.226A.286.286,0,0,0,1105.823,781.578Z" fill="#fff"/>
      </g>
    </g>
    <g id="Group_373" data-name="Group 373">
      <g id="Group_372" data-name="Group 372">
        <path id="Path_271" data-name="Path 271" d="M1123.792,780.038V783.8l.286-.287h-4.015c-.191,0-.218-.1-.435-.21a5.534,5.534,0,0,0-1.461-.477,5.9,5.9,0,0,0-2.885.2,5.681,5.681,0,0,0-.558.222,2.936,2.936,0,0,0-.437.265h-3.257l.286.287a1.988,1.988,0,0,0-3.964,0l.286-.287h-.019l.287.287v-3.766l-.287.286h16.459a.287.287,0,0,0,0-.573h-16.459a.289.289,0,0,0-.286.287V783.8a.289.289,0,0,0,.286.286h.019a.29.29,0,0,0,.287-.286,1.421,1.421,0,0,1,2.818,0,.29.29,0,0,0,.287.286h3.226c.259,0,.527-.236.757-.344a5.213,5.213,0,0,1,3.269-.309,4.9,4.9,0,0,1,1.4.548.657.657,0,0,0,.382.105h4.015a.289.289,0,0,0,.287-.286v-3.766A.287.287,0,0,0,1123.792,780.038Z" fill="#fff"/>
      </g>
    </g>
    <g id="Group_375" data-name="Group 375">
      <g id="Group_374" data-name="Group 374">
        <path id="Path_272" data-name="Path 272" d="M1114.154,783.556c-.028.018.058.037-.039.037H1107.6l.286.287V783.8l-.286.286h.037a.29.29,0,0,0,.287-.286,1.421,1.421,0,0,1,2.818,0,.29.29,0,0,0,.287.286h3.268a.287.287,0,0,0,0-.573h-3.268l.286.287a1.988,1.988,0,0,0-3.964,0l.286-.287h-.037a.29.29,0,0,0-.287.287v.076a.289.289,0,0,0,.287.286h5.684a2.2,2.2,0,0,0,1.157-.115C1114.753,783.853,1114.466,783.357,1114.154,783.556Z" fill="#fff"/>
      </g>
    </g>
    <g id="Group_377" data-name="Group 377">
      <g id="Group_376" data-name="Group 376">
        <path id="Path_273" data-name="Path 273" d="M1123.792,783.8v.076l.286-.286h-3.971c-.089,0,.005-.017-.027-.037l-.145.533h4.143a.287.287,0,0,0,0-.573h-4.143a.289.289,0,0,0-.144.534,1.243,1.243,0,0,0,.747.115h3.54a.289.289,0,0,0,.287-.286V783.8A.287.287,0,0,0,1123.792,783.8Z" fill="#fff"/>
      </g>
    </g>
    <g id="Group_379" data-name="Group 379">
      <g id="Group_378" data-name="Group 378">
        <path id="Path_274" data-name="Path 274" d="M1086.772,787.55v.818l.286-.286h-.021l.286.286v-.818l-.286.286h.021a.286.286,0,0,0,0-.572h-.021a.289.289,0,0,0-.286.286v.818a.289.289,0,0,0,.286.287h.021a.29.29,0,0,0,.287-.287v-.818A.287.287,0,0,0,1086.772,787.55Z" fill="#fff"/>
      </g>
    </g>
    <g id="Group_381" data-name="Group 381">
      <g id="Group_380" data-name="Group 380">
        <path id="Path_275" data-name="Path 275" d="M1107.349,787.55v.818l.286-.286h-.034l.286.286v-.818l-.286.286h.034a.286.286,0,0,0,0-.572h-.034a.289.289,0,0,0-.287.286v.818a.29.29,0,0,0,.287.287h.034a.289.289,0,0,0,.286-.287v-.818A.286.286,0,0,0,1107.349,787.55Z" fill="#fff"/>
      </g>
    </g>
    <g id="Group_383" data-name="Group 383">
      <g id="Group_382" data-name="Group 382">
        <path id="Path_276" data-name="Path 276" d="M1126.607,783.8v3.727l.287-.286h-4.842l.286.286c0-.391-.14-.783-.135-1.163q.006-.4.012-.81l.023-1.678-.286.286h2.126a.289.289,0,0,0,.287-.286V783.8l-.287.286h2.816a.287.287,0,0,0,0-.573h-2.816a.289.289,0,0,0-.286.287v.076l.286-.286h-2.126a.288.288,0,0,0-.286.286q-.012.8-.023,1.6-.006.428-.012.855c-.005.4.131.79.135,1.2a.289.289,0,0,0,.286.287h4.842a.289.289,0,0,0,.286-.287V783.8A.287.287,0,0,0,1126.607,783.8Z" fill="#fff"/>
      </g>
    </g>
    <g id="Group_385" data-name="Group 385">
      <g id="Group_384" data-name="Group 384">
        <path id="Path_277" data-name="Path 277" d="M1074.586,783.556a4.734,4.734,0,0,0-2.26,3.975l.287-.286h-4.836l.287.286V783.8l-.287.286h6.953a.287.287,0,0,0,0-.573h-6.953a.289.289,0,0,0-.286.287v3.727a.289.289,0,0,0,.286.287h4.836a.289.289,0,0,0,.286-.287,4.14,4.14,0,0,1,1.976-3.48C1075.185,783.853,1074.9,783.357,1074.586,783.556Z" fill="#fff"/>
      </g>
    </g>
    <g id="Group_387" data-name="Group 387">
      <g id="Group_386" data-name="Group 386">
        <path id="Path_278" data-name="Path 278" d="M1072.749,787.077h-.133l.286.287a4.328,4.328,0,0,1,.11-.794l-.562-.076.012.87a.287.287,0,0,0,.573,0l-.012-.87a.288.288,0,0,0-.563-.076,5.026,5.026,0,0,0-.13.946.287.287,0,0,0,.286.286h.133A.287.287,0,0,0,1072.749,787.077Z" fill="#fff"/>
      </g>
    </g>
    <g id="Group_389" data-name="Group 389">
      <g id="Group_388" data-name="Group 388">
        <path id="Path_279" data-name="Path 279" d="M1083.348,783.8v3.727l.286-.286h-1.151l.286.286a4.741,4.741,0,0,0-2.259-3.974l-.144.533h3.268a.287.287,0,0,0,0-.573h-3.268a.289.289,0,0,0-.145.534,4.152,4.152,0,0,1,1.976,3.48.289.289,0,0,0,.286.287h1.151a.29.29,0,0,0,.287-.287V783.8A.287.287,0,0,0,1083.348,783.8Z" fill="#fff"/>
      </g>
    </g>
    <g id="Group_391" data-name="Group 391">
      <g id="Group_390" data-name="Group 390">
        <path id="Path_280" data-name="Path 280" d="M1107.314,783.8v3.727l.287-.286h-6.048l.247.142a5.308,5.308,0,0,0-8.928,0l.247-.142h-6.061l.287.286V783.8l-.287.286H1107.6a.287.287,0,0,0,0-.573h-20.543a.289.289,0,0,0-.286.287v3.727a.289.289,0,0,0,.286.287h6.061c.2,0,.277-.193.369-.337a4.155,4.155,0,0,1,.539-.653,4.638,4.638,0,0,1,2.79-1.31,4.894,4.894,0,0,1,3.01.658,4.42,4.42,0,0,1,1.068.912c.176.2.362.73.671.73h6.035a.289.289,0,0,0,.286-.287V783.8A.287.287,0,0,0,1107.314,783.8Z" fill="#fff"/>
      </g>
    </g>
    <g id="Group_393" data-name="Group 393">
      <g id="Group_392" data-name="Group 392">
        <path id="Path_281" data-name="Path 281" d="M1086.772,783.8v.076l.286-.286h-3.424l.287.286V783.8l-.287.286h3.424a.287.287,0,0,0,0-.573h-3.424a.289.289,0,0,0-.286.287v.076a.289.289,0,0,0,.286.286h3.424a.289.289,0,0,0,.287-.286V783.8A.287.287,0,0,0,1086.772,783.8Z" fill="#fff"/>
      </g>
    </g>
    <g id="Group_395" data-name="Group 395">
      <g id="Group_394" data-name="Group 394">
        <path id="Path_282" data-name="Path 282" d="M1107.314,787.531v.019l.287-.286h-20.543l.287.286v-.019l-.287.287h6.061c.2,0,.277-.193.369-.337a4.155,4.155,0,0,1,.539-.653,4.638,4.638,0,0,1,2.79-1.31,4.894,4.894,0,0,1,3.01.658,4.378,4.378,0,0,1,1.068.912c.176.2.362.73.671.73h6.035a.287.287,0,0,0,0-.573h-6.048l.247.142a5.308,5.308,0,0,0-8.928,0l.247-.142h-6.061a.289.289,0,0,0-.286.286v.019a.289.289,0,0,0,.286.286H1107.6a.289.289,0,0,0,.286-.286v-.019A.287.287,0,0,0,1107.314,787.531Z" fill="#fff"/>
      </g>
    </g>
    <g id="Group_397" data-name="Group 397">
      <g id="Group_396" data-name="Group 396">
        <path id="Path_283" data-name="Path 283" d="M1114.154,783.556a4.745,4.745,0,0,0-2.259,3.975l.286-.286h-1.156l.286.286V783.88a.289.289,0,0,0-.286-.287H1107.6l.286.287V783.8l-.286.286h6.7a.287.287,0,0,0,0-.573h-6.7a.29.29,0,0,0-.287.287v.076a.289.289,0,0,0,.287.286h3.424l-.287-.286v3.651a.29.29,0,0,0,.287.287h1.156a.29.29,0,0,0,.287-.287,4.15,4.15,0,0,1,1.975-3.48C1114.753,783.853,1114.466,783.357,1114.154,783.556Z" fill="#fff"/>
      </g>
    </g>
    <g id="Group_399" data-name="Group 399">
      <g id="Group_398" data-name="Group 398">
        <path id="Path_284" data-name="Path 284" d="M1123.792,783.8v.076l.286-.286h-2.126a.288.288,0,0,0-.286.286q-.018,1.282-.036,2.566l.562-.077a4.831,4.831,0,0,0-2.112-2.813l-.145.534h4.143a.287.287,0,0,0,0-.573h-4.143a.289.289,0,0,0-.144.534,4.229,4.229,0,0,1,1.849,2.471.287.287,0,0,0,.562-.077q.018-1.282.036-2.565l-.286.286h2.126a.289.289,0,0,0,.287-.286V783.8A.287.287,0,0,0,1123.792,783.8Z" fill="#fff"/>
      </g>
    </g>
    <g id="Group_401" data-name="Group 401">
      <g id="Group_400" data-name="Group 400">
        <path id="Path_285" data-name="Path 285" d="M1129.575,787.531v3.348l.286-.286h-7.827l.286.286v-3.348l-.286.287h7.827a.287.287,0,0,0,0-.573h-7.827a.29.29,0,0,0-.287.286v3.348a.29.29,0,0,0,.287.287h7.827a.289.289,0,0,0,.286-.287v-3.348A.286.286,0,0,0,1129.575,787.531Z" fill="#fff"/>
      </g>
    </g>
    <g id="Group_403" data-name="Group 403">
      <g id="Group_402" data-name="Group 402">
        <path id="Path_286" data-name="Path 286" d="M1120.6,790.879v-1.352c0-.58-.014-1.142-.733-1.238-.684-.092-.732.711-.732,1.168v1.422l.286-.286h-1.858l.286.286v-1.352c0-.58-.013-1.142-.732-1.238-.684-.092-.733.711-.733,1.168v1.422l.286-.286h-1.858l.287.286v-1.352c0-.58-.014-1.142-.732-1.238-.684-.092-.733.711-.733,1.168v1.422l.286-.286h-6.282l.286.286V787.55a.289.289,0,0,0-.286-.286h-.034a.289.289,0,0,0-.287.286v3.329l.287-.286h-3.608l.287.286v-1.522a.289.289,0,0,0-.287-.286h-13.314a.289.289,0,0,0-.287.286v1.522l.287-.286h-3.621l.287.286V787.55a.289.289,0,0,0-.287-.286h-.021a.289.289,0,0,0-.286.286v3.329l.286-.286h-6.3l.286.286v-1.352c0-.58-.014-1.142-.733-1.238-.684-.092-.732.712-.732,1.168v1.422l.286-.286h-1.858l.287.286v-1.352c0-.474-.01-1.321-.733-1.238-.684.078-.733.609-.733,1.168v1.422l.287-.286h-1.858l.286.286v-1.352c0-.474-.01-1.321-.732-1.238-.684.079-.733.61-.733,1.168v1.422l.286-.286h-9.529a.289.289,0,0,0-.287.286v.051a.289.289,0,0,0,.287.286h65.05a.289.289,0,0,0,.286-.286v-.051a.289.289,0,0,0-.286-.286h-9.55a.287.287,0,0,0,0,.573h9.55l-.286-.287v.051l.286-.286h-65.05l.286.286v-.051l-.286.287h9.529a.289.289,0,0,0,.286-.287v-1.61c0-.064-.045-.608.273-.36.081.062.047.278.047.36v1.61a.29.29,0,0,0,.287.287h1.858a.289.289,0,0,0,.286-.287v-1.61c0-.064-.045-.608.273-.36.08.062.047.278.047.36v1.61a.289.289,0,0,0,.286.287h1.858a.29.29,0,0,0,.287-.287v-.968c0-.159-.13-1.016.159-1.049s.161,1.777.161,2.017a.289.289,0,0,0,.286.287h6.3a.289.289,0,0,0,.286-.287V787.55l-.286.286h.021l-.286-.286v3.329a.289.289,0,0,0,.286.287h3.621a.289.289,0,0,0,.286-.287v-1.522l-.286.287h13.314l-.286-.287v1.522a.289.289,0,0,0,.286.287h3.608a.289.289,0,0,0,.286-.287V787.55l-.286.286h.034l-.286-.286v3.329a.289.289,0,0,0,.286.287h6.282a.289.289,0,0,0,.286-.287v-.968c0-.16-.13-1.016.161-1.049s.159,1.777.159,2.017a.289.289,0,0,0,.286.287h1.858a.29.29,0,0,0,.287-.287v-.968c0-.16-.131-1.016.16-1.049s.16,1.777.16,2.017a.289.289,0,0,0,.286.287h1.858a.289.289,0,0,0,.286-.287v-.968c0-.159-.13-1.016.16-1.049s.16,1.777.16,2.017A.287.287,0,0,0,1120.6,790.879Z" fill="#fff"/>
        <path id="Path_287" data-name="Path 287" d="M1086.772,787.531v.019a.289.289,0,0,0,.286.286H1107.6a.289.289,0,0,0,.286-.286v-.019a.289.289,0,0,0-.286-.286h-20.543a.287.287,0,0,0,0,.573H1107.6l-.287-.287v.019l.287-.286h-20.543l.287.286v-.019A.287.287,0,0,0,1086.772,787.531Z" fill="#fff"/>
      </g>
    </g>
    <g id="Group_405" data-name="Group 405">
      <g id="Group_404" data-name="Group 404">
        <path id="Path_288" data-name="Path 288" d="M1111.857,787.531v3.348l.286-.286h-1.118l.286.286v-3.348l-.286.287h1.118a.287.287,0,0,0,0-.573h-1.118a.289.289,0,0,0-.287.286v3.348a.29.29,0,0,0,.287.287h1.118a.289.289,0,0,0,.286-.287v-3.348A.286.286,0,0,0,1111.857,787.531Z" fill="#fff"/>
      </g>
    </g>
    <g id="Group_407" data-name="Group 407">
      <g id="Group_406" data-name="Group 406">
        <path id="Path_289" data-name="Path 289" d="M1072.331,787.531v3.348l.287-.286h-7.807l.286.286v-3.348l-.286.287h7.807a.287.287,0,0,0,0-.573h-7.807a.289.289,0,0,0-.287.286v3.348a.29.29,0,0,0,.287.287h7.807a.289.289,0,0,0,.286-.287v-3.348A.287.287,0,0,0,1072.331,787.531Z" fill="#fff"/>
      </g>
    </g>
    <g id="Group_409" data-name="Group 409">
      <g id="Group_408" data-name="Group 408">
        <path id="Path_290" data-name="Path 290" d="M1091.819,774.591v.007l.286-.287H1091.1a.29.29,0,0,0-.287.287v1.521l.287-.287h-2.054a.289.289,0,0,0-.286.287v1.674l.286-.287h-1.978a.29.29,0,0,0-.287.287v1.484l.287-.286h-.008l.287.286v-4.686l-.287.287h.578l-.286-.287v.007a.288.288,0,0,0,.286.286h1.522a.288.288,0,0,0,.286-.286v-.007l-.286.287h2.948a.287.287,0,0,0,0-.573h-2.948a.289.289,0,0,0-.287.286v.007l.287-.287h-1.522l.286.287v-.007a.289.289,0,0,0-.286-.286h-.578a.289.289,0,0,0-.286.286v4.686a.289.289,0,0,0,.286.286h.008a.289.289,0,0,0,.286-.286v-1.484l-.286.286h1.978a.289.289,0,0,0,.286-.286v-1.674l-.286.286h2.054a.289.289,0,0,0,.286-.286V774.6l-.286.286h1.008a.289.289,0,0,0,.287-.286v-.007A.287.287,0,0,0,1091.819,774.591Z" fill="#fff"/>
      </g>
    </g>
    <g id="Group_411" data-name="Group 411">
      <g id="Group_410" data-name="Group 410">
        <path id="Path_291" data-name="Path 291" d="M1086.778,779.277V780l.287-.286h-.008l.287.286v-.722l-.287.286h.008a.286.286,0,0,0,0-.572h-.008a.288.288,0,0,0-.286.286V780a.289.289,0,0,0,.286.287h.008a.289.289,0,0,0,.286-.287v-.722A.287.287,0,0,0,1086.778,779.277Z" fill="#fff"/>
      </g>
    </g>
    <g id="Group_413" data-name="Group 413">
      <g id="Group_412" data-name="Group 412">
        <path id="Path_292" data-name="Path 292" d="M1104.277,778.991h-13.883l.247.43a7.792,7.792,0,0,1,6.684-3.7,7.691,7.691,0,0,1,6.705,3.7.287.287,0,0,0,.495-.289,8.474,8.474,0,0,0-14.378,0,.288.288,0,0,0,.247.431h13.883A.286.286,0,0,0,1104.277,778.991Z" fill="#fff"/>
      </g>
    </g>
    <g id="Group_415" data-name="Group 415">
      <g id="Group_414" data-name="Group 414">
        <path id="Path_293" data-name="Path 293" d="M1107.313,774.591v3.2l.287-.287h-1.971l.286.287v-1.674a.289.289,0,0,0-.286-.287h-1.979l.287.287V774.6a.29.29,0,0,0-.287-.287h-1.084l.287.287v-.007l-.287.287h2.948l-.286-.287v.007a.288.288,0,0,0,.286.286h1.522a.288.288,0,0,0,.286-.286v-.007l-.286.287h.564a.287.287,0,0,0,0-.573h-.564a.289.289,0,0,0-.286.286v.007l.286-.287h-1.522l.287.287v-.007a.289.289,0,0,0-.287-.286h-2.948a.289.289,0,0,0-.286.286v.007a.288.288,0,0,0,.286.286h1.084l-.286-.286v1.521a.289.289,0,0,0,.286.286h1.979l-.287-.286v1.674a.289.289,0,0,0,.287.286h1.971a.289.289,0,0,0,.286-.286v-3.2A.287.287,0,0,0,1107.313,774.591Z" fill="#fff"/>
      </g>
    </g>
    <g id="Group_417" data-name="Group 417">
      <g id="Group_416" data-name="Group 416">
        <path id="Path_294" data-name="Path 294" d="M1088.87,774.591v.007l.287-.287h-1.522l.286.287v-.007l-.286.287h1.522a.287.287,0,0,0,0-.573h-1.522a.289.289,0,0,0-.286.286v.007a.288.288,0,0,0,.286.286h1.522a.288.288,0,0,0,.286-.286v-.007A.287.287,0,0,0,1088.87,774.591Z" fill="#fff"/>
      </g>
    </g>
    <g id="Group_419" data-name="Group 419">
      <g id="Group_418" data-name="Group 418">
        <path id="Path_295" data-name="Path 295" d="M1093.093,774.591v.007l.286-.287H1092.1l.287.287v-.007l-.287.287h1.274a.287.287,0,0,0,0-.573H1092.1a.289.289,0,0,0-.286.286v.007a.288.288,0,0,0,.286.286h1.274a.289.289,0,0,0,.287-.286v-.007A.287.287,0,0,0,1093.093,774.591Z" fill="#fff"/>
      </g>
    </g>
    <g id="Group_421" data-name="Group 421">
      <g id="Group_420" data-name="Group 420">
        <path id="Path_296" data-name="Path 296" d="M1102.28,774.591v.007l.286-.287h-1.274l.286.287v-.007l-.286.287h1.274a.287.287,0,0,0,0-.573h-1.274a.289.289,0,0,0-.287.286v.007a.289.289,0,0,0,.287.286h1.274a.289.289,0,0,0,.287-.286v-.007A.287.287,0,0,0,1102.28,774.591Z" fill="#fff"/>
      </g>
    </g>
    <g id="Group_423" data-name="Group 423">
      <g id="Group_422" data-name="Group 422">
        <path id="Path_297" data-name="Path 297" d="M1105.514,774.878h1.522l-.286-.287v.007l.286-.287h-1.522l.287.287v-.007a.287.287,0,0,0-.573,0v.007a.288.288,0,0,0,.286.286h1.522a.288.288,0,0,0,.286-.286v-.007a.289.289,0,0,0-.286-.286h-1.522A.287.287,0,0,0,1105.514,774.878Z" fill="#fff"/>
      </g>
    </g>
    <g id="Group_425" data-name="Group 425">
      <g id="Group_424" data-name="Group 424">
        <path id="Path_298" data-name="Path 298" d="M1107.321,777.793V780l.286-.286h-.007l.286.286v-2.206l-.286.286h.007a.287.287,0,0,0,0-.573h-.007a.29.29,0,0,0-.287.287V780a.29.29,0,0,0,.287.287h.007a.29.29,0,0,0,.287-.287v-2.206A.287.287,0,0,0,1107.321,777.793Z" fill="#fff"/>
      </g>
    </g>
    <g id="Group_427" data-name="Group 427">
      <g id="Group_426" data-name="Group 426">
        <path id="Path_299" data-name="Path 299" d="M1107.333,780.038V783.8l.286-.287h-1.51l.286.287v-1.625c0-.644.007-1.339-.82-1.422-.793-.08-.821.816-.821,1.351v1.7l.286-.287h-2.226l.286.287v-1.625c0-.644.007-1.339-.821-1.422-.792-.08-.821.816-.821,1.35v1.7l.286-.287h-2.225l.286.287v-1.625c0-.644.007-1.339-.821-1.422-.793-.08-.822.816-.822,1.35v1.7l.287-.286h-2.226l.287.286v-1.624c0-.644.006-1.339-.822-1.422-.792-.08-.821.816-.821,1.35v1.7l.286-.286h-2.225l.286.286v-1.624c0-.645.007-1.339-.821-1.423-.793-.079-.822.817-.822,1.351v1.7l.287-.286h-2.226l.287.286v-1.624c0-.645.006-1.339-.822-1.423-.792-.079-.821.817-.821,1.351v1.7l.286-.286h-1.5l.286.286c-.042-1.253-.012-2.512-.012-3.766l-.286.287h20.567a.287.287,0,0,0,0-.573h-20.567a.289.289,0,0,0-.287.286c0,1.254-.03,2.513.013,3.766a.29.29,0,0,0,.286.287h1.5a.289.289,0,0,0,.286-.287V782.65c0-.264-.165-1.279.249-1.321.39-.039.249,1.052.249,1.24V783.8a.289.289,0,0,0,.286.286h2.226a.289.289,0,0,0,.286-.286V782.65c0-.264-.165-1.279.249-1.321.39-.039.248,1.052.248,1.239V783.8a.289.289,0,0,0,.287.286h2.225a.289.289,0,0,0,.286-.286V782.65c0-.264-.164-1.279.249-1.321.39-.039.249,1.052.249,1.239V783.8a.289.289,0,0,0,.286.286h2.226a.289.289,0,0,0,.286-.286V782.65c0-.265-.165-1.279.249-1.321.39-.039.248,1.052.248,1.239V783.8a.289.289,0,0,0,.287.286h2.225a.289.289,0,0,0,.287-.286v-1.154c0-.264-.165-1.279.248-1.32.389-.039.248,1.052.248,1.239V783.8a.289.289,0,0,0,.286.286h2.227a.289.289,0,0,0,.286-.286v-1.154c0-.264-.165-1.279.249-1.32.389-.04.248,1.052.248,1.239V783.8a.289.289,0,0,0,.286.286h1.51a.289.289,0,0,0,.287-.286v-3.766A.287.287,0,0,0,1107.333,780.038Z" fill="#fff"/>
      </g>
    </g>
    <g id="Group_429" data-name="Group 429">
      <g id="Group_428" data-name="Group 428">
        <path id="Path_300" data-name="Path 300" d="M1087.064,783.517h-.012l.286.287v-.179h-.573a1.533,1.533,0,0,1,.013.179.286.286,0,1,0,.572,0,1.346,1.346,0,0,0-.012-.179.312.312,0,0,0-.084-.2.286.286,0,0,0-.489.2v.179a.289.289,0,0,0,.287.286h.012a.286.286,0,0,0,0-.573Z" fill="#fff"/>
      </g>
    </g>
    <g id="Group_431" data-name="Group 431">
      <g id="Group_430" data-name="Group 430">
        <path id="Path_301" data-name="Path 301" d="M1089.346,781.578V783.8l.286-.287h-1.07l.286.287v-2.21a.249.249,0,0,1,.5-.016c.036.364.61.368.573,0a.837.837,0,0,0-1.106-.769.865.865,0,0,0-.537.9v2.1a.289.289,0,0,0,.286.286h1.07a.289.289,0,0,0,.287-.286v-2.226A.287.287,0,0,0,1089.346,781.578Z" fill="#fff"/>
      </g>
    </g>
    <g id="Group_433" data-name="Group 433">
      <g id="Group_432" data-name="Group 432">
        <path id="Path_302" data-name="Path 302" d="M1092.641,781.578V783.8l.287-.287h-1.07l.286.287v-2.21a.249.249,0,0,1,.5-.016c.037.364.61.368.573,0a.836.836,0,0,0-1.106-.769.866.866,0,0,0-.537.9v2.1a.289.289,0,0,0,.287.286h1.07a.289.289,0,0,0,.286-.286v-2.226A.287.287,0,0,0,1092.641,781.578Z" fill="#fff"/>
      </g>
    </g>
    <g id="Group_435" data-name="Group 435">
      <g id="Group_434" data-name="Group 434">
        <path id="Path_303" data-name="Path 303" d="M1095.937,781.578V783.8l.286-.287h-1.07l.286.287v-2.21a.249.249,0,0,1,.5-.016c.036.364.61.368.573,0a.837.837,0,0,0-1.106-.769.866.866,0,0,0-.537.9v2.1a.289.289,0,0,0,.286.286h1.07a.289.289,0,0,0,.287-.286v-2.226A.287.287,0,0,0,1095.937,781.578Z" fill="#fff"/>
      </g>
    </g>
    <g id="Group_437" data-name="Group 437">
      <g id="Group_436" data-name="Group 436">
        <path id="Path_304" data-name="Path 304" d="M1099.232,781.578V783.8l.287-.287h-1.07l.286.287v-2.21a.249.249,0,0,1,.5-.016c.037.364.61.368.573,0a.836.836,0,0,0-1.106-.769.866.866,0,0,0-.537.9v2.1a.289.289,0,0,0,.287.286h1.07a.289.289,0,0,0,.286-.286v-2.226A.287.287,0,0,0,1099.232,781.578Z" fill="#fff"/>
      </g>
    </g>
    <g id="Group_439" data-name="Group 439">
      <g id="Group_438" data-name="Group 438">
        <path id="Path_305" data-name="Path 305" d="M1102.527,781.578V783.8l.286-.287h-1.069l.287.287v-2.21a.248.248,0,0,1,.5-.016c.037.364.61.368.573,0a.835.835,0,0,0-1.1-.769.866.866,0,0,0-.537.9v2.1a.289.289,0,0,0,.286.286h1.069a.289.289,0,0,0,.287-.286v-2.226A.287.287,0,0,0,1102.527,781.578Z" fill="#fff"/>
      </g>
    </g>
    <g id="Group_441" data-name="Group 441">
      <g id="Group_440" data-name="Group 440">
        <path id="Path_306" data-name="Path 306" d="M1105.823,781.578V783.8l.286-.287h-1.069l.286.287v-2.21a.249.249,0,0,1,.5-.016c.036.364.609.368.572,0a.835.835,0,0,0-1.1-.769.865.865,0,0,0-.537.9v2.1a.289.289,0,0,0,.286.286h1.069a.289.289,0,0,0,.286-.286v-2.226A.286.286,0,0,0,1105.823,781.578Z" fill="#fff"/>
      </g>
    </g>
    <g id="Group_443" data-name="Group 443">
      <g id="Group_442" data-name="Group 442">
        <path id="Path_307" data-name="Path 307" d="M1109.2,768.187h-23.722l.247.431a13.414,13.414,0,0,1,9.753-7.148l-.362-.276v.029a.289.289,0,0,0,.286.287h3.873a.287.287,0,0,0,.286-.287l0-.028-.363.276a13.238,13.238,0,0,1,9.758,7.147c.168.329.662.039.494-.289a13.769,13.769,0,0,0-10.1-7.41c-.164-.025-.386.072-.363.276l0,.028.287-.286H1095.4l.287.286v-.029a.292.292,0,0,0-.363-.276,13.947,13.947,0,0,0-10.095,7.411.29.29,0,0,0,.247.431H1109.2A.287.287,0,0,0,1109.2,768.187Z" fill="#fff"/>
      </g>
    </g>
    <g id="Group_445" data-name="Group 445">
      <g id="Group_444" data-name="Group 444">
        <path id="Path_308" data-name="Path 308" d="M1110.688,768.948h-26.7l.144.533,1.335-.667.183-.091c-.1.051-.19.036-.127.036h23.638c.071,0-.193-.068-.118-.03l.221.11,1.284.642c.329.165.619-.329.289-.494l-1.335-.668a.912.912,0,0,0-.425-.132h-23.461a.817.817,0,0,0-.391.109l-1.382.691a.288.288,0,0,0,.145.533h26.7A.286.286,0,0,0,1110.688,768.948Z" fill="#fff"/>
      </g>
    </g>
    <g id="Group_447" data-name="Group 447">
      <g id="Group_446" data-name="Group 446">
        <path id="Path_309" data-name="Path 309" d="M1110.674,769.234v1.471l.287-.286a3.774,3.774,0,0,0-3.074,1.513,4.213,4.213,0,0,0-.574,2.659l.287-.286h-.564l.286.286v-3.135a1.072,1.072,0,0,0-1.047-1.072,1.054,1.054,0,0,0-1.047,1.05v3.157l.286-.286h-2.948l.287.286v-2.81a1.859,1.859,0,0,0-.078-.735,1.051,1.051,0,0,0-2.017.4v1.778l.287-.286H1098.1l.286.286v-1.469a2.58,2.58,0,0,0-.049-.644,1.065,1.065,0,0,0-1-.731c-1.387-.112-1.047,2.038-1.047,2.844l.286-.286h-2.949l.287.286V771.45a1.051,1.051,0,0,0-2.013-.416,5.457,5.457,0,0,0-.081,1.814v1.743l.286-.286h-2.948l.286.286v-3.135a1.071,1.071,0,0,0-1.047-1.072,1.054,1.054,0,0,0-1.047,1.05v3.157l.286-.286h-.578l.287.286v-.83l-.287.286h.03a.288.288,0,0,0,.286-.286,3.511,3.511,0,0,0-3.663-3.343l.287.287v-1.471l-.287.286h27.251a.287.287,0,0,0,0-.573H1083.71a.289.289,0,0,0-.286.287v1.471a.289.289,0,0,0,.286.286,2.933,2.933,0,0,1,3.091,2.77l.286-.287h-.03a.289.289,0,0,0-.286.287v.83a.289.289,0,0,0,.286.286h.578a.289.289,0,0,0,.286-.286v-2.81c0-.317-.04-.661.332-.8.834-.318.617,1.418.617,1.788v1.824a.289.289,0,0,0,.287.286h2.948a.289.289,0,0,0,.287-.286v-3c0-.264.04-.506.331-.616.509-.194.617.369.617.718v1.531a.289.289,0,0,0,.286.286h2.949a.289.289,0,0,0,.286-.286v-1.021c0-.39-.13-1.053.331-1.228.72-.274.619.777.619,1.148v1.1a.289.289,0,0,0,.286.286h2.948a.289.289,0,0,0,.286-.286V771.7c0-.3-.008-.589.331-.718.43-.164.618.28.618.616v3a.289.289,0,0,0,.286.286h2.948a.289.289,0,0,0,.287-.286v-2.81c0-.317-.041-.661.331-.8.835-.319.618,1.419.618,1.788v1.824a.289.289,0,0,0,.286.286h.564a.289.289,0,0,0,.286-.286,4.071,4.071,0,0,1,.382-2.2,3.114,3.114,0,0,1,2.693-1.4.289.289,0,0,0,.286-.286v-1.471A.287.287,0,0,0,1110.674,769.234Z" fill="#fff"/>
      </g>
    </g>
    <g id="Group_449" data-name="Group 449">
      <g id="Group_448" data-name="Group 448">
        <path id="Path_310" data-name="Path 310" d="M1097.811,771.431v1.8l.286-.286h-1.522l.286.286v-1.777a.475.475,0,0,1,.95-.02c.029.366.6.369.572,0a1.048,1.048,0,0,0-2.094,0c-.044.593,0,1.2,0,1.8a.289.289,0,0,0,.286.287h1.522a.289.289,0,0,0,.286-.287v-1.8A.286.286,0,0,0,1097.811,771.431Z" fill="#fff"/>
      </g>
    </g>
    <g id="Group_451" data-name="Group 451">
      <g id="Group_450" data-name="Group 450">
        <path id="Path_311" data-name="Path 311" d="M1088.87,771.431v3.16l.287-.286h-1.522l.286.286v-3.16a.475.475,0,0,1,.949,0c.03.366.6.369.573,0a1.063,1.063,0,0,0-1.606-.885c-.464.257-.488.773-.488,1.235v2.81a.289.289,0,0,0,.286.287h1.522a.289.289,0,0,0,.286-.287v-3.159A.287.287,0,0,0,1088.87,771.431Z" fill="#fff"/>
      </g>
    </g>
    <g id="Group_453" data-name="Group 453">
      <g id="Group_452" data-name="Group 452">
        <path id="Path_312" data-name="Path 312" d="M1088.87,774.591v.007l.287-.287h-1.522l.286.287v-.007l-.286.287h1.522a.287.287,0,0,0,0-.573h-1.522a.289.289,0,0,0-.286.286v.007a.288.288,0,0,0,.286.286h1.522a.288.288,0,0,0,.286-.286v-.007A.287.287,0,0,0,1088.87,774.591Z" fill="#fff"/>
      </g>
    </g>
    <g id="Group_455" data-name="Group 455">
      <g id="Group_454" data-name="Group 454">
        <path id="Path_313" data-name="Path 313" d="M1093.34,771.431v1.8l.286-.286h-.247a.289.289,0,0,0-.286.286v1.363l.286-.286H1092.1l.287.286v-3.16a.474.474,0,0,1,.948,0c.03.366.6.369.573,0a1.063,1.063,0,0,0-1.606-.885c-.464.257-.488.773-.488,1.235v2.81a.289.289,0,0,0,.286.287h1.274a.29.29,0,0,0,.287-.287v-1.363l-.287.287h.247a.29.29,0,0,0,.287-.287v-1.8A.287.287,0,0,0,1093.34,771.431Z" fill="#fff"/>
      </g>
    </g>
    <g id="Group_457" data-name="Group 457">
      <g id="Group_456" data-name="Group 456">
        <path id="Path_314" data-name="Path 314" d="M1093.093,774.591v.007l.286-.287H1092.1l.287.287v-.007l-.287.287h1.274a.287.287,0,0,0,0-.573H1092.1a.289.289,0,0,0-.286.286v.007a.288.288,0,0,0,.286.286h1.274a.289.289,0,0,0,.287-.286v-.007A.287.287,0,0,0,1093.093,774.591Z" fill="#fff"/>
      </g>
    </g>
    <g id="Group_459" data-name="Group 459">
      <g id="Group_458" data-name="Group 458">
        <path id="Path_315" data-name="Path 315" d="M1097.811,771.431v1.8l.286-.286h-1.522l.286.286v-1.777a.475.475,0,0,1,.95-.02c.029.366.6.369.572,0a1.048,1.048,0,0,0-2.094,0c-.044.593,0,1.2,0,1.8a.289.289,0,0,0,.286.287h1.522a.289.289,0,0,0,.286-.287v-1.8A.286.286,0,0,0,1097.811,771.431Z" fill="#fff"/>
      </g>
    </g>
    <g id="Group_461" data-name="Group 461">
      <g id="Group_460" data-name="Group 460">
        <path id="Path_316" data-name="Path 316" d="M1102.28,771.431v3.16l.286-.286h-1.274l.286.286v-1.363a.289.289,0,0,0-.286-.286h-.247l.286.286v-1.777a.475.475,0,0,1,.949-.02c.03.366.6.369.573,0a1.048,1.048,0,0,0-2.095,0c-.043.593,0,1.2,0,1.8a.29.29,0,0,0,.287.287h.247l-.287-.287v1.363a.29.29,0,0,0,.287.287h1.274a.29.29,0,0,0,.287-.287v-3.16A.287.287,0,0,0,1102.28,771.431Z" fill="#fff"/>
      </g>
    </g>
    <g id="Group_463" data-name="Group 463">
      <g id="Group_462" data-name="Group 462">
        <path id="Path_317" data-name="Path 317" d="M1102.28,774.591v.007l.286-.287h-1.274l.286.287v-.007l-.286.287h1.274a.287.287,0,0,0,0-.573h-1.274a.289.289,0,0,0-.287.286v.007a.289.289,0,0,0,.287.286h1.274a.289.289,0,0,0,.287-.286v-.007A.287.287,0,0,0,1102.28,774.591Z" fill="#fff"/>
      </g>
    </g>
    <g id="Group_465" data-name="Group 465">
      <g id="Group_464" data-name="Group 464">
        <path id="Path_318" data-name="Path 318" d="M1106.75,771.431v3.16l.286-.286h-1.522l.287.286v-3.16a.475.475,0,0,1,.949,0c.029.366.6.369.572,0a1.062,1.062,0,0,0-1.6-.885c-.465.257-.489.773-.489,1.235v2.81a.289.289,0,0,0,.286.287h1.522a.289.289,0,0,0,.286-.287v-3.159A.286.286,0,0,0,1106.75,771.431Z" fill="#fff"/>
      </g>
    </g>
    <g id="Group_467" data-name="Group 467">
      <g id="Group_466" data-name="Group 466">
        <path id="Path_319" data-name="Path 319" d="M1106.75,774.591v.007l.286-.287h-1.522l.287.287v-.007l-.287.287h1.522a.287.287,0,0,0,0-.573h-1.522a.289.289,0,0,0-.286.286v.007a.288.288,0,0,0,.286.286h1.522a.288.288,0,0,0,.286-.286v-.007A.286.286,0,0,0,1106.75,774.591Z" fill="#fff"/>
      </g>
    </g>
    <g id="Group_469" data-name="Group 469">
      <g id="Group_468" data-name="Group 468">
        <path id="Path_320" data-name="Path 320" d="M1107.313,777.793V780l.287-.286h-1.841c-.072,0,.2.077.087.019l-.159-.08-.595-.3a2.272,2.272,0,0,0-.815-.365l.248.142a8.474,8.474,0,0,0-14.378,0l.247-.142a1.217,1.217,0,0,0-.476.2l-.88.439-.235.118c-.084.042-.064.008.045.008h-18.255l.144.534,1.169-.585.253-.126c.128-.064.113-.011-.04-.011h8.243l-.286-.286V780a.289.289,0,0,0,.286.287h6.7a.289.289,0,0,0,.286-.287v-2.206l-.286.286h1.978a.289.289,0,0,0,.286-.286v-1.674l-.286.286h2.054a.289.289,0,0,0,.286-.286V774.6l-.286.286h2.282a.289.289,0,0,0,.287-.286v-1.37l-.287.286h7.913l-.287-.286v1.37a.289.289,0,0,0,.287.286h2.359l-.287-.286v1.521a.289.289,0,0,0,.287.286h1.978l-.286-.286v1.674a.289.289,0,0,0,.286.286h1.971a.287.287,0,0,0,0-.573h-1.971l.286.287v-1.674a.289.289,0,0,0-.286-.287h-1.978l.286.287V774.6a.289.289,0,0,0-.286-.287h-2.359l.286.287v-1.37a.289.289,0,0,0-.286-.286h-7.913a.289.289,0,0,0-.286.286v1.37l.286-.287H1091.1a.29.29,0,0,0-.287.287v1.521l.287-.287h-2.054a.289.289,0,0,0-.286.287v1.674l.286-.287h-1.978a.29.29,0,0,0-.287.287V780l.287-.286h-6.7l.287.286v-.722a.29.29,0,0,0-.287-.287h-8.077a1.137,1.137,0,0,0-.553.158l-1.284.642a.289.289,0,0,0,.145.534h18.212a1.872,1.872,0,0,0,.709-.3l.8-.4.2-.1c-.259.13-.02.024.024,0a.788.788,0,0,0,.221-.3,7.264,7.264,0,0,1,2.029-2.111,8.1,8.1,0,0,1,10.022.74,7.067,7.067,0,0,1,.851.985c.111.155.213.318.311.481a.49.49,0,0,0,.161.2c.044.026.283.131.025,0l1.24.621a1.822,1.822,0,0,0,.922.139h1.28a.289.289,0,0,0,.286-.287v-2.206A.287.287,0,0,0,1107.313,777.793Z" fill="#fff"/>
      </g>
    </g>
    <g id="Group_471" data-name="Group 471">
      <g id="Group_470" data-name="Group 470">
        <path id="Path_321" data-name="Path 321" d="M1104.277,778.991h-13.883l.247.43a7.792,7.792,0,0,1,6.684-3.7,7.691,7.691,0,0,1,6.705,3.7.287.287,0,0,0,.495-.289,8.474,8.474,0,0,0-14.378,0,.288.288,0,0,0,.247.431h13.883A.286.286,0,0,0,1104.277,778.991Z" fill="#fff"/>
      </g>
    </g>
    <g id="Group_473" data-name="Group 473">
      <g id="Group_472" data-name="Group 472">
        <path id="Path_322" data-name="Path 322" d="M1107.321,777.793V780l.286-.286h-.007l.286.286v-2.206l-.286.286h.007a.287.287,0,0,0,0-.573h-.007a.29.29,0,0,0-.287.287V780a.29.29,0,0,0,.287.287h.007a.29.29,0,0,0,.287-.287v-2.206A.287.287,0,0,0,1107.321,777.793Z" fill="#fff"/>
      </g>
    </g>
    <g id="Group_475" data-name="Group 475">
      <g id="Group_474" data-name="Group 474">
        <path id="Path_323" data-name="Path 323" d="M1104.277,778.991h-13.883l.247.43a7.792,7.792,0,0,1,6.684-3.7,7.691,7.691,0,0,1,6.705,3.7.287.287,0,0,0,.495-.289,8.474,8.474,0,0,0-14.378,0,.288.288,0,0,0,.247.431h13.883A.286.286,0,0,0,1104.277,778.991Z" fill="#fff"/>
      </g>
    </g>
    <g id="Group_477" data-name="Group 477">
      <g id="Group_476" data-name="Group 476">
        <path id="Path_324" data-name="Path 324" d="M1105.742,779.713h-16.813l.145.534,1.338-.669c.224-.113-.122-.015,0-.015h13.763c.14,0,.141.044-.019-.037l1.439.721c.329.164.619-.33.289-.495l-1.337-.669a.881.881,0,0,0-.448-.093h-13.263a1.477,1.477,0,0,0-.608.04l-1.445.722a.288.288,0,0,0,.144.534h16.813A.287.287,0,0,0,1105.742,779.713Z" fill="#fff"/>
      </g>
    </g>
    <g id="Group_479" data-name="Group 479">
      <g id="Group_478" data-name="Group 478">
        <path id="Path_325" data-name="Path 325" d="M1105.819,779.751h-16.967l.145.534c.093-.047-.157,0-.005,0h16.731c.083,0-.176-.065-.049,0,.329.164.62-.33.289-.495a2.943,2.943,0,0,0-1.228-.077h-15.469a1.128,1.128,0,0,0-.558.077.288.288,0,0,0,.144.534h16.967A.287.287,0,0,0,1105.819,779.751Z" fill="#fff"/>
      </g>
    </g>
    <g id="Group_481" data-name="Group 481">
      <g id="Group_480" data-name="Group 480">
        <path id="Path_326" data-name="Path 326" d="M1101.564,787.264h-8.456l.247.431a4.73,4.73,0,0,1,7.962,0,.286.286,0,0,0,.494-.289,5.31,5.31,0,0,0-8.951,0,.289.289,0,0,0,.248.431h8.456A.287.287,0,0,0,1101.564,787.264Z" fill="#fff"/>
      </g>
    </g>
    <g id="Group_483" data-name="Group 483">
      <g id="Group_482" data-name="Group 482">
        <path id="Path_327" data-name="Path 327" d="M1107.314,787.55v3.329l.287-.286h-3.608l.287.286v-1.522a.289.289,0,0,0-.287-.286h-13.314a.289.289,0,0,0-.287.286v1.522l.287-.286h-3.621l.287.286V787.55l-.287.286H1107.6a.286.286,0,0,0,0-.572h-20.543a.289.289,0,0,0-.286.286v3.329a.289.289,0,0,0,.286.287h3.621a.289.289,0,0,0,.286-.287v-1.522l-.286.287h13.314l-.286-.287v1.522a.289.289,0,0,0,.286.287h3.608a.289.289,0,0,0,.286-.287V787.55A.287.287,0,0,0,1107.314,787.55Z" fill="#fff"/>
      </g>
    </g>
    <g id="Group_485" data-name="Group 485">
      <g id="Group_484" data-name="Group 484">
        <path id="Path_328" data-name="Path 328" d="M1107.349,787.55v3.367l.286-.287h-20.6l.286.287V787.55l-.286.286h.021l-.286-.286v3.329a.289.289,0,0,0,.286.287h3.621a.289.289,0,0,0,.286-.287v-1.522l-.286.287h13.314l-.286-.287v1.522a.289.289,0,0,0,.286.287h3.608a.289.289,0,0,0,.286-.287V787.55l-.286.286h.034a.286.286,0,0,0,0-.572h-.034a.289.289,0,0,0-.287.286v3.329l.287-.286h-3.608l.287.286v-1.522a.289.289,0,0,0-.287-.286h-13.314a.289.289,0,0,0-.287.286v1.522l.287-.286h-3.621l.287.286V787.55a.289.289,0,0,0-.287-.286h-.021a.289.289,0,0,0-.286.286v3.367a.289.289,0,0,0,.286.286h20.6a.289.289,0,0,0,.286-.286V787.55A.286.286,0,0,0,1107.349,787.55Z" fill="#fff"/>
      </g>
    </g>
    <g id="Group_487" data-name="Group 487">
      <g id="Group_486" data-name="Group 486">
        <path id="Path_329" data-name="Path 329" d="M1086.772,783.88v3.67l.286-.286h-.021a.289.289,0,0,0-.286.286v3.329l.286-.286h-3.4l.287.286v-7l-.287.286h3.424a.287.287,0,0,0,0-.573h-3.424a.289.289,0,0,0-.286.287v7a.289.289,0,0,0,.286.286h3.4a.289.289,0,0,0,.286-.286V787.55l-.286.286h.021a.289.289,0,0,0,.287-.286v-3.67A.287.287,0,0,0,1086.772,783.88Z" fill="#fff"/>
      </g>
    </g>
    <g id="Group_489" data-name="Group 489">
      <g id="Group_488" data-name="Group 488">
        <path id="Path_330" data-name="Path 330" d="M1086.772,783.8v.076l.286-.286h-3.424l.287.286V783.8l-.287.286h3.424a.287.287,0,0,0,0-.573h-3.424a.289.289,0,0,0-.286.287v.076a.289.289,0,0,0,.286.286h3.424a.289.289,0,0,0,.287-.286V783.8A.287.287,0,0,0,1086.772,783.8Z" fill="#fff"/>
      </g>
    </g>
    <g id="Group_491" data-name="Group 491">
      <g id="Group_490" data-name="Group 490">
        <path id="Path_331" data-name="Path 331" d="M1086.772,787.55v3.38l.286-.286h-3.424l.287.286v-.051l-.287.287h3.4a.289.289,0,0,0,.286-.287V787.55l-.286.287h.021a.287.287,0,0,0,0-.573h-.021a.289.289,0,0,0-.286.286v3.329l.286-.286h-3.4a.289.289,0,0,0-.286.286v.051a.289.289,0,0,0,.286.286h3.424a.289.289,0,0,0,.287-.286v-3.38A.287.287,0,0,0,1086.772,787.55Z" fill="#fff"/>
      </g>
    </g>
    <g id="Group_493" data-name="Group 493">
      <g id="Group_492" data-name="Group 492">
        <path id="Path_332" data-name="Path 332" d="M1087.064,783.517h-3.391l.286.287a1.422,1.422,0,0,1,2.819,0c.012.368.585.369.572,0a1.988,1.988,0,0,0-3.964,0,.288.288,0,0,0,.287.286h3.391A.287.287,0,0,0,1087.064,783.517Z" fill="#fff"/>
      </g>
    </g>
    <g id="Group_495" data-name="Group 495">
      <g id="Group_494" data-name="Group 494">
        <path id="Path_333" data-name="Path 333" d="M1110.738,783.88v7l.287-.286h-3.39l.286.286V787.55a.289.289,0,0,0-.286-.286h-.034l.286.286v-3.67l-.286.286h3.424a.286.286,0,0,0,0-.572H1107.6a.289.289,0,0,0-.287.286v3.67a.289.289,0,0,0,.287.286h.034l-.286-.286v3.329a.289.289,0,0,0,.286.287h3.39a.289.289,0,0,0,.286-.287v-7A.287.287,0,0,0,1110.738,783.88Z" fill="#fff"/>
      </g>
    </g>
    <g id="Group_497" data-name="Group 497">
      <g id="Group_496" data-name="Group 496">
        <path id="Path_334" data-name="Path 334" d="M1110.738,790.879v.051l.287-.286H1107.6l.286.286v-3.38l-.286.286h.034l-.286-.286v3.329a.289.289,0,0,0,.286.286h3.39a.286.286,0,0,0,0-.572h-3.39l.286.286V787.55a.289.289,0,0,0-.286-.286h-.034a.289.289,0,0,0-.287.286v3.38a.289.289,0,0,0,.287.286h3.424a.289.289,0,0,0,.286-.286v-.051A.287.287,0,0,0,1110.738,790.879Z" fill="#fff"/>
      </g>
    </g>
    <g id="Group_499" data-name="Group 499">
      <g id="Group_498" data-name="Group 498">
        <path id="Path_335" data-name="Path 335" d="M1110.738,783.8v.076l.287-.286H1107.6l.286.286V783.8l-.286.286h3.424a.287.287,0,0,0,0-.573H1107.6a.29.29,0,0,0-.287.287v.076a.289.289,0,0,0,.287.286h3.424a.289.289,0,0,0,.286-.286V783.8A.287.287,0,0,0,1110.738,783.8Z" fill="#fff"/>
      </g>
    </g>
    <g id="Group_501" data-name="Group 501">
      <g id="Group_500" data-name="Group 500">
        <path id="Path_336" data-name="Path 336" d="M1111.03,783.517h-3.392l.287.287a1.421,1.421,0,0,1,2.818,0c.014.368.587.369.573,0a1.988,1.988,0,0,0-3.964,0,.288.288,0,0,0,.286.286h3.392A.287.287,0,0,0,1111.03,783.517Z" fill="#fff"/>
      </g>
    </g>
    <g id="Group_503" data-name="Group 503">
      <g id="Group_502" data-name="Group 502">
        <path id="Path_337" data-name="Path 337" d="M1130.188,790.879q-.025,1.864-.052,3.729l.286-.287h-66.193l.286.287q-.025-1.864-.052-3.729l-.286.287h26.5a.289.289,0,0,0,.286-.287v-1.522l-.286.287h13.314l-.286-.287v1.522a.289.289,0,0,0,.286.287h26.482a.287.287,0,0,0,0-.573h-26.482l.287.286v-1.522a.289.289,0,0,0-.287-.286h-13.314a.289.289,0,0,0-.287.286v1.522l.287-.286h-26.5a.289.289,0,0,0-.287.286q.027,1.864.053,3.729a.289.289,0,0,0,.286.286h66.193a.29.29,0,0,0,.287-.286q.025-1.864.052-3.729A.287.287,0,0,0,1130.188,790.879Z" fill="#fff"/>
      </g>
    </g>
    <g id="Group_505" data-name="Group 505">
      <g id="Group_504" data-name="Group 504">
        <path id="Path_338" data-name="Path 338" d="M1089.346,781.578V783.8l.286-.287h-1.07l.286.287v-2.21a.249.249,0,0,1,.5-.016c.036.364.61.368.573,0a.837.837,0,0,0-1.106-.769.865.865,0,0,0-.537.9v2.1a.289.289,0,0,0,.286.286h1.07a.289.289,0,0,0,.287-.286v-2.226A.287.287,0,0,0,1089.346,781.578Z" fill="#fff"/>
      </g>
    </g>
    <g id="Group_507" data-name="Group 507">
      <g id="Group_506" data-name="Group 506">
        <path id="Path_339" data-name="Path 339" d="M1092.641,781.578V783.8l.287-.287h-1.07l.286.287v-2.21a.249.249,0,0,1,.5-.016c.037.364.61.368.573,0a.836.836,0,0,0-1.106-.769.866.866,0,0,0-.537.9v2.1a.289.289,0,0,0,.287.286h1.07a.289.289,0,0,0,.286-.286v-2.226A.287.287,0,0,0,1092.641,781.578Z" fill="#fff"/>
      </g>
    </g>
    <g id="Group_509" data-name="Group 509">
      <g id="Group_508" data-name="Group 508">
        <path id="Path_340" data-name="Path 340" d="M1095.937,781.578V783.8l.286-.287h-1.07l.286.287v-2.21a.249.249,0,0,1,.5-.016c.036.364.61.368.573,0a.837.837,0,0,0-1.106-.769.866.866,0,0,0-.537.9v2.1a.289.289,0,0,0,.286.286h1.07a.289.289,0,0,0,.287-.286v-2.226A.287.287,0,0,0,1095.937,781.578Z" fill="#fff"/>
      </g>
    </g>
    <g id="Group_511" data-name="Group 511">
      <g id="Group_510" data-name="Group 510">
        <path id="Path_341" data-name="Path 341" d="M1099.232,781.578V783.8l.287-.287h-1.07l.286.287v-2.21a.249.249,0,0,1,.5-.016c.037.364.61.368.573,0a.836.836,0,0,0-1.106-.769.866.866,0,0,0-.537.9v2.1a.289.289,0,0,0,.287.286h1.07a.289.289,0,0,0,.286-.286v-2.226A.287.287,0,0,0,1099.232,781.578Z" fill="#fff"/>
      </g>
    </g>
    <g id="Group_513" data-name="Group 513">
      <g id="Group_512" data-name="Group 512">
        <path id="Path_342" data-name="Path 342" d="M1102.527,781.578V783.8l.286-.287h-1.069l.287.287v-2.21a.248.248,0,0,1,.5-.016c.037.364.61.368.573,0a.835.835,0,0,0-1.1-.769.866.866,0,0,0-.537.9v2.1a.289.289,0,0,0,.286.286h1.069a.289.289,0,0,0,.287-.286v-2.226A.287.287,0,0,0,1102.527,781.578Z" fill="#fff"/>
      </g>
    </g>
    <g id="Group_515" data-name="Group 515">
      <g id="Group_514" data-name="Group 514">
        <path id="Path_343" data-name="Path 343" d="M1105.823,781.578V783.8l.286-.287h-1.069l.286.287v-2.21a.249.249,0,0,1,.5-.016c.036.364.609.368.572,0a.835.835,0,0,0-1.1-.769.865.865,0,0,0-.537.9v2.1a.289.289,0,0,0,.286.286h1.069a.289.289,0,0,0,.286-.286v-2.226A.286.286,0,0,0,1105.823,781.578Z" fill="#fff"/>
      </g>
    </g>
    <g id="Group_517" data-name="Group 517">
      <g id="Group_516" data-name="Group 516">
        <path id="Path_344" data-name="Path 344" d="M1135.443,794.359h-5.021l.286.286c.08-3.764.106-7.53.159-11.294q.031-2.227.063-4.455l-.286.287h4.577l-.286-.287q.085,6.094.171,12.188l.05,3.561a.287.287,0,0,0,.573,0q-.086-6.095-.172-12.188l-.05-3.561a.288.288,0,0,0-.286-.286h-4.577a.288.288,0,0,0-.286.286q-.083,5.853-.166,11.7c-.019,1.348-.028,2.7-.057,4.045a.29.29,0,0,0,.287.287h5.021A.287.287,0,0,0,1135.443,794.359Z" fill="#fff"/>
      </g>
    </g>
    <g id="Group_519" data-name="Group 519">
      <g id="Group_518" data-name="Group 518">
        <path id="Path_345" data-name="Path 345" d="M1134.99,762.252h-4.115l.286.286.156-11.024v-.007l-.287.286h3.8l-.287-.286.156,11.024v.007a.286.286,0,0,0,.572,0q-.077-5.513-.155-11.024v-.007a.289.289,0,0,0-.286-.286h-3.8a.288.288,0,0,0-.286.286l-.155,11.024v.007a.289.289,0,0,0,.287.286h4.115A.286.286,0,0,0,1134.99,762.252Z" fill="#fff"/>
      </g>
    </g>
    <g id="Group_521" data-name="Group 521">
      <g id="Group_520" data-name="Group 520">
        <path id="Path_346" data-name="Path 346" d="M1135.165,774.653H1130.7l.286.287q.06-4.223.12-8.445l-.287.286h4.227l-.287-.286q.06,4.223.12,8.445a.287.287,0,0,0,.573,0q-.06-4.223-.12-8.445a.289.289,0,0,0-.286-.287h-4.227a.289.289,0,0,0-.286.287q-.06,4.223-.12,8.445a.289.289,0,0,0,.287.286h4.465A.287.287,0,0,0,1135.165,774.653Z" fill="#fff"/>
      </g>
    </g>
    <g id="Group_523" data-name="Group 523">
      <g id="Group_522" data-name="Group 522">
        <path id="Path_347" data-name="Path 347" d="M1136.12,774.94v1.978l.286-.286h-6.923l.286.286V774.94l-.286.286h6.923a.287.287,0,0,0,0-.573h-6.923a.289.289,0,0,0-.286.287v1.978a.289.289,0,0,0,.286.287h6.923a.29.29,0,0,0,.287-.287V774.94A.287.287,0,0,0,1136.12,774.94Z" fill="#fff"/>
      </g>
    </g>
    <g id="Group_525" data-name="Group 525">
      <g id="Group_524" data-name="Group 524">
        <path id="Path_348" data-name="Path 348" d="M1136.118,776.842q-.381.988-.761,1.978l.276-.21h-5.4l.276.21q-.381-.988-.761-1.978l-.276.363h6.923a.287.287,0,0,0,0-.573h-6.923a.288.288,0,0,0-.276.362q.38.99.761,1.979a.294.294,0,0,0,.276.21h5.4a.294.294,0,0,0,.276-.21q.381-.99.761-1.979C1136.8,776.649,1136.249,776.5,1136.118,776.842Z" fill="#fff"/>
      </g>
    </g>
    <g id="Group_527" data-name="Group 527">
      <g id="Group_526" data-name="Group 526">
        <path id="Path_349" data-name="Path 349" d="M1135.892,762.538v1.978l.286-.286h-6.467l.287.286v-1.978l-.287.286h6.467a.286.286,0,0,0,0-.572h-6.467a.289.289,0,0,0-.286.286v1.978a.289.289,0,0,0,.286.287h6.467a.29.29,0,0,0,.287-.287v-1.978A.287.287,0,0,0,1135.892,762.538Z" fill="#fff"/>
      </g>
    </g>
    <g id="Group_529" data-name="Group 529">
      <g id="Group_528" data-name="Group 528">
        <path id="Path_350" data-name="Path 350" d="M1135.919,764.372l-.837,1.978.247-.142h-4.945l.276.211-.761-1.979-.276.363h6.543a.287.287,0,0,0,0-.573h-6.543a.288.288,0,0,0-.276.363l.761,1.978a.293.293,0,0,0,.276.21h4.945a.279.279,0,0,0,.247-.142l.837-1.978C1136.555,764.325,1136.062,764.033,1135.919,764.372Z" fill="#fff"/>
      </g>
    </g>
    <g id="Group_531" data-name="Group 531">
      <g id="Group_530" data-name="Group 530">
        <path id="Path_351" data-name="Path 351" d="M1132.983,737.906h-.152a.283.283,0,0,0-.276.21l-1.653,12.052q-.087.631-.173,1.262a.292.292,0,0,0,.276.363h3.8a.292.292,0,0,0,.276-.363l-1.653-12.051q-.086-.632-.173-1.263c-.05-.365-.6-.209-.552.152l1.653,12.052q.086.632.173,1.263l.276-.363h-3.8l.276.363,1.653-12.052q.087-.632.173-1.263l-.276.21h.152A.286.286,0,0,0,1132.983,737.906Z" fill="#fff"/>
      </g>
    </g>
    <g id="Group_533" data-name="Group 533">
      <g id="Group_532" data-name="Group 532">
        <path id="Path_352" data-name="Path 352" d="M1063.777,762.252h-4.115l.287.286q.077-5.513.155-11.024v-.007l-.286.286h3.8l-.286-.286q.078,5.512.155,11.024v.007a.287.287,0,0,0,.573,0q-.078-5.513-.155-11.024v-.007a.29.29,0,0,0-.287-.286h-3.8a.289.289,0,0,0-.287.286q-.078,5.512-.155,11.024v.007a.289.289,0,0,0,.286.286h4.115A.286.286,0,0,0,1063.777,762.252Z" fill="#fff"/>
      </g>
    </g>
    <g id="Group_535" data-name="Group 535">
      <g id="Group_534" data-name="Group 534">
        <path id="Path_353" data-name="Path 353" d="M1064.706,764.372l-.837,1.978.247-.142h-4.946l.277.211-.761-1.979-.276.363h6.543a.287.287,0,0,0,0-.573h-6.543a.288.288,0,0,0-.277.363l.761,1.978a.294.294,0,0,0,.276.21h4.946a.278.278,0,0,0,.247-.142l.837-1.978C1065.343,764.325,1064.849,764.033,1064.706,764.372Z" fill="#fff"/>
      </g>
    </g>
    <g id="Group_537" data-name="Group 537">
      <g id="Group_536" data-name="Group 536">
        <path id="Path_354" data-name="Path 354" d="M1063.952,774.653h-4.465l.286.287q.06-4.223.12-8.445l-.286.286h4.225l-.286-.286q.06,4.223.119,8.445a.287.287,0,0,0,.573,0q-.06-4.223-.119-8.445a.291.291,0,0,0-.287-.287h-4.225a.29.29,0,0,0-.287.287q-.06,4.223-.119,8.445a.288.288,0,0,0,.286.286h4.465A.287.287,0,0,0,1063.952,774.653Z" fill="#fff"/>
      </g>
    </g>
    <g id="Group_539" data-name="Group 539">
      <g id="Group_538" data-name="Group 538">
        <path id="Path_355" data-name="Path 355" d="M1064.23,794.359h-5.021l.286.286q.087-6.095.172-12.188l.051-3.561-.287.287h4.576l-.286-.287q.083,5.853.165,11.7c.019,1.348.028,2.7.058,4.045a.286.286,0,0,0,.572,0c-.084-3.763-.106-7.53-.159-11.294q-.031-2.227-.063-4.455a.29.29,0,0,0-.287-.286h-4.576a.289.289,0,0,0-.286.286q-.086,6.094-.172,12.188l-.051,3.561a.29.29,0,0,0,.287.287h5.021A.287.287,0,0,0,1064.23,794.359Z" fill="#fff"/>
      </g>
    </g>
    <g id="Group_541" data-name="Group 541">
      <g id="Group_540" data-name="Group 540">
        <path id="Path_356" data-name="Path 356" d="M1064.907,774.94v1.978l.287-.286h-6.924l.287.286V774.94l-.287.286h6.924a.287.287,0,0,0,0-.573h-6.924a.289.289,0,0,0-.286.287v1.978a.289.289,0,0,0,.286.287h6.924a.289.289,0,0,0,.286-.287V774.94A.287.287,0,0,0,1064.907,774.94Z" fill="#fff"/>
      </g>
    </g>
    <g id="Group_543" data-name="Group 543">
      <g id="Group_542" data-name="Group 542">
        <path id="Path_357" data-name="Path 357" d="M1064.905,776.842q-.381.988-.761,1.978l.277-.21h-5.4l.276.21-.76-1.978-.277.363h6.924a.287.287,0,0,0,0-.573h-6.924a.288.288,0,0,0-.276.362q.381.99.761,1.979a.3.3,0,0,0,.276.21h5.4a.3.3,0,0,0,.276-.21q.379-.99.76-1.979C1065.589,776.649,1065.036,776.5,1064.905,776.842Z" fill="#fff"/>
      </g>
    </g>
    <g id="Group_545" data-name="Group 545">
      <g id="Group_544" data-name="Group 544">
        <path id="Path_358" data-name="Path 358" d="M1064.679,762.538v1.978l.286-.286H1058.5l.286.286v-1.978l-.286.286h6.466a.286.286,0,0,0,0-.572H1058.5a.289.289,0,0,0-.287.286v1.978a.29.29,0,0,0,.287.287h6.466a.29.29,0,0,0,.287-.287v-1.978A.287.287,0,0,0,1064.679,762.538Z" fill="#fff"/>
      </g>
    </g>
    <g id="Group_547" data-name="Group 547">
      <g id="Group_546" data-name="Group 546">
        <path id="Path_359" data-name="Path 359" d="M1061.77,737.906h-.152a.283.283,0,0,0-.276.21l-1.653,12.052q-.087.631-.173,1.262a.292.292,0,0,0,.276.363h3.8a.292.292,0,0,0,.276-.363l-1.653-12.051q-.086-.632-.173-1.263c-.05-.365-.6-.209-.552.152l1.653,12.052q.086.632.173,1.263l.276-.363h-3.8l.276.363,1.653-12.052q.087-.632.173-1.263l-.276.21h.152A.286.286,0,0,0,1061.77,737.906Z" fill="#fff"/>
      </g>
    </g>
    <g id="Group_549" data-name="Group 549">
      <g id="Group_548" data-name="Group 548">
        <path id="Path_360" data-name="Path 360" d="M1099.272,760.937H1095.4l.287.286a2.879,2.879,0,0,1,.759-1.908,3.045,3.045,0,0,1,.435-.406c.108-.08.095-.017-.054-.017h.725c.2,0,.11-.007.235.073a2.413,2.413,0,0,1,.759.873,4.05,4.05,0,0,1,.44,1.385c.042.363.615.367.573,0a4.654,4.654,0,0,0-.565-1.758,3.074,3.074,0,0,0-.918-.994,1.424,1.424,0,0,0-.916-.152.9.9,0,0,0-.544.078,3.788,3.788,0,0,0-.575.513,3.441,3.441,0,0,0-.927,2.313.289.289,0,0,0,.286.287h3.873A.287.287,0,0,0,1099.272,760.937Z" fill="#fff"/>
      </g>
    </g>
    <g id="Group_551" data-name="Group 551">
      <g id="Group_550" data-name="Group 550">
        <path id="Path_361" data-name="Path 361" d="M1097.377,752.592V758.6l.286-.286h-.654l.286.286v-5.944c0-.015.048-.269.092.007.059.364.611.209.552-.152a.611.611,0,0,0-1.082-.3.92.92,0,0,0-.135.571V758.6a.29.29,0,0,0,.287.287h.654a.29.29,0,0,0,.287-.287v-6.013A.287.287,0,0,0,1097.377,752.592Z" fill="#fff"/>
      </g>
    </g>
    <g id="Group_553" data-name="Group 553">
      <g id="Group_552" data-name="Group 552">
        <path id="Path_362" data-name="Path 362" d="M1083.348,787.531v3.348l.286-.286h-1.126l.286.286v-3.348l-.286.287h1.126a.287.287,0,0,0,0-.573h-1.126a.29.29,0,0,0-.287.286v3.348a.29.29,0,0,0,.287.287h1.126a.29.29,0,0,0,.287-.287v-3.348A.287.287,0,0,0,1083.348,787.531Z" fill="#fff"/>
      </g>
    </g>
    <g id="Group_555" data-name="Group 555">
      <g id="Group_554" data-name="Group 554">
        <path id="Path_363" data-name="Path 363" d="M1082.221,787.531v3.348l.287-.286h-1.774l.286.286v-1.352c0-.58-.014-1.142-.733-1.238-.683-.092-.732.712-.732,1.168v1.422l.286-.286h-1.858l.287.286v-1.352c0-.474-.01-1.321-.733-1.238-.684.078-.733.609-.733,1.168v1.422l.287-.286h-1.858l.286.286v-1.352c0-.474-.01-1.321-.732-1.238-.684.079-.733.61-.733,1.168v1.422l.286-.286h-1.722l.286.286v-3.348l-.286.287h9.89a.287.287,0,0,0,0-.573h-9.89a.289.289,0,0,0-.287.286v3.348a.29.29,0,0,0,.287.287h1.722a.289.289,0,0,0,.286-.287v-1.61c0-.064-.045-.608.273-.36.081.062.047.278.047.36v1.61a.29.29,0,0,0,.287.287h1.858a.289.289,0,0,0,.286-.287v-1.61c0-.064-.045-.608.273-.36.08.062.047.278.047.36v1.61a.289.289,0,0,0,.286.287h1.858a.29.29,0,0,0,.287-.287v-.968c0-.159-.13-1.016.159-1.049s.161,1.777.161,2.017a.289.289,0,0,0,.286.287h1.774a.289.289,0,0,0,.286-.287v-3.348A.287.287,0,0,0,1082.221,787.531Z" fill="#fff"/>
      </g>
    </g>
    <g id="Group_557" data-name="Group 557">
      <g id="Group_556" data-name="Group 556">
        <path id="Path_364" data-name="Path 364" d="M1074.9,788.909c.16.206.047.765.047,1v.968l.287-.286h-.893l.286.286v-1.61c0-.064-.045-.607.273-.36.288.223.7-.179.4-.4a.757.757,0,0,0-1.068.036.963.963,0,0,0-.182.729v1.61a.289.289,0,0,0,.286.287h.892a.29.29,0,0,0,.287-.287v-1.126a1.878,1.878,0,0,0-.215-1.249C1075.078,788.212,1074.676,788.62,1074.9,788.909Z" fill="#fff"/>
      </g>
    </g>
    <g id="Group_559" data-name="Group 559">
      <g id="Group_558" data-name="Group 558">
        <path id="Path_365" data-name="Path 365" d="M1077.65,788.909c.16.206.047.765.047,1v.968l.286-.286h-.892l.286.286v-1.61c0-.064-.045-.607.273-.36.288.223.7-.179.405-.4a.758.758,0,0,0-1.069.036.968.968,0,0,0-.182.729v1.61a.29.29,0,0,0,.287.287h.892a.29.29,0,0,0,.287-.287v-1.126a1.879,1.879,0,0,0-.215-1.249C1077.829,788.212,1077.427,788.62,1077.65,788.909Z" fill="#fff"/>
      </g>
    </g>
    <g id="Group_561" data-name="Group 561">
      <g id="Group_560" data-name="Group 560">
        <path id="Path_366" data-name="Path 366" d="M1080.448,789.022v1.857l.286-.286h-.893l.287.286v-1.84c0-.251.294-.207.32-.017.048.36.621.365.572,0a.735.735,0,1,0-1.465.1v1.754a.289.289,0,0,0,.286.287h.893a.289.289,0,0,0,.286-.287v-1.857A.286.286,0,0,0,1080.448,789.022Z" fill="#fff"/>
      </g>
    </g>
    <g id="Group_563" data-name="Group 563">
      <g id="Group_562" data-name="Group 562">
        <path id="Path_367" data-name="Path 367" d="M1082.483,787.245h-9.87l.286.286c0-.056,0-.112,0-.167l-.286.286h.133a.289.289,0,0,0,.286-.286l-.012-.833a2,2,0,0,1,.248-.7,4.336,4.336,0,0,1,.437-.725,4.689,4.689,0,0,1,3.277-1.769,4.523,4.523,0,0,1,5.212,4.194.286.286,0,0,0,.572,0,5.081,5.081,0,0,0-5.645-4.779,5.354,5.354,0,0,0-3.716,1.817,4.658,4.658,0,0,0-.917,1.729,3.73,3.73,0,0,0-.029,1.066l.287-.287h-.133a.289.289,0,0,0-.286.287c0,.055,0,.111,0,.167a.29.29,0,0,0,.287.287h9.87A.287.287,0,0,0,1082.483,787.245Z" fill="#fff"/>
      </g>
    </g>
    <g id="Group_565" data-name="Group 565">
      <g id="Group_564" data-name="Group 564">
        <path id="Path_368" data-name="Path 368" d="M1072.749,787.077h-.133l.286.287a4.328,4.328,0,0,1,.11-.794l-.562-.076.012.87a.287.287,0,0,0,.573,0l-.012-.87a.288.288,0,0,0-.563-.076,5.026,5.026,0,0,0-.13.946.287.287,0,0,0,.286.286h.133A.287.287,0,0,0,1072.749,787.077Z" fill="#fff"/>
      </g>
    </g>
    <g id="Group_567" data-name="Group 567">
      <g id="Group_566" data-name="Group 566">
        <path id="Path_369" data-name="Path 369" d="M1074.946,789.022v1.857l.287-.286h-.893l.286.286V789.06c0-.162.292-.25.32-.038.049.36.622.365.573,0a.735.735,0,1,0-1.465.1v1.754a.289.289,0,0,0,.286.287h.893a.289.289,0,0,0,.286-.287v-1.857A.287.287,0,0,0,1074.946,789.022Z" fill="#fff"/>
      </g>
    </g>
    <g id="Group_569" data-name="Group 569">
      <g id="Group_568" data-name="Group 568">
        <path id="Path_370" data-name="Path 370" d="M1077.7,789.022v1.857l.286-.286h-.892l.286.286V789.06c0-.162.291-.25.32-.038.048.36.622.365.573,0a.735.735,0,1,0-1.466.1v1.754a.29.29,0,0,0,.287.287h.892a.29.29,0,0,0,.287-.287v-1.857A.287.287,0,0,0,1077.7,789.022Z" fill="#fff"/>
      </g>
    </g>
    <g id="Group_571" data-name="Group 571">
      <g id="Group_570" data-name="Group 570">
        <path id="Path_371" data-name="Path 371" d="M1080.448,789.022v1.857l.286-.286h-.893l.287.286v-1.84c0-.251.294-.207.32-.017.048.36.621.365.572,0a.735.735,0,1,0-1.465.1v1.754a.289.289,0,0,0,.286.287h.893a.289.289,0,0,0,.286-.287v-1.857A.286.286,0,0,0,1080.448,789.022Z" fill="#fff"/>
      </g>
    </g>
    <g id="Group_573" data-name="Group 573">
      <g id="Group_572" data-name="Group 572">
        <path id="Path_372" data-name="Path 372" d="M1077.859,782.982q-.01-1.1-.02-2.205a.286.286,0,0,0-.572,0q.009,1.1.019,2.205a.287.287,0,0,0,.573,0Z" fill="#fff"/>
      </g>
    </g>
    <g id="Group_575" data-name="Group 575">
      <g id="Group_574" data-name="Group 574">
        <path id="Path_373" data-name="Path 373" d="M1121.747,787.531v3.348l.287-.286h-1.723l.286.286v-1.352c0-.58-.015-1.142-.733-1.238-.684-.092-.732.711-.732,1.168v1.422l.286-.286h-1.858l.286.286v-1.352c0-.58-.013-1.142-.732-1.238-.684-.092-.733.711-.733,1.168v1.422l.286-.286h-1.858l.287.286v-1.352c0-.58-.014-1.142-.732-1.238-.684-.092-.734.711-.734,1.168v1.422l.287-.286h-1.774l.286.286v-3.348l-.286.287h9.891a.287.287,0,0,0,0-.573h-9.891a.289.289,0,0,0-.286.286v3.348a.289.289,0,0,0,.286.287h1.774a.289.289,0,0,0,.286-.287v-.968c0-.16-.13-1.016.161-1.049s.159,1.777.159,2.017a.289.289,0,0,0,.286.287h1.858a.29.29,0,0,0,.287-.287v-.968c0-.16-.131-1.016.16-1.049s.16,1.777.16,2.017a.289.289,0,0,0,.286.287h1.858a.289.289,0,0,0,.286-.287v-.968c0-.159-.13-1.016.16-1.049s.16,1.777.16,2.017a.29.29,0,0,0,.287.287h1.723a.289.289,0,0,0,.286-.287v-3.348A.287.287,0,0,0,1121.747,787.531Z" fill="#fff"/>
      </g>
    </g>
    <g id="Group_577" data-name="Group 577">
      <g id="Group_576" data-name="Group 576">
        <path id="Path_374" data-name="Path 374" d="M1114.476,788.909c.16.206.047.765.047,1v.968l.286-.286h-.892l.286.286v-1.61c0-.129-.008-.58.273-.36s.7-.179.405-.4a.757.757,0,0,0-1.068.036.964.964,0,0,0-.183.729v1.61a.29.29,0,0,0,.287.287h.892a.29.29,0,0,0,.287-.287v-1.126a1.878,1.878,0,0,0-.215-1.249C1114.655,788.212,1114.253,788.62,1114.476,788.909Z" fill="#fff"/>
      </g>
    </g>
    <g id="Group_579" data-name="Group 579">
      <g id="Group_578" data-name="Group 578">
        <path id="Path_375" data-name="Path 375" d="M1117.227,788.909c.159.206.047.765.047,1v.968l.286-.286h-.893l.287.286v-1.61c0-.129-.009-.58.273-.36s.7-.179.4-.4a.758.758,0,0,0-1.069.036.964.964,0,0,0-.182.729v1.61a.289.289,0,0,0,.286.287h.893a.289.289,0,0,0,.286-.287v-1.126a1.878,1.878,0,0,0-.214-1.249C1117.406,788.212,1117,788.62,1117.227,788.909Z" fill="#fff"/>
      </g>
    </g>
    <g id="Group_581" data-name="Group 581">
      <g id="Group_580" data-name="Group 580">
        <path id="Path_376" data-name="Path 376" d="M1120.024,789.022v1.857l.287-.286h-.893l.286.286v-1.84c0-.251.3-.207.32-.017.049.36.622.365.573,0a.735.735,0,1,0-1.465.1v1.754a.289.289,0,0,0,.286.287h.893a.289.289,0,0,0,.286-.287v-1.857A.287.287,0,0,0,1120.024,789.022Z" fill="#fff"/>
      </g>
    </g>
    <g id="Group_583" data-name="Group 583">
      <g id="Group_582" data-name="Group 582">
        <path id="Path_377" data-name="Path 377" d="M1122.052,787.245h-9.871l.287.286a4.67,4.67,0,0,1,9.3,0,.287.287,0,0,0,.573,0,5.24,5.24,0,0,0-10.443,0,.289.289,0,0,0,.286.287h9.871A.287.287,0,0,0,1122.052,787.245Z" fill="#fff"/>
      </g>
    </g>
    <g id="Group_585" data-name="Group 585">
      <g id="Group_584" data-name="Group 584">
        <path id="Path_378" data-name="Path 378" d="M1114.523,789.022v1.857l.286-.286h-.892l.286.286v-1.84c0-.251.3-.207.32-.017.048.36.622.365.573,0a.735.735,0,1,0-1.466.1v1.754a.29.29,0,0,0,.287.287h.892a.29.29,0,0,0,.287-.287v-1.857A.287.287,0,0,0,1114.523,789.022Z" fill="#fff"/>
      </g>
    </g>
    <g id="Group_587" data-name="Group 587">
      <g id="Group_586" data-name="Group 586">
        <path id="Path_379" data-name="Path 379" d="M1117.274,789.022v1.857l.286-.286h-.893l.287.286v-1.84c0-.251.294-.207.32-.017.048.36.621.365.572,0a.735.735,0,1,0-1.465.1v1.754a.289.289,0,0,0,.286.287h.893a.289.289,0,0,0,.286-.287v-1.857A.286.286,0,0,0,1117.274,789.022Z" fill="#fff"/>
      </g>
    </g>
    <g id="Group_589" data-name="Group 589">
      <g id="Group_588" data-name="Group 588">
        <path id="Path_380" data-name="Path 380" d="M1120.024,789.022v1.857l.287-.286h-.893l.286.286v-1.84c0-.251.3-.207.32-.017.049.36.622.365.573,0a.735.735,0,1,0-1.465.1v1.754a.289.289,0,0,0,.286.287h.893a.289.289,0,0,0,.286-.287v-1.857A.287.287,0,0,0,1120.024,789.022Z" fill="#fff"/>
      </g>
    </g>
    <g id="Group_591" data-name="Group 591">
      <g id="Group_590" data-name="Group 590">
        <path id="Path_381" data-name="Path 381" d="M1117.433,782.982l-.019-2.205a.287.287,0,0,0-.573,0l.02,2.205a.286.286,0,0,0,.572,0Z" fill="#fff"/>
      </g>
    </g>
    <g id="Group_593" data-name="Group 593">
      <g id="Group_592" data-name="Group 592">
        <path id="Path_382" data-name="Path 382" d="M1086.771,773.761V780l.286-.286h-6.695l.287.286v-6.238l-.287.286h6.695a.286.286,0,0,0,0-.572h-6.695a.289.289,0,0,0-.286.286V780a.289.289,0,0,0,.286.287h6.695a.29.29,0,0,0,.287-.287v-6.238A.287.287,0,0,0,1086.771,773.761Z" fill="#fff"/>
      </g>
    </g>
    <g id="Group_595" data-name="Group 595">
      <g id="Group_594" data-name="Group 594">
        <path id="Path_383" data-name="Path 383" d="M1087.087,773.475h-6.677l.286.286a3.067,3.067,0,0,1,6.1,0,.286.286,0,0,0,.572,0,3.636,3.636,0,0,0-7.249,0,.288.288,0,0,0,.286.286h6.677A.286.286,0,0,0,1087.087,773.475Z" fill="#fff"/>
      </g>
    </g>
    <g id="Group_597" data-name="Group 597">
      <g id="Group_596" data-name="Group 596">
        <path id="Path_384" data-name="Path 384" d="M1114.008,773.761V780l.287-.286h-6.688l.287.286v-2.206a.29.29,0,0,0-.287-.287h-.007l.286.287v-4.032l-.286.286h6.7a.286.286,0,0,0,0-.572h-6.7a.289.289,0,0,0-.287.286v4.032a.289.289,0,0,0,.287.286h.007l-.286-.286V780a.289.289,0,0,0,.286.287h6.688a.289.289,0,0,0,.286-.287v-6.238A.287.287,0,0,0,1114.008,773.761Z" fill="#fff"/>
      </g>
    </g>
    <g id="Group_599" data-name="Group 599">
      <g id="Group_598" data-name="Group 598">
        <path id="Path_385" data-name="Path 385" d="M1107.321,777.793V780l.286-.286h-.007l.286.286v-2.206l-.286.286h.007a.287.287,0,0,0,0-.573h-.007a.29.29,0,0,0-.287.287V780a.29.29,0,0,0,.287.287h.007a.29.29,0,0,0,.287-.287v-2.206A.287.287,0,0,0,1107.321,777.793Z" fill="#fff"/>
      </g>
    </g>
    <g id="Group_601" data-name="Group 601">
      <g id="Group_600" data-name="Group 600">
        <path id="Path_386" data-name="Path 386" d="M1114.3,773.475h-6.7l.286.286a3.081,3.081,0,0,1,6.13,0,.287.287,0,0,0,.573,0,3.651,3.651,0,0,0-7.276,0,.289.289,0,0,0,.287.286h6.7A.286.286,0,0,0,1114.3,773.475Z" fill="#fff"/>
      </g>
    </g>
    <g id="Group_603" data-name="Group 603">
      <g id="Group_602" data-name="Group 602">
        <path id="Path_387" data-name="Path 387" d="M1111.272,770.586l-.02-3.1a.287.287,0,0,0-.573,0l.02,3.1a.287.287,0,0,0,.573,0Z" fill="#fff"/>
      </g>
    </g>
    <g id="Group_605" data-name="Group 605">
      <g id="Group_604" data-name="Group 604">
        <path id="Path_388" data-name="Path 388" d="M1084.045,770.586l-.02-3.1a.287.287,0,0,0-.573,0l.02,3.1a.287.287,0,0,0,.573,0Z" fill="#fff"/>
      </g>
    </g>
  </g>
</svg>
