<svg xmlns="http://www.w3.org/2000/svg" width="73.144" height="37.188" viewBox="0 0 73.144 37.188">
  <g id="Group_1171" data-name="Group 1171" transform="translate(-874.655 -490.104)">
    <path id="Path_654" data-name="Path 654" d="M892.638,526.711v-9.164a5.245,5.245,0,0,1,5.338-5.113h0a5.245,5.245,0,0,1,5.338,5.113v9.15" fill="none" stroke="#fff" stroke-miterlimit="10" stroke-width="1"/>
    <path id="Path_655" data-name="Path 655" d="M896.724,507.3v-3.914A1.7,1.7,0,0,0,895,501.732h0a1.7,1.7,0,0,0-1.726,1.654V507.3Z" fill="none" stroke="#fff" stroke-miterlimit="10" stroke-width="1"/>
    <path id="Path_656" data-name="Path 656" d="M901.869,507.3v-3.914a1.7,1.7,0,0,0-1.726-1.654h0a1.7,1.7,0,0,0-1.727,1.654V507.3Z" fill="none" stroke="#fff" stroke-miterlimit="10" stroke-width="1"/>
    <path id="Path_657" data-name="Path 657" d="M909.777,507.3v-3.914a1.7,1.7,0,0,0-1.726-1.654h0a1.7,1.7,0,0,0-1.726,1.654V507.3Z" fill="none" stroke="#fff" stroke-miterlimit="10" stroke-width="1"/>
    <path id="Path_658" data-name="Path 658" d="M914.921,507.3v-3.914a1.7,1.7,0,0,0-1.726-1.654h0a1.7,1.7,0,0,0-1.726,1.654V507.3Z" fill="none" stroke="#fff" stroke-miterlimit="10" stroke-width="1"/>
    <path id="Path_659" data-name="Path 659" d="M922.907,507.3v-3.914a1.7,1.7,0,0,0-1.727-1.654h0a1.7,1.7,0,0,0-1.726,1.654V507.3Z" fill="none" stroke="#fff" stroke-miterlimit="10" stroke-width="1"/>
    <path id="Path_660" data-name="Path 660" d="M928.051,507.3v-3.914a1.7,1.7,0,0,0-1.726-1.654h0a1.7,1.7,0,0,0-1.727,1.654V507.3Z" fill="none" stroke="#fff" stroke-miterlimit="10" stroke-width="1"/>
    <path id="Path_661" data-name="Path 661" d="M918.721,526.768v-9.221a5.245,5.245,0,0,1,5.338-5.113h0a5.245,5.245,0,0,1,5.338,5.113v9.164" fill="none" stroke="#fff" stroke-miterlimit="10" stroke-width="1"/>
    <path id="Path_662" data-name="Path 662" d="M905.879,526.711v-7.649a5.244,5.244,0,0,1,5.338-5.112h0a5.244,5.244,0,0,1,5.338,5.112V526.7" fill="none" stroke="#fff" stroke-miterlimit="10" stroke-width="1"/>
    <line id="Line_345" data-name="Line 345" x2="67.178" transform="translate(877.681 526.792)" fill="none" stroke="#fff" stroke-miterlimit="10" stroke-width="1"/>
    <line id="Line_346" data-name="Line 346" x2="45.165" transform="translate(888.588 495.764)" fill="none" stroke="#fff" stroke-miterlimit="10" stroke-width="1"/>
    <path id="Path_663" data-name="Path 663" d="M892.148,495.753c0-2.061,2.3-4.52,5.14-4.52s5.14,2.459,5.14,4.52" fill="none" stroke="#fff" stroke-miterlimit="10" stroke-width="1"/>
    <path id="Path_664" data-name="Path 664" d="M905.244,495.753c0-2.061,2.3-4.52,5.14-4.52s5.139,2.459,5.139,4.52" fill="none" stroke="#fff" stroke-miterlimit="10" stroke-width="1"/>
    <line id="Line_347" data-name="Line 347" y1="11.378" transform="translate(890.331 496.06)" fill="none" stroke="#fff" stroke-miterlimit="10" stroke-width="1"/>
    <line id="Line_348" data-name="Line 348" y1="0.972" transform="translate(897.37 490.165)" fill="none" stroke="#fff" stroke-miterlimit="10" stroke-width="1"/>
    <line id="Line_349" data-name="Line 349" y1="8.989" transform="translate(896.325 517.401)" fill="none" stroke="#fff" stroke-miterlimit="10" stroke-width="1"/>
    <line id="Line_350" data-name="Line 350" x2="10.676" transform="translate(892.638 517.338)" fill="none" stroke="#fff" stroke-miterlimit="10" stroke-width="1"/>
    <line id="Line_351" data-name="Line 351" x2="10.567" transform="translate(918.796 517.338)" fill="none" stroke="#fff" stroke-miterlimit="10" stroke-width="1"/>
    <line id="Line_352" data-name="Line 352" y1="0.972" transform="translate(910.479 490.165)" fill="none" stroke="#fff" stroke-miterlimit="10" stroke-width="1"/>
    <path id="Path_665" data-name="Path 665" d="M918.762,495.753c0-2.061,2.3-4.52,5.14-4.52s5.14,2.459,5.14,4.52" fill="none" stroke="#fff" stroke-miterlimit="10" stroke-width="1"/>
    <line id="Line_353" data-name="Line 353" y1="0.972" transform="translate(923.715 490.104)" fill="none" stroke="#fff" stroke-miterlimit="10" stroke-width="1"/>
    <g id="Group_1171-2" data-name="Group 1171">
      <path id="Path_666" data-name="Path 666" d="M940.466,517.743v-3.914a1.7,1.7,0,0,0-1.727-1.653h0a1.7,1.7,0,0,0-1.726,1.653v3.914Z" fill="none" stroke="#fff" stroke-miterlimit="10" stroke-width="1"/>
      <path id="Path_667" data-name="Path 667" d="M944.8,527.265V507.439h-4.17" fill="none" stroke="#fff" stroke-miterlimit="10" stroke-width="1"/>
      <path id="Path_668" data-name="Path 668" d="M947.8,507.439h-7.17" fill="none" stroke="#fff" stroke-miterlimit="10" stroke-width="1"/>
      <path id="Path_669" data-name="Path 669" d="M936.963,507.439H931.97v19.214" fill="none" stroke="#fff" stroke-miterlimit="10" stroke-width="1"/>
      <line id="Line_354" data-name="Line 354" y1="0.972" transform="translate(938.847 504.453)" fill="none" stroke="#fff" stroke-miterlimit="10" stroke-width="1"/>
      <path id="Path_670" data-name="Path 670" d="M936.508,507.517a2.3,2.3,0,0,1,4.57,0" fill="none" stroke="#fff" stroke-miterlimit="10" stroke-width="1"/>
    </g>
    <path id="Path_671" data-name="Path 671" d="M924.027,512.539" fill="none" stroke="#fff" stroke-miterlimit="10" stroke-width="1"/>
    <path id="Path_672" data-name="Path 672" d="M924.027,526.39" fill="none" stroke="#fff" stroke-miterlimit="10" stroke-width="1"/>
    <line id="Line_355" data-name="Line 355" x2="10.545" transform="translate(905.988 518.873)" fill="none" stroke="#fff" stroke-miterlimit="10" stroke-width="1"/>
    <line id="Line_356" data-name="Line 356" y1="8.965" transform="translate(899.804 517.425)" fill="none" stroke="#fff" stroke-miterlimit="10" stroke-width="1"/>
    <line id="Line_357" data-name="Line 357" y1="8.989" transform="translate(922.222 517.401)" fill="none" stroke="#fff" stroke-miterlimit="10" stroke-width="1"/>
    <line id="Line_358" data-name="Line 358" y1="9.037" transform="translate(925.701 517.352)" fill="none" stroke="#fff" stroke-miterlimit="10" stroke-width="1"/>
    <line id="Line_359" data-name="Line 359" y1="11.378" transform="translate(931.964 496.06)" fill="none" stroke="#fff" stroke-miterlimit="10" stroke-width="1"/>
    <g id="Group_1172" data-name="Group 1172">
      <path id="Path_673" data-name="Path 673" d="M881.989,517.743v-3.914a1.7,1.7,0,0,1,1.726-1.653h0a1.7,1.7,0,0,1,1.726,1.653v3.914Z" fill="none" stroke="#fff" stroke-miterlimit="10" stroke-width="1"/>
      <path id="Path_674" data-name="Path 674" d="M877.655,527.288v-19.85h4.17" fill="none" stroke="#fff" stroke-miterlimit="10" stroke-width="1"/>
      <path id="Path_675" data-name="Path 675" d="M874.655,507.439h7.17" fill="none" stroke="#fff" stroke-miterlimit="10" stroke-width="1"/>
      <path id="Path_676" data-name="Path 676" d="M885.491,507.439h4.843v19.509" fill="none" stroke="#fff" stroke-miterlimit="10" stroke-width="1"/>
      <line id="Line_360" data-name="Line 360" y1="0.972" transform="translate(883.607 504.453)" fill="none" stroke="#fff" stroke-miterlimit="10" stroke-width="1"/>
      <path id="Path_677" data-name="Path 677" d="M885.947,507.517a2.3,2.3,0,0,0-4.571,0" fill="none" stroke="#fff" stroke-miterlimit="10" stroke-width="1"/>
    </g>
  </g>
</svg>
