<svg xmlns="http://www.w3.org/2000/svg" width="9.6" height="16.182" viewBox="0 0 9.6 16.182">
  <g id="Group_1159" data-name="Group 1159" transform="translate(-23.747 -5.678)">
    <rect id="Rectangle_342" data-name="Rectangle 342" width="6.857" height="0.686" transform="translate(25.118 18.434)" fill="#fff"/>
    <path id="Path_650" data-name="Path 650" d="M61.607,81.886l1.336,2.4h1.177l-1.335-2.4Z" transform="translate(-30.938 -62.423)" fill="#fff"/>
    <path id="Path_651" data-name="Path 651" d="M24.455,84.283h1.18l1.352-2.4H25.806Z" transform="translate(-0.579 -62.423)" fill="#fff"/>
    <path id="Path_652" data-name="Path 652" d="M24.612,22.494h7.832a.339.339,0,0,0,.315-.207,8.7,8.7,0,0,0,.588-3.393,14.346,14.346,0,0,0-1.184-5.242.683.683,0,0,0-.63-.415H30.351V11.751H29.272v1.486h-1.55V11.751H26.654v1.486H25.559a.683.683,0,0,0-.629.412,14.145,14.145,0,0,0-1.183,5.244,7.231,7.231,0,0,0,.565,3.425.342.342,0,0,0,.3.175M32.4,21.123a.771.771,0,1,1-.771-.772.772.772,0,0,1,.771.772m-6.6-6.514c0,.005,5.48.005,5.485,0a10.03,10.03,0,0,1,.686,3.429H25.118a7.989,7.989,0,0,1,.686-3.429m-.343,5.743a.771.771,0,1,1-.771.772.772.772,0,0,1,.771-.772" transform="translate(0 -4.403)" fill="#fff"/>
    <rect id="Rectangle_343" data-name="Rectangle 343" width="7.826" height="0.783" rx="0.391" transform="translate(24.435 5.678)" fill="#fff"/>
  </g>
</svg>
