<?xml version="1.0" encoding="utf-8"?>
<!-- Generator: Adobe Illustrator 19.0.0, SVG Export Plug-In . SVG Version: 6.00 Build 0)  -->
<svg version="1.1" id="Layer_1" xmlns="http://www.w3.org/2000/svg" xmlns:xlink="http://www.w3.org/1999/xlink" x="0px" y="0px"
	 viewBox="0 0 339 404" style="enable-background:new 0 0 339 404;" xml:space="preserve">
<style type="text/css">
	.st0{fill-rule:evenodd;clip-rule:evenodd;fill:#382B25;}
	.st1{fill:#382B25;}
</style>
<path class="st0" d="M279.2,309.5c5.4-1,10.6-2.2,15.4-3.4l0.5,0.3v5.6c5.6-4,10.9-6,15.8-6c4.6,0,8.2,1.3,10.8,3.9
	c2.6,2.6,3.9,6.2,3.9,11v17.2c0,4.1,0,7.1,0.1,9c0,0.9,0.4,1.4,1.3,1.7l5.4,1.7l0.1,2c-4.3-0.1-8-0.1-11.2-0.1
	c-3.2,0-6.7,0-10.6,0.1l-0.2-2l4.9-1.4c0.7-0.3,1.1-0.8,1.2-1.5c0-0.4,0-1.5,0-3.1v-21.2c0-4-0.9-6.8-2.9-8.6
	c-1.9-1.7-4.7-2.6-8.4-2.6c-3.3,0-6.6,0.9-10.1,2.8v21.3c0,4.1,0,7.8,0.1,11.1c0,0.9,0.4,1.4,1.1,1.7l5.1,1.5l0.1,2
	c-4-0.1-7.6-0.1-10.8-0.1c-3.2,0-7,0-11.3,0.1l-0.2-2l5.7-1.6c0.7-0.3,1.1-0.8,1.1-1.5c0-2.1,0.1-4.1,0.1-6v-16.6
	c0-4.2-0.1-8.2-0.2-11.8l-6.5-1.7L279.2,309.5z M234.9,310.3c6.3-2.8,11.9-4.2,16.8-4.2c5,0,8.9,1.3,11.8,3.9
	c2.9,2.6,4.3,6.3,4.3,11.2l-0.2,20.3c0,1.6,0,3,0.1,4c0.1,1,0.4,1.8,0.9,2.3c0.5,0.5,1.2,0.9,2.1,1.1c0.9,0.2,2.2,0.3,3.8,0.4
	l0.2,1.9c-1.4,0.5-3.1,1.1-5.1,1.6c-2,0.6-3.4,0.8-4.1,0.8c-3.2,0-5.4-1.6-6.6-4.9c-4.6,3.3-8.9,4.9-13,4.9c-4.6,0-8.2-1.1-11-3.3
	c-2.8-2.2-4.2-5.4-4.2-9.4c0-5,2.2-8.7,6.7-11.1c4.5-2.4,11.5-3.6,21-3.6l0.1-3.8c0-3.6-0.9-6.3-2.8-8c-1.9-1.7-4.8-2.6-8.7-2.6
	c-3,0-6.7,0.6-11.1,1.7L234.9,310.3z M258.5,330.3c-6.8,0-11.5,0.7-14,2.1c-2.5,1.4-3.7,3.8-3.7,7.1c0,3.1,0.8,5.3,2.5,6.5
	c1.7,1.3,3.9,1.9,6.7,1.9c3.2,0,6-0.6,8.4-1.7L258.5,330.3z M194.9,309.5c5.4-1,10.6-2.2,15.5-3.4l0.5,0.4v5.7
	c6-4.1,11.9-6.1,17.7-6.1l0.2,0.3c-0.9,4.8-1.9,9.9-2.8,15l-1.9,0.3c-0.9-2.8-1.8-5-2.6-6.6c-0.8-1.7-2.2-2.5-4-2.5
	c-1.8,0-4,0.8-6.6,2.4v21c0,5,0,8.7,0.1,10.8c0,0.9,0.4,1.4,1.2,1.7l6.5,1.8l0.1,2c-5.1-0.1-9.2-0.1-12.4-0.1c-3.2,0-7,0-11.3,0.1
	l-0.2-2l5.6-1.6c0.8-0.3,1.2-0.8,1.2-1.5c0-1.4,0-3.4,0-6v-16.6c0-5.3-0.1-9.2-0.2-11.8l-6.5-1.7L194.9,309.5z M160.4,335.7v1.5
	c0,4.6,0.7,7.9,2.2,9.8c1.4,2,3.6,3,6.5,3c3.8,0,6.7-1.4,8.7-4.2c2-2.8,3.1-6.1,3.4-10.1H160.4z M150.8,311c2.8-1.7,5.6-3,8.5-3.7
	c2.9-0.7,5.6-1.1,8.1-1.1c7.1,0,12.9,2.1,17.3,6.1c4.4,4.1,6.6,9.7,6.6,17c0,7.2-2.1,13.1-6.2,17.7c-4.1,4.6-9.6,6.9-16.4,6.9
	c-5.8,0-10.2-1.7-13.5-5.1c-3.2-3.4-4.8-8.2-4.8-14.2c0-0.9,0-1.8,0.1-2.8h30.7c0-7-1.7-11.9-4.9-14.9c-3.3-3-8.4-4.5-15.4-4.5
	c-3.1,0-6.4,0.3-10,0.9L150.8,311z M133.1,312.5v26.4c0,3.1,0,5.7,0.1,8c0.1,0.9,0.5,1.4,1.3,1.7l6.2,1.8l0.1,2
	c-4.9-0.1-8.9-0.1-12.1-0.1c-3.2,0-7,0-11.4,0.1l-0.2-2l5.4-1.6c0.9-0.3,1.4-0.8,1.4-1.6c0.1-2,0.1-4.1,0.1-6.4v-28.7l-6.6-1.6
	l-0.3-2l7-0.6v-0.2c0-9.1,2-16.2,6-21.3c4-5,9.3-7.5,16-7.5c3.3,0,6.4,0.4,9.5,1.2c-1.1,4-2.1,8-2.8,12.2l-2,0.4l-3.2-9.7
	c-0.7-0.1-1.7-0.1-2.8-0.1c-3.7,0-6.6,1.7-8.6,5c-2,3.3-3,9.4-3,18.3v1.6h12.1v4.6H133.1z M80.8,335.7v1.5c0,4.6,0.7,7.9,2.2,9.8
	c1.4,2,3.6,3,6.5,3c3.8,0,6.7-1.4,8.7-4.2c2-2.8,3.1-6.1,3.4-10.1H80.8z M71.2,311c2.8-1.7,5.6-3,8.5-3.7c2.9-0.7,5.6-1.1,8.1-1.1
	c7.1,0,12.9,2,17.3,6.1c4.4,4.1,6.6,9.7,6.6,17c0,7.2-2.1,13.1-6.2,17.7c-4.1,4.6-9.6,6.9-16.4,6.9c-5.8,0-10.2-1.7-13.5-5.1
	c-3.2-3.4-4.8-8.2-4.8-14.2c0-0.9,0-1.8,0.1-2.8h30.7c0-7-1.6-11.9-4.9-14.9c-3.3-3-8.4-4.5-15.4-4.5c-3.1,0-6.4,0.3-10,0.9
	L71.2,311z M12.5,352.5l-0.2-2.1l37.5-61.7H21.1l-3.6,11.7l-1.9,0.3L13,284.6l0.3-0.4c8.1,0.1,15.7,0.2,23,0.2h11.5
	c4.6,0,9.2-0.1,13.9-0.2l0.2,2.1L24.6,348h29.6l6.5-13.1l2.2-0.3l-1.3,17.7l-0.3,0.3c-9.1-0.1-17.2-0.1-24.3-0.1H25.3
	C20.7,352.3,16.5,352.4,12.5,352.5z"/>
<path class="st0" d="M169.8,255.3c1.8,0,3.5-0.2,5.8-0.6c2.3-0.4,5.3-1,8.4-2c3.1-1,6.3-2.5,9.2-4c2.9-1.6,5.5-3.3,8-5.3
	c2.5-2,5-4.3,5.7-6.6c0.3-0.9,0.3-1.8,0.1-2.7c-0.3-1.3-1.2-2.5-2.4-3.6c-0.5-0.4-1-0.9-1.6-1.3c-1.9-1.3-4.4-2.5-6.8-3.6
	c-3.2-1.4-6.5-2.7-10-3.9c-3.5-1.2-7.2-2.2-10-2.8c-2.8-0.6-4.6-0.9-6.4-0.9c-1.8,0-3.6,0.3-6.4,0.9c-2.8,0.6-6.5,1.6-10,2.8
	c-3.5,1.2-6.8,2.4-10,3.9c-2.2,1-4.3,2-6.1,3.1c-0.9,0.5-1.7,1.1-2.3,1.7c-1.1,1-1.8,2-2.2,3.1c-0.4,1.1-0.4,2.1-0.1,3.3
	c0.7,2.3,3.2,4.6,5.7,6.6c2.5,2,5.1,3.7,8,5.3c2.9,1.6,6.1,3,9.2,4c3.1,1,6.1,1.6,8.4,2C166.3,255.1,168,255.3,169.8,255.3
	 M216.1,231.4c1.8,0.9,3.5,1.7,5.3,2.4c2.7,1.2,5.4,2.2,8.2,3.2c2.8,1,5.7,1.9,8.7,2.7c3.1,0.8,6.3,1.5,9.3,1.9
	c3,0.4,5.6,0.6,8.8,0.6c3.2,0,6.9-0.3,10.4-0.8c3.5-0.5,6.7-1.2,9.9-2.2c3.2-0.9,6.3-2,9.2-3.1c2.8-1.1,5.4-2.2,7.8-3.3
	c2.4-1.1,4.5-2.1,6.6-3.1c2-1,3.9-1.9,5.6-2.8c1.7-0.9,5.9-3,7.2-3.8c3.8-2.1,4.6-2.5,7.9-4.2c3.3-1.7,7.9-4.4,9.5-5.7
	c1.6-1.2,2.1-2.1,2.2-3c0.1-0.9-0.2-1.8-1.2-2.6c-1-0.9-2.6-1.7-5.6-2.5c-2.9-0.8-7.1-1.6-13.8-2.4c-6.6-0.9-15.7-1.8-24.2-2.6
	c-8.5-0.7-16.3-1.2-24.6-1.4c-8.3-0.2-17.1,0-24.3,0.2c-7.2,0.2-12.9,0.4-18.6,0.6c2.9-0.5,5.9-1,8.9-1.7c3-0.6,6.1-1.4,9-2.4
	c2.9-0.9,5.7-2.1,9.1-3.8c3.4-1.7,7.5-3.9,11.6-6.5c4.1-2.6,8.2-5.6,12.2-8.8c3.9-3.2,7.6-6.6,11.4-10.7c3.8-4.1,7.8-8.9,11.1-13.6
	c3.3-4.6,6.1-9.1,8.3-13.9c2.2-4.8,4-10,5.1-14.7c1.1-4.7,1.6-8.9,1.7-12.3c0.1-3.4-0.2-6.1-0.8-8.8c-0.6-2.7-1.5-5.4-2.7-7.1
	c-1.2-1.6-2.6-2.1-4.6-2.2c-2-0.1-4.7,0.3-7.8,1.1c-3.1,0.8-6.6,2.1-10.2,3.7c-3.6,1.6-7.3,3.4-10.6,5c-3.4,1.7-6.4,3.2-10.4,5.3
	c-4,2.1-8.9,4.8-14,7.9c-5.1,3.1-10.2,6.5-14.9,10.2c-4.6,3.6-8.7,7.5-12.7,11.6c-4,4.1-7.8,8.4-10.7,12c-2.9,3.6-4.7,6.3-6.6,9.1
	c1.3-3.2,2.5-6.5,4.2-11.4c1.6-5,3.7-11.7,5.5-19.9c1.8-8.2,3.4-17.8,4-27.5c0.6-9.6,0.2-19.2-0.6-27.5c-0.8-8.4-2-15.6-3.7-22.3
	c-1.7-6.7-3.9-13-6.1-17.9c-2.1-5-4.2-8.7-6.9-12.6c-2.7-3.9-6.1-8-8.7-10.5c-2.6-2.4-4.3-3.2-5.9-3.7c-1.7-0.5-3.2-0.6-5.4,0
	c-2.1,0.6-4.8,2.1-7.7,4.3c-2.9,2.2-5.9,5.1-9,8.6c-3.1,3.4-6.1,7.3-9.2,11.4c-3,4.1-5.9,8.5-8.9,14c-2.9,5.5-5.9,12.2-8.2,19.4
	c-2.3,7.2-4,14.9-5,23.3c-1,8.4-1.2,17.4-0.3,27.1c0.9,9.7,2.9,20.2,5.3,28.7c2.3,8.5,5,14.9,8.2,21.6c-2-4-4.3-8.7-7.3-14.4
	c-0.9-1.7-2.4-4.3-3.6-6.4c-1.5-2.6-2.5-4.3-4.2-6.9c-2.3-3.5-4.8-6.7-6.6-9.3c-4-5.7-8.7-10.1-12.6-14.2c-3.9-4-7.4-7.3-11-10.1
	c-3.6-2.9-7.4-5.3-11.5-7.8c-4.1-2.5-8.6-4.9-13.9-7C68.5,86,62.5,84.2,57,82.9c-5.5-1.3-10.6-2-14.5-2.2c-3.8-0.2-6.4,0.1-8.4,0.6
	c-2,0.5-3.5,1.3-4.2,2.1c-0.7,0.8-0.7,1.7-0.4,2.8c0.4,1.1,1.1,2.4,2,4c0.9,1.5,2,3.3,3.1,5.2c1.1,1.8,2.1,3.7,3.2,5.9
	c1.1,2.2,2.1,4.8,3.1,8.1c1,3.3,2,7.4,3.2,12c1.1,4.5,2.5,9.5,3.7,14.1c1.3,4.6,2.5,8.8,3.8,12.7c1.3,3.9,2.6,7.4,4.4,11.3
	c1.8,3.9,4,8.2,6.2,11.8c2.2,3.6,4.5,6.5,7,8.9c2.5,2.5,5.2,4.8,7.8,6.6c2.6,1.9,5.1,3.3,8.1,4.9c3,1.7,6.5,3.3,9.8,4.7
	c3.3,1.4,6.3,2.5,9.3,3.5c3,1,5.5,1.7,7.7,2.3c-12.6-2.1-16.7-2.6-20.1-3.1c-5.2-0.8-17.3-1.9-20.8-2.2c-3.5-0.3-7-0.5-11.1-0.5
	c-4,0-8.6,0.1-13.3,0.3c-4.8,0.2-9.8,0.5-13.3,0.7c-3.5,0.2-5.5,0.4-7.2,0.6c-1.8,0.2-3.3,0.3-5,0.5c-1.6,0.2-3.3,0.5-4.7,0.9
	c-1.3,0.4-2.3,0.9-3,1.6c-0.7,0.7-1,1.5-0.7,2.6c0.3,1.1,1.3,2.6,2.2,3.7c0.9,1.1,1.5,1.5,3.2,2.8c1.7,1.3,2.4,1.7,5.2,3.5
	c2.8,1.8,6,4.1,9,5.9c3,1.8,5.4,3.2,7.8,4.6c2.4,1.3,4.8,2.5,7.1,3.7c2.3,1.1,4.6,2.1,7,3c2.3,0.9,4.7,1.7,7.5,2.5
	c2.8,0.8,6.1,1.5,9.3,1.9c3.2,0.5,6.1,0.7,9.3,0.7c3.1,0,6.5-0.2,9.8-0.7c3.4-0.4,7.8-1,10.8-1.6c3.3-0.6,6.9-1.5,9.6-2.2
	c7.3-1.9,10-2.7,15.8-4.9c-1.6,1.5-2.1,3.4-2.2,3.7c-0.2,0.7-0.3,1.4-0.3,2c0,3.4,2.1,6.5,4,8.7c1.9,2.2,4.5,4.7,7.7,7
	c3.2,2.3,6.9,4.3,11.1,6c4.2,1.7,8.9,3,12.9,3.7c4,0.7,7.2,0.8,10.5,0.8c3.3,0,6.5-0.1,10.5-0.8c4-0.7,8.7-2,12.9-3.7
	c4.2-1.7,7.9-3.7,11.1-6c3.2-2.3,6.2-5.2,7.7-7c1.5-1.8,3.5-4,4.1-7.7C216.2,232.8,216.2,232.1,216.1,231.4z M201,218.7
	c7.7,3.3,13.1,5.5,17.3,7.1c7,2.6,11.3,3.9,17,4.9c6.4,1.1,11.5,1.7,16.7,1.5c5.8-0.2,12.4-0.6,18.3-2c6.2-1.4,11.4-3,17.4-4.8
	c6.3-2,11.1-3.8,15.4-5.4c4.8-1.7,7.1-2.4,10.1-3.7c3-1.3,5.9-2.8,7.9-3.9c1.9-1.1,2.8-1.7,3.3-2.2c0.5-0.5,0.5-0.8-0.7-1.2
	c-1.2-0.4-3.6-0.8-6.8-1.4c-3.2-0.6-7.3-1.2-12.5-1.9c-5.2-0.7-11.6-1.4-17.9-1.9c-6.3-0.5-12.6-0.9-19.6-1.2
	c-7-0.3-14.6-0.6-22.3-0.7c-7.7-0.1-15.5-0.2-21.1-0.3c-5.5-0.1-8.8-0.2-12.1-0.3c-3.3-0.1-6.8-0.1-10.2-0.2
	c5.8-1.1,11.6-2.2,16.7-3.3c5.2-1.1,9.7-2.3,14.6-4c4.8-1.7,10-3.9,14.5-6.3c4.6-2.4,8.6-5.1,12.4-8.1c3.9-2.9,7.6-6.1,11.1-9.4
	c3.5-3.3,6.7-6.8,9.5-10.1c2.8-3.4,5.1-6.7,7.4-10.2c2.2-3.5,4.4-7.3,6.4-11.9c2-4.6,4-10.1,5.2-14.7c1.2-4.6,1.7-8.4,1.8-11.6
	c0.1-3.2,0-5.9-0.5-7.8c-0.5-1.9-1.2-2.9-3.1-3.1c-1.9-0.2-4.9,0.4-9.3,2c-4.3,1.6-9.9,4-15.8,6.8c-5.9,2.8-12.1,5.9-18.1,9.4
	c-6.1,3.5-12,7.5-16.5,10.7c-4.5,3.2-7.6,5.5-11.1,8.6c-3.5,3.1-7.4,6.9-10.9,10.5c-3.4,3.7-6.4,7.2-9.4,10.9c-3,3.7-6,7.7-8.3,10.9
	c-2.3,3.2-7.3,11.1-9,13.5c1.2-3,5.8-11.7,7.1-15.1c1.4-3.4,2.8-7.1,4.3-12.1c1.5-5,3-11.1,4.5-18c1.5-6.8,2.8-14.4,3.6-22.9
	c0.8-8.6,1-18.2,0.8-26.3c-0.2-8.1-1-14.7-1.8-20.2c-0.8-5.5-1.8-10.1-3-14.6c-1.3-4.6-2.9-9.2-4.7-13.5c-1.8-4.3-3.7-8.3-6-12
	c-2.2-3.7-4.8-7.1-6.9-9.1c-2.1-2-3.7-2.7-6-2.1c-2.3,0.6-5.3,2.4-8.8,5.9c-3.5,3.4-7.6,8.4-11.3,13.7c-3.7,5.3-7,10.8-9.8,16.3
	c-2.8,5.5-5.2,10.9-7.1,16.4c-1.8,5.5-3.1,11-4,16.7c-0.9,5.7-1.4,11.6-1.6,17.8c-0.1,6.2,0.1,12.6,0.9,19.6c0.8,7,2.2,14.6,3.6,21
	c1.4,6.4,3,11.4,4.5,16.2c1.5,4.8,3,9.3,4.3,13.1c1.3,3.8,2.4,7,3.5,10.3c-0.3-0.3-4.5-6.9-8.9-14.1c-4.9-7.9-10.2-16.5-10.9-17.6
	c-1.3-2.1-3.7-5.8-5.8-8.9c-1.7-2.4-3.2-4.4-5.8-7.9c-1-1.3-4.2-5.1-6.6-7.9c-2.5-2.8-5.2-5.5-6.4-6.5c-2.4-2-4.7-4.1-7.2-6.1
	c-2.6-2-5.3-4.1-8.7-6.5c-3.4-2.4-7.4-5.1-10.6-7.1c-3.2-2-5.6-3.4-8.4-4.9c-2.9-1.5-6.3-3.1-9.9-4.6c-3.6-1.5-7.4-2.9-11.4-4.1
	c-4-1.2-8.1-2.1-11.4-2.8c-3.2-0.6-5.6-0.9-7.1-1c-1.5-0.1-2.1,0-2.5,0.2c-0.4,0.3-0.6,0.7-0.4,1.7c0.2,1,0.8,2.6,1.4,3.9
	c0.6,1.3,1.3,2.4,2.3,4.1c1,1.7,2.3,4.1,3.5,6.5c1.2,2.4,2.3,5,3.4,7.6c1,2.6,1.9,5.4,3.3,9.1c1.3,3.7,3.1,8.4,5,13.4
	c1.9,5,3.8,10.2,5.6,14.6c1.7,4.4,3.2,7.9,4.9,11.4c1.7,3.4,3.5,6.8,5.4,9.7c1.9,2.9,3.8,5.4,6.3,8.1c2.5,2.6,5.5,5.4,8.4,7.8
	c2.9,2.3,5.7,4.3,8.8,6.1c3.1,1.9,6.3,3.6,10.9,5.8c4.6,2.1,10.4,4.6,15.1,6.5c4.7,1.9,7.9,2.8,11.4,4.1c-7.7-0.4-25.7-1.8-35.5-3.1
	c-4.8-0.6-14.8-1.3-19.3-1.7c-3.5-0.3-6.9-0.6-11.7-0.8c-4.6-0.2-9.3-0.2-14,0c-4.7,0.2-9.4,0.1-13.6,0.4c-4.2,0.3-8,0.6-10.8,1
	c-2.8,0.3-4.5,0.6-5.1,1.3c-0.6,0.7,0,1.6,1.2,2.7c1.2,1,3.1,2.1,4.9,3c2.2,1.2,3.6,2.1,6.2,3.2c3.3,1.5,6.3,3.1,10,4.5
	c4.3,1.7,8,3.1,11.8,4.2c4,1.2,9.1,2.6,13.5,3.3c4.7,0.7,10.2,1.5,15,1.6c4.9,0.2,7.8,0.2,11.9,0c4.5-0.2,9.5-0.7,13.1-1
	c7-0.7,12.3-1.2,18.6-2.5c4.5-0.9,10.9-2.3,13.8-3.1c4.4-2.2,8.7-4.2,13.3-5.9c3.5-1.3,7.1-2.5,9.9-3.3c0-2.4-0.1-5.4-0.1-7.6
	c-0.1-2.4-0.1-4.7-0.2-6.9c-0.1-2.1-0.2-4.1-0.4-6.5c-0.2-2.4-0.5-5.4-0.8-8.5c-0.4-3.1-0.8-6.4-1.2-9.8c-0.4-3.4-0.9-6.9-1.2-9.6
	c-0.2-1.9-0.4-3.5-0.6-5.2c-0.1-0.8-0.2-1.6-0.3-2.5c-0.3-2.9-0.6-6.5-0.8-9.2c-0.2-2.6-0.4-4.2-0.6-5.6c-0.2-1.4-0.4-2.7-0.6-3.9
	c-0.2-1.2-0.5-2.4-0.9-4.1c-0.4-1.7-1-4-1.5-5.9c-0.5-1.8-1-3.3-1.3-4.2c-0.3-0.9-0.5-1.4-0.7-1.7c-0.2-0.3-0.3-0.4-0.5-0.4
	c-0.2,0-0.5,0-0.7,0c-0.3,0-0.6-0.1-0.8-0.2c-0.3-0.1-0.5-0.3-0.7-0.6c-0.2-0.3-0.4-0.7-0.6-1.1c-0.1-0.5-0.2-1-0.1-1.5
	c0-0.5,0.2-0.8,0.4-1.2c0.2-0.4,0.5-0.8,0.9-1c0.4-0.3,0.8-0.5,1.3-0.7c0.5-0.2,1-0.3,1.5-0.4c0.5,0,0.9,0,1.2,0.1
	c0.4,0.1,0.7,0.2,1,0.4c0.3,0.2,0.6,0.4,0.7,0.6c0.1,0.2,0.2,0.4,0.2,0.6c0,0.2,0,0.5,0,0.8c0,0.4,0,0.8,0.1,1.3
	c0.1,0.5,0.2,1.2,0.5,2c0.2,0.8,0.6,1.7,0.9,2.7c0.3,1,0.5,2.2,0.8,3.4c0.2,1.2,0.4,2.4,0.7,3.9c0.2,1.5,0.4,3.4,0.6,5.6
	c0.2,2.2,0.4,4.9,0.6,7.9c0.1,1.4,0.2,2.9,0.3,4.4c0.1,1.8,0.3,3.7,0.4,5.5c0.3,3.3,0.6,6.5,1,9.5c0.4,3.1,0.8,6,1.2,8.7
	c0.4,2.7,0.7,5.1,1.1,7.7c0.4,2.6,0.8,5.4,1.3,8.5c0.5,3.1,1,6.6,1.4,9.5c0.4,2.9,0.7,5.3,0.9,7.1c0.2,1.9,0.3,3.3,0.3,4.3
	c0,1,0.1,1.8,0.1,2.5c0.2,0,0.4-0.1,0.6-0.1c0.3-1.9,0.6-3.7,0.9-5.9c0.3-2.2,0.6-4.6,0.9-7.1c0.3-2.5,0.6-5,0.9-7.6
	c0.3-2.6,0.6-5.4,0.8-8.2c0.2-2.8,0.4-5.7,0.5-8.5c0.1-2.8,0.2-5.5,0.3-8.3c0.1-2.9,0.2-5.9,0.3-8.7c0.1-2.8,0.2-5.2,0.2-8.2
	c0.1-2.9,0.1-6.3,0.2-10.1c0.1-3.8,0.2-8.1,0.3-11.8c0.2-3.7,0.4-7,0.6-9.8c0.2-2.8,0.4-5.2,0.6-7.4c0.2-2.1,0.4-4,0.7-5.8
	c0.3-1.8,0.7-3.5,1-4.8c0.3-1.3,0.5-2.1,0.7-2.6c0.1-0.5,0.2-0.8,0.1-1c0-0.2-0.1-0.5-0.2-0.8c0-0.3,0-0.6,0.1-0.9
	c0.1-0.3,0.4-0.7,0.7-1c0.3-0.3,0.6-0.5,1-0.6c0.4-0.1,0.9-0.2,1.4-0.1c0.5,0.1,1.1,0.3,1.6,0.6c0.5,0.3,0.9,0.6,1.2,1
	c0.4,0.4,0.7,0.8,0.9,1.3c0.2,0.4,0.3,0.8,0.4,1.2c0.1,0.4,0.1,0.8,0,1.1c-0.1,0.3-0.2,0.6-0.3,0.8c-0.2,0.3-0.4,0.5-0.6,0.7
	c-0.2,0.2-0.5,0.2-0.7,0.3c-0.3,0-0.5,0-0.8,0c-0.2,0-0.5,0.1-0.7,0.2c-0.2,0.1-0.4,0.3-0.6,0.8c-0.2,0.5-0.5,1.4-0.7,2.5
	c-0.3,1.1-0.5,2.4-0.8,4.4c-0.3,2-0.6,4.7-0.9,7.4c-0.3,2.8-0.6,5.6-0.9,8.9c-0.3,3.2-0.6,6.8-0.8,9.9c-0.2,3.1-0.4,5.6-0.5,8.5
	c-0.1,2.9-0.3,6.1-0.4,8.8c-0.1,2.6-0.3,4.7-0.4,7.1c-0.1,2.4-0.2,5.3-0.3,8c-0.1,2.7-0.1,5.4-0.2,8.1c-0.1,2.8-0.1,5.7-0.2,9.1
	c-0.1,3.4-0.1,7.1-0.2,10.1c-0.1,3-0.2,5.2-0.3,7.6c-0.1,2.4-0.3,5-0.4,6.8c-0.1,1.7-0.2,2.8-0.3,3.9c0.5,0.1,1,0.2,1.6,0.3l0.1-0.3
	c0.1-0.4,0.2-1.1,0.6-2.4c0.3-1.3,0.8-3.2,1.4-5.3c0.6-2.1,1.2-4.3,1.7-6.3c0.5-2,0.9-3.9,1.3-6.1c0.4-2.1,0.8-4.5,1.2-7.2
	c0.4-2.7,0.8-5.7,1.1-8.3c0.3-2.6,0.5-5,0.7-7.3c0.2-2.4,0.3-4.8,0.5-7c0.2-2.3,0.3-4.4,0.5-6c0.1-1.7,0.3-3,0.5-4.5
	c0.2-1.6,0.6-3.4,0.9-5.1c0.4-1.7,0.8-3.4,1.2-4.8c0.4-1.4,0.8-2.7,1.1-3.7c0.3-1,0.6-1.9,0.8-2.6c0.2-0.7,0.4-1.3,0.5-1.8
	c0.1-0.5,0.2-1,0.3-1.3c0-0.3,0-0.4-0.1-0.6c-0.1-0.2-0.2-0.5-0.3-0.8c-0.1-0.3-0.1-0.7,0.1-1.1c0.2-0.4,0.6-0.7,0.9-1
	c0.4-0.3,0.7-0.4,1.2-0.5c0.4,0,1,0,1.4,0.1c0.5,0.1,0.9,0.3,1.2,0.5c0.4,0.2,0.7,0.4,1,0.7c0.3,0.2,0.5,0.5,0.7,0.8
	c0.2,0.3,0.3,0.7,0.4,1.1c0.1,0.4,0,0.7,0,1.1c-0.1,0.3-0.2,0.6-0.3,0.9c-0.1,0.2-0.3,0.5-0.4,0.6c-0.1,0.2-0.2,0.3-0.3,0.3
	c-0.1,0.1-0.3,0.1-0.4,0.1c-0.1,0-0.2,0.1-0.4,0.3c-0.2,0.2-0.6,0.6-1,1.2c-0.4,0.6-0.9,1.3-1.5,2.3c-0.5,0.9-1.1,2.1-1.7,3.5
	c-0.6,1.4-1.2,3.2-1.7,4.9c-0.5,1.7-0.9,3.3-1.3,4.9c-0.3,1.6-0.6,3.1-0.8,4.9c-0.2,1.7-0.4,3.7-0.5,5.8c-0.1,2.1-0.2,4.4-0.3,6.5
	c-0.1,2.1-0.2,4-0.3,6c-0.1,1.9-0.3,3.9-0.6,6c-0.2,2.1-0.5,4.4-0.9,7c-0.3,2.6-0.7,5.4-1.1,8.1c-0.3,2.7-0.7,5.1-0.9,7.4
	c-0.3,2.3-0.5,4.3-0.7,6l-0.5,4.7c2.6,0.8,5.7,1.8,8.7,2.9C192,214.4,196.2,216.2,201,218.7z"/>
<path class="st1" d="M54.2,383.8c-0.2-1.7-0.3-2.8-0.5-3.7c-1-0.3-2.2-0.6-3.4-0.6c-3.5,0-5.6,2.2-5.6,4.8c0,3.1,2.7,4.4,4.5,5.3
	c2,1.1,3.5,2,3.5,4c0,2-1.2,3.2-3.2,3.2c-2.8,0-4-2.7-4.4-4.4l-0.8,0.2c0.2,1.3,0.5,3.6,0.7,4.2c0.2,0.1,0.6,0.3,1.3,0.6
	c0.7,0.2,1.5,0.4,2.6,0.4c3.6,0,6-2.3,6-5.1c0-3-2.6-4.3-4.7-5.4c-2.1-1.1-3.4-2-3.4-4c0-1.5,0.9-3,3-3c2.3,0,3.1,1.9,3.5,3.6
	L54.2,383.8z M81.3,379.9h-6.4v0.8c1.9,0.1,2.5,0.5,2.6,1.5c0.1,0.8,0.2,2,0.2,4.5v2.1c0,4.5-1.2,7.7-5.1,7.7
	c-3.3,0-5.1-2.5-5.1-6.8v-6.2c0-2.4,0.2-2.6,2.3-2.7v-0.8h-7v0.8c2.1,0.2,2.3,0.3,2.3,2.7v6.8c0,3.2,0.8,5.2,2.4,6.4
	c1.2,0.9,2.8,1.3,4.3,1.3c1.8,0,3.6-0.6,4.8-1.9c1.6-1.6,2.1-3.9,2.1-7.1v-2.2c0-2.5,0.1-3.6,0.1-4.4c0.1-1.1,0.8-1.5,2.4-1.6V379.9
	z M101.8,393c-0.4,1.2-0.9,2.1-1.4,2.6c-0.6,0.7-1.5,0.8-3,0.8c-1.1,0-2.1-0.1-2.6-0.4c-0.5-0.3-0.6-0.8-0.6-2.3v-10.7
	c0-2.3,0.2-2.4,2.4-2.6v-0.8h-7v0.8c2.2,0.2,2.4,0.3,2.4,2.6V394c0,2.3-0.2,2.5-2.5,2.6v0.8h12.2c0.2-0.8,0.8-3.4,1-4.2L101.8,393z
	 M123.8,384c-0.1-1.6-0.3-3.5-0.3-4.8H123c-0.4,0.5-0.6,0.7-1.4,0.7h-10.7c-0.8,0-1.1-0.1-1.5-0.7h-0.5c-0.1,1.5-0.2,3.2-0.3,4.9
	h0.8c0.3-1.2,0.5-1.9,0.9-2.4c0.4-0.6,0.9-0.8,3.1-0.8h1.7v13.3c0,2.1-0.2,2.4-2.7,2.6v0.8h7.7v-0.8c-2.6-0.2-2.8-0.4-2.8-2.6v-13.3
	h1.9c2,0,2.5,0.2,2.9,0.8c0.3,0.4,0.6,1.1,0.9,2.4L123.8,384z M147.3,397.4v-0.8c-1.8-0.2-2.1-0.4-3-2.7c-1.7-4.7-3.5-9.8-5.2-14.5
	l-0.8,0.2l-5.6,14.2c-0.9,2.4-1.3,2.5-3,2.8v0.8h5.9v-0.8c-2-0.2-2.3-0.5-1.7-2.2c0.4-1.1,0.8-2.3,1.2-3.5h5.8
	c0.6,1.6,1.1,3.1,1.5,4.2c0.4,1.1,0.1,1.3-1.6,1.5v0.8H147.3z M140.4,389.9h-5c0.8-2.2,1.7-4.6,2.5-6.9h0.1L140.4,389.9z
	 M173.7,379.9h-6.4v0.8c1.9,0.1,2.5,0.5,2.6,1.7c0.1,0.8,0.2,2,0.2,4.5v6.6h-0.1l-11.3-13.6h-4v0.8c1.3,0.1,1.9,0.3,2.4,1
	c0.5,0.6,0.5,0.8,0.5,2.7v5.9c0,2.5-0.1,3.8-0.2,4.6c-0.1,1.3-0.8,1.7-2.4,1.8v0.8h6.4v-0.8c-1.8-0.1-2.5-0.4-2.6-1.8
	c-0.1-0.8-0.2-2.1-0.2-4.6v-6.8h0.1l11.5,14.1h0.8v-10.9c0-2.5,0.1-3.7,0.2-4.5c0.1-1.2,0.8-1.5,2.3-1.6V379.9z M198.1,397.4v-0.8
	c-1.8-0.2-2.1-0.4-3-2.7c-1.7-4.7-3.5-9.8-5.2-14.5l-0.8,0.2l-5.6,14.2c-0.9,2.4-1.3,2.5-3,2.8v0.8h5.9v-0.8c-2-0.2-2.3-0.5-1.7-2.2
	c0.4-1.1,0.8-2.3,1.2-3.5h5.8c0.6,1.6,1.1,3.1,1.5,4.2c0.4,1.1,0.1,1.3-1.6,1.5v0.8H198.1z M191.2,389.9h-5c0.8-2.2,1.7-4.6,2.5-6.9
	h0.1L191.2,389.9z M224.8,379.9h-7v0.8c2.1,0.2,2.3,0.3,2.3,2.6v4.4h-9.2v-4.4c0-2.2,0.2-2.4,2.3-2.6v-0.8h-7v0.8
	c2.2,0.2,2.4,0.3,2.4,2.6v10.9c0,2.3-0.2,2.4-2.4,2.6v0.8h7.1v-0.8c-2.2-0.2-2.4-0.3-2.4-2.6v-5.4h9.2v5.4c0,2.3-0.2,2.4-2.5,2.6
	v0.8h7.2v-0.8c-2.2-0.2-2.4-0.3-2.4-2.6v-10.9c0-2.2,0.2-2.4,2.4-2.6V379.9z M255.7,397.4v-0.8c-2.3-0.2-2.4-0.4-2.5-3.2l-0.3-9.8
	c-0.1-2.8,0.1-2.8,2.5-3.1v-0.8h-4.6l-6.2,13.5l-6.1-13.5H234v0.8c2.5,0.2,2.6,0.4,2.3,3.9l-0.4,5.6c-0.2,2.8-0.4,4-0.5,4.9
	c-0.2,1.1-0.7,1.4-2.3,1.6v0.8h6.3v-0.8c-1.8-0.2-2.4-0.4-2.5-1.7c0-1.1,0-2.3,0.1-4.5l0.4-7.7h0.1l6,14.4h0.5l6.6-14.8h0.1l0.1,11
	c0,2.9-0.1,3-2.3,3.2v0.8H255.7z M277,393.1c-0.4,1.1-0.9,2-1.3,2.5c-0.6,0.7-1.3,0.9-3.4,0.9c-1.4,0-2.3,0-2.8-0.4
	c-0.5-0.4-0.6-0.9-0.6-2.2v-5.1h2.6c2.3,0,2.5,0.2,2.9,2.1h0.8v-5.2h-0.8c-0.3,1.8-0.5,2-2.9,2h-2.5v-6.1c0-0.8,0.1-0.9,0.9-0.9h2.1
	c1.9,0,2.7,0.2,3.1,0.8c0.4,0.6,0.6,1.2,0.9,2.3l0.8-0.1c-0.1-1.4-0.2-3.2-0.2-3.9h-12v0.8c2.1,0.2,2.3,0.3,2.3,2.7v10.7
	c0,2.2-0.2,2.4-2.7,2.6v0.8h13c0.2-0.8,0.8-3.4,0.9-4.3L277,393.1z M300.8,384c-0.1-1.6-0.3-3.5-0.3-4.8H300
	c-0.4,0.5-0.6,0.7-1.4,0.7H288c-0.8,0-1.1-0.1-1.5-0.7h-0.5c-0.1,1.5-0.2,3.2-0.3,4.9h0.8c0.3-1.2,0.5-1.9,0.9-2.4
	c0.4-0.6,0.9-0.8,3.1-0.8h1.7v13.3c0,2.1-0.2,2.4-2.7,2.6v0.8h7.7v-0.8c-2.6-0.2-2.8-0.4-2.8-2.6v-13.3h1.9c2,0,2.5,0.2,2.9,0.8
	c0.3,0.4,0.6,1.1,0.9,2.4L300.8,384z"/>
</svg>
