<svg xmlns="http://www.w3.org/2000/svg" width="94.962" height="119.611" viewBox="0 0 94.962 119.611">
  <g id="Group_730" data-name="Group 730" transform="translate(-905 -6680.349)">
    <path id="Path_3" data-name="Path 3" d="M280.358,141.135a3.325,3.325,0,0,0,.387-1.239c.8-.359,2.4-.449,3.071-2.418,1.209-3.561,1.668-6.891,1.265-17.776-.165-4.467-3.492-4.248-3.895-5.158a1.214,1.214,0,0,0-.782-.613.964.964,0,0,0,.334-.347c.314-.555-.94-1.127-1.165-1.834s-.536-1.48-.536-1.48-.314.774-.537,1.48-1.477,1.279-1.164,1.834a.972.972,0,0,0,.334.347,1.213,1.213,0,0,0-.782.613c-.4.909-3.73.691-3.9,5.158-.4,10.885.057,14.215,1.265,17.776.668,1.969,2.271,2.058,3.071,2.418a3.314,3.314,0,0,0,.387,1.239c.162.184.4-.088.627-.088s.694.783.694.783.47-.783.693-.783S280.2,141.318,280.358,141.135ZM267.176,161.55c5.677,4.669,9.868,6.829,11.861,11.444,1.994-4.616,6.185-6.775,11.862-11.444,8.126-6.683,8-21.431,4.384-28.962.591,5.291.369,13.513-3.829,18.162a73.867,73.867,0,0,1-8.347,7.95l-.043.036c-2.184,1.87-4.026,4.6-4.026,7.479,0-2.875-1.842-5.609-4.026-7.479l-.043-.036a73.861,73.861,0,0,1-8.348-7.95c-4.2-4.649-4.419-12.871-3.829-18.162C259.174,140.12,259.05,154.867,267.176,161.55Zm9.714-5.094c.575.493,1.779,1.127,2.148,2.05.37-.923,1.573-1.558,2.148-2.05a61.771,61.771,0,0,0,7.562-7.625c6.091-7.1,3.976-16.213,1.455-23.521-.5-1.5-1.888-5.537-1.9-5.577.1,1.253,2.277,17.451-3.967,23.936-2.436,2.529-5.293,5.8-5.293,9.31,0-3.511-2.857-6.781-5.292-9.31-6.245-6.484-4.064-22.683-3.967-23.936-.016.04-1.4,4.081-1.9,5.577-2.521,7.307-4.636,16.425,1.455,23.521A61.758,61.758,0,0,0,276.89,156.456Zm-11.59,7.375c-4.893-4.024-7.334-10.291-7.147-18.209-.484,1.049-7.767,19.973,13.561,31.567,6.308,3.429,7.323,3.867,7.323,3.867C278.744,174.6,276.223,172.816,265.3,163.831Zm34.622-18.209c.187,7.918-2.254,14.184-7.147,18.209-10.924,8.984-13.444,10.766-13.738,17.224,0,0,1.016-.438,7.324-3.867C307.688,165.6,300.406,146.671,299.922,145.623Z" transform="translate(673.508 6570.08)" fill="#382b25"/>
    <g id="Group_659" data-name="Group 659" transform="translate(905 6759.287)">
      <path id="Path_9" data-name="Path 9" d="M284.892,482.312h-.076c-1.206,3.205-2.375,6.447-3.506,9.577h6.9Zm3.62,20.1v-1.245c2.45-.3,2.715-.6,2.263-2.036-.527-1.47-1.208-3.394-1.961-5.468h-8.183c-.528,1.508-1.056,3.017-1.546,4.525-.792,2.338-.492,2.716,2.376,2.979v1.245h-8.448v-1.245c2.452-.339,2.98-.527,4.3-3.884l7.805-19.57,1.32-.376c2.338,6.371,4.9,13.649,7.277,20.023,1.17,3.242,1.7,3.581,4.186,3.807v1.245Z" transform="translate(-273.013 -477.335)" fill="#382b25" fill-rule="evenodd"/>
      <path id="Path_10" data-name="Path 10" d="M338.617,479.739c-2.979.226-3.281.491-3.281,3.582V497.2c0,5.014-.829,7.73-3.318,9.954a9.512,9.512,0,0,1-3.545,2.112l-.565-1.245a6.545,6.545,0,0,0,3.733-4.977,39.79,39.79,0,0,0,.413-7.089V483.321c0-3.091-.3-3.356-3.43-3.582v-1.245h9.993Z" transform="translate(-301.977 -477.929)" fill="#382b25" fill-rule="evenodd"/>
      <path id="Path_11" data-name="Path 11" d="M390.8,479.739c-2.6.339-2.94.642-4.034,3.62-.83,2.3-3.13,9.5-6.259,19.986h-1.358c-2.074-6-4.488-12.82-6.524-18.628h-.076c-2.15,6.6-4.261,12.594-6.184,18.628h-1.357c-1.961-6.788-4.11-13.31-6.147-20.023-.942-2.978-1.546-3.318-3.845-3.582v-1.245h9.313v1.245c-2.789.3-2.827.6-2.337,2.414,1.51,5.053,2.941,10.068,4.6,15.384h.075c2.036-6.448,4.185-12.593,6.108-18.7h1.283c2.074,6.185,4.261,12.18,6.524,18.74h.075c1.584-5.015,3.695-12.33,4.3-14.932.453-2.186.3-2.6-2.565-2.9v-1.245H390.8Z" transform="translate(-317.156 -477.929)" fill="#382b25" fill-rule="evenodd"/>
      <path id="Path_12" data-name="Path 12" d="M435.178,482.312H435.1c-1.206,3.205-2.375,6.447-3.506,9.577h6.9Zm3.619,20.1v-1.245c2.452-.3,2.715-.6,2.263-2.036-.528-1.47-1.208-3.394-1.961-5.468h-8.182c-.528,1.508-1.056,3.017-1.545,4.525-.793,2.338-.491,2.716,2.376,2.979v1.245H423.3v-1.245c2.452-.339,2.979-.527,4.3-3.884l7.806-19.57,1.32-.376c2.338,6.371,4.9,13.649,7.277,20.023,1.17,3.242,1.7,3.581,4.185,3.807v1.245Z" transform="translate(-353.225 -477.335)" fill="#382b25" fill-rule="evenodd"/>
      <path id="Path_13" data-name="Path 13" d="M292.472,549.273c-.932.079-1.012.136-1.012,1.091v4.548c0,.955.091,1.012,1,1.092v.33h-3.115V556c.955-.079,1.046-.137,1.046-1.092v-2.239h-3.729v2.239c0,.955.091,1.012,1,1.092v.33H284.6V556c.9-.079.989-.137.989-1.092v-4.548c0-.955-.091-1.012-1.012-1.091v-.331h3.025v.331c-.853.079-.944.136-.944,1.091v1.808h3.729v-1.808c0-.955-.091-1.012-.966-1.091v-.331h3.047Z" transform="translate(-278.908 -515.831)" fill="#382b25" fill-rule="evenodd"/>
      <path id="Path_14" data-name="Path 14" d="M322.326,552.232c0,2.092,1.114,3.673,2.7,3.673,1.227,0,2.308-1.058,2.308-3.23,0-2.376-1.183-3.661-2.662-3.661-1.227,0-2.341,1.1-2.341,3.218m6.275.136a3.739,3.739,0,0,1-3.82,3.957,3.684,3.684,0,0,1-3.729-3.8,3.8,3.8,0,0,1,3.866-3.934A3.667,3.667,0,0,1,328.6,552.368Z" transform="translate(-298.271 -515.652)" fill="#382b25" fill-rule="evenodd"/>
      <path id="Path_15" data-name="Path 15" d="M362.8,550.441a2.716,2.716,0,0,0-.387-1.047c-.193-.261-.386-.34-1.216-.34h-.75v5.56c0,.909.091,1.024,1.159,1.091v.33h-3.342v-.33c1.023-.067,1.114-.17,1.114-1.091v-5.56h-.649c-.943,0-1.16.1-1.318.352a3.282,3.282,0,0,0-.376,1.035h-.352c.058-.7.114-1.467.136-2.081h.239c.17.262.307.284.625.284H362.2a.6.6,0,0,0,.58-.284h.249c0,.512.057,1.376.114,2.047Z" transform="translate(-317.167 -515.533)" fill="#382b25" fill-rule="evenodd"/>
      <path id="Path_16" data-name="Path 16" d="M395.776,554.527c-.069.4-.3,1.454-.4,1.808H389.84V556c1.022-.079,1.115-.159,1.115-1.1V550.41c0-1.023-.093-1.057-.968-1.137v-.33H395.1c.011.262.069,1.046.1,1.648l-.342.057a2.678,2.678,0,0,0-.386-.978c-.159-.238-.466-.318-1.251-.318h-.818c-.364,0-.387.034-.387.375v2.558h1.024c1.012,0,1.08-.09,1.228-.852h.342v2.195h-.342c-.148-.807-.237-.876-1.228-.876h-1.024v2.1c0,.546.069.8.274.932a2.5,2.5,0,0,0,1.149.137c.818,0,1.159-.091,1.409-.375a4.062,4.062,0,0,0,.579-1.08Z" transform="translate(-334.757 -515.832)" fill="#382b25" fill-rule="evenodd"/>
      <path id="Path_17" data-name="Path 17" d="M427.574,554.515c-.067.387-.306,1.478-.409,1.818h-5.219V556c.967-.068,1.058-.148,1.058-1.114v-4.514c0-.966-.08-1.035-.989-1.1v-.33h3.059v.33c-.9.069-1,.125-1,1.1v4.479c0,.6.057.819.262.933a2.409,2.409,0,0,0,1.046.135c.6,0,.989-.056,1.251-.353a3.256,3.256,0,0,0,.6-1.125Z" transform="translate(-352.531 -515.831)" fill="#382b25" fill-rule="evenodd"/>
      <path id="Path_18" data-name="Path 18" d="M457.3,550.5c-.194-.717-.523-1.512-1.5-1.512a1.167,1.167,0,0,0-1.228,1.229c0,.8.522,1.182,1.432,1.648.943.478,1.978,1.022,1.978,2.274a2.323,2.323,0,0,1-2.57,2.182,3.647,3.647,0,0,1-1.114-.171,3.865,3.865,0,0,1-.591-.239,14.065,14.065,0,0,1-.307-1.8l.341-.091c.193.7.728,1.876,1.888,1.876a1.226,1.226,0,0,0,1.318-1.329c0-.809-.6-1.217-1.443-1.672-.818-.431-1.9-1-1.9-2.252a2.145,2.145,0,0,1,2.387-2.057,5.127,5.127,0,0,1,1.456.261c.046.409.114.865.206,1.592Z" transform="translate(-368.657 -515.653)" fill="#382b25" fill-rule="evenodd"/>
    </g>
  </g>
</svg>
