<?xml version="1.0" standalone="no"?>
<!DOCTYPE svg PUBLIC "-//W3C//DTD SVG 1.1//EN" "http://www.w3.org/Graphics/SVG/1.1/DTD/svg11.dtd" >
<svg xmlns="http://www.w3.org/2000/svg" xmlns:xlink="http://www.w3.org/1999/xlink" version="1.1">
<metadata>
Created by FontForge 20170731 at Mon Oct 13 15:22:42 2014
 By Aleksey,,,
Copyright (c) 2012 by Jos Buivenga. All rights reserved.
</metadata>
<defs>
<font id="MuseoSansCyrlW03-500" horiz-adv-x="386" >
  <font-face 
    font-family="MuseoSansCyrlW03-500"
    font-weight="400"
    font-stretch="normal"
    units-per-em="1000"
    panose-1="2 0 0 0 0 0 0 0 0 0"
    ascent="800"
    descent="-200"
    x-height="506"
    cap-height="706"
    bbox="-120 -215 1088 892"
    underline-thickness="50"
    underline-position="-225"
    unicode-range="U+0020-FB04"
  />
<missing-glyph horiz-adv-x="510" 
d="M5 700h500v-700h-500v700zM425 650h-340l170 -255zM455 95v510l-170 -255zM225 350l-170 255v-510zM425 50l-170 255l-170 -255h340z" />
    <glyph glyph-name="uniFB00" unicode="ff" horiz-adv-x="675" 
d="M98 428h-63v78h63v17q0 63 21 100t50.5 56.5t62.5 25.5t57 6q8 0 17.5 -0.5t19.5 -2.5v-84q-8 2 -25 2q-14 0 -32.5 -3t-35 -14t-27.5 -31.5t-11 -55.5v-16h241v17q0 63 21 100t50.5 56.5t62.5 25.5t57 6q9 0 18 -0.5t19 -2.5v-84q-8 2 -25 2q-14 0 -32.5 -3t-35 -14
t-27.5 -31.5t-11 -55.5v-16h119v-78h-119v-428h-97v428h-241v-428h-97v428z" />
    <glyph glyph-name="uniFB01" unicode="fi" horiz-adv-x="581" 
d="M98 428h-63v78h63v17q0 63 21 100t50.5 56.5t62.5 25.5t57 6q17 0 37 -3v-84q-8 2 -25 2q-14 0 -32.5 -3t-35 -14t-27.5 -31.5t-11 -55.5v-16h312v-506h-96v428h-216v-428h-97v428zM409 706h99v-98h-99v98z" />
    <glyph glyph-name="uniFB02" unicode="fl" horiz-adv-x="598" 
d="M405 706h96v-551q0 -45 16 -58.5t39 -13.5h7.5t9.5 1v-86q-5 -1 -13 -2t-19 -1q-21 0 -45 4.5t-44 19.5t-33.5 43.5t-13.5 76.5v567zM99 422h-63v79h63v22q0 63 21 100t50.5 56.5t62.5 25.5t57 6q17 0 37 -3v-84q-8 2 -25 2q-14 0 -32.5 -3t-35 -14t-27.5 -31.5
t-11 -55.5v-21h119v-79h-119v-422h-97v422z" />
    <glyph glyph-name="uniFB03" unicode="ffi" horiz-adv-x="919" 
d="M98 428h-63v78h63v17q0 63 21 100t50.5 56.5t62.5 25.5t57 6q17 0 37 -3v-84q-8 2 -25 2q-14 0 -32.5 -3t-35 -14t-27.5 -31.5t-11 -55.5v-16h241v17q0 63 21 100t50.5 56.5t62.5 25.5t57 6q17 0 37 -3v-84q-8 2 -25 2q-14 0 -32.5 -3t-35 -14t-27.5 -31.5t-11 -55.5v-16
h312v-506h-96v428h-216v-428h-97v428h-241v-428h-97v428zM747 706h100v-98h-100v98z" />
    <glyph glyph-name="uniFB04" unicode="ffl" horiz-adv-x="935" 
d="M98 428h-63v78h63v17q0 63 21 100t50.5 56.5t62.5 25.5t57 6q17 0 37 -3v-84q-8 2 -25 2q-14 0 -32.5 -3t-35 -14t-27.5 -31.5t-11 -55.5v-16h241v17q0 63 21 100t50.5 56.5t62.5 25.5t57 6q17 0 37 -3v-84q-8 2 -25 2q-14 0 -32.5 -3t-35 -14t-27.5 -31.5t-11 -55.5v-16
h119v-78h-119v-428h-97v428h-241v-428h-97v428zM742 706h97v-551q0 -45 16 -58.5t39 -13.5h8t9 1v-86q-5 -1 -13 -2t-19 -1q-21 0 -45 4.5t-44.5 19.5t-34 43.5t-13.5 76.5v567z" />
    <glyph glyph-name="f_j.liga" unicode="fj" horiz-adv-x="581" 
d="M98 428h-63v78h63v17q0 63 21 100t50.5 56.5t62.5 25.5t57 6q17 0 37 -3v-84q-8 2 -25 2q-14 0 -32.5 -3t-35 -14t-27.5 -31.5t-11 -55.5v-16h312v-523q0 -63 -21.5 -100.5t-52 -57t-63.5 -25.5t-56 -6q-9 0 -17.5 0.5t-16.5 1.5v83q4 -1 9 -1.5t13 -0.5q14 0 32.5 3.5
t35.5 15.5t29 34t12 59v439h-216v-428h-97v428zM409 706h99v-98h-99v98z" />
    <glyph glyph-name=".notdef" horiz-adv-x="510" 
d="M5 700h500v-700h-500v700zM425 650h-340l170 -255zM455 95v510l-170 -255zM225 350l-170 255v-510zM425 50l-170 255l-170 -255h340z" />
    <glyph glyph-name=".null" horiz-adv-x="0" 
 />
    <glyph glyph-name="nonmarkingreturn" horiz-adv-x="333" 
 />
    <glyph glyph-name="space" unicode=" " horiz-adv-x="250" 
 />
    <glyph glyph-name="exclam" unicode="!" horiz-adv-x="275" 
d="M87 706h100l-7 -512h-87zM87 99h100v-99h-100v99z" />
    <glyph glyph-name="quotedbl" unicode="&#x22;" horiz-adv-x="365" 
d="M215 718h76v-188h-76v188zM74 718h77v-188h-77v188z" />
    <glyph glyph-name="numbersign" unicode="#" horiz-adv-x="721" 
d="M174 191h-131l13 73h131l30 169h-130l12 73h130l35 200h81l-35 -200h155l35 200h81l-35 -200h131l-13 -73h-130l-30 -169h129l-12 -73h-129l-34 -191h-81l33 191h-155l-33 -191h-81zM423 264l30 169h-156l-29 -169h155z" />
    <glyph glyph-name="dollar" unicode="$" horiz-adv-x="577" 
d="M115 156q16 -16 37 -30t44.5 -24t48.5 -16t50 -6t47 7t38.5 20t26.5 32.5t10 44.5q0 36 -25.5 60.5t-64 44t-83.5 38.5t-83.5 44t-64 60.5t-25.5 89.5q0 36 13.5 69t38 58.5t58.5 43t76 23.5v94h70v-93q48 -3 91.5 -20t80.5 -50l-45 -81q-29 26 -71 44t-84 18
q-28 0 -51.5 -8.5t-40.5 -22.5t-26.5 -33t-9.5 -40q0 -35 25.5 -58t64 -41.5t83.5 -36.5t83.5 -43.5t64 -63t25.5 -93.5q0 -38 -13 -71.5t-37 -59.5t-59.5 -43.5t-80.5 -22.5v-92h-70v92q-54 5 -106.5 28t-90.5 63z" />
    <glyph glyph-name="percent" unicode="%" horiz-adv-x="763" 
d="M200 422q-32 0 -59.5 11.5t-47.5 31.5t-32 47t-12 58q0 30 12 57t32 47.5t47.5 32t59.5 11.5q31 0 59 -11.5t49 -32t33 -47.5t12 -57q0 -31 -12 -58t-33 -47t-49 -31.5t-59 -11.5zM605 706h94l-540 -706h-95zM200 496q32 0 53.5 21t21.5 53q0 31 -21.5 53t-53.5 22
q-31 0 -52 -22t-21 -53q0 -32 21 -53t52 -21zM412 135q0 31 12 58t32 47t47.5 32t59.5 12q31 0 59 -12t48.5 -32t32.5 -47t12 -58q0 -30 -12 -57t-32.5 -47t-48.5 -31.5t-59 -11.5q-32 0 -59.5 11.5t-47.5 31.5t-32 47t-12 57zM490 136q0 -31 20.5 -52.5t52.5 -21.5t53 21.5
t21 52.5t-21 53t-53 22t-52.5 -22t-20.5 -53z" />
    <glyph glyph-name="ampersand" unicode="&#x26;" horiz-adv-x="674" 
d="M56 197q0 30 8.5 58.5t24.5 52.5t39 42.5t52 27.5v2q-41 18 -67.5 57t-26.5 99q0 44 16.5 78t45.5 57t69 35t87 12q22 0 43 -3t43 -8l-25 -79q-11 3 -25 4.5t-28 1.5q-53 0 -89 -28t-36 -80q0 -17 5 -36t19 -36t39 -28t66 -11h131v96h98v-96h94v-86h-94v-94
q0 -118 -65.5 -182.5t-179.5 -64.5q-55 0 -100 16t-77 44t-49.5 66.5t-17.5 82.5zM157 203q0 -26 10 -48.5t28.5 -39t45 -26.5t59.5 -10q69 0 108 38.5t39 122.5v89h-134q-75 0 -115.5 -33t-40.5 -93z" />
    <glyph glyph-name="quotesingle" unicode="'" horiz-adv-x="226" 
d="M74 718h77v-188h-77v188z" />
    <glyph glyph-name="parenleft" unicode="(" horiz-adv-x="293" 
d="M169 -95q-54 91 -85 202.5t-31 232.5q0 109 30 207.5t86 187.5h85q-55 -92 -84 -191t-29 -205q0 -112 28 -221.5t85 -212.5h-85v0z" />
    <glyph glyph-name="parenright" unicode=")" horiz-adv-x="293" 
d="M39 -95q57 103 85 212.5t28 221.5q0 106 -29 205t-84 191h85q56 -89 86 -187.5t30 -207.5q0 -121 -31 -232.5t-85 -202.5h-85v0z" />
    <glyph glyph-name="asterisk" unicode="*" horiz-adv-x="495" 
d="M97 381l90 110v2l-137 37l27 85l133 -51l-8 142h91l-8 -142l134 50l27 -83l-137 -38v-2l89 -110l-72 -52l-78 118h-2l-76 -118z" />
    <glyph glyph-name="plus" unicode="+" horiz-adv-x="577" 
d="M24 324h224v246h82v-246h223v-78h-223v-246h-82v246h-224v78z" />
    <glyph glyph-name="comma" unicode="," horiz-adv-x="272" 
d="M97 105h102l-87 -206h-77z" />
    <glyph glyph-name="hyphen" unicode="-" horiz-adv-x="432" 
d="M70 328h292v-86h-292v86z" />
    <glyph glyph-name="period" unicode="." horiz-adv-x="244" 
d="M70 105h104v-105h-104v105z" />
    <glyph glyph-name="slash" unicode="/" horiz-adv-x="416" 
d="M292 744h86l-254 -786h-86z" />
    <glyph glyph-name="zero" unicode="0" horiz-adv-x="622" 
d="M311 -12q-71 0 -118.5 28.5t-77 78t-42 116t-12.5 143.5q0 76 12.5 142.5t42 115.5t77 77.5t118.5 28.5t119 -28.5t77 -77.5t41.5 -115.5t12.5 -142.5q0 -77 -12.5 -143.5t-41.5 -116t-77 -78t-119 -28.5zM311 79q43 0 72 21t45.5 58t23.5 87.5t7 108.5q0 57 -7 107
t-23.5 87t-45.5 58t-72 21t-71.5 -21t-45.5 -58t-24 -87t-7 -107q0 -58 7 -108.5t24 -87.5t45.5 -58t71.5 -21z" />
    <glyph glyph-name="one" unicode="1" horiz-adv-x="494" 
d="M57 86h156v456v30q0 7 1 13h-2q-3 -5 -7 -11q-8 -11 -27 -30l-66 -64l-60 62l169 164h88v-620h155v-86h-407v86z" />
    <glyph glyph-name="two" unicode="2" horiz-adv-x="573" 
d="M60 0q-2 14 -3.5 27.5t-1.5 26.5q0 63 25.5 109.5t64.5 83t83.5 66.5t83.5 59.5t64.5 61.5t25.5 74q0 52 -35.5 84.5t-92.5 32.5q-45 0 -82.5 -26t-60.5 -64l-73 49q15 28 37 52.5t50.5 42.5t63 28.5t73.5 10.5q48 0 89 -14.5t70.5 -41t46 -64t16.5 -83.5q0 -58 -25 -101
t-62.5 -77.5t-81.5 -62.5t-82 -56.5t-63.5 -60t-26.5 -71.5h352v-86h-455v0z" />
    <glyph glyph-name="three" unicode="3" horiz-adv-x="567" 
d="M98 159q29 -31 74.5 -54t96.5 -23q29 0 55.5 9.5t46 26.5t31 40.5t11.5 52.5q0 33 -13.5 57t-36 40.5t-52.5 24.5t-63 8h-48l-23 53l154 181q8 11 16 19l14 14q7 7 14 13v2q-6 -1 -15 -2q-8 -1 -19.5 -1h-25.5h-239v86h422v-63l-192 -222q35 -3 71.5 -16.5t66.5 -38.5
t49.5 -62.5t19.5 -89.5q0 -45 -17 -86t-48.5 -72t-76 -49.5t-98.5 -18.5q-63 0 -123.5 24.5t-105.5 71.5z" />
    <glyph glyph-name="four" unicode="4" horiz-adv-x="610" 
d="M34 251l327 455h112v-434h96v-83h-96v-189h-97v189h-342v62zM376 272v258q0 12 0.5 24.5t1.5 23.5q1 12 2 23h-2l-10 -20q-5 -9 -11.5 -19.5t-13.5 -19.5l-200 -268v-2h233z" />
    <glyph glyph-name="five" unicode="5" horiz-adv-x="563" 
d="M105 158q23 -28 61.5 -52t93.5 -24q31 0 59 10t49 29t33.5 45.5t12.5 58.5t-12 58.5t-33.5 46t-51 30t-63.5 10.5q-31 0 -62.5 -9t-56.5 -26l-58 21l35 350h357v-86h-271l-16 -149q-1 -8 -2 -14.5t-2 -11.5l-2 -10h2q13 7 39.5 14t52.5 7q56 0 101.5 -18t77.5 -49.5
t49.5 -73.5t17.5 -90q0 -51 -19 -94t-52.5 -75t-79.5 -50t-99 -18q-63 0 -120 25t-97 73z" />
    <glyph glyph-name="six" unicode="6" horiz-adv-x="597" 
d="M57 320q0 68 19 139t58 128.5t98.5 94t141.5 36.5q35 0 70.5 -7t67.5 -22l-32 -85q-17 9 -46.5 16t-55.5 7q-48 0 -85 -20.5t-63 -54t-41.5 -76t-21.5 -86.5h2q23 30 66 48t90 18q50 0 91 -17.5t70.5 -49t45.5 -74t16 -92.5q0 -51 -17 -94t-47 -74.5t-72 -49t-91 -17.5
q-56 0 -104.5 23.5t-84 67t-55.5 105t-20 136.5zM324 79q28 0 51.5 11t40 30.5t25.5 46t9 56.5q0 66 -38 108t-107 42q-28 0 -54 -7.5t-46 -21t-32 -32.5t-12 -43q0 -29 11.5 -62t32.5 -61.5t51 -47.5t68 -19z" />
    <glyph glyph-name="seven" unicode="7" horiz-adv-x="537" 
d="M367 555q8 15 15.5 27.5t12.5 20.5q6 10 12 17v2q-5 -1 -12 -1q-6 -1 -15 -1h-23h-316v86h472v-68l-318 -638h-103z" />
    <glyph glyph-name="eight" unicode="8" horiz-adv-x="603" 
d="M55 201q0 40 14 72.5t32.5 56.5t37.5 39.5t29 22.5q-35 24 -57 57.5t-22 81.5q0 36 13.5 70t40.5 60t68.5 41.5t97.5 15.5q49 0 90 -13.5t70 -38t45.5 -59t16.5 -77.5q0 -33 -10.5 -63.5t-24.5 -54.5t-28 -41.5t-22 -25.5q42 -25 69 -60t27 -90q0 -41 -17 -78.5
t-48.5 -66t-76.5 -45.5t-100 -17q-52 0 -97 16t-78 44.5t-51.5 67.5t-18.5 85zM370 383q6 6 16.5 19t21 31t18.5 40.5t8 48.5q0 51 -35 79t-92 28q-58 0 -89 -28.5t-31 -69.5q0 -30 16 -51.5t42.5 -38t59 -30t65.5 -28.5zM156 209q0 -30 12 -54t32 -41.5t46 -27t53 -9.5
q28 0 54 8.5t45.5 24.5t31 38t11.5 49q0 30 -18 51.5t-47 38t-64.5 31t-69.5 31.5q-9 -6 -23.5 -18t-28.5 -29.5t-24 -40.5t-10 -52z" />
    <glyph glyph-name="nine" unicode="9" horiz-adv-x="597" 
d="M116 103q18 -9 45 -16.5t56 -7.5q49 0 86 20.5t63 54t41.5 76t21.5 86.5h-2q-22 -30 -65.5 -48t-90.5 -18q-50 0 -91.5 18t-70.5 49t-45 73.5t-16 91.5q0 52 17 95.5t47 74.5t71.5 48.5t91.5 17.5q57 0 105 -23.5t83.5 -67t55.5 -105t20 -137.5q0 -68 -19 -138.5
t-58 -128t-99 -94t-142 -36.5q-34 0 -69.5 6.5t-67.5 22.5zM291 333q30 0 56.5 8.5t46 22.5t31 31.5t11.5 36.5q0 34 -12.5 69t-34 63t-50.5 45.5t-63 17.5q-30 0 -54 -11t-40.5 -30.5t-25.5 -46t-9 -57.5q0 -65 38 -107t106 -42z" />
    <glyph glyph-name="colon" unicode=":" horiz-adv-x="242" 
d="M70 506h102v-103h-102v103zM70 103h102v-103h-102v103z" />
    <glyph glyph-name="semicolon" unicode=";" horiz-adv-x="288" 
d="M108 506h100v-103h-100v103zM106 105h100l-76 -206h-77z" />
    <glyph glyph-name="less" unicode="&#x3c;" horiz-adv-x="577" 
d="M42 318l466 208v-89l-357 -151v-2l357 -151v-89l-466 208v66z" />
    <glyph glyph-name="equal" unicode="=" horiz-adv-x="577" 
d="M50 418h477v-78h-477v78zM50 229h477v-78h-477v78z" />
    <glyph glyph-name="greater" unicode="&#x3e;" horiz-adv-x="577" 
d="M68 133l357 151v2l-357 151v89l466 -208v-66l-466 -208v89z" />
    <glyph glyph-name="question" unicode="?" horiz-adv-x="466" 
d="M151 241q0 38 12.5 66t31.5 50t40.5 40.5t40.5 38t31.5 42t12.5 52.5q0 21 -8.5 39t-23.5 31.5t-36 21t-46 7.5q-31 0 -60.5 -11.5t-52.5 -30.5l-54 69q29 26 74.5 45t99.5 19q42 0 80 -13t66.5 -37t45.5 -57.5t17 -75.5q0 -41 -13 -71t-33 -53.5t-42.5 -43t-42.5 -39
t-33 -42.5t-13 -53v-41h-94v47zM148 99h100v-99h-100v99z" />
    <glyph glyph-name="at" unicode="@" horiz-adv-x="796" 
d="M56 241q0 77 28.5 144.5t77.5 117.5t115.5 79t143.5 29q72 0 122 -17t80.5 -45t44 -64.5t13.5 -76.5v-283h72v-73h-273q-47 0 -85 15.5t-65 41t-42 59.5t-15 72q0 37 14.5 71.5t41.5 60t65.5 41t85.5 15.5h108q-1 43 -42.5 73t-119.5 30q-58 0 -108 -23.5t-86.5 -63.5
t-57.5 -92.5t-21 -110.5q0 -59 20.5 -111.5t58 -91.5t89.5 -61.5t116 -22.5v-79q-84 0 -154 28.5t-120.5 78t-78.5 116t-28 143.5zM371 242q0 -24 8.5 -45.5t24 -37.5t37 -25t46.5 -9h101v236h-99q-26 0 -47.5 -9.5t-37.5 -25.5t-24.5 -38t-8.5 -46z" />
    <glyph glyph-name="A" unicode="A" horiz-adv-x="641" 
d="M268 706h105l253 -706h-102l-71 203h-266l-71 -203h-101zM427 285l-78 223q-5 14 -10 31t-9 33q-5 18 -9 37h-2q-5 -19 -9 -37q-4 -16 -8.5 -33t-9.5 -31l-79 -223h214z" />
    <glyph glyph-name="B" unicode="B" horiz-adv-x="624" 
d="M93 706h247q45 0 82.5 -12t65 -35t42.5 -56.5t15 -76.5q0 -52 -23.5 -91.5t-64.5 -60.5v-2q57 -17 87 -64t30 -107q0 -50 -18 -87.5t-49.5 -63t-73 -38t-87.5 -12.5h-253v706zM340 409q48 0 76 30t28 77t-27 75.5t-78 28.5h-147v-211h148zM351 86q57 0 89 33t32 88
q0 54 -32.5 87t-88.5 33h-159v-241h159z" />
    <glyph glyph-name="C" unicode="C" horiz-adv-x="717" 
d="M50 357q0 77 26.5 143t74 114.5t113.5 76t145 27.5q34 0 69 -5.5t68.5 -16.5t64 -29t56.5 -42l-50 -74q-39 35 -94 56t-110 21q-62 0 -110 -21t-82 -58t-51.5 -86t-17.5 -105t18 -107t52 -89t82.5 -60.5t110.5 -22.5q60 0 117 24.5t100 67.5l53 -71q-23 -23 -50.5 -43
t-61.5 -35.5t-74 -24.5t-87 -9q-82 0 -149 28.5t-114 78.5t-73 117t-26 145z" />
    <glyph glyph-name="D" unicode="D" horiz-adv-x="737" 
d="M93 706h235q81 0 146.5 -23.5t112.5 -68.5t72.5 -110.5t25.5 -149.5t-25.5 -150t-72.5 -111t-112.5 -69t-146.5 -24h-235v706zM321 86q59 0 107.5 17.5t83 51t53 83.5t18.5 116q0 65 -19 114.5t-53.5 83.5t-82.5 51t-107 17h-129v-534h129z" />
    <glyph glyph-name="E" unicode="E" horiz-adv-x="564" 
d="M93 706h411v-86h-312v-221h253v-86h-253v-227h329v-86h-428v706z" />
    <glyph glyph-name="F" unicode="F" horiz-adv-x="514" 
d="M93 706h389v-86h-290v-233h247v-86h-247v-301h-99v706z" />
    <glyph glyph-name="G" unicode="G" horiz-adv-x="762" 
d="M50 354q0 76 27.5 142.5t75.5 116t114 77.5t143 28q69 0 136 -20.5t121 -65.5l-50 -73q-18 15 -41 27.5t-49.5 22t-54.5 14.5t-55 5q-62 0 -111 -21.5t-83.5 -58.5t-52.5 -86.5t-18 -105.5q0 -61 20 -112t54.5 -87.5t82 -57t102.5 -20.5q57 0 109.5 24t90.5 64v102h-114
v86h205v-355h-87v44v21q0 5 1 9h-2q-36 -38 -93.5 -62t-123.5 -24q-71 0 -134.5 27t-110.5 75t-74.5 115.5t-27.5 148.5z" />
    <glyph glyph-name="H" unicode="H" horiz-adv-x="750" 
d="M93 706h99v-310h367v310h98v-706h-98v310h-367v-310h-99v706z" />
    <glyph glyph-name="I" unicode="I" horiz-adv-x="286" 
d="M93 706h99v-706h-99v706z" />
    <glyph glyph-name="J" unicode="J" horiz-adv-x="533" 
d="M28 238h98v-30q0 -26 6 -49t19.5 -41t34.5 -28.5t51 -10.5q21 0 41 6.5t35.5 21.5t25 38.5t9.5 58.5v416h-178v86h276v-503q0 -57 -18 -98t-47.5 -67t-67 -38t-76.5 -12t-76.5 12t-67 38.5t-47.5 67t-18 97.5v35z" />
    <glyph glyph-name="K" unicode="K" horiz-adv-x="614" 
d="M93 706h99v-297h105l179 297h109l-206 -335v-2l219 -369h-113l-188 323h-105v-323h-99v706z" />
    <glyph glyph-name="L" unicode="L" horiz-adv-x="526" 
d="M93 706h99v-620h317v-86h-416v706z" />
    <glyph glyph-name="M" unicode="M" horiz-adv-x="851" 
d="M124 706h103l163 -382q6 -15 12 -31.5t11 -30.5q5 -17 11 -33h2q5 16 11 33q5 14 11.5 30.5t12.5 31.5l163 382h103l57 -706h-98l-34 445q-2 16 -2.5 34t-0.5 34q0 18 1 36h-2q-7 -19 -13 -37q-6 -16 -12.5 -34.5t-12.5 -32.5l-141 -318h-88l-140 318q-6 14 -13 32
t-12 35q-7 19 -13 39h-2v-37v-34.5t-2 -34.5l-34 -445h-99z" />
    <glyph glyph-name="N" unicode="N" horiz-adv-x="752" 
d="M93 706h98l315 -458l19.5 -32.5t18.5 -33.5q10 -18 20 -37h2q-2 18 -3 36q-2 16 -2.5 34t-0.5 33v458h98v-706h-97l-315 458q-10 14 -20 32t-18 34q-10 18 -20 37h-2q1 -19 3 -37q1 -16 2 -33.5t1 -32.5v-458h-99v706z" />
    <glyph glyph-name="O" unicode="O" horiz-adv-x="823" 
d="M49 358q0 76 27 142t75.5 114.5t115 76t145.5 27.5t145.5 -27.5t114.5 -76t75 -114.5t27 -142q0 -78 -27 -145.5t-75 -117.5t-114.5 -78.5t-145.5 -28.5t-145.5 28.5t-115 78.5t-75.5 117.5t-27 145.5zM151 358q0 -59 19.5 -110t54.5 -88.5t82.5 -59t104.5 -21.5
q56 0 104 21.5t82.5 59t54 88.5t19.5 110q0 57 -19.5 106.5t-54 86t-82.5 57t-104 20.5q-57 0 -104.5 -20.5t-82.5 -57t-54.5 -86t-19.5 -106.5z" />
    <glyph glyph-name="P" unicode="P" horiz-adv-x="606" 
d="M93 706h259q48 0 89 -15.5t70 -44.5t45.5 -70t16.5 -91t-16.5 -91.5t-45.5 -71t-70 -45.5t-89 -16h-160v-261h-99v706zM336 347q63 0 100 37t37 101q0 63 -36.5 99t-99.5 36h-145v-273h144z" />
    <glyph glyph-name="Q" unicode="Q" horiz-adv-x="824" 
d="M50 357q0 76 27 142t75.5 115t114.5 76.5t144 27.5q79 0 146 -27.5t115 -76.5t75 -115t27 -142q0 -67 -22 -126.5t-60 -106.5l83 -80l-58 -62l-82 83q-46 -38 -102 -57.5t-122 -19.5q-79 0 -145 29t-114 79t-75 117t-27 144zM152 357q0 -59 20 -109.5t54.5 -88t82 -59
t102.5 -21.5q42 0 82.5 13t71.5 39l-83 81l57 62l81 -83q25 35 38.5 77.5t13.5 88.5q0 58 -20 107.5t-55 86t-82.5 57t-103.5 20.5q-55 0 -102.5 -20.5t-82 -57t-54.5 -86t-20 -107.5z" />
    <glyph glyph-name="R" unicode="R" horiz-adv-x="628" 
d="M93 706h224q51 0 80 -4.5t51 -14.5q51 -23 81.5 -70t30.5 -115t-34 -121t-92 -73v-2q1 -4 5 -8q2 -4 6 -10t9 -14l150 -274h-112l-149 281h-151v-281h-99v706zM334 367q58 0 92 35.5t34 94.5q0 38 -16.5 67.5t-49.5 43.5q-14 6 -32.5 9t-52.5 3h-117v-253h142z" />
    <glyph glyph-name="S" unicode="S" horiz-adv-x="545" 
d="M97 156q32 -31 79.5 -53.5t98.5 -22.5q56 0 90 27.5t34 73.5q0 39 -25.5 64t-63 44.5t-82 38t-82 43t-63 60.5t-25.5 91q0 45 17.5 81t48.5 61.5t73.5 39.5t91.5 14q53 0 105.5 -17.5t91.5 -54.5l-45 -81q-29 27 -71.5 44.5t-84.5 17.5q-54 0 -90.5 -27t-36.5 -73
q0 -38 25 -62t63 -42.5t82 -36t82 -42.5t63 -61.5t25 -93.5q0 -42 -15 -78.5t-43.5 -63.5t-70.5 -43t-96 -16q-64 0 -125 24t-107 69z" />
    <glyph glyph-name="T" unicode="T" horiz-adv-x="615" 
d="M258 620h-243v86h584v-86h-243v-620h-98v620z" />
    <glyph glyph-name="U" unicode="U" horiz-adv-x="726" 
d="M85 706h99v-455q0 -82 49 -127t130 -45t129.5 45t48.5 128v454h99v-456q0 -59 -20 -107.5t-56 -83t-87 -53t-113 -18.5t-113.5 18.5t-88.5 53t-57 83t-20 107.5v456z" />
    <glyph glyph-name="V" unicode="V" horiz-adv-x="644" 
d="M12 706h106l176 -499q5 -14 9.5 -31.5t8.5 -31.5q4 -18 9 -34h2q5 16 9 34q4 14 8.5 31.5t9.5 31.5l177 499h105l-258 -706h-104z" />
    <glyph glyph-name="W" unicode="W" horiz-adv-x="941" 
d="M29 706h104l123 -518q3 -14 5.5 -27.5t4.5 -24.5q2 -12 4 -23h2q1 11 4 23q2 11 5 24t7 28l139 518h87l138 -518q4 -15 7 -28t5 -24q3 -12 4 -23h2q1 11 3 23q2 11 4 24.5t6 27.5l131 518h102l-186 -706h-113l-124 458q-5 17 -8.5 35t-6.5 32q-4 17 -6 32h-4
q-2 -15 -6 -32q-3 -14 -7 -32t-9 -35l-123 -458h-114z" />
    <glyph glyph-name="X" unicode="X" horiz-adv-x="598" 
d="M238 364l-208 342h113l111 -191q8 -14 15.5 -29t14.5 -27q8 -14 15 -28h2q6 13 13 27l13.5 27t16.5 30l112 191h114l-210 -342l223 -364h-111l-129 217q-8 14 -16 29t-14 26l-14 26h-2q-6 -13 -13 -26q-6 -11 -14 -26t-16 -29l-128 -217h-110z" />
    <glyph glyph-name="Y" unicode="Y" horiz-adv-x="592" 
d="M247 299l-237 407h112l130 -232q8 -16 15.5 -31.5t13.5 -28.5q7 -15 14 -29h2q6 14 13 29q13 27 30 60l130 232h112l-237 -407v-299h-98v299z" />
    <glyph glyph-name="Z" unicode="Z" horiz-adv-x="594" 
d="M36 66l339 490q10 15 19.5 27t16.5 20q8 10 15 17v2q-6 -1 -14 -1q-7 -1 -16.5 -1h-21.5h-321v86h496v-65l-340 -491q-10 -15 -19 -27t-16 -20q-8 -10 -15 -17v-2q5 0 13 1q7 0 16.5 0.5t22.5 0.5h342v-86h-517v66z" />
    <glyph glyph-name="bracketleft" unicode="[" horiz-adv-x="301" 
d="M86 735h166v-73h-81v-683h81v-74h-166v830z" />
    <glyph glyph-name="backslash" unicode="\" horiz-adv-x="416" 
d="M38 744h86l254 -786h-86z" />
    <glyph glyph-name="bracketright" unicode="]" horiz-adv-x="301" 
d="M130 -21v683h-81v73h166v-830h-166v74h81z" />
    <glyph glyph-name="asciicircum" unicode="^" horiz-adv-x="612" 
d="M269 706h63l200 -459h-88l-144 352l-143 -352h-88z" />
    <glyph glyph-name="underscore" unicode="_" horiz-adv-x="597" 
d="M568 0v-78h-539v78h539z" />
    <glyph glyph-name="grave" unicode="`" horiz-adv-x="499" 
d="M161 882h104l73 -127h-82z" />
    <glyph glyph-name="a" unicode="a" horiz-adv-x="527" 
d="M33 138q0 40 15 68.5t40 48t56.5 31.5t65.5 18.5t66.5 8.5t58.5 2h26v10q0 31 -8.5 52.5t-23.5 34.5t-35 18.5t-44 5.5q-38 0 -74.5 -13.5t-67.5 -35.5l-39 71q31 26 83 43t106 17q96 0 148 -50.5t52 -147.5v-320h-91v51v16t1 13q1 6 2 11h-2q-22 -44 -65.5 -73.5
t-100.5 -29.5q-33 0 -63.5 10t-54 29.5t-37.5 47t-14 63.5zM130 146q0 -30 24 -55.5t71 -25.5q32 0 57 14.5t42.5 38t27 52t9.5 56.5v19h-25q-27 0 -62.5 -2.5t-67.5 -12t-54 -29.5t-22 -55z" />
    <glyph glyph-name="b" unicode="b" horiz-adv-x="601" 
d="M75 706h97v-234q0 -10 -0.5 -17.5t-1.5 -13.5q-1 -7 -2 -12h2q23 41 67 65t97 24q51 0 92.5 -19.5t70 -54.5t44 -83.5t15.5 -107.5q0 -60 -17 -109t-47.5 -83.5t-73 -53.5t-92.5 -19t-93 24t-68 67h-2q0 -4 1 -10q1 -5 1.5 -12.5t0.5 -15.5v-41h-91v706zM169 251
q0 -34 9 -66t26.5 -57t44.5 -40.5t63 -15.5q30 0 56.5 12t46.5 35t31.5 56.5t11.5 76.5q0 41 -10.5 74.5t-29.5 57t-45.5 36.5t-57.5 13q-29 0 -55 -10.5t-46.5 -32.5t-32.5 -56.5t-12 -82.5z" />
    <glyph glyph-name="c" unicode="c" horiz-adv-x="545" 
d="M42 253q0 56 20 104.5t56 84t85.5 56t109.5 20.5q51 0 102.5 -18t87.5 -56l-46 -68q-26 26 -63 42t-77 16q-38 0 -70.5 -13.5t-56 -37.5t-36.5 -57t-13 -72t13 -72t37 -57.5t57 -38.5t72 -14q42 0 84.5 18.5t71.5 49.5l39 -71q-35 -37 -88.5 -59t-113.5 -22t-110 20
t-85.5 55.5t-55.5 84t-20 105.5z" />
    <glyph glyph-name="d" unicode="d" horiz-adv-x="601" 
d="M44 253q0 60 17 109t47.5 83.5t72.5 53.5t92 19q48 0 90.5 -21t66.5 -62h2q-1 5 -1 10q-1 5 -1 10.5v13.5v237h96v-706h-92v51v13.5t1 10.5l2 10h-2q-22 -42 -65 -69.5t-103 -27.5q-51 0 -92 19.5t-70.5 54.5t-45 83.5t-15.5 107.5zM143 253q0 -41 10.5 -74.5t29.5 -57
t45 -36.5t58 -13q28 0 54.5 10.5t46.5 32.5t32.5 56.5t12.5 82.5q0 34 -9 66.5t-27 57.5t-45 40t-63 15q-30 0 -56 -12t-46 -35t-31.5 -56.5t-11.5 -76.5z" />
    <glyph glyph-name="e" unicode="e" horiz-adv-x="557" 
d="M42 253q0 60 19.5 109t53.5 83.5t80.5 53.5t100.5 19t94.5 -19t68.5 -51t42 -75t14 -92q0 -10 -1 -20t-3 -21h-368q2 -41 16.5 -72.5t38 -52.5t54.5 -32t65 -11q41 0 80 16t69 43l41 -71q-37 -34 -90 -53t-106 -19q-60 0 -109.5 20.5t-85 56t-55 84t-19.5 104.5zM417 310
q-1 33 -11 57.5t-26.5 41.5t-38.5 25.5t-47 8.5q-57 0 -97 -35t-51 -98h271z" />
    <glyph glyph-name="f" unicode="f" horiz-adv-x="339" 
d="M99 422h-63v79h63v22q0 63 21 100t50.5 56.5t62.5 25.5t57 6q17 0 37 -3v-84q-8 2 -25 2q-14 0 -32.5 -3t-35 -14t-27.5 -31.5t-11 -55.5v-21h119v-79h-119v-422h-97v422z" />
    <glyph glyph-name="g" unicode="g" horiz-adv-x="594" 
d="M123 -92q30 -15 66 -24.5t73 -9.5q33 0 62 8t51 25t34.5 43.5t12.5 64.5v41v11.5t1 10.5l2 10h-2q-23 -38 -60 -60t-92 -22q-53 0 -95 20t-71 54.5t-44.5 82t-15.5 101.5q0 55 14.5 101.5t43 80.5t69.5 53t94 19q47 0 91.5 -18.5t68.5 -58.5h3q-1 1 -2 4t-1 11v50h93
v-485q0 -63 -22 -106.5t-57.5 -71.5t-81.5 -40.5t-94 -12.5q-46 0 -90.5 11.5t-82.5 30.5zM143 267q0 -79 39 -128t108 -49q26 0 50.5 8.5t43 29t29.5 53.5t11 83q0 49 -11 82t-30.5 52.5t-45.5 27.5t-56 8q-66 0 -102 -44.5t-36 -122.5z" />
    <glyph glyph-name="h" unicode="h" horiz-adv-x="603" 
d="M75 706h97v-262q0 -9 -0.5 -17t-1.5 -13q-1 -7 -2 -12h2q9 18 25.5 38.5t40.5 37.5t55 28.5t69 11.5q90 0 131.5 -48.5t41.5 -145.5v-324h-97v302q0 27 -3.5 50t-13.5 40t-29 27t-49 10q-37 0 -68 -14t-53.5 -39.5t-35 -60t-12.5 -75.5v-240h-97v706z" />
    <glyph glyph-name="i" unicode="i" horiz-adv-x="246" 
d="M73 706h100v-98h-100v98zM75 506h97v-506h-97v506z" />
    <glyph glyph-name="j" unicode="j" horiz-adv-x="246" 
d="M73 706h100v-98h-100v98zM75 506h97v-523q0 -63 -21.5 -100.5t-52 -57t-63.5 -25.5t-57 -6q-8 0 -16.5 0.5t-17.5 1.5v83q10 -2 22 -2q14 0 33 3.5t36 15.5t28.5 34t11.5 59v517z" />
    <glyph glyph-name="k" unicode="k" horiz-adv-x="522" 
d="M75 706h97v-386h72l137 186h110l-168 -223v-2l187 -281h-113l-151 237h-74v-237h-97v706z" />
    <glyph glyph-name="l" unicode="l" horiz-adv-x="267" 
d="M75 706h96v-551q0 -45 16 -58.5t39 -13.5h7.5t9.5 1v-86q-5 -1 -13 -2t-19 -1q-21 0 -45 4.5t-44 19.5t-33.5 43.5t-13.5 76.5v567z" />
    <glyph glyph-name="m" unicode="m" horiz-adv-x="914" 
d="M75 506h94v-69q0 -8 -0.5 -15t-1.5 -12q-1 -6 -1 -11h2q9 22 26.5 43.5t40.5 38t51 27t58 10.5q125 0 151 -115h2q10 22 28 43t41.5 37t51.5 25.5t59 9.5q87 0 127 -48.5t40 -145.5v-324h-97v303q0 27 -3.5 50t-13 40t-27 27t-45.5 10q-35 0 -63 -16.5t-47.5 -44
t-29.5 -62.5t-10 -71v-236h-97v303q0 25 -3 48t-12 40.5t-26 28t-46 10.5q-36 0 -64.5 -17t-48 -44.5t-29.5 -62.5t-10 -70v-236h-97v506z" />
    <glyph glyph-name="n" unicode="n" horiz-adv-x="603" 
d="M75 506h94v-69q0 -8 -0.5 -15t-1.5 -12q-1 -6 -1 -11h2q7 16 22.5 37t39 39t56 30.5t74.5 12.5q90 0 131.5 -48.5t41.5 -145.5v-324h-97v302q0 27 -3.5 50t-13.5 40t-29 27t-49 10q-37 0 -68 -14.5t-53.5 -39.5t-35 -59t-12.5 -73v-243h-97v506z" />
    <glyph glyph-name="o" unicode="o" horiz-adv-x="629" 
d="M42 254q0 57 21.5 105.5t58.5 84t86.5 55t105.5 19.5q57 0 106.5 -19.5t86.5 -55t58.5 -84t21.5 -105.5q0 -58 -21.5 -106.5t-58.5 -84t-86.5 -55.5t-105.5 -20q-57 0 -106.5 20t-86.5 55.5t-58.5 84t-21.5 106.5zM141 254q0 -40 13.5 -73.5t37.5 -57.5t55.5 -37.5
t67.5 -13.5t67.5 13.5t55 37.5t37.5 57.5t14 73.5q0 39 -14 72t-37.5 57t-55 37.5t-67.5 13.5t-67.5 -13.5t-55.5 -37.5t-37.5 -57t-13.5 -72z" />
    <glyph glyph-name="p" unicode="p" horiz-adv-x="601" 
d="M75 506h90v-45q0 -8 -0.5 -15t-1.5 -12q-1 -6 -1 -11h2q24 46 69 70.5t101 24.5q51 0 92.5 -19.5t70 -54.5t44 -83.5t15.5 -107.5q0 -60 -17 -109t-47.5 -83.5t-72.5 -53.5t-92 -19q-48 0 -89.5 22.5t-67.5 63.5h-2q1 -5 2 -12q1 -6 1.5 -14t0.5 -18v-230h-97v706z
M169 251q0 -34 9.5 -66t27.5 -57t44.5 -40.5t61.5 -15.5q30 0 56.5 12t46.5 35t31.5 56.5t11.5 76.5q0 41 -10.5 74.5t-29.5 57t-45.5 36.5t-57.5 13q-29 0 -55 -10.5t-46.5 -32.5t-32.5 -56.5t-12 -82.5z" />
    <glyph glyph-name="q" unicode="q" horiz-adv-x="601" 
d="M44 253q0 60 17 109t47.5 83.5t72.5 53.5t92 19t93.5 -23t67.5 -65h2q-1 5 -1 10q-1 5 -1 11v14v41h92v-706h-96v234v18t1 14q0 7 1 12h-2q-10 -18 -25.5 -34t-36 -28.5t-46 -20t-55.5 -7.5q-51 0 -92 19.5t-70.5 54.5t-45 83.5t-15.5 107.5zM143 253q0 -41 10.5 -74.5
t29.5 -57t45 -36.5t58 -13q28 0 54.5 10.5t46.5 32.5t32.5 56.5t12.5 82.5q0 34 -9 66.5t-27 57.5t-45 40t-63 15q-30 0 -56 -12t-46 -35t-31.5 -56.5t-11.5 -76.5z" />
    <glyph glyph-name="r" unicode="r" horiz-adv-x="376" 
d="M75 506h94v-91q0 -8 -0.5 -14.5t-1.5 -11.5q-1 -6 -1 -11h2q9 27 24.5 51.5t36 43t46 29t54.5 10.5q7 0 13.5 -0.5t12.5 -1.5v-96q-3 1 -11.5 1.5t-16.5 0.5q-41 0 -70.5 -18.5t-48 -48t-27.5 -66t-9 -73.5v-210h-97v506z" />
    <glyph glyph-name="s" unicode="s" horiz-adv-x="447" 
d="M78 128q29 -28 69 -43.5t80 -15.5q38 0 62 17t24 49q0 24 -19.5 39.5t-48 28t-62.5 25t-62.5 31t-48 45t-19.5 68.5q0 36 14.5 63.5t39.5 45.5t58 27.5t70 9.5q44 0 87.5 -13t76.5 -43l-39 -70q-23 21 -58.5 33t-69.5 12q-37 0 -61.5 -15.5t-24.5 -47.5q0 -25 19.5 -40.5
t48.5 -28t62.5 -24.5t62.5 -30t48.5 -45t19.5 -69q0 -32 -13.5 -59.5t-37.5 -47.5t-57.5 -31t-73.5 -11q-51 0 -103 18t-90 56z" />
    <glyph glyph-name="t" unicode="t" horiz-adv-x="349" 
d="M96 422h-66v79h68v144h95v-144h122v-79h-122v-226q0 -38 11.5 -60.5t28.5 -34.5t35.5 -15.5t32.5 -3.5h10t13 2v-86q-6 -1 -14.5 -2t-19.5 -1q-24 0 -57.5 6t-64 25.5t-51.5 57.5t-21 101v237z" />
    <glyph glyph-name="u" unicode="u" horiz-adv-x="597" 
d="M69 506h97v-302q0 -26 3.5 -49t14 -40t29 -27t48.5 -10q39 0 69.5 16t52 42t32.5 60.5t11 72.5v237h96v-506h-94v70q0 8 0.5 14.5t1.5 11.5q1 6 2 11h-2q-8 -19 -24.5 -40t-40.5 -38.5t-55 -29t-68 -11.5q-86 0 -129.5 46.5t-43.5 147.5v324z" />
    <glyph glyph-name="v" unicode="v" horiz-adv-x="528" 
d="M19 506h103l123 -342q3 -11 6.5 -22.5t5.5 -22.5l6 -24h2q2 12 5 24q2 11 5 22.5t7 22.5l123 342h102l-187 -506h-111z" />
    <glyph glyph-name="w" unicode="w" horiz-adv-x="828" 
d="M24 506h103l105 -355q3 -10 5 -19.5t4 -17.5q2 -9 4 -17h2q1 8 4 17q2 8 4.5 17.5t5.5 19.5l109 354h90l109 -354q2 -10 4.5 -19.5t4.5 -17.5q2 -9 4 -17h2q1 8 3 17q2 8 4.5 17.5t5.5 19.5l106 355h101l-162 -506h-108l-104 325q-4 10 -6.5 19.5t-4.5 17.5q-3 9 -4 18
h-2l-4 -18q-2 -8 -4.5 -17.5t-5.5 -19.5l-104 -325h-108z" />
    <glyph glyph-name="x" unicode="x" horiz-adv-x="499" 
d="M190 260l-163 246h111l94 -154q2 -5 5.5 -10t5.5 -10l5 -10h2l6 10q2 5 5 10l6 10l94 154h111l-163 -246l173 -260h-110l-106 169q-3 5 -6 9.5t-5 8.5q-3 4 -5 9h-2q-2 -5 -5 -9q-2 -4 -4.5 -8.5t-5.5 -9.5l-106 -169h-110z" />
    <glyph glyph-name="y" unicode="y" horiz-adv-x="535" 
d="M50 -105q8 -7 18 -11q8 -5 18.5 -8t21.5 -3q30 0 54 20t38 55l25 58l-212 500h109l127 -331q4 -10 7 -20.5t6 -19.5q3 -11 6 -21h2l5 20q2 9 5 19.5t7 20.5l123 332h105l-238 -597q-23 -60 -66.5 -89.5t-97.5 -29.5q-21 0 -39 4.5t-31 10.5q-15 7 -27 16l34 74v0z" />
    <glyph glyph-name="z" unicode="z" horiz-adv-x="511" 
d="M36 56l256 320q8 10 15 19t13 15l13 13v2q-5 -1 -12 -1q-6 -1 -15.5 -1h-21.5h-237v83h417v-56l-255 -320q-18 -23 -29 -34q-7 -7 -14 -13v-2q6 0 13 1q6 1 15 1.5t22 0.5h257v-84h-437v56z" />
    <glyph glyph-name="braceleft" unicode="{" horiz-adv-x="355" 
d="M126 173q0 43 -21 72t-64 37v86q40 8 62.5 36t22.5 75v84q0 59 18.5 93.5t44.5 52.5t53.5 23t45.5 5q5 0 9.5 -0.5t7.5 -0.5h6v-74h-13q-10 0 -24.5 -3t-28.5 -13.5t-24 -31.5t-10 -57v-103q0 -44 -21.5 -78t-59.5 -49v-2q35 -14 58 -45t23 -82v-115q0 -36 10 -57
t24 -31.5t28.5 -13.5t24.5 -3h13v-74q-2 -1 -6 -1q-4 -1 -17 -1q-18 0 -45.5 5t-53.5 23t-44.5 52.5t-18.5 94.5v96z" />
    <glyph glyph-name="bar" unicode="|" horiz-adv-x="254" 
d="M84 792h85v-951h-85v951z" />
    <glyph glyph-name="braceright" unicode="}" horiz-adv-x="355" 
d="M58 -22q9 0 24 3t28.5 13.5t23.5 31.5t10 57v115q0 44 20.5 78.5t60.5 48.5v2q-32 12 -56.5 45.5t-24.5 81.5v103q0 36 -10 57t-23.5 31.5t-28.5 13.5t-24 3h-14v74h6q3 0 7.5 0.5t9.5 0.5q18 0 45.5 -5t53.5 -23t44.5 -52.5t18.5 -93.5v-84q0 -42 21 -73t64 -38v-86
q-42 -5 -63.5 -36t-21.5 -73v-96q0 -60 -18.5 -94.5t-44.5 -52.5t-53.5 -23t-45.5 -5q-13 0 -17 1q-4 0 -6 1v74h14z" />
    <glyph glyph-name="asciitilde" unicode="~" horiz-adv-x="611" 
d="M68 204q0 88 37 128.5t103 40.5q39 0 63.5 -15.5t43.5 -33.5t37.5 -33.5t46.5 -15.5q20 0 33 9t20.5 22.5t10.5 30t3 32.5h79q0 -88 -37 -128.5t-102 -40.5q-39 0 -63.5 15t-43.5 33.5t-38 33.5t-48 15q-19 0 -31.5 -9t-20 -22.5t-10.5 -30t-3 -31.5h-80v0z" />
    <glyph glyph-name="uni00A0" unicode="&#xa0;" horiz-adv-x="250" 
 />
    <glyph glyph-name="exclamdown" unicode="&#xa1;" horiz-adv-x="254" 
d="M176 -201h-100l7 512h87zM176 406h-100v99h100v-99z" />
    <glyph glyph-name="cent" unicode="&#xa2;" horiz-adv-x="577" 
d="M264 73q-50 7 -89 31t-66 61.5t-41.5 85.5t-14.5 102t14.5 102.5t41.5 86t66 61.5t89 31v84h71v-84q66 -10 114 -51t74 -104l-88 -34q-19 42 -51.5 70.5t-81.5 28.5q-36 0 -64 -14.5t-47 -40t-29 -60.5t-10 -76q0 -42 9.5 -76.5t28.5 -60t47 -39.5t65 -14q49 0 81.5 28
t51.5 70l88 -34q-12 -28 -30 -54t-41.5 -47t-52.5 -35t-64 -18v-85h-71v85z" />
    <glyph glyph-name="sterling" unicode="&#xa3;" horiz-adv-x="577" 
d="M48 86h61v233h-44v70h44v136q0 42 16 77t45 61t69 40.5t87 14.5q46 0 89.5 -17t77.5 -47l-58 -69q-20 19 -49.5 31t-58.5 12q-56 0 -87 -31t-31 -76v-132h184v-70h-184v-233h325v-86h-486v86z" />
    <glyph glyph-name="currency" unicode="&#xa4;" horiz-adv-x="610" 
d="M124 170h-70v70h70v70h-70v80h70v316h233q103 0 161.5 -53.5t58.5 -147.5q0 -47 -17 -83t-47 -61.5t-71 -38.5t-89 -13h-130v-69h250v-70h-250v-170h-99v170zM340 390q66 0 100.5 32.5t34.5 86.5t-35 85.5t-98 31.5h-119v-236h117z" />
    <glyph glyph-name="yen" unicode="&#xa5;" horiz-adv-x="577" 
d="M75 263h163v36l-26 48h-137v63h103l-165 296h113l118 -220q17 -37 30 -68q7 -17 13 -33h2q6 16 13 33q13 31 30 68l119 220h113l-165 -296h101v-63h-135l-27 -48v-36h162v-64h-162v-199h-100v199h-163v64z" />
    <glyph glyph-name="section" unicode="&#xa7;" horiz-adv-x="447" 
d="M72 501q-3 11 -4 23t-1 23q0 36 13 67.5t37 54.5t59 36t79 13q37 0 75 -13t66 -38l-46 -64q-19 15 -44.5 24.5t-50.5 9.5q-45 0 -75.5 -25t-30.5 -76q0 -9 1 -19t4 -21l68 -385h-79zM95 56q17 -15 44 -26t53 -11q44 0 75 26.5t31 78.5q0 19 -6 45l-66 376h79l70 -390
q2 -12 3.5 -23t1.5 -22q0 -37 -13 -68.5t-37 -54.5t-59 -36t-79 -13q-38 0 -75 13t-66 38z" />
    <glyph glyph-name="dieresis" unicode="&#xa8;" horiz-adv-x="499" 
d="M294 882h79v-101h-79v101zM126 882h80v-101h-80v101z" />
    <glyph glyph-name="copyright" unicode="&#xa9;" horiz-adv-x="823" 
d="M55 353q0 76 28 142.5t76 116t112.5 78t138.5 28.5q75 0 140.5 -28.5t114 -78t76.5 -116t28 -142.5t-28 -142.5t-76.5 -116t-114 -78t-140.5 -28.5q-74 0 -138.5 28.5t-112.5 78t-76 116t-28 142.5zM128 353q0 -63 21.5 -117t59.5 -94.5t89.5 -63.5t111.5 -23
q61 0 113 23t90.5 63.5t60.5 94.5t22 117t-22 117t-60.5 94.5t-90.5 63.5t-113 23q-60 0 -111.5 -23t-89.5 -63.5t-59.5 -94.5t-21.5 -117zM221 352q0 39 14 75.5t39.5 64t62 44t81.5 16.5q52 0 95.5 -27t67.5 -72l-62 -33q-13 25 -40 44t-59 19q-29 0 -52 -10.5t-39 -28.5
t-24.5 -42t-8.5 -50q0 -27 8 -50.5t24 -41.5t39 -28.5t53 -10.5q32 0 58 18t41 45l62 -33q-10 -20 -26 -37.5t-37.5 -31.5t-46.5 -22t-53 -8q-46 0 -82.5 16.5t-62 44t-39 63.5t-13.5 76z" />
    <glyph glyph-name="ordfeminine" unicode="&#xaa;" horiz-adv-x="426" 
d="M183 383q-20 0 -39.5 6t-35 18t-25 30t-9.5 42q0 40 22 62.5t52.5 33t62.5 12.5t52 2h10v6q0 35 -18 49t-46 14q-22 0 -43.5 -8t-39.5 -20l-29 49q24 18 57 27.5t64 9.5q63 0 95 -32.5t32 -93.5v-201h-68v46h-2q-11 -21 -35.5 -36.5t-56.5 -15.5zM198 441q17 0 31 8
t23.5 20.5t15 28.5t5.5 32v8h-12q-15 0 -34.5 -1.5t-37 -6.5t-30 -16t-12.5 -30q0 -18 13 -30.5t38 -12.5zM74 322h274v-57h-274v57z" />
    <glyph glyph-name="guillemotleft" unicode="&#xab;" horiz-adv-x="561" 
d="M411 488h97l-164 -206l164 -205h-97l-164 205zM45 282l164 206h97l-164 -206l164 -205h-97z" />
    <glyph glyph-name="logicalnot" unicode="&#xac;" horiz-adv-x="626" 
d="M72 418h477v-268h-81v190h-396v78z" />
    <glyph glyph-name="uni00AD" unicode="&#xad;" horiz-adv-x="432" 
d="M70 328h292v-86h-292v86z" />
    <glyph glyph-name="registered" unicode="&#xae;" horiz-adv-x="823" 
d="M55 353q0 76 28 142.5t76 116t112.5 78t138.5 28.5q75 0 140.5 -28.5t114 -78t76.5 -116t28 -142.5t-28 -142.5t-76.5 -116t-114 -78t-140.5 -28.5q-74 0 -138.5 28.5t-112.5 78t-76 116t-28 142.5zM128 353q0 -63 21.5 -117t59.5 -94.5t89.5 -63.5t111.5 -23
q61 0 113 23t90.5 63.5t60.5 94.5t22 117t-22 117t-60.5 94.5t-90.5 63.5t-113 23q-60 0 -111.5 -23t-89.5 -63.5t-59.5 -94.5t-21.5 -117zM288 544h146q54 0 86 -31.5t32 -84.5q0 -22 -6.5 -39t-16.5 -29.5t-22 -20.5t-24 -11v-2q1 -1 3 -4q2 -2 4 -6.5t6 -10.5l73 -139
h-79l-69 146h-62v-146h-71v378zM419 364q29 0 45 17t16 47q0 29 -16 45t-44 16h-61v-125h60z" />
    <glyph glyph-name="macron" unicode="&#xaf;" horiz-adv-x="499" 
d="M123 855h254v-71h-254v71z" />
    <glyph glyph-name="degree" unicode="&#xb0;" horiz-adv-x="409" 
d="M204 422q-32 0 -59.5 11.5t-47.5 31.5t-32 47t-12 58q0 30 12 57t32 47.5t47.5 32t59.5 11.5q31 0 59 -11.5t49 -32t33 -47.5t12 -57q0 -31 -12 -58t-33 -47t-49 -31.5t-59 -11.5zM204 495q32 0 53.5 21.5t21.5 53.5q0 31 -21.5 53t-53.5 22q-31 0 -52 -22t-21 -53
q0 -32 21 -53.5t52 -21.5z" />
    <glyph glyph-name="plusminus" unicode="&#xb1;" horiz-adv-x="577" 
d="M24 324h224v246h82v-246h223v-78h-223v-246h-82v246h-224v78zM537 -95v-77h-497v77h497z" />
    <glyph glyph-name="uni00B2" unicode="&#xb2;" 
d="M47 423q-3 18 -3 36q0 42 15.5 72t39.5 52.5t51 40t51 34t39.5 35t15.5 43.5q0 28 -20.5 46.5t-51.5 18.5q-26 0 -47.5 -14.5t-37.5 -33.5l-49 45q20 30 57.5 51t79.5 21q31 0 57 -9.5t45.5 -26.5t30.5 -41t11 -54q0 -37 -15 -63t-37 -46t-48.5 -35.5t-49 -31
t-38.5 -33.5t-18 -41h213v-66h-291v0z" />
    <glyph glyph-name="uni00B3" unicode="&#xb3;" 
d="M182 413q-40 0 -80.5 16.5t-66.5 49.5l42 53q14 -20 41.5 -35t60.5 -15t58 21.5t25 54.5q0 35 -27.5 53t-60.5 18h-34l-17 38l89 103l16 16q4 4 9 8v2l-12 -2q-5 -1 -11.5 -1h-13.5h-141v67h271v-48l-109 -126q22 -3 43.5 -12.5t37.5 -25t26 -38t10 -52.5
q0 -29 -11.5 -55t-32 -46t-49 -32t-63.5 -12z" />
    <glyph glyph-name="acute" unicode="&#xb4;" horiz-adv-x="499" 
d="M233 882h105l-96 -127h-81z" />
    <glyph glyph-name="mu" unicode="&#xb5;" horiz-adv-x="601" 
d="M162 20q2 -15 4 -29q2 -12 3 -26t1 -25v-140h-86v706h97v-302q0 -26 3.5 -49t13.5 -40t28 -27t48 -10q39 0 70 16t52 42t32 60.5t11 72.5v237h97v-506h-93v69v13.5t1 11.5q0 6 1 11h-3q-15 -33 -41 -59q-22 -22 -57.5 -40t-88.5 -18q-23 0 -48.5 6.5t-42.5 25.5h-2v0z
" />
    <glyph glyph-name="mu" unicode="&#x3bc;" horiz-adv-x="601" 
d="M162 20q2 -15 4 -29q2 -12 3 -26t1 -25v-140h-86v706h97v-302q0 -26 3.5 -49t13.5 -40t28 -27t48 -10q39 0 70 16t52 42t32 60.5t11 72.5v237h97v-506h-93v69v13.5t1 11.5q0 6 1 11h-3q-15 -33 -41 -59q-22 -22 -57.5 -40t-88.5 -18q-23 0 -48.5 6.5t-42.5 25.5h-2v0z
" />
    <glyph glyph-name="paragraph" unicode="&#xb6;" horiz-adv-x="597" 
d="M275 241q-48 0 -91.5 18t-75.5 49.5t-51 74t-19 91.5t19 91.5t51 73.5t75.5 49t91.5 18h271v-86h-197v-670h-74v291zM411 563h75v-613h-75v613z" />
    <glyph glyph-name="periodcentered" unicode="&#xb7;" horiz-adv-x="242" 
d="M70 343h101v-105h-101v105z" />
    <glyph glyph-name="cedilla" unicode="&#xb8;" horiz-adv-x="499" 
d="M219 23l49 -11v-7l-12 -55q31 -4 51.5 -22.5t20.5 -50.5q0 -23 -9 -39t-23 -26t-32.5 -14.5t-37.5 -4.5q-28 0 -55 6v59q8 -3 20 -5t22 -2q19 0 33.5 6.5t14.5 24.5q0 16 -15 23.5t-38 7.5q-4 0 -7 -0.5t-5 -0.5h-6z" />
    <glyph glyph-name="uni00B9" unicode="&#xb9;" 
d="M72 489h93v249q0 13 1 18q0 4 1 8h-2q-1 -2 -4 -6q-2 -3 -5 -7t-8 -9l-36 -34l-45 49l106 103h67v-371h92v-66h-260v66z" />
    <glyph glyph-name="ordmasculine" unicode="&#xba;" horiz-adv-x="483" 
d="M241 384q-35 0 -66.5 12.5t-54.5 35t-36.5 53t-13.5 67.5q0 36 13.5 66t36.5 52t54 34.5t66 12.5q36 0 67.5 -12.5t54.5 -34.5t36.5 -52t13.5 -66q0 -37 -13.5 -67.5t-36.5 -53t-54 -35t-67 -12.5zM241 449q41 0 69.5 28.5t28.5 74.5q0 45 -28.5 73t-69.5 28
q-42 0 -70.5 -28t-28.5 -73q0 -46 28.5 -74.5t70.5 -28.5zM86 322h312v-57h-312v57z" />
    <glyph glyph-name="guillemotright" unicode="&#xbb;" horiz-adv-x="561" 
d="M418 282l-164 206h97l164 -206l-164 -205h-97zM217 282l-164 206h97l164 -206l-164 -205h-97z" />
    <glyph glyph-name="onequarter" unicode="&#xbc;" horiz-adv-x="954" 
d="M778 107h-207v50l200 280h81v-264h62v-66h-62v-107h-74v107zM778 173v123v20.5t1 18.5q1 10 2 19h-2q-5 -8 -9 -16q-4 -7 -9 -15.5t-11 -16.5l-98 -131v-2h126zM261 0l336 706h74l-335 -706h-75zM60 336h93v249q0 13 1 18q0 4 1 8h-2q-1 -2 -4 -6q-2 -3 -5 -7t-8 -9
l-36 -34l-45 49l106 103h67v-371h92v-66h-260v66z" />
    <glyph glyph-name="onehalf" unicode="&#xbd;" horiz-adv-x="943" 
d="M602 0q-3 18 -3 36q0 42 15.5 72t39.5 52.5t51 40t51 34t39.5 35t15.5 43.5q0 28 -20.5 46.5t-51.5 18.5q-26 0 -47.5 -14.5t-37.5 -33.5l-49 45q20 30 57.5 51t79.5 21q31 0 57 -9.5t45.5 -26.5t30.5 -41t11 -54q0 -36 -15 -62.5t-37 -46.5t-48.5 -35.5t-49 -31
t-38.5 -33.5t-18 -41h213v-66h-291zM261 0l336 706h74l-335 -706h-75zM59 336h93v249q0 13 1 18q0 4 1 8h-2q-1 -2 -4 -6q-2 -3 -5 -7t-8 -9l-36 -34l-45 49l106 103h67v-371h92v-66h-260v66z" />
    <glyph glyph-name="threequarters" unicode="&#xbe;" horiz-adv-x="970" 
d="M793 107h-207v50l200 280h81v-264h62v-66h-62v-107h-74v107zM793 173v123v20.5t1 18.5q1 10 2 19h-2q-5 -8 -9 -16q-4 -7 -9 -15.5t-11 -16.5l-98 -131v-2h126zM190 260q-40 0 -80.5 16.5t-66.5 49.5l42 53q14 -20 41.5 -35t60.5 -15t58 21.5t25 54.5q0 35 -27.5 53
t-60.5 18h-34l-17 38l89 103l16 16q4 4 9 8v2l-12 -2q-5 -1 -11.5 -1h-13.5h-141v67h271v-48l-109 -126q22 -3 43.5 -12.5t37.5 -25t26 -38t10 -52.5q0 -29 -11.5 -55t-32 -46t-49 -32t-63.5 -12zM276 0l336 706h74l-335 -706h-75z" />
    <glyph glyph-name="questiondown" unicode="&#xbf;" horiz-adv-x="457" 
d="M309 264q0 -38 -12.5 -66t-31.5 -50t-40.5 -40.5t-40.5 -38t-31.5 -42t-12.5 -52.5q0 -21 8.5 -39t23.5 -31.5t36 -21t46 -7.5q31 0 60.5 11.5t52.5 30.5l54 -69q-29 -26 -74.5 -45t-99.5 -19q-42 0 -80 13t-66.5 37t-45.5 57.5t-17 75.5q0 41 13 71t33 53.5t42.5 43
t42.5 39t33 42.5t13 53v41h94v-47zM312 406h-100v99h100v-99z" />
    <glyph glyph-name="Agrave" unicode="&#xc0;" horiz-adv-x="641" 
d="M268 706h105l253 -706h-102l-71 203h-266l-71 -203h-101zM427 285l-78 223q-5 14 -10 31t-9 33q-5 18 -9 37h-2q-5 -19 -9 -37q-4 -16 -8.5 -33t-9.5 -31l-79 -223h214zM186 882h104l73 -127h-82z" />
    <glyph glyph-name="Aacute" unicode="&#xc1;" horiz-adv-x="641" 
d="M268 706h105l253 -706h-102l-71 203h-266l-71 -203h-101zM427 285l-78 223q-5 14 -10 31t-9 33q-5 18 -9 37h-2q-5 -19 -9 -37q-4 -16 -8.5 -33t-9.5 -31l-79 -223h214zM349 882h105l-96 -127h-81z" />
    <glyph glyph-name="Acircumflex" unicode="&#xc2;" horiz-adv-x="641" 
d="M268 706h105l253 -706h-102l-71 203h-266l-71 -203h-101zM427 285l-78 223q-5 14 -10 31t-9 33q-5 18 -9 37h-2q-5 -19 -9 -37q-4 -16 -8.5 -33t-9.5 -31l-79 -223h214zM269 882h100l89 -127h-85l-53 80h-2l-52 -80h-85z" />
    <glyph glyph-name="Atilde" unicode="&#xc3;" horiz-adv-x="641" 
d="M268 706h105l253 -706h-102l-71 203h-266l-71 -203h-101zM427 285l-78 223q-5 14 -10 31t-9 33q-5 18 -9 37h-2q-5 -19 -9 -37q-4 -16 -8.5 -33t-9.5 -31l-79 -223h214zM151 756q0 127 102 127q25 0 42 -10.5t30 -23.5t25.5 -23.5t28.5 -10.5q22 0 30.5 21.5t8.5 43.5h70
q0 -127 -102 -127q-25 0 -42 10.5t-30 23.5t-25.5 23.5t-28.5 10.5q-11 0 -18.5 -6t-12 -15.5t-6.5 -21t-2 -22.5h-70z" />
    <glyph glyph-name="Adieresis" unicode="&#xc4;" horiz-adv-x="641" 
d="M268 706h105l253 -706h-102l-71 203h-266l-71 -203h-101zM427 285l-78 223q-5 14 -10 31t-9 33q-5 18 -9 37h-2q-5 -19 -9 -37q-4 -16 -8.5 -33t-9.5 -31l-79 -223h214zM364 882h79v-101h-79v101zM196 882h80v-101h-80v101z" />
    <glyph glyph-name="Aring" unicode="&#xc5;" horiz-adv-x="641" 
d="M268 706h105l253 -706h-102l-71 203h-266l-71 -203h-101zM427 285l-78 223q-5 14 -10 31t-9 33q-5 18 -9 37h-2q-5 -19 -9 -37q-4 -16 -8.5 -33t-9.5 -31l-79 -223h214zM320 743q-34 0 -59.5 19.5t-25.5 54.5t25.5 55t59.5 20q33 0 58.5 -20t25.5 -55t-25.5 -54.5
t-58.5 -19.5zM320 784q14 0 23.5 9.5t9.5 23.5q0 16 -9.5 25.5t-23.5 9.5q-15 0 -24 -9.5t-9 -25.5q0 -14 9 -23.5t24 -9.5z" />
    <glyph glyph-name="AE" unicode="&#xc6;" horiz-adv-x="877" 
d="M301 706h517v-86h-312v-221h253v-86h-253v-227h328v-86h-426v314h-171l-125 -314h-103zM408 396v224h-47l-91 -224h138z" />
    <glyph glyph-name="Ccedilla" unicode="&#xc7;" horiz-adv-x="717" 
d="M372 -10q-74 6 -133.5 37t-101.5 80t-64.5 113t-22.5 137q0 77 26.5 143t74 114.5t113.5 76t145 27.5q34 0 69 -5.5t68.5 -16.5t64 -29t56.5 -42l-50 -74q-39 35 -94 56t-110 21q-62 0 -110 -21t-82 -58t-51.5 -86t-17.5 -105t18 -107t52 -89t82.5 -60.5t110.5 -22.5
q60 0 117 24.5t100 67.5l53 -71q-44 -44 -107 -76t-152 -35l-8 -39q31 -4 51.5 -22.5t20.5 -50.5q0 -23 -9 -39t-23 -26t-32.5 -14.5t-37.5 -4.5q-28 0 -55 6v59q8 -3 20 -5t22 -2q19 0 33.5 6.5t14.5 24.5q0 16 -15 23.5t-38 7.5q-4 0 -7 -0.5t-5 -0.5h-6z" />
    <glyph glyph-name="Egrave" unicode="&#xc8;" horiz-adv-x="564" 
d="M93 706h411v-86h-312v-221h253v-86h-253v-227h329v-86h-428v706zM175 882h104l73 -127h-82z" />
    <glyph glyph-name="Eacute" unicode="&#xc9;" horiz-adv-x="564" 
d="M337 882h105l-96 -127h-81zM93 706h411v-86h-312v-221h253v-86h-253v-227h329v-86h-428v706z" />
    <glyph glyph-name="Ecircumflex" unicode="&#xca;" horiz-adv-x="564" 
d="M258 882h100l89 -127h-85l-53 80h-2l-52 -80h-85zM93 706h411v-86h-312v-221h253v-86h-253v-227h329v-86h-428v706z" />
    <glyph glyph-name="Edieresis" unicode="&#xcb;" horiz-adv-x="564" 
d="M354 882h79v-101h-79v101zM186 882h80v-101h-80v101zM93 706h411v-86h-312v-221h253v-86h-253v-227h329v-86h-428v706z" />
    <glyph glyph-name="Igrave" unicode="&#xcc;" horiz-adv-x="286" 
d="M93 706h99v-706h-99v706zM10 882h104l73 -127h-82z" />
    <glyph glyph-name="Iacute" unicode="&#xcd;" horiz-adv-x="286" 
d="M93 706h99v-706h-99v706zM173 882h105l-96 -127h-81z" />
    <glyph glyph-name="Icircumflex" unicode="&#xce;" horiz-adv-x="286" 
d="M93 706h99v-706h-99v706zM94 882h100l89 -127h-85l-53 80h-2l-52 -80h-85z" />
    <glyph glyph-name="Idieresis" unicode="&#xcf;" horiz-adv-x="286" 
d="M93 706h99v-706h-99v706zM189 882h79v-101h-79v101zM21 882h80v-101h-80v101z" />
    <glyph glyph-name="Eth" unicode="&#xd0;" horiz-adv-x="743" 
d="M99 312h-58v82h58v312h235q81 0 146.5 -23.5t112.5 -68.5t72.5 -110.5t25.5 -149.5t-25.5 -150t-72.5 -111t-112.5 -69t-146.5 -24h-235v312zM327 86q59 0 107.5 17.5t83 51t53 83.5t18.5 116q0 65 -19 114.5t-53.5 83.5t-82.5 51t-107 17h-130v-226h150v-82h-150v-226
h130z" />
    <glyph glyph-name="Ntilde" unicode="&#xd1;" horiz-adv-x="752" 
d="M93 706h98l315 -458l19.5 -32.5t18.5 -33.5q10 -18 20 -37h2q-2 18 -3 36q-2 16 -2.5 34t-0.5 33v458h98v-706h-97l-315 458q-10 14 -20 32t-18 34q-10 18 -20 37h-2q1 -19 3 -37q1 -16 2 -33.5t1 -32.5v-458h-99v706zM207 756q0 127 102 127q25 0 42 -10.5t30 -23.5
t25.5 -23.5t28.5 -10.5q22 0 30.5 21.5t8.5 43.5h70q0 -127 -102 -127q-25 0 -42 10.5t-30 23.5t-25.5 23.5t-28.5 10.5q-11 0 -18.5 -6t-12 -15.5t-6.5 -21t-2 -22.5h-70z" />
    <glyph glyph-name="Ograve" unicode="&#xd2;" horiz-adv-x="823" 
d="M49 358q0 76 27 142t75.5 114.5t115 76t145.5 27.5t145.5 -27.5t114.5 -76t75 -114.5t27 -142q0 -78 -27 -145.5t-75 -117.5t-114.5 -78.5t-145.5 -28.5t-145.5 28.5t-115 78.5t-75.5 117.5t-27 145.5zM151 358q0 -59 19.5 -110t54.5 -88.5t82.5 -59t104.5 -21.5
q56 0 104 21.5t82.5 59t54 88.5t19.5 110q0 57 -19.5 106.5t-54 86t-82.5 57t-104 20.5q-57 0 -104.5 -20.5t-82.5 -57t-54.5 -86t-19.5 -106.5zM277 882h104l73 -127h-82z" />
    <glyph glyph-name="Oacute" unicode="&#xd3;" horiz-adv-x="823" 
d="M440 882h105l-96 -127h-81zM49 358q0 76 27 142t75.5 114.5t115 76t145.5 27.5t145.5 -27.5t114.5 -76t75 -114.5t27 -142q0 -78 -27 -145.5t-75 -117.5t-114.5 -78.5t-145.5 -28.5t-145.5 28.5t-115 78.5t-75.5 117.5t-27 145.5zM151 358q0 -59 19.5 -110t54.5 -88.5
t82.5 -59t104.5 -21.5q56 0 104 21.5t82.5 59t54 88.5t19.5 110q0 57 -19.5 106.5t-54 86t-82.5 57t-104 20.5q-57 0 -104.5 -20.5t-82.5 -57t-54.5 -86t-19.5 -106.5z" />
    <glyph glyph-name="Ocircumflex" unicode="&#xd4;" horiz-adv-x="823" 
d="M361 882h100l89 -127h-85l-53 80h-2l-52 -80h-85zM49 358q0 76 27 142t75.5 114.5t115 76t145.5 27.5t145.5 -27.5t114.5 -76t75 -114.5t27 -142q0 -78 -27 -145.5t-75 -117.5t-114.5 -78.5t-145.5 -28.5t-145.5 28.5t-115 78.5t-75.5 117.5t-27 145.5zM151 358
q0 -59 19.5 -110t54.5 -88.5t82.5 -59t104.5 -21.5q56 0 104 21.5t82.5 59t54 88.5t19.5 110q0 57 -19.5 106.5t-54 86t-82.5 57t-104 20.5q-57 0 -104.5 -20.5t-82.5 -57t-54.5 -86t-19.5 -106.5z" />
    <glyph glyph-name="Otilde" unicode="&#xd5;" horiz-adv-x="823" 
d="M49 358q0 76 27 142t75.5 114.5t115 76t145.5 27.5t145.5 -27.5t114.5 -76t75 -114.5t27 -142q0 -78 -27 -145.5t-75 -117.5t-114.5 -78.5t-145.5 -28.5t-145.5 28.5t-115 78.5t-75.5 117.5t-27 145.5zM151 358q0 -59 19.5 -110t54.5 -88.5t82.5 -59t104.5 -21.5
q56 0 104 21.5t82.5 59t54 88.5t19.5 110q0 57 -19.5 106.5t-54 86t-82.5 57t-104 20.5q-57 0 -104.5 -20.5t-82.5 -57t-54.5 -86t-19.5 -106.5zM243 756q0 127 102 127q25 0 42 -10.5t30 -23.5t25.5 -23.5t28.5 -10.5q22 0 30.5 21.5t8.5 43.5h70q0 -127 -102 -127
q-25 0 -42 10.5t-30 23.5t-25.5 23.5t-28.5 10.5q-11 0 -18.5 -6t-12 -15.5t-6.5 -21t-2 -22.5h-70z" />
    <glyph glyph-name="Odieresis" unicode="&#xd6;" horiz-adv-x="823" 
d="M456 882h79v-101h-79v101zM288 882h80v-101h-80v101zM49 358q0 76 27 142t75.5 114.5t115 76t145.5 27.5t145.5 -27.5t114.5 -76t75 -114.5t27 -142q0 -78 -27 -145.5t-75 -117.5t-114.5 -78.5t-145.5 -28.5t-145.5 28.5t-115 78.5t-75.5 117.5t-27 145.5zM151 358
q0 -59 19.5 -110t54.5 -88.5t82.5 -59t104.5 -21.5q56 0 104 21.5t82.5 59t54 88.5t19.5 110q0 57 -19.5 106.5t-54 86t-82.5 57t-104 20.5q-57 0 -104.5 -20.5t-82.5 -57t-54.5 -86t-19.5 -106.5z" />
    <glyph glyph-name="multiply" unicode="&#xd7;" horiz-adv-x="577" 
d="M235 285l-207 230l56 55l204 -227l204 227l56 -55l-207 -230l207 -230l-56 -55l-204 227l-204 -227l-56 55z" />
    <glyph glyph-name="Oslash" unicode="&#xd8;" horiz-adv-x="822" 
d="M172 77q-57 51 -90 123t-33 157q0 76 28 142t77 115t115 76.5t143 27.5q51 0 97.5 -13t87.5 -36l46 63l49 -34l-45 -63q59 -50 93 -121t34 -157q0 -77 -28 -144.5t-76.5 -117.5t-115 -78.5t-142.5 -28.5q-106 0 -192 54l-47 -67l-50 34zM541 591q-28 17 -61 27t-68 10
q-54 0 -102 -20.5t-83 -57t-55.5 -86t-20.5 -107.5q0 -60 22 -111.5t57 -87.5zM275 119q62 -40 136 -40q54 0 102 21t83 58.5t55.5 88.5t20.5 110q0 61 -22.5 111.5t-60.5 86.5z" />
    <glyph glyph-name="Ugrave" unicode="&#xd9;" horiz-adv-x="726" 
d="M85 706h99v-455q0 -82 49 -127t130 -45t129.5 45t48.5 128v454h99v-456q0 -59 -20 -107.5t-56 -83t-87 -53t-113 -18.5t-113.5 18.5t-88.5 53t-57 83t-20 107.5v456zM228 882h104l73 -127h-82z" />
    <glyph glyph-name="Uacute" unicode="&#xda;" horiz-adv-x="726" 
d="M391 882h105l-96 -127h-81zM85 706h99v-455q0 -82 49 -127t130 -45t129.5 45t48.5 128v454h99v-456q0 -59 -20 -107.5t-56 -83t-87 -53t-113 -18.5t-113.5 18.5t-88.5 53t-57 83t-20 107.5v456z" />
    <glyph glyph-name="Ucircumflex" unicode="&#xdb;" horiz-adv-x="726" 
d="M312 882h100l89 -127h-85l-53 80h-2l-52 -80h-85zM85 706h99v-455q0 -82 49 -127t130 -45t129.5 45t48.5 128v454h99v-456q0 -59 -20 -107.5t-56 -83t-87 -53t-113 -18.5t-113.5 18.5t-88.5 53t-57 83t-20 107.5v456z" />
    <glyph glyph-name="Udieresis" unicode="&#xdc;" horiz-adv-x="726" 
d="M407 882h79v-101h-79v101zM239 882h80v-101h-80v101zM85 706h99v-455q0 -82 49 -127t130 -45t129.5 45t48.5 128v454h99v-456q0 -59 -20 -107.5t-56 -83t-87 -53t-113 -18.5t-113.5 18.5t-88.5 53t-57 83t-20 107.5v456z" />
    <glyph glyph-name="Yacute" unicode="&#xdd;" horiz-adv-x="592" 
d="M247 299l-237 407h112l130 -232q8 -16 15.5 -31.5t13.5 -28.5q7 -15 14 -29h2q6 14 13 29q13 27 30 60l130 232h112l-237 -407v-299h-98v299zM324 882h105l-96 -127h-81z" />
    <glyph glyph-name="Thorn" unicode="&#xde;" horiz-adv-x="608" 
d="M93 706h99v-120h160q48 0 89 -15.5t70 -44.5t45.5 -70t16.5 -91t-16.5 -91.5t-46 -71t-70 -45.5t-89.5 -16h-159v-141h-99v706zM336 227q63 0 100 37t37 101t-36.5 99.5t-99.5 35.5h-145v-273h144z" />
    <glyph glyph-name="germandbls" unicode="&#xdf;" horiz-adv-x="588" 
d="M75 530q0 46 18.5 81t49 59t69 36t79.5 12q42 0 76.5 -12.5t60 -34.5t39.5 -51.5t14 -62.5q0 -36 -15.5 -61.5t-34.5 -45.5t-34.5 -38.5t-15.5 -40.5q0 -16 13.5 -30t33 -28.5t43 -30.5t43 -36t33 -44.5t13.5 -56.5q0 -38 -14 -66.5t-38 -47.5t-55 -28.5t-64 -9.5
q-35 0 -72.5 6t-69.5 23v86q28 -14 62.5 -22.5t67.5 -8.5t58.5 17t25.5 55q0 20 -13.5 37t-33 32t-43 30.5t-43 33t-33 38.5t-13.5 48q0 31 16 54t34.5 43.5t34.5 42t16 48.5q0 14 -6 28t-18 25t-30 18t-41 7q-22 0 -43 -7t-37 -20.5t-26 -34.5t-10 -49v-523h-97v530z" />
    <glyph glyph-name="agrave" unicode="&#xe0;" horiz-adv-x="527" 
d="M33 138q0 40 15 68.5t40 48t56.5 31.5t65.5 18.5t66.5 8.5t58.5 2h26v10q0 31 -8.5 52.5t-23.5 34.5t-35 18.5t-44 5.5q-38 0 -74.5 -13.5t-67.5 -35.5l-39 71q31 26 83 43t106 17q96 0 148 -50.5t52 -147.5v-320h-91v51v16t1 13q1 6 2 11h-2q-22 -44 -65.5 -73.5
t-100.5 -29.5q-33 0 -63.5 10t-54 29.5t-37.5 47t-14 63.5zM130 146q0 -30 24 -55.5t71 -25.5q32 0 57 14.5t42.5 38t27 52t9.5 56.5v19h-25q-27 0 -62.5 -2.5t-67.5 -12t-54 -29.5t-22 -55zM128 707h104l73 -127h-82z" />
    <glyph glyph-name="aacute" unicode="&#xe1;" horiz-adv-x="527" 
d="M33 138q0 40 15 68.5t40 48t56.5 31.5t65.5 18.5t66.5 8.5t58.5 2h26v10q0 31 -8.5 52.5t-23.5 34.5t-35 18.5t-44 5.5q-38 0 -74.5 -13.5t-67.5 -35.5l-39 71q31 26 83 43t106 17q96 0 148 -50.5t52 -147.5v-320h-91v51v16t1 13q1 6 2 11h-2q-22 -44 -65.5 -73.5
t-100.5 -29.5q-33 0 -63.5 10t-54 29.5t-37.5 47t-14 63.5zM130 146q0 -30 24 -55.5t71 -25.5q32 0 57 14.5t42.5 38t27 52t9.5 56.5v19h-25q-27 0 -62.5 -2.5t-67.5 -12t-54 -29.5t-22 -55zM288 707h105l-96 -127h-81z" />
    <glyph glyph-name="acircumflex" unicode="&#xe2;" horiz-adv-x="527" 
d="M33 138q0 40 15 68.5t40 48t56.5 31.5t65.5 18.5t66.5 8.5t58.5 2h26v10q0 31 -8.5 52.5t-23.5 34.5t-35 18.5t-44 5.5q-38 0 -74.5 -13.5t-67.5 -35.5l-39 71q31 26 83 43t106 17q96 0 148 -50.5t52 -147.5v-320h-91v51v16t1 13q1 6 2 11h-2q-22 -44 -65.5 -73.5
t-100.5 -29.5q-33 0 -63.5 10t-54 29.5t-37.5 47t-14 63.5zM130 146q0 -30 24 -55.5t71 -25.5q32 0 57 14.5t42.5 38t27 52t9.5 56.5v19h-25q-27 0 -62.5 -2.5t-67.5 -12t-54 -29.5t-22 -55zM209 707h100l89 -127h-85l-53 80h-2l-52 -80h-85z" />
    <glyph glyph-name="atilde" unicode="&#xe3;" horiz-adv-x="527" 
d="M33 138q0 40 15 68.5t40 48t56.5 31.5t65.5 18.5t66.5 8.5t58.5 2h26v10q0 31 -8.5 52.5t-23.5 34.5t-35 18.5t-44 5.5q-38 0 -74.5 -13.5t-67.5 -35.5l-39 71q31 26 83 43t106 17q96 0 148 -50.5t52 -147.5v-320h-91v51v16t1 13q1 6 2 11h-2q-22 -44 -65.5 -73.5
t-100.5 -29.5q-33 0 -63.5 10t-54 29.5t-37.5 47t-14 63.5zM130 146q0 -30 24 -55.5t71 -25.5q32 0 57 14.5t42.5 38t27 52t9.5 56.5v19h-25q-27 0 -62.5 -2.5t-67.5 -12t-54 -29.5t-22 -55zM92 581q0 127 102 127q25 0 42 -10.5t30 -23.5t25.5 -23.5t28.5 -10.5
q22 0 30.5 21.5t8.5 43.5h70q0 -127 -102 -127q-25 0 -42 10.5t-30 23.5t-25.5 23.5t-28.5 10.5q-11 0 -18.5 -6t-12 -15.5t-6.5 -21t-2 -22.5h-70z" />
    <glyph glyph-name="adieresis" unicode="&#xe4;" horiz-adv-x="527" 
d="M33 138q0 40 15 68.5t40 48t56.5 31.5t65.5 18.5t66.5 8.5t58.5 2h26v10q0 31 -8.5 52.5t-23.5 34.5t-35 18.5t-44 5.5q-38 0 -74.5 -13.5t-67.5 -35.5l-39 71q31 26 83 43t106 17q96 0 148 -50.5t52 -147.5v-320h-91v51v16t1 13q1 6 2 11h-2q-22 -44 -65.5 -73.5
t-100.5 -29.5q-33 0 -63.5 10t-54 29.5t-37.5 47t-14 63.5zM130 146q0 -30 24 -55.5t71 -25.5q32 0 57 14.5t42.5 38t27 52t9.5 56.5v19h-25q-27 0 -62.5 -2.5t-67.5 -12t-54 -29.5t-22 -55zM305 707h79v-101h-79v101zM137 707h80v-101h-80v101z" />
    <glyph glyph-name="aring" unicode="&#xe5;" horiz-adv-x="527" 
d="M33 138q0 40 15 68.5t40 48t56.5 31.5t65.5 18.5t66.5 8.5t58.5 2h26v10q0 31 -8.5 52.5t-23.5 34.5t-35 18.5t-44 5.5q-38 0 -74.5 -13.5t-67.5 -35.5l-39 71q31 26 83 43t106 17q96 0 148 -50.5t52 -147.5v-320h-91v51v16t1 13q1 6 2 11h-2q-22 -44 -65.5 -73.5
t-100.5 -29.5q-33 0 -63.5 10t-54 29.5t-37.5 47t-14 63.5zM130 146q0 -30 24 -55.5t71 -25.5q32 0 57 14.5t42.5 38t27 52t9.5 56.5v19h-25q-27 0 -62.5 -2.5t-67.5 -12t-54 -29.5t-22 -55zM260 568q-34 0 -59.5 19.5t-25.5 54.5t25.5 55t59.5 20q33 0 58.5 -20t25.5 -55
t-25.5 -54.5t-58.5 -19.5zM260 609q14 0 23.5 9.5t9.5 23.5q0 16 -9.5 25.5t-23.5 9.5q-15 0 -24 -9.5t-9 -25.5q0 -14 9 -23.5t24 -9.5z" />
    <glyph glyph-name="ae" unicode="&#xe6;" horiz-adv-x="863" 
d="M34 142q0 41 15 69.5t40 47.5t56.5 29.5t65.5 16t66.5 7t58.5 1.5h25v12q0 31 -8.5 52.5t-23.5 34.5t-36 18.5t-46 5.5q-37 0 -73.5 -13.5t-66.5 -35.5l-39 71q16 13 37.5 24.5t46 19t50.5 12t51 4.5q72 0 111 -24t58 -65h2q30 45 75.5 67t103.5 22q52 0 92.5 -18.5
t68 -50.5t42 -74.5t14.5 -91.5q0 -11 -0.5 -20.5t-1.5 -20.5h-364q2 -42 16 -74t36.5 -53t52.5 -32t64 -11q40 0 80 16t70 42l40 -70q-18 -16 -41 -29.5t-48.5 -23t-53 -14.5t-53.5 -5q-77 0 -132.5 33.5t-84.5 92.5h-2q-3 -9 -15 -30t-35 -42t-57.5 -37t-83.5 -16
q-35 0 -66.5 10t-55 29.5t-37.5 48t-14 65.5zM722 313q-1 31 -11.5 55t-27 40t-37.5 24t-44 8q-57 0 -95 -32t-49 -95h264zM132 147q0 -32 24 -56.5t72 -24.5q31 0 56 14.5t42 38t26.5 52t9.5 57.5v14h-48q-29 0 -61 -3t-59 -13t-44.5 -29t-17.5 -50z" />
    <glyph glyph-name="ccedilla" unicode="&#xe7;" horiz-adv-x="546" 
d="M271 -9q-51 7 -93.5 29t-72.5 56.5t-46.5 79.5t-16.5 97q0 56 20 104.5t56 84t85.5 56t109.5 20.5q51 0 102.5 -18t87.5 -56l-46 -68q-26 26 -63 42t-77 16q-38 0 -70.5 -13.5t-56 -37.5t-36.5 -57t-13 -72t13 -72t37 -57.5t57 -38.5t72 -14q42 0 84.5 18.5t71.5 49.5
l39 -71q-33 -35 -83 -57t-107 -24l-8 -38q31 -4 51.5 -22.5t20.5 -50.5q0 -23 -9 -39t-23 -26t-32.5 -14.5t-37.5 -4.5q-28 0 -55 6v59q8 -3 20 -5t22 -2q19 0 33.5 6.5t14.5 24.5q0 16 -15 23.5t-38 7.5q-4 0 -7 -0.5t-5 -0.5h-6z" />
    <glyph glyph-name="egrave" unicode="&#xe8;" horiz-adv-x="557" 
d="M42 253q0 60 19.5 109t53.5 83.5t80.5 53.5t100.5 19t94.5 -19t68.5 -51t42 -75t14 -92q0 -10 -1 -20t-3 -21h-368q2 -41 16.5 -72.5t38 -52.5t54.5 -32t65 -11q41 0 80 16t69 43l41 -71q-37 -34 -90 -53t-106 -19q-60 0 -109.5 20.5t-85 56t-55 84t-19.5 104.5zM417 310
q-1 33 -11 57.5t-26.5 41.5t-38.5 25.5t-47 8.5q-57 0 -97 -35t-51 -98h271zM162 707h104l73 -127h-82z" />
    <glyph glyph-name="eacute" unicode="&#xe9;" horiz-adv-x="557" 
d="M323 707h105l-96 -127h-81zM42 253q0 60 19.5 109t53.5 83.5t80.5 53.5t100.5 19t94.5 -19t68.5 -51t42 -75t14 -92q0 -10 -1 -20t-3 -21h-368q2 -41 16.5 -72.5t38 -52.5t54.5 -32t65 -11q41 0 80 16t69 43l41 -71q-37 -34 -90 -53t-106 -19q-60 0 -109.5 20.5t-85 56
t-55 84t-19.5 104.5zM417 310q-1 33 -11 57.5t-26.5 41.5t-38.5 25.5t-47 8.5q-57 0 -97 -35t-51 -98h271z" />
    <glyph glyph-name="ecircumflex" unicode="&#xea;" horiz-adv-x="557" 
d="M244 707h100l89 -127h-85l-53 80h-2l-52 -80h-85zM42 253q0 60 19.5 109t53.5 83.5t80.5 53.5t100.5 19t94.5 -19t68.5 -51t42 -75t14 -92q0 -10 -1 -20t-3 -21h-368q2 -41 16.5 -72.5t38 -52.5t54.5 -32t65 -11q41 0 80 16t69 43l41 -71q-37 -34 -90 -53t-106 -19
q-60 0 -109.5 20.5t-85 56t-55 84t-19.5 104.5zM417 310q-1 33 -11 57.5t-26.5 41.5t-38.5 25.5t-47 8.5q-57 0 -97 -35t-51 -98h271z" />
    <glyph glyph-name="edieresis" unicode="&#xeb;" horiz-adv-x="557" 
d="M340 707h79v-101h-79v101zM172 707h80v-101h-80v101zM42 253q0 60 19.5 109t53.5 83.5t80.5 53.5t100.5 19t94.5 -19t68.5 -51t42 -75t14 -92q0 -10 -1 -20t-3 -21h-368q2 -41 16.5 -72.5t38 -52.5t54.5 -32t65 -11q41 0 80 16t69 43l41 -71q-37 -34 -90 -53t-106 -19
q-60 0 -109.5 20.5t-85 56t-55 84t-19.5 104.5zM417 310q-1 33 -11 57.5t-26.5 41.5t-38.5 25.5t-47 8.5q-57 0 -97 -35t-51 -98h271z" />
    <glyph glyph-name="igrave" unicode="&#xec;" horiz-adv-x="246" 
d="M75 506h97v-506h-97v506zM-9 707h104l73 -127h-82z" />
    <glyph glyph-name="iacute" unicode="&#xed;" horiz-adv-x="246" 
d="M153 707h105l-96 -127h-81zM75 506h97v-506h-97v506z" />
    <glyph glyph-name="icircumflex" unicode="&#xee;" horiz-adv-x="246" 
d="M74 707h100l89 -127h-85l-53 80h-2l-52 -80h-85zM75 506h97v-506h-97v506z" />
    <glyph glyph-name="idieresis" unicode="&#xef;" horiz-adv-x="246" 
d="M170 707h79v-101h-79v101zM2 707h80v-101h-80v101zM75 506h97v-506h-97v506z" />
    <glyph glyph-name="eth" unicode="&#xf0;" horiz-adv-x="581" 
d="M44 235q0 44 15.5 85.5t45.5 74t74 52t102 19.5q30 0 52.5 -6.5t38.5 -14.5q18 -10 32 -21h2q-16 42 -44 75t-65 58l-181 -80l-10 62l124 55q-30 16 -63 27t-66 19l27 79q54 -13 106.5 -32t100.5 -48l139 61l9 -61l-92 -42q63 -53 103.5 -132.5t40.5 -189.5
q0 -51 -14 -102t-44.5 -92t-79 -67t-116.5 -26q-57 0 -101 21t-74 55.5t-46 79t-16 91.5zM143 233q0 -31 9 -60t26.5 -51.5t44 -36.5t61.5 -14q40 0 69 17t47.5 44t27 60.5t8.5 65.5q0 57 -38 93.5t-103 36.5q-39 0 -67.5 -13.5t-47.5 -35t-28 -49.5t-9 -57z" />
    <glyph glyph-name="ntilde" unicode="&#xf1;" horiz-adv-x="603" 
d="M75 506h94v-69q0 -8 -0.5 -15t-1.5 -12q-1 -6 -1 -11h2q7 16 22.5 37t39 39t56 30.5t74.5 12.5q90 0 131.5 -48.5t41.5 -145.5v-324h-97v302q0 27 -3.5 50t-13.5 40t-29 27t-49 10q-37 0 -68 -14.5t-53.5 -39.5t-35 -59t-12.5 -73v-243h-97v506zM143 581q0 127 102 127
q25 0 42 -10.5t30 -23.5t25.5 -23.5t28.5 -10.5q22 0 30.5 21.5t8.5 43.5h70q0 -127 -102 -127q-25 0 -42 10.5t-30 23.5t-25.5 23.5t-28.5 10.5q-11 0 -18.5 -6t-12 -15.5t-6.5 -21t-2 -22.5h-70z" />
    <glyph glyph-name="ograve" unicode="&#xf2;" horiz-adv-x="629" 
d="M42 254q0 57 21.5 105.5t58.5 84t86.5 55t105.5 19.5q57 0 106.5 -19.5t86.5 -55t58.5 -84t21.5 -105.5q0 -58 -21.5 -106.5t-58.5 -84t-86.5 -55.5t-105.5 -20q-57 0 -106.5 20t-86.5 55.5t-58.5 84t-21.5 106.5zM141 254q0 -40 13.5 -73.5t37.5 -57.5t55.5 -37.5
t67.5 -13.5t67.5 13.5t55 37.5t37.5 57.5t14 73.5q0 39 -14 72t-37.5 57t-55 37.5t-67.5 13.5t-67.5 -13.5t-55.5 -37.5t-37.5 -57t-13.5 -72zM180 707h104l73 -127h-82z" />
    <glyph glyph-name="oacute" unicode="&#xf3;" horiz-adv-x="629" 
d="M343 707h105l-96 -127h-81zM42 254q0 57 21.5 105.5t58.5 84t86.5 55t105.5 19.5q57 0 106.5 -19.5t86.5 -55t58.5 -84t21.5 -105.5q0 -58 -21.5 -106.5t-58.5 -84t-86.5 -55.5t-105.5 -20q-57 0 -106.5 20t-86.5 55.5t-58.5 84t-21.5 106.5zM141 254q0 -40 13.5 -73.5
t37.5 -57.5t55.5 -37.5t67.5 -13.5t67.5 13.5t55 37.5t37.5 57.5t14 73.5q0 39 -14 72t-37.5 57t-55 37.5t-67.5 13.5t-67.5 -13.5t-55.5 -37.5t-37.5 -57t-13.5 -72z" />
    <glyph glyph-name="ocircumflex" unicode="&#xf4;" horiz-adv-x="629" 
d="M264 707h100l89 -127h-85l-53 80h-2l-52 -80h-85zM42 254q0 57 21.5 105.5t58.5 84t86.5 55t105.5 19.5q57 0 106.5 -19.5t86.5 -55t58.5 -84t21.5 -105.5q0 -58 -21.5 -106.5t-58.5 -84t-86.5 -55.5t-105.5 -20q-57 0 -106.5 20t-86.5 55.5t-58.5 84t-21.5 106.5z
M141 254q0 -40 13.5 -73.5t37.5 -57.5t55.5 -37.5t67.5 -13.5t67.5 13.5t55 37.5t37.5 57.5t14 73.5q0 39 -14 72t-37.5 57t-55 37.5t-67.5 13.5t-67.5 -13.5t-55.5 -37.5t-37.5 -57t-13.5 -72z" />
    <glyph glyph-name="otilde" unicode="&#xf5;" horiz-adv-x="629" 
d="M42 254q0 57 21.5 105.5t58.5 84t86.5 55t105.5 19.5q57 0 106.5 -19.5t86.5 -55t58.5 -84t21.5 -105.5q0 -58 -21.5 -106.5t-58.5 -84t-86.5 -55.5t-105.5 -20q-57 0 -106.5 20t-86.5 55.5t-58.5 84t-21.5 106.5zM141 254q0 -40 13.5 -73.5t37.5 -57.5t55.5 -37.5
t67.5 -13.5t67.5 13.5t55 37.5t37.5 57.5t14 73.5q0 39 -14 72t-37.5 57t-55 37.5t-67.5 13.5t-67.5 -13.5t-55.5 -37.5t-37.5 -57t-13.5 -72zM146 581q0 127 102 127q25 0 42 -10.5t30 -23.5t25.5 -23.5t28.5 -10.5q22 0 30.5 21.5t8.5 43.5h70q0 -127 -102 -127
q-25 0 -42 10.5t-30 23.5t-25.5 23.5t-28.5 10.5q-11 0 -18.5 -6t-12 -15.5t-6.5 -21t-2 -22.5h-70z" />
    <glyph glyph-name="odieresis" unicode="&#xf6;" horiz-adv-x="629" 
d="M359 707h79v-101h-79v101zM191 707h80v-101h-80v101zM42 254q0 57 21.5 105.5t58.5 84t86.5 55t105.5 19.5q57 0 106.5 -19.5t86.5 -55t58.5 -84t21.5 -105.5q0 -58 -21.5 -106.5t-58.5 -84t-86.5 -55.5t-105.5 -20q-57 0 -106.5 20t-86.5 55.5t-58.5 84t-21.5 106.5z
M141 254q0 -40 13.5 -73.5t37.5 -57.5t55.5 -37.5t67.5 -13.5t67.5 13.5t55 37.5t37.5 57.5t14 73.5q0 39 -14 72t-37.5 57t-55 37.5t-67.5 13.5t-67.5 -13.5t-55.5 -37.5t-37.5 -57t-13.5 -72z" />
    <glyph glyph-name="divide" unicode="&#xf7;" horiz-adv-x="577" 
d="M241 526h94v-91h-94v91zM36 324h505v-78h-505v78zM241 135h94v-91h-94v91z" />
    <glyph glyph-name="oslash" unicode="&#xf8;" horiz-adv-x="630" 
d="M138 49q-45 36 -70.5 88.5t-25.5 116.5q0 57 21.5 105.5t58.5 84t86.5 55t106.5 19.5q37 0 71 -8.5t64 -24.5l40 55l47 -34l-39 -54q42 -35 66 -86t24 -112q0 -58 -21.5 -106.5t-58.5 -84t-86.5 -55.5t-106.5 -20q-71 0 -128 30l-39 -56l-48 34zM398 412q-38 22 -83 22
q-36 0 -67.5 -13.5t-55 -37.5t-37.5 -57t-14 -72t14 -72t37 -57zM239 90q17 -8 36.5 -13t39.5 -5q36 0 67.5 13.5t55.5 37.5t37.5 57.5t13.5 73.5q0 36 -12 66.5t-34 53.5z" />
    <glyph glyph-name="ugrave" unicode="&#xf9;" horiz-adv-x="597" 
d="M69 506h97v-302q0 -26 3.5 -49t14 -40t29 -27t48.5 -10q39 0 69.5 16t52 42t32.5 60.5t11 72.5v237h96v-506h-94v70q0 8 0.5 14.5t1.5 11.5q1 6 2 11h-2q-8 -19 -24.5 -40t-40.5 -38.5t-55 -29t-68 -11.5q-86 0 -129.5 46.5t-43.5 147.5v324zM162 707h104l73 -127h-82z
" />
    <glyph glyph-name="uacute" unicode="&#xfa;" horiz-adv-x="597" 
d="M324 707h105l-96 -127h-81zM69 506h97v-302q0 -26 3.5 -49t14 -40t29 -27t48.5 -10q39 0 69.5 16t52 42t32.5 60.5t11 72.5v237h96v-506h-94v70q0 8 0.5 14.5t1.5 11.5q1 6 2 11h-2q-8 -19 -24.5 -40t-40.5 -38.5t-55 -29t-68 -11.5q-86 0 -129.5 46.5t-43.5 147.5v324z
" />
    <glyph glyph-name="ucircumflex" unicode="&#xfb;" horiz-adv-x="597" 
d="M244 707h100l89 -127h-85l-53 80h-2l-52 -80h-85zM69 506h97v-302q0 -26 3.5 -49t14 -40t29 -27t48.5 -10q39 0 69.5 16t52 42t32.5 60.5t11 72.5v237h96v-506h-94v70q0 8 0.5 14.5t1.5 11.5q1 6 2 11h-2q-8 -19 -24.5 -40t-40.5 -38.5t-55 -29t-68 -11.5
q-86 0 -129.5 46.5t-43.5 147.5v324z" />
    <glyph glyph-name="udieresis" unicode="&#xfc;" horiz-adv-x="597" 
d="M340 707h79v-101h-79v101zM172 707h80v-101h-80v101zM69 506h97v-302q0 -26 3.5 -49t14 -40t29 -27t48.5 -10q39 0 69.5 16t52 42t32.5 60.5t11 72.5v237h96v-506h-94v70q0 8 0.5 14.5t1.5 11.5q1 6 2 11h-2q-8 -19 -24.5 -40t-40.5 -38.5t-55 -29t-68 -11.5
q-86 0 -129.5 46.5t-43.5 147.5v324z" />
    <glyph glyph-name="yacute" unicode="&#xfd;" horiz-adv-x="535" 
d="M50 -105q8 -7 18 -11q8 -5 18.5 -8t21.5 -3q30 0 54 20t38 55l25 58l-212 500h109l127 -331q4 -10 7 -20.5t6 -19.5q3 -11 6 -21h2l5 20q2 9 5 19.5t7 20.5l123 332h105l-238 -597q-23 -60 -66.5 -89.5t-97.5 -29.5q-21 0 -39 4.5t-31 10.5q-15 7 -27 16zM297 707h105
l-96 -127h-81z" />
    <glyph glyph-name="thorn" unicode="&#xfe;" horiz-adv-x="600" 
d="M75 706h97v-231q0 -9 -0.5 -17t-0.5 -13q-1 -6 -1 -11h2q20 36 61 60t99 24q51 0 92.5 -20t71 -55t45 -83.5t15.5 -106.5q0 -59 -16.5 -107.5t-46.5 -83.5t-72 -54.5t-92 -19.5q-23 0 -46 5t-44 15.5t-38 26t-29 36.5h-2q0 -5 1 -12q0 -6 0.5 -14t0.5 -18v-227h-97v906z
M169 252q0 -39 10 -72t28.5 -57.5t45.5 -38t61 -13.5q31 0 57 13t45.5 37t30.5 57.5t11 74.5q0 40 -10.5 73.5t-29 57.5t-45 37t-57.5 13q-29 0 -55.5 -10t-47 -32t-32.5 -56.5t-12 -83.5z" />
    <glyph glyph-name="ydieresis" unicode="&#xff;" horiz-adv-x="535" 
d="M50 -105q8 -7 18 -11q8 -5 18.5 -8t21.5 -3q30 0 54 20t38 55l25 58l-212 500h109l127 -331q4 -10 7 -20.5t6 -19.5q3 -11 6 -21h2l5 20q2 9 5 19.5t7 20.5l123 332h105l-238 -597q-23 -60 -66.5 -89.5t-97.5 -29.5q-21 0 -39 4.5t-31 10.5q-15 7 -27 16zM313 707h79
v-101h-79v101zM145 707h80v-101h-80v101z" />
    <glyph glyph-name="Amacron" unicode="&#x100;" horiz-adv-x="641" 
d="M268 706h105l253 -706h-102l-71 203h-266l-71 -203h-101zM427 285l-78 223q-5 14 -10 31t-9 33q-5 18 -9 37h-2q-5 -19 -9 -37q-4 -16 -8.5 -33t-9.5 -31l-79 -223h214zM193 855h254v-71h-254v71z" />
    <glyph glyph-name="amacron" unicode="&#x101;" horiz-adv-x="527" 
d="M33 138q0 40 15 68.5t40 48t56.5 31.5t65.5 18.5t66.5 8.5t58.5 2h26v10q0 31 -8.5 52.5t-23.5 34.5t-35 18.5t-44 5.5q-38 0 -74.5 -13.5t-67.5 -35.5l-39 71q31 26 83 43t106 17q96 0 148 -50.5t52 -147.5v-320h-91v51v16t1 13q1 6 2 11h-2q-22 -44 -65.5 -73.5
t-100.5 -29.5q-33 0 -63.5 10t-54 29.5t-37.5 47t-14 63.5zM130 146q0 -30 24 -55.5t71 -25.5q32 0 57 14.5t42.5 38t27 52t9.5 56.5v19h-25q-27 0 -62.5 -2.5t-67.5 -12t-54 -29.5t-22 -55zM134 680h254v-71h-254v71z" />
    <glyph glyph-name="Abreve" unicode="&#x102;" horiz-adv-x="641" 
d="M268 706h105l253 -706h-102l-71 203h-266l-71 -203h-101zM427 285l-78 223q-5 14 -10 31t-9 33q-5 18 -9 37h-2q-5 -19 -9 -37q-4 -16 -8.5 -33t-9.5 -31l-79 -223h214zM320 751q-26 0 -50 7.5t-42 22t-29 36.5t-11 51v14h72v-13q0 -32 18.5 -46t41.5 -14q22 0 40.5 14.5
t18.5 46.5v12h72v-14q0 -29 -11 -51t-29 -36.5t-42 -22t-49 -7.5z" />
    <glyph glyph-name="abreve" unicode="&#x103;" horiz-adv-x="527" 
d="M33 138q0 40 15 68.5t40 48t56.5 31.5t65.5 18.5t66.5 8.5t58.5 2h26v10q0 31 -8.5 52.5t-23.5 34.5t-35 18.5t-44 5.5q-38 0 -74.5 -13.5t-67.5 -35.5l-39 71q31 26 83 43t106 17q96 0 148 -50.5t52 -147.5v-320h-91v51v16t1 13q1 6 2 11h-2q-22 -44 -65.5 -73.5
t-100.5 -29.5q-33 0 -63.5 10t-54 29.5t-37.5 47t-14 63.5zM130 146q0 -30 24 -55.5t71 -25.5q32 0 57 14.5t42.5 38t27 52t9.5 56.5v19h-25q-27 0 -62.5 -2.5t-67.5 -12t-54 -29.5t-22 -55zM260 576q-26 0 -50 7.5t-42 22t-29 36.5t-11 51v14h72v-13q0 -32 18.5 -46
t41.5 -14q22 0 40.5 14.5t18.5 46.5v12h72v-14q0 -29 -11 -51t-29 -36.5t-42 -22t-49 -7.5z" />
    <glyph glyph-name="Aogonek" unicode="&#x104;" horiz-adv-x="641" 
d="M268 706h105l253 -706q-8 -6 -18.5 -16t-21 -22t-17.5 -25t-7 -26q0 -14 8 -22.5t19 -13.5q12 -5 28 -7l-23 -75q-32 5 -58 16q-22 10 -40 28.5t-18 50.5q0 18 6 34.5t16 31t21.5 26t22.5 20.5h-20l-71 203h-266l-71 -203h-101zM427 285l-78 223q-5 14 -10 31t-9 33
q-5 18 -9 37h-2q-5 -19 -9 -37q-4 -16 -8.5 -33t-9.5 -31l-79 -223h214z" />
    <glyph glyph-name="aogonek" unicode="&#x105;" horiz-adv-x="527" 
d="M33 138q0 40 15 68.5t40 48t56.5 31.5t65.5 18.5t66.5 8.5t58.5 2h26v10q0 31 -8.5 52.5t-23.5 34.5t-35 18.5t-44 5.5q-38 0 -74.5 -13.5t-67.5 -35.5l-39 71q31 26 83 43t106 17q96 0 148 -50.5t52 -147.5v-320q-8 -6 -19 -16t-21.5 -22t-17.5 -25t-7 -26
q0 -14 8 -22.5t19 -13.5q12 -5 28 -7l-22 -75q-33 5 -59 16q-22 10 -40 28.5t-18 50.5q0 18 6.5 34.5t17 31t22.5 26t23 20.5h-11v51v16t1 13q1 6 2 11h-2q-22 -44 -65.5 -73.5t-100.5 -29.5q-33 0 -63.5 10t-54 29.5t-37.5 47t-14 63.5zM130 146q0 -30 24 -55.5t71 -25.5
q32 0 57 14.5t42.5 38t27 52t9.5 56.5v19h-25q-27 0 -62.5 -2.5t-67.5 -12t-54 -29.5t-22 -55z" />
    <glyph glyph-name="Cacute" unicode="&#x106;" horiz-adv-x="717" 
d="M430 882h105l-96 -127h-81zM50 357q0 77 26.5 143t74 114.5t113.5 76t145 27.5q34 0 69 -5.5t68.5 -16.5t64 -29t56.5 -42l-50 -74q-39 35 -94 56t-110 21q-62 0 -110 -21t-82 -58t-51.5 -86t-17.5 -105t18 -107t52 -89t82.5 -60.5t110.5 -22.5q60 0 117 24.5t100 67.5
l53 -71q-23 -23 -50.5 -43t-61.5 -35.5t-74 -24.5t-87 -9q-82 0 -149 28.5t-114 78.5t-73 117t-26 145z" />
    <glyph glyph-name="cacute" unicode="&#x107;" horiz-adv-x="545" 
d="M321 707h105l-96 -127h-81zM42 253q0 56 20 104.5t56 84t85.5 56t109.5 20.5q51 0 102.5 -18t87.5 -56l-46 -68q-26 26 -63 42t-77 16q-38 0 -70.5 -13.5t-56 -37.5t-36.5 -57t-13 -72t13 -72t37 -57.5t57 -38.5t72 -14q42 0 84.5 18.5t71.5 49.5l39 -71
q-35 -37 -88.5 -59t-113.5 -22t-110 20t-85.5 55.5t-55.5 84t-20 105.5z" />
    <glyph glyph-name="Ccircumflex" unicode="&#x108;" horiz-adv-x="717" 
d="M351 882h100l89 -127h-85l-53 80h-2l-52 -80h-85zM50 357q0 77 26.5 143t74 114.5t113.5 76t145 27.5q34 0 69 -5.5t68.5 -16.5t64 -29t56.5 -42l-50 -74q-39 35 -94 56t-110 21q-62 0 -110 -21t-82 -58t-51.5 -86t-17.5 -105t18 -107t52 -89t82.5 -60.5t110.5 -22.5
q60 0 117 24.5t100 67.5l53 -71q-23 -23 -50.5 -43t-61.5 -35.5t-74 -24.5t-87 -9q-82 0 -149 28.5t-114 78.5t-73 117t-26 145z" />
    <glyph glyph-name="ccircumflex" unicode="&#x109;" horiz-adv-x="545" 
d="M242 707h100l89 -127h-85l-53 80h-2l-52 -80h-85zM42 253q0 56 20 104.5t56 84t85.5 56t109.5 20.5q51 0 102.5 -18t87.5 -56l-46 -68q-26 26 -63 42t-77 16q-38 0 -70.5 -13.5t-56 -37.5t-36.5 -57t-13 -72t13 -72t37 -57.5t57 -38.5t72 -14q42 0 84.5 18.5t71.5 49.5
l39 -71q-35 -37 -88.5 -59t-113.5 -22t-110 20t-85.5 55.5t-55.5 84t-20 105.5z" />
    <glyph glyph-name="Cdotaccent" unicode="&#x10a;" horiz-adv-x="717" 
d="M50 357q0 77 26.5 143t74 114.5t113.5 76t145 27.5q34 0 69 -5.5t68.5 -16.5t64 -29t56.5 -42l-50 -74q-39 35 -94 56t-110 21q-62 0 -110 -21t-82 -58t-51.5 -86t-17.5 -105t18 -107t52 -89t82.5 -60.5t110.5 -22.5q60 0 117 24.5t100 67.5l53 -71q-23 -23 -50.5 -43
t-61.5 -35.5t-74 -24.5t-87 -9q-82 0 -149 28.5t-114 78.5t-73 117t-26 145zM359 882h86v-98h-86v98z" />
    <glyph glyph-name="cdotaccent" unicode="&#x10b;" horiz-adv-x="545" 
d="M42 253q0 56 20 104.5t56 84t85.5 56t109.5 20.5q51 0 102.5 -18t87.5 -56l-46 -68q-26 26 -63 42t-77 16q-38 0 -70.5 -13.5t-56 -37.5t-36.5 -57t-13 -72t13 -72t37 -57.5t57 -38.5t72 -14q42 0 84.5 18.5t71.5 49.5l39 -71q-35 -37 -88.5 -59t-113.5 -22t-110 20
t-85.5 55.5t-55.5 84t-20 105.5zM251 707h86v-98h-86v98z" />
    <glyph glyph-name="Ccaron" unicode="&#x10c;" horiz-adv-x="717" 
d="M263 882h85l52 -81h2l53 81h85l-89 -127h-100zM50 357q0 77 26.5 143t74 114.5t113.5 76t145 27.5q34 0 69 -5.5t68.5 -16.5t64 -29t56.5 -42l-50 -74q-39 35 -94 56t-110 21q-62 0 -110 -21t-82 -58t-51.5 -86t-17.5 -105t18 -107t52 -89t82.5 -60.5t110.5 -22.5
q60 0 117 24.5t100 67.5l53 -71q-23 -23 -50.5 -43t-61.5 -35.5t-74 -24.5t-87 -9q-82 0 -149 28.5t-114 78.5t-73 117t-26 145z" />
    <glyph glyph-name="ccaron" unicode="&#x10d;" horiz-adv-x="545" 
d="M154 707h85l52 -81h2l53 81h85l-89 -127h-100zM42 253q0 56 20 104.5t56 84t85.5 56t109.5 20.5q51 0 102.5 -18t87.5 -56l-46 -68q-26 26 -63 42t-77 16q-38 0 -70.5 -13.5t-56 -37.5t-36.5 -57t-13 -72t13 -72t37 -57.5t57 -38.5t72 -14q42 0 84.5 18.5t71.5 49.5
l39 -71q-35 -37 -88.5 -59t-113.5 -22t-110 20t-85.5 55.5t-55.5 84t-20 105.5z" />
    <glyph glyph-name="Dcaron" unicode="&#x10e;" horiz-adv-x="737" 
d="M203 882h85l52 -81h2l53 81h85l-89 -127h-100zM93 706h235q81 0 146.5 -23.5t112.5 -68.5t72.5 -110.5t25.5 -149.5t-25.5 -150t-72.5 -111t-112.5 -69t-146.5 -24h-235v706zM321 86q59 0 107.5 17.5t83 51t53 83.5t18.5 116q0 65 -19 114.5t-53.5 83.5t-82.5 51t-107 17
h-129v-534h129z" />
    <glyph glyph-name="dcaron" unicode="&#x10f;" horiz-adv-x="610" 
d="M668 705q7 -27 7 -51t-6.5 -46t-18.5 -48h-74q8 23 13.5 43.5t5.5 40.5q0 14 -2.5 29t-9.5 32h85zM44 253q0 60 17 109t47.5 83.5t72.5 53.5t92 19q48 0 90.5 -21t66.5 -62h2q-1 5 -1 10q-1 5 -1 10.5v13.5v237h96v-706h-92v51v13.5t1 10.5l2 10h-2q-22 -42 -65 -69.5
t-103 -27.5q-51 0 -92 19.5t-70.5 54.5t-45 83.5t-15.5 107.5zM143 253q0 -41 10.5 -74.5t29.5 -57t45 -36.5t58 -13q28 0 54.5 10.5t46.5 32.5t32.5 56.5t12.5 82.5q0 34 -9 66.5t-27 57.5t-45 40t-63 15q-30 0 -56 -12t-46 -35t-31.5 -56.5t-11.5 -76.5z" />
    <glyph glyph-name="Dcroat" unicode="&#x110;" horiz-adv-x="743" 
d="M99 312h-58v82h58v312h235q81 0 146.5 -23.5t112.5 -68.5t72.5 -110.5t25.5 -149.5t-25.5 -150t-72.5 -111t-112.5 -69t-146.5 -24h-235v312zM327 86q59 0 107.5 17.5t83 51t53 83.5t18.5 116q0 65 -19 114.5t-53.5 83.5t-82.5 51t-107 17h-130v-226h150v-82h-150v-226
h130z" />
    <glyph glyph-name="dcroat" unicode="&#x111;" horiz-adv-x="601" 
d="M44 253q0 60 17 109t47.5 83.5t72.5 53.5t92 19q46 0 89 -19.5t67 -60.5h2q-1 5 -1 10v24v91h-131v63h131v80h96v-80h76v-63h-76v-563h-92v48v24q0 5 1 10h-2q-22 -42 -64.5 -68t-101.5 -26q-51 0 -92 19.5t-70.5 54.5t-45 83.5t-15.5 107.5zM143 253q0 -41 10.5 -74.5
t29.5 -57t45 -36.5t58 -13q28 0 54.5 10.5t46.5 32.5t32.5 56.5t12.5 82.5q0 34 -9 66.5t-27 57.5t-45 40.5t-63 15.5q-30 0 -56 -12t-46 -35.5t-31.5 -57t-11.5 -76.5z" />
    <glyph glyph-name="Emacron" unicode="&#x112;" horiz-adv-x="564" 
d="M93 706h411v-86h-312v-221h253v-86h-253v-227h329v-86h-428v706zM183 855h254v-71h-254v71z" />
    <glyph glyph-name="emacron" unicode="&#x113;" horiz-adv-x="557" 
d="M42 253q0 60 19.5 109t53.5 83.5t80.5 53.5t100.5 19t94.5 -19t68.5 -51t42 -75t14 -92q0 -10 -1 -20t-3 -21h-368q2 -41 16.5 -72.5t38 -52.5t54.5 -32t65 -11q41 0 80 16t69 43l41 -71q-37 -34 -90 -53t-106 -19q-60 0 -109.5 20.5t-85 56t-55 84t-19.5 104.5zM417 310
q-1 33 -11 57.5t-26.5 41.5t-38.5 25.5t-47 8.5q-57 0 -97 -35t-51 -98h271zM169 680h254v-71h-254v71z" />
    <glyph glyph-name="Ebreve" unicode="&#x114;" horiz-adv-x="564" 
d="M93 706h411v-86h-312v-221h253v-86h-253v-227h329v-86h-428v706zM309 751q-26 0 -50 7.5t-42 22t-29 36.5t-11 51v14h72v-13q0 -32 18.5 -46t41.5 -14q22 0 40.5 14.5t18.5 46.5v12h72v-14q0 -29 -11 -51t-29 -36.5t-42 -22t-49 -7.5z" />
    <glyph glyph-name="ebreve" unicode="&#x115;" horiz-adv-x="557" 
d="M42 253q0 60 19.5 109t53.5 83.5t80.5 53.5t100.5 19t94.5 -19t68.5 -51t42 -75t14 -92q0 -10 -1 -20t-3 -21h-368q2 -41 16.5 -72.5t38 -52.5t54.5 -32t65 -11q41 0 80 16t69 43l41 -71q-37 -34 -90 -53t-106 -19q-60 0 -109.5 20.5t-85 56t-55 84t-19.5 104.5zM417 310
q-1 33 -11 57.5t-26.5 41.5t-38.5 25.5t-47 8.5q-57 0 -97 -35t-51 -98h271zM295 576q-26 0 -50 7.5t-42 22t-29 36.5t-11 51v14h72v-13q0 -32 18.5 -46t41.5 -14q22 0 40.5 14.5t18.5 46.5v12h72v-14q0 -29 -11 -51t-29 -36.5t-42 -22t-49 -7.5z" />
    <glyph glyph-name="Edotaccent" unicode="&#x116;" horiz-adv-x="564" 
d="M93 706h411v-86h-312v-221h253v-86h-253v-227h329v-86h-428v706zM266 882h86v-98h-86v98z" />
    <glyph glyph-name="edotaccent" unicode="&#x117;" horiz-adv-x="557" 
d="M42 253q0 60 19.5 109t53.5 83.5t80.5 53.5t100.5 19t94.5 -19t68.5 -51t42 -75t14 -92q0 -10 -1 -20t-3 -21h-368q2 -41 16.5 -72.5t38 -52.5t54.5 -32t65 -11q41 0 80 16t69 43l41 -71q-37 -34 -90 -53t-106 -19q-60 0 -109.5 20.5t-85 56t-55 84t-19.5 104.5zM417 310
q-1 33 -11 57.5t-26.5 41.5t-38.5 25.5t-47 8.5q-57 0 -97 -35t-51 -98h271zM252 707h86v-98h-86v98z" />
    <glyph glyph-name="Eogonek" unicode="&#x118;" horiz-adv-x="564" 
d="M93 706h411v-86h-312v-221h253v-86h-253v-227h329v-86q-8 -6 -19 -16t-21.5 -22t-17.5 -25t-7 -26q0 -14 8.5 -22.5t19.5 -13.5q12 -5 28 -7l-23 -75q-32 5 -58 16q-22 10 -40 28.5t-18 50.5q0 19 7 36t18 31.5t23 25.5t23 19h-351v706z" />
    <glyph glyph-name="eogonek" unicode="&#x119;" horiz-adv-x="557" 
d="M42 253q0 60 19.5 109t53.5 83.5t80.5 53.5t100.5 19t94.5 -19t68.5 -51t42 -75t14 -92q0 -5 -0.5 -12.5t-1.5 -13.5q-1 -8 -2 -15h-368q2 -41 16.5 -72.5t38 -52.5t54.5 -32t65 -11q42 0 80 16t69 43l40 -71q-14 -14 -37 -30t-44.5 -34t-37 -39t-15.5 -46q0 -14 8 -22.5
t19 -13.5q12 -5 28 -7l-22 -75q-33 5 -59 16q-22 10 -40 28.5t-18 50.5q0 33 19 58.5t42 45.5q-8 -2 -18 -3t-20 -1q-60 0 -109.5 20.5t-85 56t-55 84t-19.5 104.5zM417 310q-2 64 -37.5 98.5t-85.5 34.5q-57 0 -97 -35.5t-51 -97.5h271z" />
    <glyph glyph-name="Ecaron" unicode="&#x11a;" horiz-adv-x="564" 
d="M170 882h85l52 -81h2l53 81h85l-89 -127h-100zM93 706h411v-86h-312v-221h253v-86h-253v-227h329v-86h-428v706z" />
    <glyph glyph-name="ecaron" unicode="&#x11b;" horiz-adv-x="557" 
d="M156 707h85l52 -81h2l53 81h85l-89 -127h-100zM42 253q0 60 19.5 109t53.5 83.5t80.5 53.5t100.5 19t94.5 -19t68.5 -51t42 -75t14 -92q0 -10 -1 -20t-3 -21h-368q2 -41 16.5 -72.5t38 -52.5t54.5 -32t65 -11q41 0 80 16t69 43l41 -71q-37 -34 -90 -53t-106 -19
q-60 0 -109.5 20.5t-85 56t-55 84t-19.5 104.5zM417 310q-1 33 -11 57.5t-26.5 41.5t-38.5 25.5t-47 8.5q-57 0 -97 -35t-51 -98h271z" />
    <glyph glyph-name="Gcircumflex" unicode="&#x11c;" horiz-adv-x="762" 
d="M348 882h100l89 -127h-85l-53 80h-2l-52 -80h-85zM50 354q0 76 27.5 142.5t75.5 116t114 77.5t143 28q69 0 136 -20.5t121 -65.5l-50 -73q-18 15 -41 27.5t-49.5 22t-54.5 14.5t-55 5q-62 0 -111 -21.5t-83.5 -58.5t-52.5 -86.5t-18 -105.5q0 -61 20 -112t54.5 -87.5
t82 -57t102.5 -20.5q57 0 109.5 24t90.5 64v102h-114v86h205v-355h-87v44v21q0 5 1 9h-2q-36 -38 -93.5 -62t-123.5 -24q-71 0 -134.5 27t-110.5 75t-74.5 115.5t-27.5 148.5z" />
    <glyph glyph-name="gcircumflex" unicode="&#x11d;" horiz-adv-x="594" 
d="M238 707h100l89 -127h-85l-53 80h-2l-52 -80h-85zM123 -92q30 -15 66 -24.5t73 -9.5q33 0 62 8t51 25t34.5 43.5t12.5 64.5v41v11.5t1 10.5l2 10h-2q-23 -38 -60 -60t-92 -22q-53 0 -95 20t-71 54.5t-44.5 82t-15.5 101.5q0 55 14.5 101.5t43 80.5t69.5 53t94 19
q47 0 91.5 -18.5t68.5 -58.5h3q-1 1 -2 4t-1 11v50h93v-485q0 -63 -22 -106.5t-57.5 -71.5t-81.5 -40.5t-94 -12.5q-46 0 -90.5 11.5t-82.5 30.5zM143 267q0 -79 39 -128t108 -49q26 0 50.5 8.5t43 29t29.5 53.5t11 83q0 49 -11 82t-30.5 52.5t-45.5 27.5t-56 8
q-66 0 -102 -44.5t-36 -122.5z" />
    <glyph glyph-name="Gbreve" unicode="&#x11e;" horiz-adv-x="762" 
d="M50 354q0 76 27.5 142.5t75.5 116t114 77.5t143 28q69 0 136 -20.5t121 -65.5l-50 -73q-18 15 -41 27.5t-49.5 22t-54.5 14.5t-55 5q-62 0 -111 -21.5t-83.5 -58.5t-52.5 -86.5t-18 -105.5q0 -61 20 -112t54.5 -87.5t82 -57t102.5 -20.5q57 0 109.5 24t90.5 64v102h-114
v86h205v-355h-87v44v21q0 5 1 9h-2q-36 -38 -93.5 -62t-123.5 -24q-71 0 -134.5 27t-110.5 75t-74.5 115.5t-27.5 148.5zM400 751q-26 0 -50 7.5t-42 22t-29 36.5t-11 51v14h72v-13q0 -32 18.5 -46t41.5 -14q22 0 40.5 14.5t18.5 46.5v12h72v-14q0 -29 -11 -51t-29 -36.5
t-42 -22t-49 -7.5z" />
    <glyph glyph-name="gbreve" unicode="&#x11f;" horiz-adv-x="594" 
d="M123 -92q30 -15 66 -24.5t73 -9.5q33 0 62 8t51 25t34.5 43.5t12.5 64.5v41v11.5t1 10.5l2 10h-2q-23 -38 -60 -60t-92 -22q-53 0 -95 20t-71 54.5t-44.5 82t-15.5 101.5q0 55 14.5 101.5t43 80.5t69.5 53t94 19q47 0 91.5 -18.5t68.5 -58.5h3q-1 1 -2 4t-1 11v50h93
v-485q0 -63 -22 -106.5t-57.5 -71.5t-81.5 -40.5t-94 -12.5q-46 0 -90.5 11.5t-82.5 30.5zM143 267q0 -79 39 -128t108 -49q26 0 50.5 8.5t43 29t29.5 53.5t11 83q0 49 -11 82t-30.5 52.5t-45.5 27.5t-56 8q-66 0 -102 -44.5t-36 -122.5zM289 576q-26 0 -50 7.5t-42 22
t-29 36.5t-11 51v14h72v-13q0 -32 18.5 -46t41.5 -14q22 0 40.5 14.5t18.5 46.5v12h72v-14q0 -29 -11 -51t-29 -36.5t-42 -22t-49 -7.5z" />
    <glyph glyph-name="Gdotaccent" unicode="&#x120;" horiz-adv-x="762" 
d="M50 354q0 76 27.5 142.5t75.5 116t114 77.5t143 28q69 0 136 -20.5t121 -65.5l-50 -73q-18 15 -41 27.5t-49.5 22t-54.5 14.5t-55 5q-62 0 -111 -21.5t-83.5 -58.5t-52.5 -86.5t-18 -105.5q0 -61 20 -112t54.5 -87.5t82 -57t102.5 -20.5q57 0 109.5 24t90.5 64v102h-114
v86h205v-355h-87v44v21q0 5 1 9h-2q-36 -38 -93.5 -62t-123.5 -24q-71 0 -134.5 27t-110.5 75t-74.5 115.5t-27.5 148.5zM357 882h86v-98h-86v98z" />
    <glyph glyph-name="gdotaccent" unicode="&#x121;" horiz-adv-x="594" 
d="M123 -92q30 -15 66 -24.5t73 -9.5q33 0 62 8t51 25t34.5 43.5t12.5 64.5v41v11.5t1 10.5l2 10h-2q-23 -38 -60 -60t-92 -22q-53 0 -95 20t-71 54.5t-44.5 82t-15.5 101.5q0 55 14.5 101.5t43 80.5t69.5 53t94 19q47 0 91.5 -18.5t68.5 -58.5h3q-1 1 -2 4t-1 11v50h93
v-485q0 -63 -22 -106.5t-57.5 -71.5t-81.5 -40.5t-94 -12.5q-46 0 -90.5 11.5t-82.5 30.5zM143 267q0 -79 39 -128t108 -49q26 0 50.5 8.5t43 29t29.5 53.5t11 83q0 49 -11 82t-30.5 52.5t-45.5 27.5t-56 8q-66 0 -102 -44.5t-36 -122.5zM246 707h86v-98h-86v98z" />
    <glyph glyph-name="uni0122" unicode="&#x122;" horiz-adv-x="762" 
d="M436 -59q7 -27 7 -51t-6.5 -46t-18.5 -48h-74q8 23 13.5 43.5t5.5 40.5q0 14 -2.5 29t-9.5 32h85zM50 354q0 76 27.5 142.5t75.5 116t114 77.5t143 28q69 0 136 -20.5t121 -65.5l-50 -73q-18 15 -41 27.5t-49.5 22t-54.5 14.5t-55 5q-62 0 -111 -21.5t-83.5 -58.5
t-52.5 -86.5t-18 -105.5q0 -61 20 -112t54.5 -87.5t82 -57t102.5 -20.5q57 0 109.5 24t90.5 64v102h-114v86h205v-355h-87v44v21q0 5 1 9h-2q-36 -38 -93.5 -62t-123.5 -24q-71 0 -134.5 27t-110.5 75t-74.5 115.5t-27.5 148.5z" />
    <glyph glyph-name="uni0123" unicode="&#x123;" horiz-adv-x="594" 
d="M249 563q-7 27 -7 50q0 24 6.5 45.5t18.5 47.5h73q-8 -23 -13.5 -43t-5.5 -40q0 -14 2.5 -28.5t9.5 -31.5h-84zM123 -92q30 -15 66 -24.5t73 -9.5q33 0 62 8t51 25t34.5 43.5t12.5 64.5v41v11.5t1 10.5l2 10h-2q-23 -38 -60 -60t-92 -22q-53 0 -95 20t-71 54.5t-44.5 82
t-15.5 101.5q0 55 14.5 101.5t43 80.5t69.5 53t94 19q47 0 91.5 -18.5t68.5 -58.5h3q-1 1 -2 4t-1 11v50h93v-485q0 -63 -22 -106.5t-57.5 -71.5t-81.5 -40.5t-94 -12.5q-46 0 -90.5 11.5t-82.5 30.5zM143 267q0 -79 39 -128t108 -49q26 0 50.5 8.5t43 29t29.5 53.5t11 83
q0 49 -11 82t-30.5 52.5t-45.5 27.5t-56 8q-66 0 -102 -44.5t-36 -122.5z" />
    <glyph glyph-name="Hcircumflex" unicode="&#x124;" horiz-adv-x="750" 
d="M324 882h100l89 -127h-85l-53 80h-2l-52 -80h-85zM93 706h99v-310h367v310h98v-706h-98v310h-367v-310h-99v706z" />
    <glyph glyph-name="hcircumflex" unicode="&#x125;" horiz-adv-x="603" 
d="M75 882h100l89 -127h-85l-53 80h-2l-52 -80h-85zM75 706h97v-262q0 -9 -0.5 -17t-1.5 -13q-1 -7 -2 -12h2q9 18 25.5 38.5t40.5 37.5t55 28.5t69 11.5q90 0 131.5 -48.5t41.5 -145.5v-324h-97v302q0 27 -3.5 50t-13.5 40t-29 27t-49 10q-37 0 -68 -14t-53.5 -39.5
t-35 -60t-12.5 -75.5v-240h-97v706z" />
    <glyph glyph-name="Hbar" unicode="&#x126;" horiz-adv-x="759" 
d="M100 514h-66v67h66v125h100v-125h359v125h100v-125h65v-67h-65v-514h-100v310h-359v-310h-100v514zM559 396v118h-359v-118h359z" />
    <glyph glyph-name="hbar" unicode="&#x127;" horiz-adv-x="603" 
d="M75 563h-72v63h72v80h97v-80h133v-63h-133v-116q0 -9 -0.5 -17t-0.5 -13q-1 -7 -1 -12h2q8 18 24.5 38t40 36.5t54.5 27.5t69 11q90 0 131.5 -48.5t41.5 -145.5v-324h-97v302q0 27 -3.5 50t-13.5 40t-29 27t-49 10q-38 0 -69.5 -15t-53.5 -40.5t-34 -59.5t-12 -71v-243
h-97v563z" />
    <glyph glyph-name="Itilde" unicode="&#x128;" horiz-adv-x="286" 
d="M93 706h99v-706h-99v706zM-24 756q0 127 102 127q25 0 42 -10.5t30 -23.5t25.5 -23.5t28.5 -10.5q22 0 30.5 21.5t8.5 43.5h70q0 -127 -102 -127q-25 0 -42 10.5t-30 23.5t-25.5 23.5t-28.5 10.5q-11 0 -18.5 -6t-12 -15.5t-6.5 -21t-2 -22.5h-70z" />
    <glyph glyph-name="itilde" unicode="&#x129;" horiz-adv-x="246" 
d="M75 506h97v-506h-97v506zM-43 581q0 127 102 127q25 0 42 -10.5t30 -23.5t25.5 -23.5t28.5 -10.5q22 0 30.5 21.5t8.5 43.5h70q0 -127 -102 -127q-25 0 -42 10.5t-30 23.5t-25.5 23.5t-28.5 10.5q-11 0 -18.5 -6t-12 -15.5t-6.5 -21t-2 -22.5h-70z" />
    <glyph glyph-name="Imacron" unicode="&#x12a;" horiz-adv-x="286" 
d="M93 706h99v-706h-99v706zM18 855h254v-71h-254v71z" />
    <glyph glyph-name="imacron" unicode="&#x12b;" horiz-adv-x="246" 
d="M75 506h97v-506h-97v506zM-2 680h254v-71h-254v71z" />
    <glyph glyph-name="Ibreve" unicode="&#x12c;" horiz-adv-x="286" 
d="M93 706h99v-706h-99v706zM145 751q-26 0 -50 7.5t-42 22t-29 36.5t-11 51v14h72v-13q0 -32 18.5 -46t41.5 -14q22 0 40.5 14.5t18.5 46.5v12h72v-14q0 -29 -11 -51t-29 -36.5t-42 -22t-49 -7.5z" />
    <glyph glyph-name="ibreve" unicode="&#x12d;" horiz-adv-x="246" 
d="M75 506h97v-506h-97v506zM125 576q-26 0 -50 7.5t-42 22t-29 36.5t-11 51v14h72v-13q0 -32 18.5 -46t41.5 -14q22 0 40.5 14.5t18.5 46.5v12h72v-14q0 -29 -11 -51t-29 -36.5t-42 -22t-49 -7.5z" />
    <glyph glyph-name="Iogonek" unicode="&#x12e;" horiz-adv-x="286" 
d="M93 706h99v-706q-8 -6 -18.5 -16t-21 -22t-17.5 -25t-7 -26q0 -14 8 -22.5t19 -13.5q12 -5 28 -7l-23 -75q-32 5 -58 16q-22 10 -40 28.5t-18 50.5q0 18 6.5 34.5t16.5 30.5t22 26t23 21h-19v706z" />
    <glyph glyph-name="iogonek" unicode="&#x12f;" horiz-adv-x="247" 
d="M75 506h97v-506q-8 -6 -18.5 -16t-21 -22t-17.5 -25t-7 -26q0 -14 8 -22.5t19 -13.5q12 -5 28 -7l-22 -75q-33 4 -59 15q-22 10 -40 29t-18 51q0 18 6.5 34.5t17 31t22.5 26t23 20.5h-18v506zM73 706h100v-98h-100v98z" />
    <glyph glyph-name="Idotaccent" unicode="&#x130;" horiz-adv-x="286" 
d="M93 706h99v-706h-99v706zM102 882h86v-98h-86v98z" />
    <glyph glyph-name="dotlessi" unicode="&#x131;" horiz-adv-x="246" 
d="M75 506h97v-506h-97v506z" />
    <glyph glyph-name="IJ" unicode="&#x132;" horiz-adv-x="608" 
d="M284 86q22 0 46 5.5t44.5 22t34 47t13.5 79.5v466h100v-467q0 -77 -22 -124.5t-56.5 -73.5t-77 -35.5t-82.5 -9.5v90zM93 706h99v-706h-99v706z" />
    <glyph glyph-name="ij" unicode="&#x133;" horiz-adv-x="493" 
d="M73 706h100v-98h-100v98zM75 506h97v-506h-97v506zM319 706h100v-98h-100v98zM321 506h97v-523q0 -63 -21.5 -100.5t-52 -57t-63.5 -25.5t-57 -6q-8 0 -16.5 0.5t-17.5 1.5v83q10 -2 22 -2q14 0 33 3.5t36 15.5t28.5 34t11.5 59v517z" />
    <glyph glyph-name="Jcircumflex" unicode="&#x134;" horiz-adv-x="533" 
d="M255 882h100l89 -127h-85l-53 80h-2l-52 -80h-85zM28 238h98v-30q0 -26 6 -49t19.5 -41t34.5 -28.5t51 -10.5q21 0 41 6.5t35.5 21.5t25 38.5t9.5 58.5v416h-178v86h276v-503q0 -57 -18 -98t-47.5 -67t-67 -38t-76.5 -12t-76.5 12t-67 38.5t-47.5 67t-18 97.5v35z" />
    <glyph glyph-name="jcircumflex" unicode="&#x135;" horiz-adv-x="246" 
d="M74 706h94l88 -127h-81l-53 81h-2l-52 -81h-82zM75 506h97v-523q0 -63 -21.5 -100.5t-52 -57t-63.5 -25.5t-57 -6h-16.5t-17.5 2v83q5 -1 10 -1.5t12 -0.5q14 0 33 3.5t36 15.5t28.5 34t11.5 59v517z" />
    <glyph glyph-name="uni0136" unicode="&#x136;" horiz-adv-x="614" 
d="M357 -59q7 -27 7 -51t-6.5 -46t-18.5 -48h-74q8 23 13.5 43.5t5.5 40.5q0 14 -2.5 29t-9.5 32h85zM93 706h99v-297h105l179 297h109l-206 -335v-2l219 -369h-113l-188 323h-105v-323h-99v706z" />
    <glyph glyph-name="uni0137" unicode="&#x137;" horiz-adv-x="522" 
d="M312 -59q7 -27 7 -51t-6.5 -46t-18.5 -48h-74q8 23 13.5 43.5t5.5 40.5q0 14 -2.5 29t-9.5 32h85zM75 706h97v-386h72l137 186h110l-168 -223v-2l187 -281h-113l-151 237h-74v-237h-97v706z" />
    <glyph glyph-name="kgreenlandic" unicode="&#x138;" horiz-adv-x="520" 
d="M75 506h97v-199h70l145 199h112l-176 -235v-2l179 -269h-116l-142 225h-72v-225h-97v506z" />
    <glyph glyph-name="Lacute" unicode="&#x139;" horiz-adv-x="526" 
d="M173 882h105l-96 -127h-81zM93 706h99v-620h317v-86h-416v706z" />
    <glyph glyph-name="lacute" unicode="&#x13a;" horiz-adv-x="267" 
d="M154 882h105l-96 -127h-81zM75 706h96v-551q0 -45 16 -58.5t39 -13.5h7.5t9.5 1v-86q-5 -1 -13 -2t-19 -1q-21 0 -45 4.5t-44 19.5t-33.5 43.5t-13.5 76.5v567z" />
    <glyph glyph-name="uni013B" unicode="&#x13b;" horiz-adv-x="526" 
d="M347 -59q7 -27 7 -51t-6.5 -46t-18.5 -48h-74q8 23 13.5 43.5t5.5 40.5q0 14 -2.5 29t-9.5 32h85zM93 706h99v-620h317v-86h-416v706z" />
    <glyph glyph-name="uni013C" unicode="&#x13c;" horiz-adv-x="267" 
d="M200 -59q7 -27 7 -51t-6.5 -46t-18.5 -48h-74q8 23 13.5 43.5t5.5 40.5q0 14 -2.5 29t-9.5 32h85zM75 706h96v-551q0 -45 16 -58.5t39 -13.5h7.5t9.5 1v-86q-5 -1 -13 -2t-19 -1q-21 0 -45 4.5t-44 19.5t-33.5 43.5t-13.5 76.5v567z" />
    <glyph glyph-name="Lcaron" unicode="&#x13d;" horiz-adv-x="527" 
d="M361 705q7 -27 7 -51t-6.5 -46t-18.5 -48h-74q8 23 13.5 43.5t5.5 40.5q0 14 -2.5 29t-9.5 32h85zM93 706h99v-620h317v-86h-416v706z" />
    <glyph glyph-name="lcaron" unicode="&#x13e;" horiz-adv-x="275" 
d="M314 705q7 -27 7 -51t-6.5 -46t-18.5 -48h-74q8 23 13.5 43.5t5.5 40.5q0 14 -2.5 29t-9.5 32h85zM75 706h96v-551q0 -45 16 -58.5t39 -13.5h7.5t9.5 1v-86q-5 -1 -13 -2t-19 -1q-21 0 -45 4.5t-44 19.5t-33.5 43.5t-13.5 76.5v567z" />
    <glyph glyph-name="Ldot" unicode="&#x13f;" horiz-adv-x="527" 
d="M93 706h99v-620h317v-86h-416v706zM308 431h101v-105h-101v105z" />
    <glyph glyph-name="ldot" unicode="&#x140;" horiz-adv-x="343" 
d="M75 706h96v-551q0 -45 16 -58.5t39 -13.5h7.5t9.5 1v-86q-5 -1 -13 -2t-19 -1q-21 0 -45 4.5t-44 19.5t-33.5 43.5t-13.5 76.5v567zM243 431h101v-105h-101v105z" />
    <glyph glyph-name="Lslash" unicode="&#x141;" horiz-adv-x="531" 
d="M99 301l-60 -34v97l60 34v308h98v-252l109 63v-97l-109 -63v-271h316v-86h-414v301z" />
    <glyph glyph-name="lslash" unicode="&#x142;" horiz-adv-x="286" 
d="M16 372l73 42v292h97v-236l82 47v-97l-82 -48v-217q0 -45 16 -58.5t38 -13.5h12q3 0 6 1v-86l-10 -2t-10.5 -1h-12.5q-21 0 -44.5 4.5t-44 19.5t-34 43.5t-13.5 76.5v178l-73 -42v97z" />
    <glyph glyph-name="Nacute" unicode="&#x143;" horiz-adv-x="752" 
d="M404 882h105l-96 -127h-81zM93 706h98l315 -458l19.5 -32.5t18.5 -33.5q10 -18 20 -37h2q-2 18 -3 36q-2 16 -2.5 34t-0.5 33v458h98v-706h-97l-315 458q-10 14 -20 32t-18 34q-10 18 -20 37h-2q1 -19 3 -37q1 -16 2 -33.5t1 -32.5v-458h-99v706z" />
    <glyph glyph-name="nacute" unicode="&#x144;" horiz-adv-x="603" 
d="M340 707h105l-96 -127h-81zM75 506h94v-69q0 -8 -0.5 -15t-1.5 -12q-1 -6 -1 -11h2q7 16 22.5 37t39 39t56 30.5t74.5 12.5q90 0 131.5 -48.5t41.5 -145.5v-324h-97v302q0 27 -3.5 50t-13.5 40t-29 27t-49 10q-37 0 -68 -14.5t-53.5 -39.5t-35 -59t-12.5 -73v-243h-97
v506z" />
    <glyph glyph-name="uni0145" unicode="&#x145;" horiz-adv-x="752" 
d="M415 -59q7 -27 7 -51t-6.5 -46t-18.5 -48h-74q8 23 13.5 43.5t5.5 40.5q0 14 -2.5 29t-9.5 32h85zM93 706h98l315 -458l19.5 -32.5t18.5 -33.5q10 -18 20 -37h2q-2 18 -3 36q-2 16 -2.5 34t-0.5 33v458h98v-706h-97l-315 458q-10 14 -20 32t-18 34q-10 18 -20 37h-2
q1 -19 3 -37q1 -16 2 -33.5t1 -32.5v-458h-99v706z" />
    <glyph glyph-name="uni0146" unicode="&#x146;" horiz-adv-x="603" 
d="M342 -59q7 -27 7 -51t-6.5 -46t-18.5 -48h-74q8 23 13.5 43.5t5.5 40.5q0 14 -2.5 29t-9.5 32h85zM75 506h94v-69q0 -8 -0.5 -15t-1.5 -12q-1 -6 -1 -11h2q7 16 22.5 37t39 39t56 30.5t74.5 12.5q90 0 131.5 -48.5t41.5 -145.5v-324h-97v302q0 27 -3.5 50t-13.5 40
t-29 27t-49 10q-37 0 -68 -14.5t-53.5 -39.5t-35 -59t-12.5 -73v-243h-97v506z" />
    <glyph glyph-name="Ncaron" unicode="&#x147;" horiz-adv-x="752" 
d="M237 882h85l52 -81h2l53 81h85l-89 -127h-100zM93 706h98l315 -458l19.5 -32.5t18.5 -33.5q10 -18 20 -37h2q-2 18 -3 36q-2 16 -2.5 34t-0.5 33v458h98v-706h-97l-315 458q-10 14 -20 32t-18 34q-10 18 -20 37h-2q1 -19 3 -37q1 -16 2 -33.5t1 -32.5v-458h-99v706z" />
    <glyph glyph-name="ncaron" unicode="&#x148;" horiz-adv-x="603" 
d="M173 707h85l52 -81h2l53 81h85l-89 -127h-100zM75 506h94v-69q0 -8 -0.5 -15t-1.5 -12q-1 -6 -1 -11h2q7 16 22.5 37t39 39t56 30.5t74.5 12.5q90 0 131.5 -48.5t41.5 -145.5v-324h-97v302q0 27 -3.5 50t-13.5 40t-29 27t-49 10q-37 0 -68 -14.5t-53.5 -39.5t-35 -59
t-12.5 -73v-243h-97v506z" />
    <glyph glyph-name="napostrophe" unicode="&#x149;" horiz-adv-x="603" 
d="M88 705q7 -27 7 -51t-6.5 -46t-18.5 -48h-74q8 23 13.5 43.5t5.5 40.5q0 14 -2.5 29t-9.5 32h85zM75 506h94v-69q0 -8 -0.5 -15t-1.5 -12q-1 -6 -1 -11h2q7 16 22.5 37t39 39t56 30.5t74.5 12.5q90 0 131.5 -48.5t41.5 -145.5v-324h-97v302q0 27 -3.5 50t-13.5 40t-29 27
t-49 10q-37 0 -68 -14.5t-53.5 -39.5t-35 -59t-12.5 -73v-243h-97v506z" />
    <glyph glyph-name="Eng" unicode="&#x14a;" horiz-adv-x="751" 
d="M93 706h98l315 -458l19.5 -32.5t18.5 -33.5q10 -18 20 -37h2q-2 18 -3 36q-2 16 -2.5 34t-0.5 33v458h98v-679q0 -68 -21 -113t-54.5 -71.5t-75 -37t-81.5 -10.5v91q19 0 41.5 6t41.5 20.5t32.5 37.5t15.5 57l-311 451q-10 14 -20 32t-18 34q-10 18 -20 37h-2
q1 -19 3 -37q1 -16 2 -33.5t1 -32.5v-458h-99v706z" />
    <glyph glyph-name="eng" unicode="&#x14b;" horiz-adv-x="603" 
d="M75 506h94v-75q0 -6 -0.5 -11.5t-0.5 -9.5q-1 -4 -1 -8h2q7 16 22.5 36.5t39 38t55.5 29.5t74 12q90 0 131.5 -48.5t41.5 -145.5v-344q0 -63 -21.5 -100.5t-52 -57t-63.5 -25.5t-57 -6h-14t-11 1q-5 0 -9 1v83q2 -1 6 -1h16q14 0 33 3.5t36 15t28.5 33.5t11.5 59v316
q0 27 -3.5 50t-13.5 40t-29 27t-49 10q-39 0 -70 -15t-53 -40.5t-34 -59.5t-12 -71v-243h-97v506z" />
    <glyph glyph-name="Omacron" unicode="&#x14c;" horiz-adv-x="823" 
d="M285 855h254v-71h-254v71zM49 358q0 76 27 142t75.5 114.5t115 76t145.5 27.5t145.5 -27.5t114.5 -76t75 -114.5t27 -142q0 -78 -27 -145.5t-75 -117.5t-114.5 -78.5t-145.5 -28.5t-145.5 28.5t-115 78.5t-75.5 117.5t-27 145.5zM151 358q0 -59 19.5 -110t54.5 -88.5
t82.5 -59t104.5 -21.5q56 0 104 21.5t82.5 59t54 88.5t19.5 110q0 57 -19.5 106.5t-54 86t-82.5 57t-104 20.5q-57 0 -104.5 -20.5t-82.5 -57t-54.5 -86t-19.5 -106.5z" />
    <glyph glyph-name="omacron" unicode="&#x14d;" horiz-adv-x="629" 
d="M188 680h254v-71h-254v71zM42 254q0 57 21.5 105.5t58.5 84t86.5 55t105.5 19.5q57 0 106.5 -19.5t86.5 -55t58.5 -84t21.5 -105.5q0 -58 -21.5 -106.5t-58.5 -84t-86.5 -55.5t-105.5 -20q-57 0 -106.5 20t-86.5 55.5t-58.5 84t-21.5 106.5zM141 254q0 -40 13.5 -73.5
t37.5 -57.5t55.5 -37.5t67.5 -13.5t67.5 13.5t55 37.5t37.5 57.5t14 73.5q0 39 -14 72t-37.5 57t-55 37.5t-67.5 13.5t-67.5 -13.5t-55.5 -37.5t-37.5 -57t-13.5 -72z" />
    <glyph glyph-name="Obreve" unicode="&#x14e;" horiz-adv-x="823" 
d="M49 358q0 76 27 142t75.5 114.5t115 76t145.5 27.5t145.5 -27.5t114.5 -76t75 -114.5t27 -142q0 -78 -27 -145.5t-75 -117.5t-114.5 -78.5t-145.5 -28.5t-145.5 28.5t-115 78.5t-75.5 117.5t-27 145.5zM151 358q0 -59 19.5 -110t54.5 -88.5t82.5 -59t104.5 -21.5
q56 0 104 21.5t82.5 59t54 88.5t19.5 110q0 57 -19.5 106.5t-54 86t-82.5 57t-104 20.5q-57 0 -104.5 -20.5t-82.5 -57t-54.5 -86t-19.5 -106.5zM411 751q-26 0 -50 7.5t-42 22t-29 36.5t-11 51v14h72v-13q0 -32 18.5 -46t41.5 -14q22 0 40.5 14.5t18.5 46.5v12h72v-14
q0 -29 -11 -51t-29 -36.5t-42 -22t-49 -7.5z" />
    <glyph glyph-name="obreve" unicode="&#x14f;" horiz-adv-x="629" 
d="M42 254q0 57 21.5 105.5t58.5 84t86.5 55t105.5 19.5q57 0 106.5 -19.5t86.5 -55t58.5 -84t21.5 -105.5q0 -58 -21.5 -106.5t-58.5 -84t-86.5 -55.5t-105.5 -20q-57 0 -106.5 20t-86.5 55.5t-58.5 84t-21.5 106.5zM141 254q0 -40 13.5 -73.5t37.5 -57.5t55.5 -37.5
t67.5 -13.5t67.5 13.5t55 37.5t37.5 57.5t14 73.5q0 39 -14 72t-37.5 57t-55 37.5t-67.5 13.5t-67.5 -13.5t-55.5 -37.5t-37.5 -57t-13.5 -72zM314 576q-26 0 -50 7.5t-42 22t-29 36.5t-11 51v14h72v-13q0 -32 18.5 -46t41.5 -14q22 0 40.5 14.5t18.5 46.5v12h72v-14
q0 -29 -11 -51t-29 -36.5t-42 -22t-49 -7.5z" />
    <glyph glyph-name="Ohungarumlaut" unicode="&#x150;" horiz-adv-x="823" 
d="M506 882h101l-96 -127h-78zM347 882h88l-71 -127h-85zM49 358q0 76 27 142t75.5 114.5t115 76t145.5 27.5t145.5 -27.5t114.5 -76t75 -114.5t27 -142q0 -78 -27 -145.5t-75 -117.5t-114.5 -78.5t-145.5 -28.5t-145.5 28.5t-115 78.5t-75.5 117.5t-27 145.5zM151 358
q0 -59 19.5 -110t54.5 -88.5t82.5 -59t104.5 -21.5q56 0 104 21.5t82.5 59t54 88.5t19.5 110q0 57 -19.5 106.5t-54 86t-82.5 57t-104 20.5q-57 0 -104.5 -20.5t-82.5 -57t-54.5 -86t-19.5 -106.5z" />
    <glyph glyph-name="ohungarumlaut" unicode="&#x151;" horiz-adv-x="629" 
d="M409 707h101l-96 -127h-78zM250 707h88l-71 -127h-85zM42 254q0 57 21.5 105.5t58.5 84t86.5 55t105.5 19.5q57 0 106.5 -19.5t86.5 -55t58.5 -84t21.5 -105.5q0 -58 -21.5 -106.5t-58.5 -84t-86.5 -55.5t-105.5 -20q-57 0 -106.5 20t-86.5 55.5t-58.5 84t-21.5 106.5z
M141 254q0 -40 13.5 -73.5t37.5 -57.5t55.5 -37.5t67.5 -13.5t67.5 13.5t55 37.5t37.5 57.5t14 73.5q0 39 -14 72t-37.5 57t-55 37.5t-67.5 13.5t-67.5 -13.5t-55.5 -37.5t-37.5 -57t-13.5 -72z" />
    <glyph glyph-name="OE" unicode="&#x152;" horiz-adv-x="956" 
d="M50 354q0 76 27.5 142t76.5 114.5t116 76.5t145 28q36 0 66 -4.5t57 -4.5h358v-86h-312v-221h254v-86h-254v-227h329v-86h-375q-26 0 -56.5 -4.5t-66.5 -4.5q-78 0 -145 28t-116 77t-76.5 115t-27.5 143zM152 354q0 -59 19 -109.5t54 -87.5t83 -58.5t107 -21.5
q15 0 27.5 1t22.5 3q11 2 21 4v536q-10 2 -21 4q-10 2 -22.5 3t-27.5 1q-59 0 -107 -21.5t-83 -58.5t-54 -87t-19 -108z" />
    <glyph glyph-name="oe" unicode="&#x153;" horiz-adv-x="1003" 
d="M42 252q0 60 21.5 109t58.5 84t86 54t104 19q75 0 130.5 -32.5t88.5 -87.5h2q30 57 82.5 88.5t125.5 31.5q54 0 95 -19t68.5 -51t41.5 -75t14 -92q0 -5 -0.5 -12.5t-1.5 -13.5q-1 -8 -1 -15h-369q3 -41 18 -72.5t39 -52.5t54 -32t63 -11q42 0 80.5 16t69.5 43l40 -71
q-37 -34 -89.5 -53t-106.5 -19q-79 0 -134.5 33.5t-86.5 89.5h-2q-32 -57 -88 -90t-133 -33q-55 0 -104 18.5t-86 53t-58.5 83.5t-21.5 109zM861 310q-1 32 -11 56.5t-26.5 41t-38 25t-45.5 8.5q-57 0 -97.5 -34.5t-51.5 -96.5h270zM141 252q0 -41 14 -74t37.5 -56.5
t55 -36.5t66.5 -13q36 0 67.5 13t55 36.5t37.5 57.5t14 76q0 41 -14 74t-38 56.5t-55.5 36t-66.5 12.5t-66.5 -13t-55 -37t-37.5 -57.5t-14 -74.5z" />
    <glyph glyph-name="Racute" unicode="&#x154;" horiz-adv-x="628" 
d="M334 882h105l-96 -127h-81zM93 706h224q51 0 80 -4.5t51 -14.5q51 -23 81.5 -70t30.5 -115t-34 -121t-92 -73v-2q1 -4 5 -8q2 -4 6 -10t9 -14l150 -274h-112l-149 281h-151v-281h-99v706zM334 367q58 0 92 35.5t34 94.5q0 38 -16.5 67.5t-49.5 43.5q-14 6 -32.5 9
t-52.5 3h-117v-253h142z" />
    <glyph glyph-name="racute" unicode="&#x155;" horiz-adv-x="376" 
d="M252 707h105l-96 -127h-81zM75 506h94v-91q0 -8 -0.5 -14.5t-1.5 -11.5q-1 -6 -1 -11h2q9 27 24.5 51.5t36 43t46 29t54.5 10.5q7 0 13.5 -0.5t12.5 -1.5v-96q-3 1 -11.5 1.5t-16.5 0.5q-41 0 -70.5 -18.5t-48 -48t-27.5 -66t-9 -73.5v-210h-97v506z" />
    <glyph glyph-name="uni0156" unicode="&#x156;" horiz-adv-x="628" 
d="M365 -59q7 -27 7 -51t-6.5 -46t-18.5 -48h-74q8 23 13.5 43.5t5.5 40.5q0 14 -2.5 29t-9.5 32h85zM93 706h224q51 0 80 -4.5t51 -14.5q51 -23 81.5 -70t30.5 -115t-34 -121t-92 -73v-2q1 -4 5 -8q2 -4 6 -10t9 -14l150 -274h-112l-149 281h-151v-281h-99v706zM334 367
q58 0 92 35.5t34 94.5q0 38 -16.5 67.5t-49.5 43.5q-14 6 -32.5 9t-52.5 3h-117v-253h142z" />
    <glyph glyph-name="uni0157" unicode="&#x157;" horiz-adv-x="376" 
d="M166 -59q7 -27 7 -51t-6.5 -46t-18.5 -48h-74q8 23 13.5 43.5t5.5 40.5q0 14 -2.5 29t-9.5 32h85zM75 506h94v-91q0 -8 -0.5 -14.5t-1.5 -11.5q-1 -6 -1 -11h2q9 27 24.5 51.5t36 43t46 29t54.5 10.5q7 0 13.5 -0.5t12.5 -1.5v-96q-3 1 -11.5 1.5t-16.5 0.5
q-41 0 -70.5 -18.5t-48 -48t-27.5 -66t-9 -73.5v-210h-97v506z" />
    <glyph glyph-name="Rcaron" unicode="&#x158;" horiz-adv-x="628" 
d="M166 882h85l52 -81h2l53 81h85l-89 -127h-100zM93 706h224q51 0 80 -4.5t51 -14.5q51 -23 81.5 -70t30.5 -115t-34 -121t-92 -73v-2q1 -4 5 -8q2 -4 6 -10t9 -14l150 -274h-112l-149 281h-151v-281h-99v706zM334 367q58 0 92 35.5t34 94.5q0 38 -16.5 67.5t-49.5 43.5
q-14 6 -32.5 9t-52.5 3h-117v-253h142z" />
    <glyph glyph-name="rcaron" unicode="&#x159;" horiz-adv-x="376" 
d="M86 707h85l52 -81h2l53 81h85l-89 -127h-100zM75 506h94v-91q0 -8 -0.5 -14.5t-1.5 -11.5q-1 -6 -1 -11h2q9 27 24.5 51.5t36 43t46 29t54.5 10.5q7 0 13.5 -0.5t12.5 -1.5v-96q-3 1 -11.5 1.5t-16.5 0.5q-41 0 -70.5 -18.5t-48 -48t-27.5 -66t-9 -73.5v-210h-97v506z
" />
    <glyph glyph-name="Sacute" unicode="&#x15a;" horiz-adv-x="545" 
d="M302 882h105l-96 -127h-81zM97 156q32 -31 79.5 -53.5t98.5 -22.5q56 0 90 27.5t34 73.5q0 39 -25.5 64t-63 44.5t-82 38t-82 43t-63 60.5t-25.5 91q0 45 17.5 81t48.5 61.5t73.5 39.5t91.5 14q53 0 105.5 -17.5t91.5 -54.5l-45 -81q-29 27 -71.5 44.5t-84.5 17.5
q-54 0 -90.5 -27t-36.5 -73q0 -38 25 -62t63 -42.5t82 -36t82 -42.5t63 -61.5t25 -93.5q0 -42 -15 -78.5t-43.5 -63.5t-70.5 -43t-96 -16q-64 0 -125 24t-107 69z" />
    <glyph glyph-name="sacute" unicode="&#x15b;" horiz-adv-x="447" 
d="M251 707h105l-96 -127h-81zM78 128q29 -28 69 -43.5t80 -15.5q38 0 62 17t24 49q0 24 -19.5 39.5t-48 28t-62.5 25t-62.5 31t-48 45t-19.5 68.5q0 36 14.5 63.5t39.5 45.5t58 27.5t70 9.5q44 0 87.5 -13t76.5 -43l-39 -70q-23 21 -58.5 33t-69.5 12q-37 0 -61.5 -15.5
t-24.5 -47.5q0 -25 19.5 -40.5t48.5 -28t62.5 -24.5t62.5 -30t48.5 -45t19.5 -69q0 -32 -13.5 -59.5t-37.5 -47.5t-57.5 -31t-73.5 -11q-51 0 -103 18t-90 56z" />
    <glyph glyph-name="Scircumflex" unicode="&#x15c;" horiz-adv-x="545" 
d="M224 882h100l89 -127h-85l-53 80h-2l-52 -80h-85zM97 156q32 -31 79.5 -53.5t98.5 -22.5q56 0 90 27.5t34 73.5q0 39 -25.5 64t-63 44.5t-82 38t-82 43t-63 60.5t-25.5 91q0 45 17.5 81t48.5 61.5t73.5 39.5t91.5 14q53 0 105.5 -17.5t91.5 -54.5l-45 -81
q-29 27 -71.5 44.5t-84.5 17.5q-54 0 -90.5 -27t-36.5 -73q0 -38 25 -62t63 -42.5t82 -36t82 -42.5t63 -61.5t25 -93.5q0 -42 -15 -78.5t-43.5 -63.5t-70.5 -43t-96 -16q-64 0 -125 24t-107 69z" />
    <glyph glyph-name="scircumflex" unicode="&#x15d;" horiz-adv-x="447" 
d="M175 707h100l89 -127h-85l-53 80h-2l-52 -80h-85zM78 128q29 -28 69 -43.5t80 -15.5q38 0 62 17t24 49q0 24 -19.5 39.5t-48 28t-62.5 25t-62.5 31t-48 45t-19.5 68.5q0 36 14.5 63.5t39.5 45.5t58 27.5t70 9.5q44 0 87.5 -13t76.5 -43l-39 -70q-23 21 -58.5 33t-69.5 12
q-37 0 -61.5 -15.5t-24.5 -47.5q0 -25 19.5 -40.5t48.5 -28t62.5 -24.5t62.5 -30t48.5 -45t19.5 -69q0 -32 -13.5 -59.5t-37.5 -47.5t-57.5 -31t-73.5 -11q-51 0 -103 18t-90 56z" />
    <glyph glyph-name="Scedilla" unicode="&#x15e;" horiz-adv-x="546" 
d="M246 -11q-57 5 -110.5 28t-94.5 64l56 75q32 -31 79.5 -53.5t98.5 -22.5q56 0 90 27.5t34 73.5q0 39 -25.5 64t-63 44.5t-82 38t-82 43t-63 60.5t-25.5 91q0 45 17.5 81t48.5 61.5t73.5 39.5t91.5 14q53 0 105.5 -17.5t91.5 -54.5l-45 -81q-29 27 -71.5 44.5t-84.5 17.5
q-54 0 -90.5 -27t-36.5 -73q0 -38 25 -62t63 -42.5t82 -36t82 -42.5t63 -61.5t25 -93.5q0 -39 -13 -73.5t-38.5 -61.5t-62 -44t-84.5 -21l-8 -39q31 -4 51.5 -22.5t20.5 -50.5q0 -23 -9 -39t-23 -26t-32.5 -14.5t-37.5 -4.5q-28 0 -55 6v59q8 -3 20 -5t22 -2q19 0 33.5 6.5
t14.5 24.5q0 16 -15 23.5t-38 7.5q-4 0 -7 -0.5t-5 -0.5h-6z" />
    <glyph glyph-name="scedilla" unicode="&#x15f;" horiz-adv-x="449" 
d="M194 -10q-45 5 -87 22.5t-74 49.5l46 66q29 -28 69 -43.5t80 -15.5q38 0 62 17t24 49q0 24 -19.5 39.5t-48 28t-62.5 25t-62.5 31t-48 45t-19.5 68.5q0 36 14.5 63.5t39.5 45.5t58 27.5t70 9.5q44 0 87.5 -13t76.5 -43l-39 -70q-23 21 -58.5 33t-69.5 12
q-37 0 -61.5 -15.5t-24.5 -47.5q0 -25 19.5 -40.5t48.5 -28t62.5 -24.5t62.5 -30t48.5 -45t19.5 -69q0 -30 -11.5 -56t-32.5 -45.5t-50.5 -31.5t-65.5 -15l-8 -39q31 -4 51.5 -22.5t20.5 -50.5q0 -23 -9 -39t-23 -26t-32.5 -14.5t-37.5 -4.5q-28 0 -55 6v59q8 -3 20 -5
t22 -2q19 0 33.5 6.5t14.5 24.5q0 16 -15 23.5t-38 7.5q-4 0 -7 -0.5t-5 -0.5h-6z" />
    <glyph glyph-name="Scaron" unicode="&#x160;" horiz-adv-x="545" 
d="M136 882h85l52 -81h2l53 81h85l-89 -127h-100zM97 156q32 -31 79.5 -53.5t98.5 -22.5q56 0 90 27.5t34 73.5q0 39 -25.5 64t-63 44.5t-82 38t-82 43t-63 60.5t-25.5 91q0 45 17.5 81t48.5 61.5t73.5 39.5t91.5 14q53 0 105.5 -17.5t91.5 -54.5l-45 -81q-29 27 -71.5 44.5
t-84.5 17.5q-54 0 -90.5 -27t-36.5 -73q0 -38 25 -62t63 -42.5t82 -36t82 -42.5t63 -61.5t25 -93.5q0 -42 -15 -78.5t-43.5 -63.5t-70.5 -43t-96 -16q-64 0 -125 24t-107 69z" />
    <glyph glyph-name="scaron" unicode="&#x161;" horiz-adv-x="447" 
d="M87 707h85l52 -81h2l53 81h85l-89 -127h-100zM78 128q29 -28 69 -43.5t80 -15.5q38 0 62 17t24 49q0 24 -19.5 39.5t-48 28t-62.5 25t-62.5 31t-48 45t-19.5 68.5q0 36 14.5 63.5t39.5 45.5t58 27.5t70 9.5q44 0 87.5 -13t76.5 -43l-39 -70q-23 21 -58.5 33t-69.5 12
q-37 0 -61.5 -15.5t-24.5 -47.5q0 -25 19.5 -40.5t48.5 -28t62.5 -24.5t62.5 -30t48.5 -45t19.5 -69q0 -32 -13.5 -59.5t-37.5 -47.5t-57.5 -31t-73.5 -11q-51 0 -103 18t-90 56z" />
    <glyph glyph-name="uni0162" unicode="&#x162;" horiz-adv-x="615" 
d="M258 620h-243v86h584v-86h-243v-620h-24l-11 -50q31 -4 51.5 -22.5t20.5 -50.5q0 -23 -9 -39t-23 -26t-32.5 -14.5t-37.5 -4.5q-28 0 -55 6v59q8 -3 20 -5t22 -2q19 0 33.5 6.5t14.5 24.5q0 16 -15 23.5t-38 7.5q-4 0 -7 -0.5t-5 -0.5h-6l23 88h-20v620z" />
    <glyph glyph-name="uni0163" unicode="&#x163;" horiz-adv-x="349" 
d="M182 19q-35 18 -60.5 56.5t-25.5 109.5v237h-66v79h68v144h95v-144h122v-79h-122v-226q0 -38 11.5 -60.5t28.5 -34.5t35.5 -15.5t32.5 -3.5h10t13 2v-86q-6 -1 -14.5 -2t-19.5 -1q-13 0 -28 1t-31 5l-11 -51q31 -4 51.5 -22.5t20.5 -50.5q0 -23 -9 -39t-23 -26
t-32.5 -14.5t-37.5 -4.5q-28 0 -55 6v59q8 -3 20 -5t22 -2q19 0 33.5 6.5t14.5 24.5q0 16 -15 23.5t-38 7.5q-4 0 -7 -0.5t-5 -0.5h-6z" />
    <glyph glyph-name="Tcaron" unicode="&#x164;" horiz-adv-x="615" 
d="M168 882h85l52 -81h2l53 81h85l-89 -127h-100zM258 620h-243v86h584v-86h-243v-620h-98v620z" />
    <glyph glyph-name="tcaron" unicode="&#x165;" horiz-adv-x="349" 
d="M337 706q7 -27 7 -50t-6.5 -45t-18.5 -47h-74q8 23 13.5 42.5t5.5 39.5q0 14 -2.5 28.5t-9.5 31.5h85zM96 422h-66v79h68v144h95v-144h122v-79h-122v-226q0 -38 11.5 -60.5t28.5 -34.5t35.5 -15.5t32.5 -3.5h10t13 2v-86q-6 -1 -14.5 -2t-19.5 -1q-24 0 -57.5 6t-64 25.5
t-51.5 57.5t-21 101v237z" />
    <glyph glyph-name="Tbar" unicode="&#x166;" horiz-adv-x="625" 
d="M263 310h-156v76h156v234h-243v86h584v-86h-243v-234h161v-76h-161v-310h-98v310z" />
    <glyph glyph-name="tbar" unicode="&#x167;" horiz-adv-x="353" 
d="M28 327h71v95h-66v79h68v144h94v-144h122v-79h-122v-95h117v-68h-117v-67q0 -36 11.5 -58t28.5 -33.5t35.5 -15t32.5 -3.5q13 0 17 1q4 0 6 1v-86l-10 -2t-10.5 -1h-13.5q-24 0 -57.5 6t-63.5 25.5t-51 57.5t-21 101v74h-71v68z" />
    <glyph glyph-name="Utilde" unicode="&#x168;" horiz-adv-x="726" 
d="M85 706h99v-455q0 -82 49 -127t130 -45t129.5 45t48.5 128v454h99v-456q0 -59 -20 -107.5t-56 -83t-87 -53t-113 -18.5t-113.5 18.5t-88.5 53t-57 83t-20 107.5v456zM194 756q0 127 102 127q25 0 42 -10.5t30 -23.5t25.5 -23.5t28.5 -10.5q22 0 30.5 21.5t8.5 43.5h70
q0 -127 -102 -127q-25 0 -42 10.5t-30 23.5t-25.5 23.5t-28.5 10.5q-11 0 -18.5 -6t-12 -15.5t-6.5 -21t-2 -22.5h-70z" />
    <glyph glyph-name="utilde" unicode="&#x169;" horiz-adv-x="597" 
d="M69 506h97v-302q0 -26 3.5 -49t14 -40t29 -27t48.5 -10q39 0 69.5 16t52 42t32.5 60.5t11 72.5v237h96v-506h-94v70q0 8 0.5 14.5t1.5 11.5q1 6 2 11h-2q-8 -19 -24.5 -40t-40.5 -38.5t-55 -29t-68 -11.5q-86 0 -129.5 46.5t-43.5 147.5v324zM127 581q0 127 102 127
q25 0 42 -10.5t30 -23.5t25.5 -23.5t28.5 -10.5q22 0 30.5 21.5t8.5 43.5h70q0 -127 -102 -127q-25 0 -42 10.5t-30 23.5t-25.5 23.5t-28.5 10.5q-11 0 -18.5 -6t-12 -15.5t-6.5 -21t-2 -22.5h-70z" />
    <glyph glyph-name="Umacron" unicode="&#x16a;" horiz-adv-x="726" 
d="M85 706h99v-455q0 -82 49 -127t130 -45t129.5 45t48.5 128v454h99v-456q0 -59 -20 -107.5t-56 -83t-87 -53t-113 -18.5t-113.5 18.5t-88.5 53t-57 83t-20 107.5v456zM236 855h254v-71h-254v71z" />
    <glyph glyph-name="umacron" unicode="&#x16b;" horiz-adv-x="597" 
d="M69 506h97v-302q0 -26 3.5 -49t14 -40t29 -27t48.5 -10q39 0 69.5 16t52 42t32.5 60.5t11 72.5v237h96v-506h-94v70q0 8 0.5 14.5t1.5 11.5q1 6 2 11h-2q-8 -19 -24.5 -40t-40.5 -38.5t-55 -29t-68 -11.5q-86 0 -129.5 46.5t-43.5 147.5v324zM169 680h254v-71h-254v71z
" />
    <glyph glyph-name="Ubreve" unicode="&#x16c;" horiz-adv-x="726" 
d="M85 706h99v-455q0 -82 49 -127t130 -45t129.5 45t48.5 128v454h99v-456q0 -59 -20 -107.5t-56 -83t-87 -53t-113 -18.5t-113.5 18.5t-88.5 53t-57 83t-20 107.5v456zM362 751q-26 0 -50 7.5t-42 22t-29 36.5t-11 51v14h72v-13q0 -32 18.5 -46t41.5 -14q22 0 40.5 14.5
t18.5 46.5v12h72v-14q0 -29 -11 -51t-29 -36.5t-42 -22t-49 -7.5z" />
    <glyph glyph-name="ubreve" unicode="&#x16d;" horiz-adv-x="597" 
d="M69 506h97v-302q0 -26 3.5 -49t14 -40t29 -27t48.5 -10q39 0 69.5 16t52 42t32.5 60.5t11 72.5v237h96v-506h-94v70q0 8 0.5 14.5t1.5 11.5q1 6 2 11h-2q-8 -19 -24.5 -40t-40.5 -38.5t-55 -29t-68 -11.5q-86 0 -129.5 46.5t-43.5 147.5v324zM296 576q-26 0 -50 7.5
t-42 22t-29 36.5t-11 51v14h72v-13q0 -32 18.5 -46t41.5 -14q22 0 40.5 14.5t18.5 46.5v12h72v-14q0 -29 -11 -51t-29 -36.5t-42 -22t-49 -7.5z" />
    <glyph glyph-name="Uring" unicode="&#x16e;" horiz-adv-x="726" 
d="M362 743q-34 0 -59.5 19.5t-25.5 54.5t25.5 55t59.5 20q33 0 58.5 -20t25.5 -55t-25.5 -54.5t-58.5 -19.5zM362 784q14 0 23.5 9.5t9.5 23.5q0 16 -9.5 25.5t-23.5 9.5q-15 0 -24 -9.5t-9 -25.5q0 -14 9 -23.5t24 -9.5zM85 706h99v-455q0 -82 49 -127t130 -45t129.5 45
t48.5 128v454h99v-456q0 -59 -20 -107.5t-56 -83t-87 -53t-113 -18.5t-113.5 18.5t-88.5 53t-57 83t-20 107.5v456z" />
    <glyph glyph-name="uring" unicode="&#x16f;" horiz-adv-x="597" 
d="M296 568q-34 0 -59.5 19.5t-25.5 54.5t25.5 55t59.5 20q33 0 58.5 -20t25.5 -55t-25.5 -54.5t-58.5 -19.5zM296 609q14 0 23.5 9.5t9.5 23.5q0 16 -9.5 25.5t-23.5 9.5q-15 0 -24 -9.5t-9 -25.5q0 -14 9 -23.5t24 -9.5zM69 506h97v-302q0 -26 3.5 -49t14 -40t29 -27
t48.5 -10q39 0 69.5 16t52 42t32.5 60.5t11 72.5v237h96v-506h-94v70q0 8 0.5 14.5t1.5 11.5q1 6 2 11h-2q-8 -19 -24.5 -40t-40.5 -38.5t-55 -29t-68 -11.5q-86 0 -129.5 46.5t-43.5 147.5v324z" />
    <glyph glyph-name="Uhungarumlaut" unicode="&#x170;" horiz-adv-x="726" 
d="M85 706h99v-455q0 -82 49 -127t130 -45t129.5 45t48.5 128v454h99v-456q0 -59 -20 -107.5t-56 -83t-87 -53t-113 -18.5t-113.5 18.5t-88.5 53t-57 83t-20 107.5v456zM457 882h101l-96 -127h-78zM298 882h88l-71 -127h-85z" />
    <glyph glyph-name="uhungarumlaut" unicode="&#x171;" horiz-adv-x="597" 
d="M69 506h97v-302q0 -26 3.5 -49t14 -40t29 -27t48.5 -10q39 0 69.5 16t52 42t32.5 60.5t11 72.5v237h96v-506h-94v70q0 8 0.5 14.5t1.5 11.5q1 6 2 11h-2q-8 -19 -24.5 -40t-40.5 -38.5t-55 -29t-68 -11.5q-86 0 -129.5 46.5t-43.5 147.5v324zM391 707h101l-96 -127h-78z
M232 707h88l-71 -127h-85z" />
    <glyph glyph-name="Uogonek" unicode="&#x172;" horiz-adv-x="726" 
d="M86 706h98v-455q0 -82 49 -127t130 -45t130 45t49 128v454h98v-456q0 -49 -11.5 -85t-30.5 -63t-42.5 -46.5t-47.5 -35.5q-19 -14 -37 -26.5t-31.5 -25.5t-22 -27t-8.5 -30q0 -14 8 -22.5t19 -13.5q12 -5 28 -7l-23 -75q-32 5 -58 16q-22 10 -40 28.5t-18 50.5
q0 31 17 57.5t38 43.5q-4 -1 -8 -1h-14q-54 0 -103.5 17t-87 50t-59.5 82t-22 113v456z" />
    <glyph glyph-name="uogonek" unicode="&#x173;" horiz-adv-x="597" 
d="M69 506h97v-302q0 -26 3.5 -49t14 -40t29 -27t48.5 -10q39 0 69.5 16t52 42t32.5 60.5t11 72.5v237h96v-506q-8 -6 -18.5 -16t-21 -22t-17.5 -25t-7 -26q0 -14 8 -22.5t19 -13.5q12 -5 28 -7l-23 -75q-32 5 -58 16q-22 10 -40 28.5t-18 50.5q0 18 6.5 34.5t17 31t22.5 26
t23 20.5h-15v70q0 8 0.5 14.5t1.5 11.5q1 6 2 11h-2q-8 -19 -24.5 -40t-40.5 -38.5t-55 -29t-68 -11.5q-86 0 -129.5 46.5t-43.5 147.5v324z" />
    <glyph glyph-name="Wcircumflex" unicode="&#x174;" horiz-adv-x="941" 
d="M424 882h100l89 -127h-85l-53 80h-2l-52 -80h-85zM29 706h104l123 -518q3 -14 5.5 -27.5t4.5 -24.5q2 -12 4 -23h2q1 11 4 23q2 11 5 24t7 28l139 518h87l138 -518q4 -15 7 -28t5 -24q3 -12 4 -23h2q1 11 3 23q2 11 4 24.5t6 27.5l131 518h102l-186 -706h-113l-124 458
q-5 17 -8.5 35t-6.5 32q-4 17 -6 32h-4q-2 -15 -6 -32q-3 -14 -7 -32t-9 -35l-123 -458h-114z" />
    <glyph glyph-name="wcircumflex" unicode="&#x175;" horiz-adv-x="828" 
d="M363 707h100l89 -127h-85l-53 80h-2l-52 -80h-85zM24 506h103l105 -355q3 -10 5 -19.5t4 -17.5q2 -9 4 -17h2q1 8 4 17q2 8 4.5 17.5t5.5 19.5l109 354h90l109 -354q2 -10 4.5 -19.5t4.5 -17.5q2 -9 4 -17h2q1 8 3 17q2 8 4.5 17.5t5.5 19.5l106 355h101l-162 -506h-108
l-104 325q-4 10 -6.5 19.5t-4.5 17.5q-3 9 -4 18h-2l-4 -18q-2 -8 -4.5 -17.5t-5.5 -19.5l-104 -325h-108z" />
    <glyph glyph-name="Ycircumflex" unicode="&#x176;" horiz-adv-x="592" 
d="M247 299l-237 407h112l130 -232q8 -16 15.5 -31.5t13.5 -28.5q7 -15 14 -29h2q6 14 13 29q13 27 30 60l130 232h112l-237 -407v-299h-98v299zM245 882h100l89 -127h-85l-53 80h-2l-52 -80h-85z" />
    <glyph glyph-name="ycircumflex" unicode="&#x177;" horiz-adv-x="535" 
d="M50 -105q8 -7 18 -11q8 -5 18.5 -8t21.5 -3q30 0 54 20t38 55l25 58l-212 500h109l127 -331q4 -10 7 -20.5t6 -19.5q3 -11 6 -21h2l5 20q2 9 5 19.5t7 20.5l123 332h105l-238 -597q-23 -60 -66.5 -89.5t-97.5 -29.5q-21 0 -39 4.5t-31 10.5q-15 7 -27 16zM218 707h100
l89 -127h-85l-53 80h-2l-52 -80h-85z" />
    <glyph glyph-name="Ydieresis" unicode="&#x178;" horiz-adv-x="592" 
d="M247 299l-237 407h112l130 -232q8 -16 15.5 -31.5t13.5 -28.5q7 -15 14 -29h2q6 14 13 29q13 27 30 60l130 232h112l-237 -407v-299h-98v299zM337 882h79v-101h-79v101zM169 882h80v-101h-80v101z" />
    <glyph glyph-name="Zacute" unicode="&#x179;" horiz-adv-x="594" 
d="M336 882h105l-96 -127h-81zM36 66l339 490q10 15 19.5 27t16.5 20q8 10 15 17v2q-6 -1 -14 -1q-7 -1 -16.5 -1h-21.5h-321v86h496v-65l-340 -491q-10 -15 -19 -27t-16 -20q-8 -10 -15 -17v-2q5 0 13 1q7 0 16.5 0.5t22.5 0.5h342v-86h-517v66z" />
    <glyph glyph-name="zacute" unicode="&#x17a;" horiz-adv-x="511" 
d="M280 707h105l-96 -127h-81zM36 56l256 320q8 10 15 19t13 15l13 13v2q-5 -1 -12 -1q-6 -1 -15.5 -1h-21.5h-237v83h417v-56l-255 -320q-18 -23 -29 -34q-7 -7 -14 -13v-2q6 0 13 1q6 1 15 1.5t22 0.5h257v-84h-437v56z" />
    <glyph glyph-name="Zdotaccent" unicode="&#x17b;" horiz-adv-x="594" 
d="M36 66l339 490q10 15 19.5 27t16.5 20q8 10 15 17v2q-6 -1 -14 -1q-7 -1 -16.5 -1h-21.5h-321v86h496v-65l-340 -491q-10 -15 -19 -27t-16 -20q-8 -10 -15 -17v-2q5 0 13 1q7 0 16.5 0.5t22.5 0.5h342v-86h-517v66zM265 882h86v-98h-86v98z" />
    <glyph glyph-name="zdotaccent" unicode="&#x17c;" horiz-adv-x="511" 
d="M36 56l256 320q8 10 15 19t13 15l13 13v2q-5 -1 -12 -1q-6 -1 -15.5 -1h-21.5h-237v83h417v-56l-255 -320q-18 -23 -29 -34q-7 -7 -14 -13v-2q6 0 13 1q6 1 15 1.5t22 0.5h257v-84h-437v56zM209 707h86v-98h-86v98z" />
    <glyph glyph-name="Zcaron" unicode="&#x17d;" horiz-adv-x="594" 
d="M169 882h85l52 -81h2l53 81h85l-89 -127h-100zM36 66l339 490q10 15 19.5 27t16.5 20q8 10 15 17v2q-6 -1 -14 -1q-7 -1 -16.5 -1h-21.5h-321v86h496v-65l-340 -491q-10 -15 -19 -27t-16 -20q-8 -10 -15 -17v-2q5 0 13 1q7 0 16.5 0.5t22.5 0.5h342v-86h-517v66z" />
    <glyph glyph-name="zcaron" unicode="&#x17e;" horiz-adv-x="511" 
d="M114 707h85l52 -81h2l53 81h85l-89 -127h-100zM36 56l256 320q8 10 15 19t13 15l13 13v2q-5 -1 -12 -1q-6 -1 -15.5 -1h-21.5h-237v83h417v-56l-255 -320q-18 -23 -29 -34q-7 -7 -14 -13v-2q6 0 13 1q6 1 15 1.5t22 0.5h257v-84h-437v56z" />
    <glyph glyph-name="longs" unicode="&#x17f;" horiz-adv-x="291" 
d="M99 422h-63v79h63v22q0 63 21 100t50.5 56.5t62.5 25.5t57 6q8 0 15 -0.5t12 -1.5t10 -1v-84q-3 0 -7 1q-3 0 -8 0.5t-10 0.5q-14 0 -32.5 -3.5t-35 -14.5t-27.5 -32t-11 -56v-520h-97v422z" />
    <glyph glyph-name="florin" unicode="&#x192;" horiz-adv-x="577" 
d="M33 -21q11 -2 22 -3q10 -2 21.5 -2.5t22.5 -0.5q13 0 31.5 3.5t35.5 15t30 33.5t16 59l24 266h-82v78h88l10 102q6 63 30 100t55.5 56.5t65 25.5t57.5 6q14 0 28.5 -1t26.5 -3q14 -2 28 -3v-84q-14 1 -28 3q-12 2 -26 3t-25 1q-14 0 -32.5 -3.5t-36 -15t-30.5 -33.5
t-16 -59l-9 -95h117v-78h-124l-24 -274q-6 -63 -30 -100t-55 -56.5t-64 -25t-57 -5.5q-29 0 -48 3q-11 1 -22 3v84v0z" />
    <glyph glyph-name="uni0218" unicode="&#x218;" horiz-adv-x="545" 
d="M309 -59q7 -27 7 -51t-6.5 -46t-18.5 -48h-74q8 23 13.5 43.5t5.5 40.5q0 14 -2.5 29t-9.5 32h85zM97 156q32 -31 79.5 -53.5t98.5 -22.5q56 0 90 27.5t34 73.5q0 39 -25.5 64t-63 44.5t-82 38t-82 43t-63 60.5t-25.5 91q0 45 17.5 81t48.5 61.5t73.5 39.5t91.5 14
q53 0 105.5 -17.5t91.5 -54.5l-45 -81q-29 27 -71.5 44.5t-84.5 17.5q-54 0 -90.5 -27t-36.5 -73q0 -38 25 -62t63 -42.5t82 -36t82 -42.5t63 -61.5t25 -93.5q0 -42 -15 -78.5t-43.5 -63.5t-70.5 -43t-96 -16q-64 0 -125 24t-107 69z" />
    <glyph glyph-name="uni0219" unicode="&#x219;" horiz-adv-x="447" 
d="M262 -59q7 -27 7 -51t-6.5 -46t-18.5 -48h-74q8 23 13.5 43.5t5.5 40.5q0 14 -2.5 29t-9.5 32h85zM78 128q29 -28 69 -43.5t80 -15.5q38 0 62 17t24 49q0 24 -19.5 39.5t-48 28t-62.5 25t-62.5 31t-48 45t-19.5 68.5q0 36 14.5 63.5t39.5 45.5t58 27.5t70 9.5
q44 0 87.5 -13t76.5 -43l-39 -70q-23 21 -58.5 33t-69.5 12q-37 0 -61.5 -15.5t-24.5 -47.5q0 -25 19.5 -40.5t48.5 -28t62.5 -24.5t62.5 -30t48.5 -45t19.5 -69q0 -32 -13.5 -59.5t-37.5 -47.5t-57.5 -31t-73.5 -11q-51 0 -103 18t-90 56z" />
    <glyph glyph-name="uni021A" unicode="&#x21a;" horiz-adv-x="615" 
d="M345 -59q7 -27 7 -51t-6.5 -46t-18.5 -48h-74q8 23 13.5 43.5t5.5 40.5q0 14 -2.5 29t-9.5 32h85zM258 620h-243v86h584v-86h-243v-620h-98v620z" />
    <glyph glyph-name="uni021B" unicode="&#x21b;" horiz-adv-x="349" 
d="M251 -59q7 -27 7 -51t-6.5 -46t-18.5 -48h-74q8 23 13.5 43.5t5.5 40.5q0 14 -2.5 29t-9.5 32h85zM96 422h-66v79h68v144h95v-144h122v-79h-122v-226q0 -38 11.5 -60.5t28.5 -34.5t35.5 -15.5t32.5 -3.5h10t13 2v-86q-6 -1 -14.5 -2t-19.5 -1q-24 0 -57.5 6t-64 25.5
t-51.5 57.5t-21 101v237z" />
    <glyph glyph-name="circumflex" unicode="&#x2c6;" horiz-adv-x="499" 
d="M199 882h100l89 -127h-85l-53 80h-2l-52 -80h-85z" />
    <glyph glyph-name="caron" unicode="&#x2c7;" horiz-adv-x="499" 
d="M111 882h85l52 -81h2l53 81h85l-89 -127h-100z" />
    <glyph glyph-name="breve" unicode="&#x2d8;" horiz-adv-x="499" 
d="M250 751q-26 0 -50 7.5t-42 22t-29 36.5t-11 51v14h72v-13q0 -32 18.5 -46t41.5 -14q22 0 40.5 14.5t18.5 46.5v12h72v-14q0 -29 -11 -51t-29 -36.5t-42 -22t-49 -7.5z" />
    <glyph glyph-name="dotaccent" unicode="&#x2d9;" horiz-adv-x="500" 
d="M207 882h86v-98h-86v98z" />
    <glyph glyph-name="ring" unicode="&#x2da;" horiz-adv-x="500" 
d="M250 743q-34 0 -59.5 19.5t-25.5 54.5t25.5 55t59.5 20q33 0 58.5 -20t25.5 -55t-25.5 -54.5t-58.5 -19.5zM250 784q14 0 23.5 9.5t9.5 23.5q0 16 -9.5 25.5t-23.5 9.5q-15 0 -24 -9.5t-9 -25.5q0 -14 9 -23.5t24 -9.5z" />
    <glyph glyph-name="ogonek" unicode="&#x2db;" horiz-adv-x="499" 
d="M170 -112q0 30 15 54.5t34 42.5q22 21 50 38l61 -13q-22 -16 -39 -33q-14 -14 -26 -31.5t-12 -34.5q0 -14 8.5 -22.5t19.5 -13.5q12 -5 28 -7l-23 -75q-32 5 -58 16q-22 10 -40 28.5t-18 50.5z" />
    <glyph glyph-name="tilde" unicode="&#x2dc;" horiz-adv-x="499" 
d="M81 756q0 127 102 127q25 0 42 -10.5t30 -23.5t25.5 -23.5t28.5 -10.5q22 0 30.5 21.5t8.5 43.5h70q0 -127 -102 -127q-25 0 -42 10.5t-30 23.5t-25.5 23.5t-28.5 10.5q-11 0 -18.5 -6t-12 -15.5t-6.5 -21t-2 -22.5h-70v0z" />
    <glyph glyph-name="hungarumlaut" unicode="&#x2dd;" horiz-adv-x="499" 
d="M313 882h101l-96 -127h-78zM154 882h88l-71 -127h-85z" />
    <glyph glyph-name="uni0400" unicode="&#x400;" horiz-adv-x="564" 
d="M93 706h411v-86h-312v-221h253v-86h-253v-227h329v-86h-428v706zM191 882h104l73 -127h-82z" />
    <glyph glyph-name="uni0401" unicode="&#x401;" horiz-adv-x="564" 
d="M349 882h79v-101h-79v101zM181 882h80v-101h-80v101zM93 706h411v-86h-312v-221h253v-86h-253v-227h329v-86h-428v706z" />
    <glyph glyph-name="uni0402" unicode="&#x402;" horiz-adv-x="736" 
d="M208 620h-193v86h524v-86h-232v-197q0 -6 -0.5 -11t-0.5 -10q-1 -5 -1 -10h2q38 19 86.5 30t91.5 11q52 0 93 -16t69 -44.5t42.5 -67.5t14.5 -86q0 -56 -17 -99t-47 -72t-70.5 -44.5t-87.5 -15.5q-24 0 -48 3v83q7 -1 15 -1.5t21 -0.5q23 0 47 6.5t43.5 23t32 43.5
t12.5 68q0 58 -34 95t-105 37q-35 0 -64 -6.5t-50 -14.5q-25 -9 -45 -20v-304h-99v620z" />
    <glyph glyph-name="uni0403" unicode="&#x403;" horiz-adv-x="495" 
d="M301 882h105l-96 -127h-81zM93 706h389v-86h-290v-620h-99v706z" />
    <glyph glyph-name="uni0404" unicode="&#x404;" horiz-adv-x="716" 
d="M50 357q0 76 26 142t73.5 114.5t113.5 76.5t146 28q64 0 112.5 -15t80.5 -32q38 -20 65 -46l-50 -74q-24 21 -56 38q-27 14 -64.5 26.5t-83.5 12.5q-54 0 -99 -17.5t-79 -49t-54.5 -74t-25.5 -92.5h369v-82h-369q6 -50 26.5 -93t54 -74.5t79 -49.5t100.5 -18
q50 0 90 13.5t69 30.5q33 19 60 45l52 -69q-31 -31 -71 -55q-35 -21 -86 -38t-117 -17q-80 0 -146.5 28.5t-114.5 78.5t-74.5 117t-26.5 145z" />
    <glyph glyph-name="uni0405" unicode="&#x405;" horiz-adv-x="545" 
d="M97 156q32 -31 79.5 -53.5t98.5 -22.5q56 0 90 27.5t34 73.5q0 39 -25.5 64t-63 44.5t-82 38t-82 43t-63 60.5t-25.5 91q0 45 17.5 81t48.5 61.5t73.5 39.5t91.5 14q53 0 105.5 -17.5t91.5 -54.5l-45 -81q-29 27 -71.5 44.5t-84.5 17.5q-54 0 -90.5 -27t-36.5 -73
q0 -38 25 -62t63 -42.5t82 -36t82 -42.5t63 -61.5t25 -93.5q0 -42 -15 -78.5t-43.5 -63.5t-70.5 -43t-96 -16q-64 0 -125 24t-107 69z" />
    <glyph glyph-name="uni0406" unicode="&#x406;" horiz-adv-x="286" 
d="M93 706h99v-706h-99v706z" />
    <glyph glyph-name="uni0407" unicode="&#x407;" horiz-adv-x="286" 
d="M93 706h99v-706h-99v706zM189 882h79v-101h-79v101zM21 882h80v-101h-80v101z" />
    <glyph glyph-name="uni0408" unicode="&#x408;" horiz-adv-x="533" 
d="M28 238h98v-30q0 -26 6 -49t19.5 -41t34.5 -28.5t51 -10.5q21 0 41 6.5t35.5 21.5t25 38.5t9.5 58.5v416h-178v86h276v-503q0 -57 -18 -98t-47.5 -67t-67 -38t-76.5 -12t-76.5 12t-67 38.5t-47.5 67t-18 97.5v35z" />
    <glyph glyph-name="uni0409" unicode="&#x409;" horiz-adv-x="953" 
d="M20 85q45 4 75.5 34t49 85t26 134t7.5 182v186h388v-289h137q49 0 90 -14.5t70 -42t45.5 -66t16.5 -86.5t-16.5 -86.5t-46 -65.5t-69.5 -41.5t-86 -14.5h-239v620h-191v-100q0 -116 -10 -210.5t-37.5 -163.5t-78 -108.5t-131.5 -44.5v92zM691 86q60 0 96.5 31.5
t36.5 90.5q0 57 -37 90t-97 33h-124v-245h125z" />
    <glyph glyph-name="uni040A" unicode="&#x40a;" horiz-adv-x="1008" 
d="M93 706h99v-292h329v292h98v-291h143q48 0 87.5 -14.5t68.5 -41.5t45 -65.5t16 -86.5q0 -47 -16.5 -85.5t-46 -65.5t-69 -41.5t-85.5 -14.5h-241v328h-329v-328h-99v706zM746 86q59 0 95.5 31.5t36.5 89.5q0 57 -36.5 89.5t-96.5 32.5h-126v-243h127z" />
    <glyph glyph-name="uni040B" unicode="&#x40b;" horiz-adv-x="735" 
d="M208 620h-193v86h523v-86h-231v-199q0 -6 -0.5 -11.5t-0.5 -10.5q-1 -5 -1 -11h2q27 14 76 29.5t108 15.5q52 0 89 -15t61 -42.5t35.5 -66t11.5 -86.5v-223h-100v209q0 65 -28 100.5t-96 35.5q-25 0 -48.5 -4.5t-44 -11.5t-37 -15t-27.5 -15v-299h-99v620z" />
    <glyph glyph-name="uni040C" unicode="&#x40c;" horiz-adv-x="614" 
d="M347 882h105l-96 -127h-81zM93 706h99v-297h105l179 297h109l-206 -335v-2l219 -369h-113l-188 323h-105v-323h-99v706z" />
    <glyph glyph-name="uni040D" unicode="&#x40d;" horiz-adv-x="752" 
d="M93 706h99v-458q0 -15 -1 -33t-2 -34q-2 -18 -3 -36h2q10 20 21 38q9 16 19 34t20 32l313 457h97v-706h-98v458q0 15 0.5 32.5t2.5 33.5q1 18 3 37h-2q-9 -19 -20 -37q-9 -16 -19.5 -34t-19.5 -32l-315 -458h-97v706zM249 882h104l73 -127h-82z" />
    <glyph glyph-name="uni040E" unicode="&#x40e;" horiz-adv-x="599" 
d="M120 109q13 -10 34 -22.5t47 -12.5q31 0 48.5 21t31.5 58l-279 553h109l172 -355q8 -17 15.5 -33t12.5 -30q6 -16 12 -30h2q4 14 9 30q5 14 10 29.5t11 32.5l131 356h104l-225 -576q-11 -27 -25 -52.5t-33 -45.5t-44.5 -32t-58.5 -12q-36 0 -68 13t-61 33zM301 739
q-29 0 -55.5 8.5t-47 25t-33 40t-12.5 54.5v15h78v-14q0 -33 22 -49.5t48 -16.5t48.5 16.5t22.5 50.5v13h77v-15q0 -31 -12 -54.5t-32.5 -40t-47.5 -25t-56 -8.5z" />
    <glyph glyph-name="uni040F" unicode="&#x40f;" horiz-adv-x="730" 
d="M93 706h99v-620h346v620h99v-706h-227v-140h-90v140h-227v706z" />
    <glyph glyph-name="uni0410" unicode="&#x410;" horiz-adv-x="641" 
d="M268 706h105l253 -706h-102l-71 203h-266l-71 -203h-101zM427 285l-78 223q-5 14 -10 31t-9 33q-5 18 -9 37h-2q-5 -19 -9 -37q-4 -16 -8.5 -33t-9.5 -31l-79 -223h214z" />
    <glyph glyph-name="uni0411" unicode="&#x411;" horiz-adv-x="605" 
d="M93 706h417v-86h-318v-197h155q46 0 85.5 -14t68.5 -41.5t45 -67t16 -90.5q0 -47 -15.5 -86t-43.5 -66.5t-66.5 -42.5t-84.5 -15h-259v706zM336 86q60 0 93 33t33 91q0 59 -34.5 93t-93.5 34h-142v-251h144z" />
    <glyph glyph-name="uni0412" unicode="&#x412;" horiz-adv-x="624" 
d="M93 706h247q45 0 82.5 -12t65 -35t42.5 -56.5t15 -76.5q0 -52 -23.5 -91.5t-64.5 -60.5v-2q57 -17 87 -64t30 -107q0 -50 -18 -87.5t-49.5 -63t-73 -38t-87.5 -12.5h-253v706zM340 409q48 0 76 30t28 77t-27 75.5t-78 28.5h-147v-211h148zM351 86q57 0 89 33t32 88
q0 54 -32.5 87t-88.5 33h-159v-241h159z" />
    <glyph glyph-name="uni0413" unicode="&#x413;" horiz-adv-x="495" 
d="M93 706h389v-86h-290v-620h-99v706z" />
    <glyph glyph-name="uni0414" unicode="&#x414;" horiz-adv-x="720" 
d="M502 86v534h-221v-65q0 -58 -4 -121t-15 -124.5t-30.5 -118.5t-50.5 -105h321zM77 86q37 52 59 111t33.5 120.5t15 123.5t3.5 120v145h413v-620h78v-226h-89v140h-492v-140h-92v226h71z" />
    <glyph glyph-name="uni0415" unicode="&#x415;" horiz-adv-x="564" 
d="M93 706h411v-86h-312v-221h253v-86h-253v-227h329v-86h-428v706z" />
    <glyph glyph-name="uni0416" unicode="&#x416;" horiz-adv-x="892" 
d="M223 369v2l-191 335h108l165 -297h92v297h98v-297h93l164 297h108l-191 -335v-2l206 -369h-112l-175 323h-93v-323h-98v323h-92l-176 -323h-111z" />
    <glyph glyph-name="uni0417" unicode="&#x417;" horiz-adv-x="546" 
d="M82 151q28 -30 72 -52t94 -22q65 0 106 34t41 94q0 56 -37 86.5t-95 30.5h-87v82h70q27 0 50 8.5t40 23.5t27 36t10 46q0 23 -7.5 43.5t-22.5 36t-38.5 24.5t-56.5 9q-38 0 -78.5 -13.5t-79.5 -46.5l-42 74q28 23 56.5 37.5t56 22.5t53 10.5t48.5 2.5q45 0 84 -13
t67.5 -37t44.5 -59t16 -79q0 -32 -9 -57.5t-23.5 -45t-32.5 -33.5t-37 -23v-2q56 -16 90 -59.5t34 -109.5q0 -49 -19 -88.5t-51.5 -67t-76 -42t-93.5 -14.5q-64 0 -125.5 25t-103.5 71z" />
    <glyph glyph-name="uni0418" unicode="&#x418;" horiz-adv-x="752" 
d="M93 706h99v-458q0 -15 -1 -33t-2 -34q-2 -18 -3 -36h2q10 20 21 38q9 16 19 34t20 32l313 457h97v-706h-98v458q0 15 0.5 32.5t2.5 33.5q1 18 3 37h-2q-9 -19 -20 -37q-9 -16 -19.5 -34t-19.5 -32l-315 -458h-97v706z" />
    <glyph glyph-name="uni0419" unicode="&#x419;" horiz-adv-x="752" 
d="M379 739q-29 0 -55.5 8.5t-47 25t-33 40t-12.5 54.5v15h78v-14q0 -33 22 -49.5t48 -16.5t48.5 16.5t22.5 50.5v13h77v-15q0 -31 -12 -54.5t-32.5 -40t-47.5 -25t-56 -8.5zM93 706h99v-458q0 -15 -1 -33t-2 -34q-2 -18 -3 -36h2q10 20 21 38q9 16 19 34t20 32l313 457h97
v-706h-98v458q0 15 0.5 32.5t2.5 33.5q1 18 3 37h-2q-9 -19 -20 -37q-9 -16 -19.5 -34t-19.5 -32l-315 -458h-97v706z" />
    <glyph glyph-name="uni041A" unicode="&#x41a;" horiz-adv-x="614" 
d="M93 706h99v-297h105l179 297h109l-206 -335v-2l219 -369h-113l-188 323h-105v-323h-99v706z" />
    <glyph glyph-name="uni041B" unicode="&#x41b;" horiz-adv-x="678" 
d="M12 83q89 12 125 126.5t36 329.5v167h412v-706h-99v620h-219v-82q0 -127 -12.5 -226.5t-42 -169.5t-78.5 -108t-122 -42v91v0z" />
    <glyph glyph-name="uni041C" unicode="&#x41c;" horiz-adv-x="851" 
d="M124 706h103l163 -382q6 -15 12 -31.5t11 -30.5q5 -17 11 -33h2q5 16 11 33q5 14 11.5 30.5t12.5 31.5l163 382h103l57 -706h-98l-34 445q-2 16 -2.5 34t-0.5 34q0 18 1 36h-2q-7 -19 -13 -37q-6 -16 -12.5 -34.5t-12.5 -32.5l-141 -318h-88l-140 318q-6 14 -13 32
t-12 35q-7 19 -13 39h-2v-37v-34.5t-2 -34.5l-34 -445h-99z" />
    <glyph glyph-name="uni041D" unicode="&#x41d;" horiz-adv-x="750" 
d="M93 706h99v-310h367v310h98v-706h-98v310h-367v-310h-99v706z" />
    <glyph glyph-name="uni041E" unicode="&#x41e;" horiz-adv-x="823" 
d="M49 358q0 76 28 142t77 114.5t115 76t143 27.5q76 0 142.5 -27.5t115 -76t76.5 -114.5t28 -142q0 -78 -28 -145.5t-76.5 -117.5t-115 -78.5t-142.5 -28.5q-77 0 -143 28.5t-115 78.5t-77 117.5t-28 145.5zM151 358q0 -59 20.5 -110t55.5 -88.5t83 -59t102 -21.5
t101.5 21.5t82.5 59t55.5 88.5t20.5 110q0 57 -20.5 106.5t-55.5 86t-82.5 57t-101.5 20.5t-102 -20.5t-83 -57t-55.5 -86t-20.5 -106.5z" />
    <glyph glyph-name="uni041F" unicode="&#x41f;" horiz-adv-x="742" 
d="M93 706h556v-706h-99v620h-358v-620h-99v706z" />
    <glyph glyph-name="uni0420" unicode="&#x420;" horiz-adv-x="604" 
d="M93 706h259q48 0 89 -15.5t70 -44.5t45.5 -70t16.5 -91t-16.5 -91.5t-45.5 -71t-70 -45.5t-89 -16h-160v-261h-99v706zM336 347q63 0 100 37t37 101q0 63 -36.5 99t-99.5 36h-145v-273h144z" />
    <glyph glyph-name="uni0421" unicode="&#x421;" horiz-adv-x="717" 
d="M50 357q0 77 26.5 143t74 114.5t113.5 76t145 27.5q34 0 69 -5.5t68.5 -16.5t64 -29t56.5 -42l-50 -74q-39 35 -94 56t-110 21q-62 0 -110 -21t-82 -58t-51.5 -86t-17.5 -105t18 -107t52 -89t82.5 -60.5t110.5 -22.5q60 0 117 24.5t100 67.5l53 -71q-23 -23 -50.5 -43
t-61.5 -35.5t-74 -24.5t-87 -9q-82 0 -149 28.5t-114 78.5t-73 117t-26 145z" />
    <glyph glyph-name="uni0422" unicode="&#x422;" horiz-adv-x="615" 
d="M258 620h-243v86h584v-86h-243v-620h-98v620z" />
    <glyph glyph-name="uni0423" unicode="&#x423;" horiz-adv-x="599" 
d="M120 109q13 -10 34 -22.5t47 -12.5q31 0 48.5 21t31.5 58l-279 553h109l172 -355q8 -17 15.5 -33t12.5 -30q6 -16 12 -30h2q4 14 9 30q5 14 10 29.5t11 32.5l131 356h104l-225 -576q-11 -27 -25 -52.5t-33 -45.5t-44.5 -32t-58.5 -12q-36 0 -68 13t-61 33z" />
    <glyph glyph-name="uni0424" unicode="&#x424;" horiz-adv-x="832" 
d="M39 376q0 66 24 120t67 92.5t103.5 59.5t133.5 21v81h99v-81q73 0 133 -21t103.5 -59.5t67.5 -92.5t24 -120q0 -67 -24 -122t-67 -94t-103.5 -60.5t-133.5 -21.5v-90h-99v90q-73 0 -133.5 21.5t-103.5 60.5t-67 94t-24 122zM466 162q51 0 93 15t71.5 42.5t46 67
t16.5 89.5q0 48 -16.5 87t-46 66t-71.5 41.5t-93 14.5v-423zM140 376q0 -50 16.5 -89.5t46 -67t71.5 -42.5t93 -15v423q-51 0 -93 -14.5t-71.5 -41.5t-46 -66t-16.5 -87z" />
    <glyph glyph-name="uni0425" unicode="&#x425;" horiz-adv-x="598" 
d="M238 364l-208 342h113l111 -191q8 -14 16 -28.5t14 -26.5q7 -14 14 -27h2l13 26q13 26 31 56l112 191h114l-210 -342l223 -364h-111l-129 217q-8 14 -16 29t-14 26l-14 26h-2q-6 -13 -13 -26q-6 -11 -14 -26t-16 -29l-128 -217h-110z" />
    <glyph glyph-name="uni0426" unicode="&#x426;" horiz-adv-x="757" 
d="M93 706h99v-620h346v620h99v-620h81v-226h-89v140h-536v706z" />
    <glyph glyph-name="uni0427" unicode="&#x427;" horiz-adv-x="639" 
d="M264 271q-110 0 -161.5 54t-51.5 152v229h100v-208q0 -67 31 -102t103 -35q51 0 94 16.5t66 31.5v297h100v-706h-100v286v11t1 11q0 5 1 11h-2q-14 -7 -33.5 -15.5t-43 -15.5t-50.5 -12t-54 -5z" />
    <glyph glyph-name="uni0428" unicode="&#x428;" horiz-adv-x="1005" 
d="M93 706h99v-620h261v620h99v-620h261v620h98v-706h-818v706z" />
    <glyph glyph-name="uni0429" unicode="&#x429;" horiz-adv-x="1036" 
d="M93 706h99v-620h261v620h99v-620h261v620h98v-620h87v-226h-90v140h-815v706z" />
    <glyph glyph-name="uni042A" unicode="&#x42a;" horiz-adv-x="687" 
d="M192 620h-184v86h283v-266h149q46 0 85.5 -15t68 -43.5t45 -69.5t16.5 -94q0 -49 -15.5 -89.5t-43.5 -69t-67 -44t-85 -15.5h-252v620zM428 86q60 0 93.5 35t33.5 97q0 63 -35 99.5t-94 36.5h-135v-268h137z" />
    <glyph glyph-name="uni042B" unicode="&#x42b;" horiz-adv-x="844" 
d="M652 706h98v-706h-98v706zM93 706h99v-266h145q46 0 85.5 -15t68.5 -43.5t45 -69.5t16 -94q0 -49 -15.5 -89.5t-43.5 -69t-66.5 -44t-84.5 -15.5h-249v706zM326 86q60 0 93 35t33 97q0 63 -34.5 99.5t-93.5 36.5h-132v-268h134z" />
    <glyph glyph-name="uni042C" unicode="&#x42c;" horiz-adv-x="589" 
d="M93 706h99v-266h150q46 0 85.5 -15t68 -43.5t45 -69.5t16.5 -94q0 -49 -15.5 -89.5t-43.5 -69t-67 -44t-85 -15.5h-253v706zM329 86q60 0 93.5 35t33.5 97q0 63 -34.5 99.5t-93.5 36.5h-136v-268h137z" />
    <glyph glyph-name="uni042D" unicode="&#x42d;" horiz-adv-x="716" 
d="M85 165q37 -38 96 -62.5t124 -24.5q53 0 98 18t78.5 50t54 74.5t26.5 92.5h-369v82h370q-5 50 -25.5 93t-54.5 74t-79 48.5t-98 17.5q-57 0 -110.5 -20t-98.5 -59l-49 74q24 24 54.5 42t64 29.5t69.5 17.5t72 6q81 0 147 -28t113 -76.5t73 -114t26 -141.5q0 -78 -27 -146
t-75 -117.5t-114.5 -78t-145.5 -28.5q-81 0 -151.5 29.5t-120.5 78.5z" />
    <glyph glyph-name="uni042E" unicode="&#x42e;" horiz-adv-x="1066" 
d="M93 706h99v-310h120q6 69 35.5 128t76 102t107.5 67.5t131 24.5q75 0 140 -27.5t112.5 -76t75 -114.5t27.5 -142q0 -78 -27.5 -145.5t-75 -117.5t-112.5 -78.5t-140 -28.5q-69 0 -129 24.5t-106 67.5t-76 102t-37 128h-122v-310h-99v706zM411 358q0 -59 19.5 -110
t53.5 -88.5t80 -59t98 -21.5t98.5 21.5t80.5 59t54 88.5t20 110q0 57 -20 106t-54 85.5t-80.5 57t-98.5 20.5t-98 -20.5t-80 -57t-53.5 -85.5t-19.5 -106z" />
    <glyph glyph-name="uni042F" unicode="&#x42f;" horiz-adv-x="622" 
d="M181 263q5 8 9 14.5t7 10.5t5 8v2q-69 25 -101.5 78.5t-32.5 124.5q0 70 31 117t80 69q23 10 52 14.5t80 4.5h218v-706h-99v281h-130l-166 -281h-111zM430 365v255h-112q-37 0 -57.5 -4t-34.5 -12q-27 -15 -42 -43.5t-15 -63.5q0 -62 33.5 -97t91.5 -35h136z" />
    <glyph glyph-name="uni0430" unicode="&#x430;" horiz-adv-x="526" 
d="M33 138q0 40 15 68.5t40 48t56.5 31.5t65.5 18.5t66.5 8.5t58.5 2h26v10q0 31 -8.5 52.5t-23.5 34.5t-35 18.5t-44 5.5q-38 0 -74.5 -13.5t-67.5 -35.5l-39 71q31 26 83 43t106 17q96 0 148 -50.5t52 -147.5v-320h-91v51v16t1 13q1 6 2 11h-2q-22 -44 -65.5 -73.5
t-100.5 -29.5q-33 0 -63.5 10t-54 29.5t-37.5 47t-14 63.5zM130 146q0 -30 24 -55.5t71 -25.5q32 0 57 14.5t42.5 38t27 52t9.5 56.5v19h-25q-27 0 -62.5 -2.5t-67.5 -12t-54 -29.5t-22 -55z" />
    <glyph glyph-name="uni0431" unicode="&#x431;" horiz-adv-x="586" 
d="M53 291q0 68 11 123t37 99.5t70 79.5t110 63l181 78l32 -80l-194 -81q-76 -35 -113.5 -82t-42.5 -120h2q34 51 81 70.5t98 19.5q48 0 87.5 -16.5t68 -46.5t44 -73t15.5 -97q0 -53 -17 -97t-48.5 -75.5t-75.5 -49.5t-98 -18q-64 0 -111 22.5t-77.5 63t-45 96t-14.5 121.5z
M154 228q0 -38 11.5 -67t31 -49.5t45.5 -31t55 -10.5q30 0 56.5 10.5t46 30.5t31 49t11.5 66t-11.5 66.5t-30.5 49.5t-45 31t-54 11q-32 0 -59 -12t-46.5 -33t-30.5 -49.5t-11 -61.5z" />
    <glyph glyph-name="uni0432" unicode="&#x432;" horiz-adv-x="520" 
d="M75 506h209q77 0 123 -33t46 -97q0 -37 -18.5 -66.5t-53.5 -44.5v-1q48 -11 72 -44.5t24 -75.5q0 -35 -13.5 -62t-38 -45t-59 -27.5t-75.5 -9.5h-216v506zM267 292q44 0 65.5 21t21.5 56q0 70 -90 70h-92v-147h95zM276 68q53 0 78 22t25 57q0 38 -26.5 59t-77.5 21h-103
v-159h104z" />
    <glyph glyph-name="uni0433" unicode="&#x433;" horiz-adv-x="413" 
d="M75 506h317v-83h-220v-423h-97v506z" />
    <glyph glyph-name="uni0434" unicode="&#x434;" horiz-adv-x="594" 
d="M398 80v347h-152v-27q0 -29 -2.5 -68.5t-10 -83t-21.5 -87.5t-38 -81h224zM74 80q27 36 42.5 82t23.5 92t10.5 88t2.5 71v93h342v-426h72v-200h-89v120h-375v-120h-91v200h62z" />
    <glyph glyph-name="uni0435" unicode="&#x435;" horiz-adv-x="557" 
d="M42 253q0 60 19.5 109t53.5 83.5t80.5 53.5t100.5 19t94.5 -19t68.5 -51t42 -75t14 -92q0 -10 -1 -20t-3 -21h-368q2 -41 16.5 -72.5t38 -52.5t54.5 -32t65 -11q41 0 80 16t69 43l41 -71q-37 -34 -90 -53t-106 -19q-60 0 -109.5 20.5t-85 56t-55 84t-19.5 104.5zM417 310
q-1 33 -11 57.5t-26.5 41.5t-38.5 25.5t-47 8.5q-57 0 -97 -35t-51 -98h271z" />
    <glyph glyph-name="uni0436" unicode="&#x436;" horiz-adv-x="752" 
d="M180 260v2l-149 244h103l124 -207h72v207h92v-207h72l125 207h102l-148 -244v-2l163 -260h-109l-132 216h-73v-216h-92v216h-72l-133 -216h-108z" />
    <glyph glyph-name="uni0437" unicode="&#x437;" horiz-adv-x="448" 
d="M71 126q9 -9 22 -19.5t30 -19.5t37 -15t43 -6q44 0 74.5 20.5t30.5 62.5q0 37 -25 57t-79 20h-62v70h53q43 0 69.5 17.5t26.5 55.5q0 35 -24 54t-66 19q-64 0 -123 -44l-36 65q29 22 72.5 38.5t103.5 16.5q36 0 67 -9t54.5 -26t36.5 -42.5t13 -59.5q0 -48 -22 -75
t-52 -40v-2q38 -12 64.5 -41t26.5 -78q0 -39 -15.5 -68.5t-42.5 -49t-62 -29.5t-74 -10q-59 0 -106.5 22t-79.5 52z" />
    <glyph glyph-name="uni0438" unicode="&#x438;" horiz-adv-x="598" 
d="M75 506h93v-302q0 -10 -0.5 -21.5t-1 -21t-1 -16.5t-0.5 -9h2q3 7 17.5 28.5t27.5 39.5l218 302h94v-506h-94v302q0 18 1.5 39.5t1.5 27.5h-2q-1 -3 -6 -10.5t-11.5 -17t-13.5 -20l-13 -19.5l-219 -302h-93v506z" />
    <glyph glyph-name="uni0439" unicode="&#x439;" horiz-adv-x="598" 
d="M298 564q-29 0 -55.5 8.5t-47 25t-33 40t-12.5 54.5v15h78v-14q0 -33 22 -49.5t48 -16.5t48.5 16.5t22.5 50.5v13h77v-15q0 -31 -12 -54.5t-32.5 -40t-47.5 -25t-56 -8.5zM75 506h93v-302q0 -10 -0.5 -21.5t-1 -21t-1 -16.5t-0.5 -9h2q3 7 17.5 28.5t27.5 39.5l218 302
h94v-506h-94v302q0 18 1.5 39.5t1.5 27.5h-2q-1 -3 -6 -10.5t-11.5 -17t-13.5 -20l-13 -19.5l-219 -302h-93v506z" />
    <glyph glyph-name="uni043A" unicode="&#x43a;" horiz-adv-x="522" 
d="M75 506h97v-204h71l138 204h110l-169 -241v-2l189 -263h-115l-151 219h-73v-219h-97v506z" />
    <glyph glyph-name="uni043B" unicode="&#x43b;" horiz-adv-x="548" 
d="M20 82q28 4 49 20.5t35.5 49t22 81t7.5 117.5v156h339v-506h-97v426h-149v-76q0 -173 -47.5 -261t-159.5 -94v87z" />
    <glyph glyph-name="uni043C" unicode="&#x43c;" horiz-adv-x="730" 
d="M98 506h108l129 -286q5 -11 10 -23t9 -22q4 -11 9 -23h2q5 11 9 22q8 21 19 46l132 286h106l44 -506h-94l-22 301q-1 11 -0.5 26t0.5 29q0 16 1 32h-2q-4 -10 -9 -22q-5 -11 -10.5 -24.5t-12.5 -27.5l-120 -253h-83l-120 252q-6 14 -11.5 27t-10.5 24l-10 24h-2
q0 -16 1 -32q0 -14 0.5 -29t-0.5 -26l-22 -301h-94z" />
    <glyph glyph-name="uni043D" unicode="&#x43d;" horiz-adv-x="600" 
d="M75 506h97v-206h256v206h97v-506h-97v217h-256v-217h-97v506z" />
    <glyph glyph-name="uni043E" unicode="&#x43e;" horiz-adv-x="629" 
d="M42 254q0 57 21.5 105.5t58.5 84t86.5 55t105.5 19.5q57 0 106.5 -19.5t86.5 -55t58.5 -84t21.5 -105.5q0 -58 -21.5 -106.5t-58.5 -84t-86.5 -55.5t-105.5 -20q-57 0 -106.5 20t-86.5 55.5t-58.5 84t-21.5 106.5zM141 254q0 -40 13.5 -73.5t37.5 -57.5t55.5 -37.5
t67.5 -13.5t67.5 13.5t55 37.5t37.5 57.5t14 73.5q0 39 -14 72t-37.5 57t-55 37.5t-67.5 13.5t-67.5 -13.5t-55.5 -37.5t-37.5 -57t-13.5 -72z" />
    <glyph glyph-name="uni043F" unicode="&#x43f;" horiz-adv-x="592" 
d="M75 506h442v-506h-97v423h-248v-423h-97v506z" />
    <glyph glyph-name="uni0440" unicode="&#x440;" horiz-adv-x="601" 
d="M75 506h90v-45q0 -8 -0.5 -15t-1.5 -12q-1 -6 -1 -11h2q24 46 69 70.5t101 24.5q51 0 92.5 -19.5t70 -54.5t44 -83.5t15.5 -107.5q0 -60 -17 -109t-47.5 -83.5t-72.5 -53.5t-92 -19q-48 0 -89.5 22.5t-67.5 63.5h-2q1 -5 2 -12q1 -6 1.5 -14t0.5 -18v-230h-97v706z
M169 251q0 -34 9.5 -66t27.5 -57t44.5 -40.5t61.5 -15.5q30 0 56.5 12t46.5 35t31.5 56.5t11.5 76.5q0 41 -10.5 74.5t-29.5 57t-45.5 36.5t-57.5 13q-29 0 -55 -10.5t-46.5 -32.5t-32.5 -56.5t-12 -82.5z" />
    <glyph glyph-name="uni0441" unicode="&#x441;" horiz-adv-x="545" 
d="M42 253q0 56 20 104.5t56 84t85.5 56t109.5 20.5q51 0 102.5 -18t87.5 -56l-46 -68q-26 26 -63 42t-77 16q-38 0 -70.5 -13.5t-56 -37.5t-36.5 -57t-13 -72t13 -72t37 -57.5t57 -38.5t72 -14q42 0 84.5 18.5t71.5 49.5l39 -71q-35 -37 -88.5 -59t-113.5 -22t-110 20
t-85.5 55.5t-55.5 84t-20 105.5z" />
    <glyph glyph-name="uni0442" unicode="&#x442;" horiz-adv-x="490" 
d="M197 423h-176v83h449v-83h-177v-423h-96v423z" />
    <glyph glyph-name="uni0443" unicode="&#x443;" horiz-adv-x="535" 
d="M50 -105q8 -7 18 -11q8 -5 18.5 -8t21.5 -3q30 0 54 20t38 55l25 58l-212 500h109l127 -331q4 -10 7 -20.5t6 -19.5q3 -11 6 -21h2l5 20q2 9 5 19.5t7 20.5l123 332h105l-238 -597q-23 -60 -66.5 -89.5t-97.5 -29.5q-21 0 -39 4.5t-31 10.5q-15 7 -27 16l34 74v0z" />
    <glyph glyph-name="uni0444" unicode="&#x444;" horiz-adv-x="726" 
d="M43 254q0 58 20.5 105.5t57.5 82t87 54t109 21.5v183h93v-183q59 -2 109 -21.5t86.5 -54t57 -82t20.5 -105.5q0 -59 -20.5 -106.5t-57 -82t-86.5 -54.5t-109 -23v-188h-93v188q-59 3 -109 23t-87 54.5t-57.5 82t-20.5 106.5zM410 69q39 3 71.5 16.5t56 37.5t37 57
t13.5 74t-13.5 74t-37 56.5t-56 37t-71.5 15.5v-368zM139 254q0 -41 13 -74t37 -57t56.5 -37.5t71.5 -16.5v368q-78 -5 -128 -52.5t-50 -130.5z" />
    <glyph glyph-name="uni0445" unicode="&#x445;" horiz-adv-x="499" 
d="M190 260l-163 246h111l94 -154q2 -5 5.5 -10t5.5 -10l5 -10h2l6 10q2 5 5 10l6 10l94 154h111l-163 -246l173 -260h-110l-106 169q-3 5 -6 9.5t-5 8.5q-3 4 -5 9h-2q-2 -5 -5 -9q-2 -4 -4.5 -8.5t-5.5 -9.5l-106 -169h-110z" />
    <glyph glyph-name="uni0446" unicode="&#x446;" horiz-adv-x="610" 
d="M75 506h97v-422h241v422h98v-422h71v-204h-89v120h-418v506z" />
    <glyph glyph-name="uni0447" unicode="&#x447;" horiz-adv-x="523" 
d="M213 176q-81 0 -125.5 42t-44.5 123v165h95v-151q0 -19 4 -36t15.5 -30t31 -21t50.5 -8q38 0 67 12.5t45 23.5v210h97v-506h-97v183v20q0 5 1 10h-2q-24 -15 -61.5 -26t-75.5 -11z" />
    <glyph glyph-name="uni0448" unicode="&#x448;" horiz-adv-x="804" 
d="M75 506h93v-422h187v422h94v-422h187v422h93v-506h-654v506z" />
    <glyph glyph-name="uni0449" unicode="&#x449;" horiz-adv-x="829" 
d="M75 506h93v-422h187v422h94v-422h187v422h93v-422h72v-204h-89v120h-637v506z" />
    <glyph glyph-name="uni044A" unicode="&#x44a;" horiz-adv-x="559" 
d="M147 423h-137v83h234v-183h102q39 0 72.5 -9.5t58 -29t38.5 -50.5t14 -74q0 -71 -44.5 -115.5t-139.5 -44.5h-198v423zM331 70q53 0 76.5 25.5t23.5 65.5q0 41 -23.5 66.5t-76.5 25.5h-87v-183h87z" />
    <glyph glyph-name="uni044B" unicode="&#x44b;" horiz-adv-x="705" 
d="M533 506h97v-506h-97v506zM75 506h97v-183h99q39 0 73 -9.5t58.5 -29t38.5 -50.5t14 -74q0 -71 -45 -115.5t-140 -44.5h-195v506zM257 70q53 0 76.5 25.5t23.5 65.5q0 41 -24 66.5t-77 25.5h-84v-183h85z" />
    <glyph glyph-name="uni044C" unicode="&#x44c;" horiz-adv-x="487" 
d="M75 506h97v-183h102q39 0 73 -9.5t58.5 -29t38.5 -50.5t14 -74q0 -71 -45 -115.5t-141 -44.5h-197v506zM259 70q53 0 76.5 25.5t23.5 65.5q0 41 -23.5 66.5t-76.5 25.5h-87v-183h87z" />
    <glyph glyph-name="uni044D" unicode="&#x44d;" horiz-adv-x="544" 
d="M68 133q33 -34 75 -49.5t84 -15.5q71 0 120 41.5t59 108.5h-242v70h242q-5 34 -20.5 62t-38.5 48t-53 30.5t-64 10.5q-42 0 -79.5 -15.5t-66.5 -43.5l-44 67q34 36 86.5 53.5t106.5 17.5q59 0 108.5 -20.5t85 -56t55 -84t19.5 -104.5q0 -57 -20 -105.5t-55.5 -84
t-85 -55.5t-109.5 -20q-55 0 -108 19t-93 57z" />
    <glyph glyph-name="uni044E" unicode="&#x44e;" horiz-adv-x="828" 
d="M75 506h97v-212h92q7 49 29.5 90t56.5 71t78 46.5t94 16.5q55 0 103 -19.5t84 -55t56.5 -84t20.5 -105.5q0 -58 -20.5 -106.5t-56 -84t-83.5 -55.5t-103 -20q-50 0 -94.5 16.5t-78.5 46.5t-56.5 71.5t-29.5 91.5h-92v-214h-97v506zM358 254q0 -40 13 -73.5t35 -57.5
t52 -37.5t65 -13.5q34 0 64 13.5t52 37.5t35 57.5t13 73.5q0 39 -13 72t-35 57t-52 37.5t-64 13.5q-35 0 -65 -13.5t-52 -37.5t-35 -57t-13 -72z" />
    <glyph glyph-name="uni044F" unicode="&#x44f;" horiz-adv-x="512" 
d="M141 168q4 7 8.5 12t7.5 10q4 4 7 9v1q-22 6 -42 19t-35 31.5t-24 43t-9 53.5q0 39 13 68.5t37 50t57.5 30.5t73.5 10h202v-506h-97v183h-85l-124 -183h-107zM340 254v185h-81q-49 0 -78 -21t-29 -70q0 -48 29.5 -71t74.5 -23h84z" />
    <glyph glyph-name="uni0450" unicode="&#x450;" horiz-adv-x="557" 
d="M42 253q0 60 19.5 109t53.5 83.5t80.5 53.5t100.5 19t94.5 -19t68.5 -51t42 -75t14 -92q0 -10 -1 -20t-3 -21h-368q2 -41 16.5 -72.5t38 -52.5t54.5 -32t65 -11q41 0 80 16t69 43l41 -71q-37 -34 -90 -53t-106 -19q-60 0 -109.5 20.5t-85 56t-55 84t-19.5 104.5zM417 310
q-1 33 -11 57.5t-26.5 41.5t-38.5 25.5t-47 8.5q-57 0 -97 -35t-51 -98h271zM173 707h104l73 -127h-82z" />
    <glyph glyph-name="uni0451" unicode="&#x451;" horiz-adv-x="557" 
d="M335 707h79v-101h-79v101zM167 707h80v-101h-80v101zM42 253q0 60 19.5 109t53.5 83.5t80.5 53.5t100.5 19t94.5 -19t68.5 -51t42 -75t14 -92q0 -10 -1 -20t-3 -21h-368q2 -41 16.5 -72.5t38 -52.5t54.5 -32t65 -11q41 0 80 16t69 43l41 -71q-37 -34 -90 -53t-106 -19
q-60 0 -109.5 20.5t-85 56t-55 84t-19.5 104.5zM417 310q-1 33 -11 57.5t-26.5 41.5t-38.5 25.5t-47 8.5q-57 0 -97 -35t-51 -98h271z" />
    <glyph glyph-name="uni0452" unicode="&#x452;" horiz-adv-x="603" 
d="M75 553h-63v71h63v82h97v-82h206v-71h-206v-163q0 -9 -0.5 -17t-0.5 -13q-1 -7 -1 -12h2q8 18 24.5 38t40 36.5t54.5 27.5t69 11q90 0 131.5 -48.5t41.5 -145.5v-271q0 -66 -20.5 -106.5t-50 -62.5t-61.5 -29.5t-55 -7.5h-17t-13 1q-6 1 -11 2v83q4 -1 8 -1q4 -1 9.5 -1
h11.5q14 0 31.5 4t33.5 17t26.5 37t10.5 64v249q0 27 -3.5 50t-13.5 40t-29 27t-49 10q-58 0 -101.5 -35t-59.5 -90q-5 -15 -6.5 -32t-1.5 -35v-180h-97v553z" />
    <glyph glyph-name="uni0453" unicode="&#x453;" horiz-adv-x="413" 
d="M244 707h105l-96 -127h-81zM75 506h317v-83h-220v-423h-97v506z" />
    <glyph glyph-name="uni0454" unicode="&#x454;" horiz-adv-x="545" 
d="M42 253q0 56 20 104.5t56 84t85.5 56t109.5 20.5q48 0 84 -11t60 -25q28 -16 47 -35l-45 -68q-17 16 -39 29q-19 11 -45 20t-59 9q-70 0 -119 -39t-59 -106h241v-70h-242q9 -71 59 -112.5t123 -41.5q37 0 66 10.5t50 23.5q24 15 43 35l38 -70q-22 -22 -52 -40
q-26 -15 -63.5 -27t-87.5 -12q-60 0 -110 20t-85.5 55.5t-55.5 84t-20 105.5z" />
    <glyph glyph-name="uni0455" unicode="&#x455;" horiz-adv-x="447" 
d="M78 128q29 -28 69 -43.5t80 -15.5q38 0 62 17t24 49q0 24 -19.5 39.5t-48 28t-62.5 25t-62.5 31t-48 45t-19.5 68.5q0 36 14.5 63.5t39.5 45.5t58 27.5t70 9.5q44 0 87.5 -13t76.5 -43l-39 -70q-23 21 -58.5 33t-69.5 12q-37 0 -61.5 -15.5t-24.5 -47.5q0 -25 19.5 -40.5
t48.5 -28t62.5 -24.5t62.5 -30t48.5 -45t19.5 -69q0 -32 -13.5 -59.5t-37.5 -47.5t-57.5 -31t-73.5 -11q-51 0 -103 18t-90 56z" />
    <glyph glyph-name="uni0456" unicode="&#x456;" horiz-adv-x="246" 
d="M73 706h100v-98h-100v98zM75 506h97v-506h-97v506z" />
    <glyph glyph-name="uni0457" unicode="&#x457;" horiz-adv-x="246" 
d="M169 707h79v-101h-79v101zM1 707h80v-101h-80v101zM75 506h97v-506h-97v506z" />
    <glyph glyph-name="uni0458" unicode="&#x458;" horiz-adv-x="246" 
d="M73 706h100v-98h-100v98zM75 506h97v-523q0 -63 -21.5 -100.5t-52 -57t-63.5 -25.5t-57 -6q-8 0 -16.5 0.5t-17.5 1.5v83q10 -2 22 -2q14 0 33 3.5t36 15.5t28.5 34t11.5 59v517z" />
    <glyph glyph-name="uni0459" unicode="&#x459;" horiz-adv-x="753" 
d="M26 82q28 4 50 20.5t36 48t21.5 79.5t7.5 116v160h300v-190h100q39 0 73 -9t58.5 -28.5t38.5 -50t14 -72.5q0 -70 -45 -113t-141 -43h-195v426h-110v-77q0 -89 -11.5 -154t-36 -108.5t-64 -66t-96.5 -25.5v87zM530 70q52 0 75.5 24t23.5 62q0 40 -23.5 64.5t-75.5 24.5
h-89v-175h89z" />
    <glyph glyph-name="uni045A" unicode="&#x45a;" horiz-adv-x="817" 
d="M75 506h97v-193h236v193h97v-194h96q39 0 73.5 -9t60 -27.5t40 -48t14.5 -70.5q0 -70 -45 -113.5t-141 -43.5h-195v235h-236v-235h-97v506zM594 70q53 0 76.5 23.5t23.5 63.5t-25.5 62.5t-78.5 22.5h-85v-172h89z" />
    <glyph glyph-name="uni045B" unicode="&#x45b;" horiz-adv-x="603" 
d="M75 553h-63v71h63v82h97v-82h206v-71h-206v-163q0 -9 -0.5 -17t-0.5 -13q-1 -7 -1 -12h2q8 18 24.5 38t40 36.5t54.5 27.5t69 11q90 0 131.5 -48t41.5 -145v-268h-97v246q0 26 -3.5 49t-13.5 40t-29 27t-49 10q-58 0 -101.5 -34.5t-59.5 -89.5q-5 -16 -6.5 -33t-1.5 -35
v-180h-97v553z" />
    <glyph glyph-name="uni045C" unicode="&#x45c;" horiz-adv-x="522" 
d="M289 707h105l-96 -127h-81zM75 506h97v-204h71l138 204h110l-169 -241v-2l189 -263h-115l-151 219h-73v-219h-97v506z" />
    <glyph glyph-name="uni045D" unicode="&#x45d;" horiz-adv-x="598" 
d="M75 506h93v-302q0 -10 -0.5 -21.5t-1 -21t-1 -16.5t-0.5 -9h2q3 7 17.5 28.5t27.5 39.5l218 302h94v-506h-94v302q0 18 1.5 39.5t1.5 27.5h-2q-1 -3 -6 -10.5t-11.5 -17t-13.5 -20l-13 -19.5l-219 -302h-93v506zM184 707h104l73 -127h-82z" />
    <glyph glyph-name="uni045E" unicode="&#x45e;" horiz-adv-x="535" 
d="M50 -105q8 -7 18 -11q8 -5 18.5 -8t21.5 -3q30 0 54 20t38 55l25 58l-212 500h109l127 -331q4 -10 7 -20.5t6 -19.5q3 -11 6 -21h2l5 20q2 9 5 19.5t7 20.5l123 332h105l-238 -597q-23 -60 -66.5 -89.5t-97.5 -29.5q-21 0 -39 4.5t-31 10.5q-15 7 -27 16zM268 564
q-29 0 -55.5 8.5t-47 25t-33 40t-12.5 54.5v15h78v-14q0 -33 22 -49.5t48 -16.5t48.5 16.5t22.5 50.5v13h77v-15q0 -31 -12 -54.5t-32.5 -40t-47.5 -25t-56 -8.5z" />
    <glyph glyph-name="uni045F" unicode="&#x45f;" horiz-adv-x="575" 
d="M75 506h97v-422h231v422h96v-506h-167v-120h-89v120h-168v506z" />
    <glyph glyph-name="uni0462" unicode="&#x462;" horiz-adv-x="689" 
d="M190 539h-178v79h179v103h97v-103h204v-79h-204v-116h151q47 0 87 -14.5t69.5 -42t46 -66t16.5 -86.5q0 -49 -16.5 -88.5t-46 -67.5t-69.5 -43t-86 -15h-250v539zM424 86q60 0 96.5 33.5t36.5 94.5q0 57 -37 90t-97 33h-135v-251h136z" />
    <glyph glyph-name="uni0463" unicode="&#x463;" horiz-adv-x="535" 
d="M120 459h-121v73h121v174h97v-174h166v-73h-166v-136h105q39 0 72.5 -9.5t58 -29t38.5 -50.5t14 -74q0 -71 -44.5 -115.5t-139.5 -44.5h-201v459zM307 70q53 0 77 25.5t24 65.5q0 41 -24 66.5t-77 25.5h-90v-183h90z" />
    <glyph glyph-name="uni0472" unicode="&#x472;" horiz-adv-x="823" 
d="M49 358q0 76 27.5 142t76 114.5t115 76t144.5 27.5t144 -27.5t114.5 -76t76 -114.5t27.5 -142q0 -78 -27.5 -145.5t-76 -117.5t-114.5 -78.5t-144 -28.5t-144.5 28.5t-115 78.5t-76 117.5t-27.5 145.5zM412 76q51 0 95.5 18t79 50t57 76t28.5 97h-521q7 -53 29.5 -97
t57 -76t79 -50t95.5 -18zM412 630q-51 0 -96 -17.5t-79.5 -49t-57 -74t-28.5 -93.5h521q-6 51 -28.5 93.5t-57 74t-79 49t-95.5 17.5z" />
    <glyph glyph-name="uni0473" unicode="&#x473;" horiz-adv-x="629" 
d="M42 254q0 57 21.5 105.5t58.5 84t86.5 55t105.5 19.5q57 0 106.5 -19.5t86.5 -55t58.5 -84t21.5 -105.5q0 -58 -21.5 -106.5t-58.5 -84t-86.5 -55.5t-105.5 -20q-57 0 -106.5 20t-86.5 55.5t-58.5 84t-21.5 106.5zM315 63q34 0 64.5 12t54.5 33t40 51t21 66h-360
q4 -36 20 -66t40 -51t54.5 -33t65.5 -12zM315 443q-34 0 -64.5 -11.5t-54.5 -32t-40 -49t-21 -63.5h359q-5 35 -21 63.5t-40 49t-54 32t-64 11.5z" />
    <glyph glyph-name="uni0474" unicode="&#x474;" horiz-adv-x="688" 
d="M12 706h107l175 -499q5 -14 9.5 -31.5t8.5 -31.5q4 -18 9 -34h2q5 16 9 34q4 14 8.5 31.5t9.5 31.5l141 420q9 27 19 42.5t23.5 23.5t31.5 10.5t44 2.5h66v-87h-23q-17 0 -28.5 -0.5t-20.5 -5.5t-16.5 -16t-14.5 -32l-198 -565h-104z" />
    <glyph glyph-name="uni0475" unicode="&#x475;" horiz-adv-x="564" 
d="M19 506h102l123 -342q4 -11 7.5 -22.5t5.5 -22.5q3 -12 5 -24h2l6 24q2 11 5 22.5t7 22.5l84 251q8 25 18.5 42.5t24.5 28.5t33.5 15.5t45.5 4.5h57v-85h-22q-32 0 -47 -10.5t-27 -44.5l-129 -366h-112z" />
    <glyph glyph-name="uni048A" unicode="&#x48a;" horiz-adv-x="790" 
d="M93 706h99v-458q0 -15 -1 -33t-2 -34q-2 -18 -3 -36h2q10 20 21 38q9 16 19 34t20 32l313 457h97v-620h109v-57l-72 -169h-72l42 140h-105v458q0 15 0.5 32.5t2.5 33.5q1 18 3 37h-2q-9 -19 -20 -37q-9 -16 -19.5 -34t-19.5 -32l-315 -458h-97v706zM381 739
q-29 0 -55.5 8.5t-47 25t-33 40t-12.5 54.5v15h78v-14q0 -33 22 -49.5t48 -16.5t48.5 16.5t22.5 50.5v13h77v-15q0 -31 -12 -54.5t-32.5 -40t-47.5 -25t-56 -8.5z" />
    <glyph glyph-name="uni048B" unicode="&#x48b;" horiz-adv-x="640" 
d="M75 506h93v-302q0 -10 -0.5 -21.5t-1 -21t-1 -16.5t-0.5 -9h2q3 7 17.5 28.5t27.5 39.5l218 302h94v-423h92v-55l-62 -148h-69l36 120h-91v302q0 18 1.5 39.5t1.5 27.5h-2q-1 -3 -6 -10.5t-11.5 -17t-13.5 -20l-13 -19.5l-219 -302h-93v506zM303 564q-29 0 -55.5 8.5
t-47 25t-33 40t-12.5 54.5v15h78v-14q0 -33 22 -49.5t48 -16.5t48.5 16.5t22.5 50.5v13h77v-15q0 -31 -12 -54.5t-32.5 -40t-47.5 -25t-56 -8.5z" />
    <glyph glyph-name="uni048C" unicode="&#x48c;" horiz-adv-x="677" 
d="M173 570h-162v77h164v103h97v-103h184v-77h-184v-142h157q47 0 87 -15t69 -43t45.5 -67.5t16.5 -88.5t-16.5 -88.5t-46 -67.5t-69 -43t-85.5 -15h-257v570zM413 86q60 0 96.5 33.5t36.5 94.5q0 60 -37 94t-97 34h-140v-256h141z" />
    <glyph glyph-name="uni048D" unicode="&#x48d;" horiz-adv-x="540" 
d="M125 459h-121v73h121v174h97v-174h166v-73h-166v-136h105q39 0 72.5 -9.5t58 -29t38.5 -50.5t14 -74q0 -71 -44.5 -115.5t-139.5 -44.5h-201v459zM312 70q53 0 77 25.5t24 65.5q0 41 -24 66.5t-77 25.5h-90v-183h90z" />
    <glyph glyph-name="uni048E" unicode="&#x48e;" horiz-adv-x="622" 
d="M93 706h259q48 0 89 -15.5t70 -44.5t45.5 -70t16.5 -91q0 -52 -17 -94t-48 -71l59 -78l-54 -45l-64 83q-46 -19 -97 -19h-160v-261h-99v706zM385 483l69 -92q12 17 19 39.5t7 49.5q0 67 -37 103.5t-103 36.5h-148v-281h147q32 0 58 9l-68 90z" />
    <glyph glyph-name="uni048F" unicode="&#x48f;" horiz-adv-x="609" 
d="M75 506h90v-45q0 -8 -0.5 -15t-1.5 -12q-1 -6 -1 -11h2q14 26 38 47q20 18 52 33t80 15q51 0 92.5 -19.5t70 -54.5t44 -83.5t15.5 -107.5q0 -58 -15.5 -105t-43.5 -82l55 -65l-54 -47l-55 65q-53 -31 -116 -31q-42 0 -71.5 13t-48.5 30q-23 18 -37 43h-2q1 -5 2 -12
q1 -6 1.5 -14t0.5 -18v-230h-97v706zM372 217l65 -79q28 45 28 111q0 42 -10.5 76t-30 58t-46.5 37t-60 13q-30 0 -57 -10.5t-47.5 -33t-32.5 -57.5t-12 -84q0 -34 9.5 -66.5t28 -57.5t46 -40t63.5 -15q38 0 70 18l-68 83z" />
    <glyph glyph-name="uni0490" unicode="&#x490;" horiz-adv-x="503" 
d="M93 706h314v97h83v-183h-298v-620h-99v706z" />
    <glyph glyph-name="uni0491" unicode="&#x491;" horiz-adv-x="413" 
d="M75 506h240v91h78v-174h-221v-423h-97v506z" />
    <glyph glyph-name="uni0492" unicode="&#x492;" horiz-adv-x="506" 
d="M99 309h-61v73h61v324h388v-86h-290v-238h160v-73h-160v-309h-98v309z" />
    <glyph glyph-name="uni0493" unicode="&#x493;" horiz-adv-x="420" 
d="M78 208h-62v66h62v232h318v-83h-221v-149h129v-66h-129v-208h-97v208z" />
    <glyph glyph-name="uni0494" unicode="&#x494;" horiz-adv-x="611" 
d="M93 706h390v-86h-291v-228q21 10 59.5 19.5t76.5 9.5q52 0 96.5 -14.5t76.5 -48t50.5 -88t18.5 -133.5q0 -84 -19 -143.5t-52.5 -98t-80.5 -56t-104 -17.5v81q30 0 57.5 10t48.5 36.5t34 71.5t13 116q0 106 -38.5 152t-119.5 46q-37 0 -67 -9.5t-50 -17.5v-308h-99v706z
" />
    <glyph glyph-name="uni0495" unicode="&#x495;" horiz-adv-x="503" 
d="M75 506h324v-79h-227v-164q23 11 52.5 18t58.5 7q52 0 88 -18.5t58.5 -48.5t32 -69t9.5 -79q0 -51 -11.5 -93.5t-32 -77t-48 -61.5t-59.5 -48l-47 68q20 13 38.5 31.5t33 44t23.5 57.5t9 73q0 27 -5.5 52.5t-18 45t-34.5 31t-55 11.5q-32 0 -56 -9t-36 -17v-181h-97v506z
" />
    <glyph glyph-name="uni0496" unicode="&#x496;" horiz-adv-x="938" 
d="M223 369v2l-191 335h108l165 -297h92v297h98v-297h93l164 297h108l-191 -335v-2l158 -283h96v-226h-89v140h-71l-175 323h-93v-323h-98v323h-92l-176 -323h-111z" />
    <glyph glyph-name="uni0497" unicode="&#x497;" horiz-adv-x="792" 
d="M180 260v2l-149 244h103l124 -207h72v207h92v-207h72l125 207h102l-148 -244v-2l110 -176h90v-204h-89v120h-57l-132 216h-73v-216h-92v216h-72l-133 -216h-108z" />
    <glyph glyph-name="uni0498" unicode="&#x498;" horiz-adv-x="548" 
d="M82 151q28 -30 72 -52t94 -22q65 0 106 34t41 94q0 56 -37 86.5t-95 30.5h-87v82h70q27 0 50 8.5t40 23.5t27 36t10 46q0 23 -7.5 43.5t-22.5 36t-38.5 24.5t-56.5 9q-38 0 -78.5 -13.5t-79.5 -46.5l-42 74q28 23 56.5 37.5t56 22.5t53 10.5t48.5 2.5q45 0 84 -13
t67.5 -37t44.5 -59t16 -79q0 -32 -9 -57.5t-23.5 -45t-32.5 -33.5t-37 -23v-2q56 -16 90 -59.5t34 -109.5q0 -43 -14.5 -78.5t-40 -62t-60.5 -44t-76 -23.5v-132h-90v131q-54 7 -103.5 30.5t-84.5 62.5z" />
    <glyph glyph-name="uni0499" unicode="&#x499;" horiz-adv-x="450" 
d="M71 126q9 -9 22 -19.5t30 -19.5t37 -15t43 -6q44 0 74.5 20.5t30.5 62.5q0 37 -25 57t-79 20h-62v70h53q43 0 69.5 17.5t26.5 55.5q0 35 -24 54t-66 19q-64 0 -123 -44l-36 65q29 22 72.5 38.5t103.5 16.5q36 0 67 -9t54.5 -26t36.5 -42.5t13 -59.5q0 -48 -22 -75
t-52 -40v-2q38 -12 64.5 -41t26.5 -78q0 -65 -40.5 -103t-100.5 -49v-113h-87v110q-48 6 -87 26t-65 46z" />
    <glyph glyph-name="uni049A" unicode="&#x49a;" horiz-adv-x="659" 
d="M93 706h99v-297h105l179 297h109l-206 -335v-2l168 -283h97v-226h-89v140h-70l-188 323h-105v-323h-99v706z" />
    <glyph glyph-name="uni049B" unicode="&#x49b;" horiz-adv-x="557" 
d="M75 506h97v-204h71l138 204h110l-169 -241v-2l128 -179h89v-204h-89v120h-54l-151 219h-73v-219h-97v506z" />
    <glyph glyph-name="uni049C" unicode="&#x49c;" horiz-adv-x="702" 
d="M93 706h99v-297h71v120h74v-120h48l178 297h109l-205 -335v-2l219 -369h-113l-188 323h-48v-121h-74v121h-71v-323h-99v706z" />
    <glyph glyph-name="uni049D" unicode="&#x49d;" horiz-adv-x="598" 
d="M75 506h97v-204h54v102h70v-102h23l138 204h110l-168 -241v-2l188 -263h-114l-151 219h-26v-104h-70v104h-54v-219h-97v506z" />
    <glyph glyph-name="uni049E" unicode="&#x49e;" horiz-adv-x="619" 
d="M16 596h80v110h99v-110h95v-71h-95v-116h105l179 297h109l-206 -335v-2l219 -369h-113l-188 323h-105v-323h-99v525h-80v71z" />
    <glyph glyph-name="uni049F" unicode="&#x49f;" horiz-adv-x="522" 
d="M75 529h-62v68h62v109h97v-109h113v-68h-113v-213h72l137 190h110l-168 -227v-2l187 -277h-113l-151 232h-74v-232h-97v529z" />
    <glyph glyph-name="uni04A0" unicode="&#x4a0;" horiz-adv-x="750" 
d="M229 620h-212v86h310v-297h106l178 297h109l-206 -335v-2l219 -369h-112l-188 323h-106v-323h-98v620z" />
    <glyph glyph-name="uni04A1" unicode="&#x4a1;" horiz-adv-x="593" 
d="M147 423h-137v83h234v-204h71l138 204h109l-168 -241v-2l189 -263h-115l-151 219h-73v-219h-97v423z" />
    <glyph glyph-name="uni04A2" unicode="&#x4a2;" horiz-adv-x="785" 
d="M93 706h99v-310h367v310h98v-620h98v-226h-90v140h-106v310h-367v-310h-99v706z" />
    <glyph glyph-name="uni04A3" unicode="&#x4a3;" horiz-adv-x="633" 
d="M75 506h97v-206h256v206h97v-422h85v-204h-89v120h-93v217h-256v-217h-97v506z" />
    <glyph glyph-name="uni04A4" unicode="&#x4a4;" horiz-adv-x="932" 
d="M93 706h99v-310h338v310h388v-86h-290v-620h-98v310h-338v-310h-99v706z" />
    <glyph glyph-name="uni04A5" unicode="&#x4a5;" horiz-adv-x="728" 
d="M75 506h97v-206h233v206h302v-83h-205v-423h-97v217h-233v-217h-97v506z" />
    <glyph glyph-name="uni04A6" unicode="&#x4a6;" horiz-adv-x="997" 
d="M93 706h490v-304q21 10 59.5 19.5t76.5 9.5q52 0 96 -15.5t76.5 -50t50.5 -90.5t18 -138q0 -84 -18 -143.5t-51 -98t-80.5 -56t-105.5 -17.5v81q30 0 57.5 10t48.5 36.5t34 71.5t13 116q0 113 -38.5 162.5t-119.5 49.5q-36 0 -66.5 -10t-50.5 -18v-321h-98v621h-293v-621
h-99v706z" />
    <glyph glyph-name="uni04A7" unicode="&#x4a7;" horiz-adv-x="816" 
d="M75 506h397v-214q25 12 54 19t58 7q52 0 89.5 -18.5t62.5 -50t37 -73.5t12 -88q0 -54 -12 -99t-32.5 -81.5t-48 -65t-58.5 -49.5l-47 68q20 14 39 34t33.5 47.5t23 62.5t8.5 79q0 66 -28 108.5t-94 42.5q-32 0 -57 -8.5t-40 -17.5v-209h-97v423h-203v-423h-97v506z" />
    <glyph glyph-name="uni04A8" unicode="&#x4a8;" horiz-adv-x="936" 
d="M51 364q0 79 24 140t60.5 104.5t81 70.5t85.5 39l34 -89q-33 -11 -66 -33t-59.5 -55t-43 -78t-16.5 -102q0 -56 16.5 -107t49 -90t81 -62t113.5 -23q56 0 110 17q-72 54 -114.5 133t-42.5 180q0 72 22 127.5t58.5 93t83.5 57t97 19.5q54 0 100.5 -19.5t80.5 -57t53.5 -91
t19.5 -122.5q0 -94 -47 -177t-124 -143q54 -14 115 -14h47v-82h-48q-54 0 -104.5 10t-97.5 29q-49 -25 -102 -38t-108 -13q-78 0 -144 26.5t-114 76t-74.5 118.5t-26.5 155zM466 410q0 -88 37.5 -158.5t106.5 -113.5q75 47 121 119.5t46 157.5q0 51 -12.5 89t-33.5 63
t-48.5 37t-58.5 12q-27 0 -55.5 -12t-51 -37t-37 -64t-14.5 -93z" />
    <glyph glyph-name="uni04A9" unicode="&#x4a9;" horiz-adv-x="782" 
d="M43 261q0 55 17 98t43.5 75t59 52.5t63.5 31.5l33 -79q-22 -9 -44 -25t-40 -38.5t-29 -51.5t-11 -65q0 -37 11.5 -71.5t36 -61t62.5 -42.5t91 -16q43 0 87 12q-54 38 -87 94t-33 129q0 45 16 84t44.5 68t68.5 46t88 17t86.5 -15.5t65.5 -42.5t41.5 -64.5t14.5 -80.5
q0 -66 -34 -125.5t-91 -105.5q35 -7 78 -7h53v-77h-49q-42 0 -84.5 7.5t-83.5 22.5q-42 -20 -88 -31t-94 -11q-71 0 -125.5 21t-91.5 58t-56 87t-19 107zM395 305q0 -63 31.5 -111t85.5 -77q54 32 89 81t35 112q0 61 -32 96t-86 35q-27 0 -49.5 -10.5t-39 -28.5t-25.5 -43
t-9 -54z" />
    <glyph glyph-name="uni04AA" unicode="&#x4aa;" horiz-adv-x="717" 
d="M50 357q0 77 26.5 143t74 114.5t113.5 76t145 27.5q34 0 69 -5.5t68.5 -16.5t64 -29t56.5 -42l-50 -74q-39 35 -94 56t-110 21q-62 0 -110 -21t-82 -58t-51.5 -86t-17.5 -105t18 -107t52 -89t82.5 -60.5t110.5 -22.5q60 0 117 24.5t100 67.5l53 -71q-42 -42 -100 -73
t-139 -37v-130h-90v132q-70 9 -126.5 40.5t-96.5 80t-61.5 111t-21.5 133.5z" />
    <glyph glyph-name="uni04AB" unicode="&#x4ab;" horiz-adv-x="546" 
d="M42 253q0 56 20 104.5t56 84t85.5 56t109.5 20.5q51 0 102.5 -18t87.5 -56l-46 -68q-26 26 -63 42t-77 16q-38 0 -70.5 -13.5t-56 -37.5t-36.5 -57t-13 -72t13 -72t37 -57.5t57 -38.5t72 -14q42 0 84.5 18.5t71.5 49.5l39 -71q-30 -32 -74 -52.5t-95 -26.5v-110h-87v113
q-49 8 -89 31t-68.5 57t-44 78t-15.5 94z" />
    <glyph glyph-name="uni04AC" unicode="&#x4ac;" horiz-adv-x="617" 
d="M257 2v618h-243v86h584v-86h-243v-534h98v-226h-90v140h-107z" />
    <glyph glyph-name="uni04AD" unicode="&#x4ad;" horiz-adv-x="496" 
d="M197 423h-176v83h449v-83h-177v-339h85v-204h-89v120h-92v423z" />
    <glyph glyph-name="uni04AE" unicode="&#x4ae;" horiz-adv-x="580" 
d="M241 299l-237 407h112l130 -232q8 -16 15.5 -31.5t13.5 -28.5q7 -15 14 -29h2q6 14 13 29q13 27 30 60l130 232h112l-237 -407v-299h-98v299z" />
    <glyph glyph-name="uni04AF" unicode="&#x4af;" horiz-adv-x="526" 
d="M18 506h102l123 -314q4 -11 8 -22.5t6 -21.5q3 -11 5 -23h2q2 12 5 23q5 21 14 44l123 314h102l-197 -483v-223h-96v223z" />
    <glyph glyph-name="uni04B0" unicode="&#x4b0;" horiz-adv-x="580" 
d="M119 306h118l-233 400h112l130 -232q8 -16 15.5 -31.5t13.5 -28.5q7 -15 14 -29h2q6 14 13 29q13 27 30 60l130 232h112l-233 -400h120v-73h-124v-233h-98v233h-122v73z" />
    <glyph glyph-name="uni04B1" unicode="&#x4b1;" horiz-adv-x="525" 
d="M99 71h96l-177 435h103l122 -314q4 -11 8 -22.5t6 -21.5q3 -11 5 -23h2q2 12 5 23q5 21 14 44l121 314h102l-176 -435h98v-71h-117v-200h-96v200h-116v71z" />
    <glyph glyph-name="uni04B2" unicode="&#x4b2;" horiz-adv-x="643" 
d="M238 364l-208 342h113l111 -191q8 -14 15.5 -29t14.5 -27q8 -14 15 -28h2q6 13 13 27l13.5 27t16.5 30l112 191h114l-210 -342l170 -278h99v-226h-90v140h-67l-129 217q-8 14 -16 29t-14 26l-14 26h-2q-6 -13 -13 -26q-6 -11 -14 -26t-16 -29l-128 -217h-110z" />
    <glyph glyph-name="uni04B3" unicode="&#x4b3;" horiz-adv-x="533" 
d="M190 260l-163 246h111l94 -154q2 -5 5.5 -10t5.5 -10l5 -10h2l6 10q2 5 5 10l6 10l94 154h111l-163 -246l117 -176h86v-204h-89v120h-51l-106 169q-3 5 -6 9.5t-5 8.5q-3 4 -5 9h-2q-2 -5 -5 -9q-2 -4 -4.5 -8.5t-5.5 -9.5l-106 -169h-110z" />
    <glyph glyph-name="uni04B4" unicode="&#x4b4;" horiz-adv-x="902" 
d="M229 620h-212v86h522v-86h-212v-534h353v620h98v-620h91v-226h-89v140h-551v620z" />
    <glyph glyph-name="uni04B5" unicode="&#x4b5;" horiz-adv-x="732" 
d="M177 423h-155v83h409v-83h-157v-339h259v422h97v-422h75v-203h-89v119h-439v423z" />
    <glyph glyph-name="uni04B6" unicode="&#x4b6;" horiz-adv-x="673" 
d="M264 271q-110 0 -161.5 54t-51.5 152v229h100v-208q0 -67 31 -102t103 -35q51 0 94 16.5t66 31.5v297h100v-620h97v-226h-89v140h-108v286v11t1 11q0 5 1 11h-2q-14 -7 -33.5 -15.5t-43 -15.5t-50.5 -12t-54 -5z" />
    <glyph glyph-name="uni04B7" unicode="&#x4b7;" horiz-adv-x="559" 
d="M213 176q-81 0 -125.5 42t-44.5 123v165h95v-151q0 -19 4 -36t15.5 -30t31 -21t50.5 -8q38 0 67 12.5t45 23.5v210h97v-422h88v-204h-88v120h-97v183v20q0 5 1 10h-2q-24 -15 -61.5 -26t-75.5 -11z" />
    <glyph glyph-name="uni04B8" unicode="&#x4b8;" horiz-adv-x="654" 
d="M271 274q-115 0 -168.5 54t-53.5 152v226h100v-208q0 -63 28 -97.5t94 -38.5v140h74v-136q37 7 67.5 19.5t47.5 23.5v297h100v-706h-100v289v11t1 11q0 5 1 11h-2q-19 -10 -49 -21t-66 -19v-114h-74v106z" />
    <glyph glyph-name="uni04B9" unicode="&#x4b9;" horiz-adv-x="547" 
d="M221 178q-85 0 -131.5 41t-46.5 122v165h95v-151q0 -17 3.5 -32.5t13.5 -28.5t26.5 -21.5t42.5 -11.5v122h71v-119q26 5 47 14.5t34 17.5v210h97v-506h-97v187v10t1 10q0 5 1 10h-2q-34 -19 -81 -30v-88h-71v79h-3v0z" />
    <glyph glyph-name="uni04BA" unicode="&#x4ba;" horiz-adv-x="627" 
d="M93 706h99v-261q0 -5 -0.5 -11t-0.5 -11q-1 -6 -1 -11h2q13 7 32.5 15t43.5 15t51.5 11.5t56.5 4.5q52 0 89.5 -15t61.5 -42.5t35.5 -66t11.5 -85.5v-249h-100v233q0 66 -28.5 101.5t-95.5 35.5q-51 0 -93.5 -16t-64.5 -30v-324h-99v706z" />
    <glyph glyph-name="uni04BB" unicode="&#x4bb;" horiz-adv-x="603" 
d="M75 706h97v-262q0 -9 -0.5 -17t-1.5 -13q-1 -7 -2 -12h2q9 18 25.5 38.5t40.5 37.5t55 28.5t69 11.5q90 0 131.5 -48.5t41.5 -145.5v-324h-97v302q0 27 -3.5 50t-13.5 40t-29 27t-49 10q-37 0 -68 -14t-53.5 -39.5t-35 -60t-12.5 -75.5v-240h-97v706z" />
    <glyph glyph-name="uni04BC" unicode="&#x4bc;" horiz-adv-x="876" 
d="M38 514q0 20 1.5 41.5t6.5 41.5l8 39h90l-8 -40q-4 -17 -6 -34t-2 -39q0 -20 4 -38t13.5 -32t25 -22.5t37.5 -8.5h4q10 66 38 120.5t70 93.5t96 60.5t116 21.5q67 0 121 -23t92 -65.5t58.5 -103t20.5 -136.5q0 -8 -0.5 -16t-1.5 -15q-1 -8 -1 -16h-511q1 -63 21 -112
t53.5 -82.5t77.5 -51.5t93 -18q44 0 81 11t65.5 25.5t46.5 28t23 18.5l48 -76q-3 -3 -22 -18.5t-53 -33.5t-83.5 -32t-115.5 -14q-72 0 -133 26t-106.5 73t-71.5 112.5t-27 144.5h-3q-77 0 -121.5 43t-44.5 127zM723 422q0 41 -11.5 78.5t-34.5 66.5t-59.5 46t-85.5 17
q-47 0 -85.5 -17.5t-66 -46.5t-45 -66.5t-22.5 -77.5h410z" />
    <glyph glyph-name="uni04BD" unicode="&#x4bd;" horiz-adv-x="680" 
d="M33 390q0 16 3.5 37t8.5 37h80q-6 -16 -9 -35t-3 -34q0 -43 14 -62.5t43 -21.5q9 48 31 86t55 65t74.5 41.5t88.5 14.5q53 0 94 -19t68.5 -51t41.5 -75t14 -92q0 -5 -0.5 -12.5t-1.5 -13.5q-1 -8 -1 -15h-369q2 -41 16.5 -72.5t38.5 -52.5t55 -32t65 -11q32 0 59.5 9
t47.5 20q23 13 42 30l40 -71q-23 -20 -53 -36q-26 -14 -61.5 -25t-80.5 -11q-58 0 -106.5 19t-84 53t-56 80t-22.5 100q-132 0 -132 150zM539 310q-1 32 -11 56.5t-26.5 41t-38.5 25t-47 8.5q-56 0 -96.5 -34.5t-51.5 -96.5h271z" />
    <glyph glyph-name="uni04BE" unicode="&#x4be;" horiz-adv-x="877" 
d="M38 514q0 20 1.5 41.5t6.5 41.5l8 39h90l-8 -40q-4 -17 -6 -34t-2 -39q0 -20 4 -38t13.5 -32t25 -22.5t37.5 -8.5h4q10 66 38 120.5t70 93.5t96 60.5t116 21.5q67 0 121 -23t92 -65.5t58.5 -103t20.5 -136.5q0 -8 -0.5 -16t-1.5 -15q-1 -8 -1 -16h-511q1 -63 21 -112
t53.5 -82.5t77.5 -51.5t93 -18q44 0 81 11t65.5 25.5t46.5 28t23 18.5l48 -76q-3 -3 -20 -17t-47 -30.5t-73.5 -31t-100.5 -18.5v-129h-90v133q-61 9 -112 38.5t-88 75t-58.5 106t-22.5 131.5h-3q-77 0 -121.5 43t-44.5 127zM723 422q0 41 -11.5 78.5t-34.5 66.5t-59.5 46
t-85.5 17q-47 0 -85.5 -17.5t-66 -46.5t-45 -66.5t-22.5 -77.5h410z" />
    <glyph glyph-name="uni04BF" unicode="&#x4bf;" horiz-adv-x="680" 
d="M33 390q0 16 3.5 37t8.5 37h80q-6 -16 -9 -35t-3 -34q0 -43 14 -62.5t43 -21.5q9 48 31 86t55 65t74.5 41.5t88.5 14.5q53 0 94 -19t68.5 -51t41.5 -75t14 -92q0 -5 -0.5 -12.5t-1.5 -13.5q-1 -8 -1 -15h-369q2 -41 16.5 -72.5t38.5 -52.5t55 -32t65 -11q32 0 59.5 9
t47.5 20q23 13 42 30l40 -71q-21 -18 -47 -33q-23 -13 -55.5 -24.5t-72.5 -13.5v-109h-87v116q-44 10 -80.5 32t-63 54t-41.5 72t-17 86q-132 0 -132 150zM539 310q-1 32 -11 56.5t-26.5 41t-38.5 25t-47 8.5q-56 0 -96.5 -34.5t-51.5 -96.5h271z" />
    <glyph glyph-name="uni04C0" unicode="&#x4c0;" horiz-adv-x="285" 
d="M93 706h98v-706h-98v706z" />
    <glyph glyph-name="uni04C1" unicode="&#x4c1;" horiz-adv-x="892" 
d="M223 369v2l-191 335h108l165 -297h92v297h98v-297h93l164 297h108l-191 -335v-2l206 -369h-112l-175 323h-93v-323h-98v323h-92l-176 -323h-111zM448 739q-29 0 -55.5 8.5t-47 25t-33 40t-12.5 54.5v15h78v-14q0 -33 22 -49.5t48 -16.5t48.5 16.5t22.5 50.5v13h77v-15
q0 -31 -12 -54.5t-32.5 -40t-47.5 -25t-56 -8.5z" />
    <glyph glyph-name="uni04C2" unicode="&#x4c2;" horiz-adv-x="752" 
d="M180 260v2l-149 244h103l124 -207h72v207h92v-207h72l125 207h102l-148 -244v-2l163 -260h-109l-132 216h-73v-216h-92v216h-72l-133 -216h-108zM375 564q-29 0 -55.5 8.5t-47 25t-33 40t-12.5 54.5v15h78v-14q0 -33 22 -49.5t48 -16.5t48.5 16.5t22.5 50.5v13h77v-15
q0 -31 -12 -54.5t-32.5 -40t-47.5 -25t-56 -8.5z" />
    <glyph glyph-name="uni04C3" unicode="&#x4c3;" horiz-adv-x="636" 
d="M93 706h99v-297h105l179 297h109l-193 -315q52 -13 89 -40.5t60.5 -64t34 -78.5t10.5 -85q0 -70 -17.5 -125.5t-50 -94.5t-78 -60t-101.5 -21v83q26 0 52 10.5t46.5 35t33 65t12.5 101.5q0 53 -15.5 92.5t-44.5 65t-70 38t-91 12.5h-70v-325h-99v706z" />
    <glyph glyph-name="uni04C4" unicode="&#x4c4;" horiz-adv-x="528" 
d="M75 506h97v-205h70l139 205h110l-159 -227v-2q48 -14 78 -40t47 -57t23 -64t6 -63q0 -51 -13.5 -92t-35.5 -73.5t-49.5 -56t-54.5 -38.5l-46 70q19 10 38 26t34 39.5t24 54t9 70.5q0 81 -45 122.5t-128 41.5h-47v-217h-97v506z" />
    <glyph glyph-name="uni04C5" unicode="&#x4c5;" horiz-adv-x="717" 
d="M12 83q89 12 125 126.5t36 329.5v167h412v-620h109v-57l-72 -169h-73l43 140h-106v620h-219v-82q0 -127 -12.5 -226.5t-42 -169.5t-78.5 -108t-122 -42v91v0z" />
    <glyph glyph-name="uni04C6" unicode="&#x4c6;" horiz-adv-x="586" 
d="M20 82q28 4 49 20.5t35.5 49t22 81t7.5 117.5v156h339v-423h89v-55l-63 -148h-68l36 120h-91v426h-149v-76q0 -173 -47.5 -261t-159.5 -94v87z" />
    <glyph glyph-name="uni04C7" unicode="&#x4c7;" horiz-adv-x="750" 
d="M93 706h99v-310h367v310h98l1 -655q0 -76 -20.5 -122t-51 -70.5t-67 -32t-68.5 -5.5v84q16 0 35 5t35.5 20t27 43t10.5 75v262h-367v-310h-99v706z" />
    <glyph glyph-name="uni04C8" unicode="&#x4c8;" horiz-adv-x="601" 
d="M75 506h97v-206h256v206h98v-458q0 -54 -11.5 -93.5t-31.5 -69t-47.5 -51.5t-59.5 -41l-51 71q23 12 42 27.5t32.5 37t21 50.5t7.5 68v170h-256v-217h-97v506z" />
    <glyph glyph-name="uni04C9" unicode="&#x4c9;" horiz-adv-x="790" 
d="M93 706h99v-310h367v310h98v-620h110v-57l-73 -169h-72l42 140h-105v310h-367v-310h-99v706z" />
    <glyph glyph-name="uni04CA" unicode="&#x4ca;" horiz-adv-x="638" 
d="M75 506h97v-206h256v206h97v-423h89v-55l-63 -148h-68l36 120h-91v217h-256v-217h-97v506z" />
    <glyph glyph-name="uni04CB" unicode="&#x4cb;" horiz-adv-x="638" 
d="M264 271q-110 0 -161.5 54t-51.5 152v229h100v-208q0 -67 31 -102t103 -35q51 0 94 16.5t66 31.5v297h100v-706h-109v-140h-89v226h98v200v11t1 11q0 5 1 11h-2q-14 -7 -33.5 -15.5t-43 -15.5t-50.5 -12t-54 -5z" />
    <glyph glyph-name="uni04CC" unicode="&#x4cc;" horiz-adv-x="526" 
d="M355 67v126v21q0 5 1 9h-1q-13 -8 -31 -14.5t-38 -12t-41.5 -8.5t-40.5 -3q-77 0 -119.5 41.5t-42.5 121.5v158h96v-145q0 -18 4 -35.5t14.5 -30.5t29.5 -21t48 -8q39 0 71.5 13t49.5 24v203h97v-506h-93v-120h-89v187h85z" />
    <glyph glyph-name="uni04CD" unicode="&#x4cd;" horiz-adv-x="894" 
d="M124 706h103l163 -382q6 -15 12 -31.5t11 -30.5q5 -17 11 -33h2q5 16 11 33q5 14 11.5 30.5t12.5 31.5l163 382h103l50 -620h109v-57l-72 -169h-72l42 140h-98l-34 445q-2 16 -2.5 34t-0.5 34q0 18 1 36h-2q-7 -19 -13 -37q-6 -16 -12.5 -34.5t-12.5 -32.5l-141 -318h-88
l-140 318q-6 14 -13 32t-12 35q-7 19 -13 39h-2v-37v-34.5t-2 -34.5l-34 -445h-99z" />
    <glyph glyph-name="uni04CE" unicode="&#x4ce;" horiz-adv-x="773" 
d="M98 506h108l129 -286q5 -11 10 -23t9 -22q4 -11 9 -23h2q5 11 9 22q8 21 19 46l132 286h106l37 -423h92v-55l-63 -148h-69l36 120h-83l-22 301q-1 11 -0.5 26t0.5 29q0 16 1 32h-2q-4 -10 -9 -22q-5 -11 -10.5 -24.5t-12.5 -27.5l-120 -253h-83l-120 252q-6 14 -11.5 27
t-10.5 24l-10 24h-2q0 -16 1 -32q0 -14 0.5 -29t-0.5 -26l-22 -301h-94z" />
    <glyph glyph-name="uni04CF" unicode="&#x4cf;" horiz-adv-x="246" 
d="M75 706h97v-706h-97v706z" />
    <glyph glyph-name="uni04D0" unicode="&#x4d0;" horiz-adv-x="641" 
d="M268 706h105l253 -706h-102l-71 203h-266l-71 -203h-101zM427 285l-78 223q-5 14 -10 31t-9 33q-5 18 -9 37h-2q-5 -19 -9 -37q-4 -16 -8.5 -33t-9.5 -31l-79 -223h214zM318 739q-29 0 -55.5 8.5t-47 25t-33 40t-12.5 54.5v15h78v-14q0 -33 22 -49.5t48 -16.5t48.5 16.5
t22.5 50.5v13h77v-15q0 -31 -12 -54.5t-32.5 -40t-47.5 -25t-56 -8.5z" />
    <glyph glyph-name="uni04D1" unicode="&#x4d1;" horiz-adv-x="527" 
d="M33 138q0 40 15 68.5t40 48t56.5 31.5t65.5 18.5t66.5 8.5t58.5 2h26v10q0 31 -8.5 52.5t-23.5 34.5t-35 18.5t-44 5.5q-38 0 -74.5 -13.5t-67.5 -35.5l-39 71q31 26 83 43t106 17q96 0 148 -50.5t52 -147.5v-320h-91v51v16t1 13q1 6 2 11h-2q-22 -44 -65.5 -73.5
t-100.5 -29.5q-33 0 -63.5 10t-54 29.5t-37.5 47t-14 63.5zM130 146q0 -30 24 -55.5t71 -25.5q32 0 57 14.5t42.5 38t27 52t9.5 56.5v19h-25q-27 0 -62.5 -2.5t-67.5 -12t-54 -29.5t-22 -55zM271 564q-29 0 -55.5 8.5t-47 25t-33 40t-12.5 54.5v15h78v-14q0 -33 22 -49.5
t48 -16.5t48.5 16.5t22.5 50.5v13h77v-15q0 -31 -12 -54.5t-32.5 -40t-47.5 -25t-56 -8.5z" />
    <glyph glyph-name="uni04D2" unicode="&#x4d2;" horiz-adv-x="641" 
d="M268 706h105l253 -706h-102l-71 203h-266l-71 -203h-101zM427 285l-78 223q-5 14 -10 31t-9 33q-5 18 -9 37h-2q-5 -19 -9 -37q-4 -16 -8.5 -33t-9.5 -31l-79 -223h214zM364 882h79v-101h-79v101zM196 882h80v-101h-80v101z" />
    <glyph glyph-name="uni04D3" unicode="&#x4d3;" horiz-adv-x="527" 
d="M33 138q0 40 15 68.5t40 48t56.5 31.5t65.5 18.5t66.5 8.5t58.5 2h26v10q0 31 -8.5 52.5t-23.5 34.5t-35 18.5t-44 5.5q-38 0 -74.5 -13.5t-67.5 -35.5l-39 71q31 26 83 43t106 17q96 0 148 -50.5t52 -147.5v-320h-91v51v16t1 13q1 6 2 11h-2q-22 -44 -65.5 -73.5
t-100.5 -29.5q-33 0 -63.5 10t-54 29.5t-37.5 47t-14 63.5zM130 146q0 -30 24 -55.5t71 -25.5q32 0 57 14.5t42.5 38t27 52t9.5 56.5v19h-25q-27 0 -62.5 -2.5t-67.5 -12t-54 -29.5t-22 -55zM305 707h79v-101h-79v101zM137 707h80v-101h-80v101z" />
    <glyph glyph-name="uni04D4" unicode="&#x4d4;" horiz-adv-x="876" 
d="M300 706h517v-86h-312v-221h253v-86h-253v-227h328v-86h-426v314h-171l-125 -314h-103zM407 396v224h-47l-91 -224h138z" />
    <glyph glyph-name="uni04D5" unicode="&#x4d5;" horiz-adv-x="863" 
d="M34 142q0 41 15 69.5t40 47.5t56.5 29.5t65.5 16t66.5 7t58.5 1.5h25v12q0 31 -8.5 52.5t-23.5 34.5t-36 18.5t-46 5.5q-37 0 -73.5 -13.5t-66.5 -35.5l-39 71q16 13 37.5 24.5t46 19t50.5 12t51 4.5q72 0 111 -24t58 -65h2q30 45 75.5 67t103.5 22q52 0 92.5 -18.5
t68 -50.5t42 -74.5t14.5 -91.5q0 -11 -0.5 -20.5t-1.5 -20.5h-364q2 -42 16 -74t36.5 -53t52.5 -32t64 -11q40 0 80 16t70 42l40 -70q-18 -16 -41 -29.5t-48.5 -23t-53 -14.5t-53.5 -5q-77 0 -132.5 33.5t-84.5 92.5h-2q-3 -9 -15 -30t-35 -42t-57.5 -37t-83.5 -16
q-35 0 -66.5 10t-55 29.5t-37.5 48t-14 65.5zM722 313q-1 31 -11.5 55t-27 40t-37.5 24t-44 8q-57 0 -95 -32t-49 -95h264zM132 147q0 -32 24 -56.5t72 -24.5q31 0 56 14.5t42 38t26.5 52t9.5 57.5v14h-48q-29 0 -61 -3t-59 -13t-44.5 -29t-17.5 -50z" />
    <glyph glyph-name="uni04D6" unicode="&#x4d6;" horiz-adv-x="564" 
d="M93 706h411v-86h-312v-221h253v-86h-253v-227h329v-86h-428v706zM303 739q-29 0 -55.5 8.5t-47 25t-33 40t-12.5 54.5v15h78v-14q0 -33 22 -49.5t48 -16.5t48.5 16.5t22.5 50.5v13h77v-15q0 -31 -12 -54.5t-32.5 -40t-47.5 -25t-56 -8.5z" />
    <glyph glyph-name="uni04D7" unicode="&#x4d7;" horiz-adv-x="557" 
d="M42 253q0 60 19.5 109t53.5 83.5t80.5 53.5t100.5 19t94.5 -19t68.5 -51t42 -75t14 -92q0 -10 -1 -20t-3 -21h-368q2 -41 16.5 -72.5t38 -52.5t54.5 -32t65 -11q41 0 80 16t69 43l41 -71q-37 -34 -90 -53t-106 -19q-60 0 -109.5 20.5t-85 56t-55 84t-19.5 104.5zM417 310
q-1 33 -11 57.5t-26.5 41.5t-38.5 25.5t-47 8.5q-57 0 -97 -35t-51 -98h271zM291 564q-29 0 -55.5 8.5t-47 25t-33 40t-12.5 54.5v15h78v-14q0 -33 22 -49.5t48 -16.5t48.5 16.5t22.5 50.5v13h77v-15q0 -31 -12 -54.5t-32.5 -40t-47.5 -25t-56 -8.5z" />
    <glyph glyph-name="uni04D8" unicode="&#x4d8;" horiz-adv-x="722" 
d="M51 339v15.5t1 16.5l2 18h513q-3 53 -21 97t-48.5 75.5t-72.5 49t-93 17.5q-45 0 -82 -10t-65.5 -23.5t-46 -26t-23.5 -17.5l-50 74q3 3 22.5 17.5t54 31.5t85 30.5t115.5 13.5q74 0 134.5 -27.5t104 -76t67 -115t23.5 -143.5q0 -79 -22.5 -146.5t-64.5 -116.5t-101 -77
t-132 -28q-69 0 -124.5 22.5t-94.5 67t-60 110t-21 151.5zM151 310q0 -109 49 -171t156 -62q46 0 84.5 16.5t66 47t43 73.5t16.5 96h-415z" />
    <glyph glyph-name="uni04D9" unicode="&#x4d9;" horiz-adv-x="557" 
d="M42 235v13.5t1 14.5q1 8 2 17h370q-2 36 -16 65.5t-35.5 50t-50.5 31.5t-61 11q-35 0 -64 -9t-51 -20q-26 -12 -46 -28l-39 69q6 4 23 15t44 23t63 21t81 9q57 0 103.5 -20t79.5 -55t51 -83.5t18 -105.5q0 -62 -19 -111.5t-52 -84t-78.5 -52.5t-98.5 -18q-56 0 -98 18.5
t-70 51.5t-42.5 78t-14.5 99zM143 210q1 -40 11.5 -67.5t28 -45t39.5 -25t47 -7.5q27 0 52 8.5t44.5 26.5t32 45.5t13.5 64.5h-268z" />
    <glyph glyph-name="uni04DA" unicode="&#x4da;" horiz-adv-x="722" 
d="M398 882h79v-101h-79v101zM230 882h80v-101h-80v101zM51 339v15.5t1 16.5l2 18h513q-3 53 -21 97t-48.5 75.5t-72.5 49t-93 17.5q-45 0 -82 -10t-65.5 -23.5t-46 -26t-23.5 -17.5l-50 74q3 3 22.5 17.5t54 31.5t85 30.5t115.5 13.5q74 0 134.5 -27.5t104 -76t67 -115
t23.5 -143.5q0 -79 -22.5 -146.5t-64.5 -116.5t-101 -77t-132 -28q-69 0 -124.5 22.5t-94.5 67t-60 110t-21 151.5zM151 310q0 -109 49 -171t156 -62q46 0 84.5 16.5t66 47t43 73.5t16.5 96h-415z" />
    <glyph glyph-name="uni04DB" unicode="&#x4db;" horiz-adv-x="557" 
d="M309 707h79v-101h-79v101zM141 707h80v-101h-80v101zM42 235v13.5t1 14.5q1 8 2 17h370q-2 36 -16 65.5t-35.5 50t-50.5 31.5t-61 11q-35 0 -64 -9t-51 -20q-26 -12 -46 -28l-39 69q6 4 23 15t44 23t63 21t81 9q57 0 103.5 -20t79.5 -55t51 -83.5t18 -105.5
q0 -62 -19 -111.5t-52 -84t-78.5 -52.5t-98.5 -18q-56 0 -98 18.5t-70 51.5t-42.5 78t-14.5 99zM143 210q1 -40 11.5 -67.5t28 -45t39.5 -25t47 -7.5q27 0 52 8.5t44.5 26.5t32 45.5t13.5 64.5h-268z" />
    <glyph glyph-name="uni04DC" unicode="&#x4dc;" horiz-adv-x="892" 
d="M223 369v2l-191 335h108l165 -297h92v297h98v-297h93l164 297h108l-191 -335v-2l206 -369h-112l-175 323h-93v-323h-98v323h-92l-176 -323h-111zM493 882h79v-101h-79v101zM325 882h80v-101h-80v101z" />
    <glyph glyph-name="uni04DD" unicode="&#x4dd;" horiz-adv-x="752" 
d="M420 707h79v-101h-79v101zM252 707h80v-101h-80v101zM180 260v2l-149 244h103l124 -207h72v207h92v-207h72l125 207h102l-148 -244v-2l163 -260h-109l-132 216h-73v-216h-92v216h-72l-133 -216h-108z" />
    <glyph glyph-name="uni04DE" unicode="&#x4de;" horiz-adv-x="546" 
d="M312 882h79v-101h-79v101zM144 882h80v-101h-80v101zM82 151q28 -30 72 -52t94 -22q65 0 106 34t41 94q0 56 -37 86.5t-95 30.5h-87v82h70q27 0 50 8.5t40 23.5t27 36t10 46q0 23 -7.5 43.5t-22.5 36t-38.5 24.5t-56.5 9q-38 0 -78.5 -13.5t-79.5 -46.5l-42 74
q28 23 56.5 37.5t56 22.5t53 10.5t48.5 2.5q45 0 84 -13t67.5 -37t44.5 -59t16 -79q0 -32 -9 -57.5t-23.5 -45t-32.5 -33.5t-37 -23v-2q56 -16 90 -59.5t34 -109.5q0 -49 -19 -88.5t-51.5 -67t-76 -42t-93.5 -14.5q-64 0 -125.5 25t-103.5 71z" />
    <glyph glyph-name="uni04DF" unicode="&#x4df;" horiz-adv-x="448" 
d="M262 707h79v-101h-79v101zM94 707h80v-101h-80v101zM71 126q9 -9 22 -19.5t30 -19.5t37 -15t43 -6q44 0 74.5 20.5t30.5 62.5q0 37 -25 57t-79 20h-62v70h53q43 0 69.5 17.5t26.5 55.5q0 35 -24 54t-66 19q-64 0 -123 -44l-36 65q29 22 72.5 38.5t103.5 16.5q36 0 67 -9
t54.5 -26t36.5 -42.5t13 -59.5q0 -48 -22 -75t-52 -40v-2q38 -12 64.5 -41t26.5 -78q0 -39 -15.5 -68.5t-42.5 -49t-62 -29.5t-74 -10q-59 0 -106.5 22t-79.5 52z" />
    <glyph glyph-name="uni04E0" unicode="&#x4e0;" horiz-adv-x="527" 
d="M68 123q30 -22 73.5 -36.5t85.5 -14.5q71 0 113 36t42 94q0 49 -25.5 77.5t-86.5 36.5q-14 1 -46.5 1.5t-106.5 0.5v66l184 201q8 8 15.5 15t13.5 12q7 6 14 11v2q-8 -1 -18 -1q-8 -1 -19 -1h-24h-233v83h408v-75l-196 -209q-5 -5 -9.5 -9t-9.5 -8l-10 -8v-2
q35 -1 55 -2.5t36 -5.5q49 -9 79.5 -29t47 -45.5t22 -53.5t5.5 -53q0 -51 -19 -91t-52 -67.5t-78 -42.5t-98 -15q-55 0 -106 16.5t-92 43.5l35 73v0z" />
    <glyph glyph-name="uni04E1" unicode="&#x4e1;" horiz-adv-x="487" 
d="M44 -77q30 -22 73.5 -36.5t85.5 -14.5q71 0 113 36t42 94q0 49 -25.5 77.5t-86.5 36.5q-14 1 -46.5 1.5t-106.5 0.5v66l184 201q8 8 15.5 15t13.5 12q7 6 14 11v2q-8 -1 -18 -1q-8 -1 -19 -1h-24h-233v83h408v-75l-196 -209q-5 -5 -9.5 -9t-9.5 -8l-10 -8v-2
q35 -1 55 -2.5t36 -5.5q49 -9 79.5 -29t47 -45.5t22 -53.5t5.5 -53q0 -51 -19 -91t-52 -67.5t-78 -42.5t-98 -15q-55 0 -106 16.5t-92 43.5l35 73v0z" />
    <glyph glyph-name="uni04E2" unicode="&#x4e2;" horiz-adv-x="752" 
d="M257 855h254v-71h-254v71zM93 706h99v-458q0 -15 -1 -33t-2 -34q-2 -18 -3 -36h2q10 20 21 38q9 16 19 34t20 32l313 457h97v-706h-98v458q0 15 0.5 32.5t2.5 33.5q1 18 3 37h-2q-9 -19 -20 -37q-9 -16 -19.5 -34t-19.5 -32l-315 -458h-97v706z" />
    <glyph glyph-name="uni04E3" unicode="&#x4e3;" horiz-adv-x="598" 
d="M75 506h93v-302q0 -10 -0.5 -21.5t-1 -21t-1 -16.5t-0.5 -9h2q3 7 17.5 28.5t27.5 39.5l218 302h94v-506h-94v302q0 18 1.5 39.5t1.5 27.5h-2q-1 -3 -6 -10.5t-11.5 -17t-13.5 -20l-13 -19.5l-219 -302h-93v506zM176 680h254v-71h-254v71z" />
    <glyph glyph-name="uni04E4" unicode="&#x4e4;" horiz-adv-x="752" 
d="M421 882h79v-101h-79v101zM253 882h80v-101h-80v101zM93 706h99v-458q0 -15 -1 -33t-2 -34q-2 -18 -3 -36h2q10 20 21 38q9 16 19 34t20 32l313 457h97v-706h-98v458q0 15 0.5 32.5t2.5 33.5q1 18 3 37h-2q-9 -19 -20 -37q-9 -16 -19.5 -34t-19.5 -32l-315 -458h-97v706z
" />
    <glyph glyph-name="uni04E5" unicode="&#x4e5;" horiz-adv-x="598" 
d="M347 707h79v-101h-79v101zM179 707h80v-101h-80v101zM75 506h93v-302q0 -10 -0.5 -21.5t-1 -21t-1 -16.5t-0.5 -9h2q3 7 17.5 28.5t27.5 39.5l218 302h94v-506h-94v302q0 18 1.5 39.5t1.5 27.5h-2q-1 -3 -6 -10.5t-11.5 -17t-13.5 -20l-13 -19.5l-219 -302h-93v506z" />
    <glyph glyph-name="uni04E6" unicode="&#x4e6;" horiz-adv-x="823" 
d="M454 882h79v-101h-79v101zM286 882h80v-101h-80v101zM49 358q0 76 27 142t75.5 114.5t115 76t145.5 27.5t145.5 -27.5t114.5 -76t75 -114.5t27 -142q0 -78 -27 -145.5t-75 -117.5t-114.5 -78.5t-145.5 -28.5t-145.5 28.5t-115 78.5t-75.5 117.5t-27 145.5zM151 358
q0 -59 19.5 -110t54.5 -88.5t82.5 -59t104.5 -21.5q56 0 104 21.5t82.5 59t54 88.5t19.5 110q0 57 -19.5 106.5t-54 86t-82.5 57t-104 20.5q-57 0 -104.5 -20.5t-82.5 -57t-54.5 -86t-19.5 -106.5z" />
    <glyph glyph-name="uni04E7" unicode="&#x4e7;" horiz-adv-x="629" 
d="M360 707h79v-101h-79v101zM192 707h80v-101h-80v101zM42 254q0 57 21.5 105.5t58.5 84t86.5 55t105.5 19.5q57 0 106.5 -19.5t86.5 -55t58.5 -84t21.5 -105.5q0 -58 -21.5 -106.5t-58.5 -84t-86.5 -55.5t-105.5 -20q-57 0 -106.5 20t-86.5 55.5t-58.5 84t-21.5 106.5z
M141 254q0 -40 13.5 -73.5t37.5 -57.5t55.5 -37.5t67.5 -13.5t67.5 13.5t55 37.5t37.5 57.5t14 73.5q0 39 -14 72t-37.5 57t-55 37.5t-67.5 13.5t-67.5 -13.5t-55.5 -37.5t-37.5 -57t-13.5 -72z" />
    <glyph glyph-name="uni04E8" unicode="&#x4e8;" horiz-adv-x="823" 
d="M49 358q0 76 27.5 142t76 114.5t115 76t144.5 27.5t144 -27.5t114.5 -76t76 -114.5t27.5 -142q0 -78 -27.5 -145.5t-76 -117.5t-114.5 -78.5t-144 -28.5t-144.5 28.5t-115 78.5t-76 117.5t-27.5 145.5zM412 76q51 0 95.5 18t79 50t57 76t28.5 97h-521q7 -53 29.5 -97
t57 -76t79 -50t95.5 -18zM412 630q-51 0 -96 -17.5t-79.5 -49t-57 -74t-28.5 -93.5h521q-6 51 -28.5 93.5t-57 74t-79 49t-95.5 17.5z" />
    <glyph glyph-name="uni04E9" unicode="&#x4e9;" horiz-adv-x="629" 
d="M42 254q0 57 21.5 105.5t58.5 84t86.5 55t105.5 19.5q57 0 106.5 -19.5t86.5 -55t58.5 -84t21.5 -105.5q0 -58 -21.5 -106.5t-58.5 -84t-86.5 -55.5t-105.5 -20q-57 0 -106.5 20t-86.5 55.5t-58.5 84t-21.5 106.5zM315 63q34 0 64.5 12t54.5 33t40 51t21 66h-360
q4 -36 20 -66t40 -51t54.5 -33t65.5 -12zM315 443q-34 0 -64.5 -11.5t-54.5 -32t-40 -49t-21 -63.5h359q-5 35 -21 63.5t-40 49t-54 32t-64 11.5z" />
    <glyph glyph-name="uni04EA" unicode="&#x4ea;" horiz-adv-x="823" 
d="M49 358q0 76 27.5 142t76 114.5t115 76t144.5 27.5t144 -27.5t114.5 -76t76 -114.5t27.5 -142q0 -78 -27.5 -145.5t-76 -117.5t-114.5 -78.5t-144 -28.5t-144.5 28.5t-115 78.5t-76 117.5t-27.5 145.5zM412 76q51 0 95.5 18t79 50t57 76t28.5 97h-521q7 -53 29.5 -97
t57 -76t79 -50t95.5 -18zM412 630q-51 0 -96 -17.5t-79.5 -49t-57 -74t-28.5 -93.5h521q-6 51 -28.5 93.5t-57 74t-79 49t-95.5 17.5zM288 882h80v-101h-80v101zM456 882h79v-101h-79v101z" />
    <glyph glyph-name="uni04EB" unicode="&#x4eb;" horiz-adv-x="629" 
d="M42 254q0 57 21.5 105.5t58.5 84t86.5 55t105.5 19.5q57 0 106.5 -19.5t86.5 -55t58.5 -84t21.5 -105.5q0 -58 -21.5 -106.5t-58.5 -84t-86.5 -55.5t-105.5 -20q-57 0 -106.5 20t-86.5 55.5t-58.5 84t-21.5 106.5zM315 63q34 0 64.5 12t54.5 33t40 51t21 66h-360
q4 -36 20 -66t40 -51t54.5 -33t65.5 -12zM315 443q-34 0 -64.5 -11.5t-54.5 -32t-40 -49t-21 -63.5h359q-5 35 -21 63.5t-40 49t-54 32t-64 11.5zM189 707h80v-101h-80v101zM357 707h79v-101h-79v101z" />
    <glyph glyph-name="uni04EC" unicode="&#x4ec;" horiz-adv-x="716" 
d="M370 882h79v-101h-79v101zM202 882h80v-101h-80v101zM85 165q37 -38 96 -62.5t124 -24.5q53 0 98 18t78.5 50t54 74.5t26.5 92.5h-369v82h370q-5 50 -25.5 93t-54.5 74t-79 48.5t-98 17.5q-57 0 -110.5 -20t-98.5 -59l-49 74q24 24 54.5 42t64 29.5t69.5 17.5t72 6
q81 0 147 -28t113 -76.5t73 -114t26 -141.5q0 -78 -27 -146t-75 -117.5t-114.5 -78t-145.5 -28.5q-81 0 -151.5 29.5t-120.5 78.5z" />
    <glyph glyph-name="uni04ED" unicode="&#x4ed;" horiz-adv-x="544" 
d="M298 707h79v-101h-79v101zM130 707h80v-101h-80v101zM68 133q33 -34 75 -49.5t84 -15.5q71 0 120 41.5t59 108.5h-242v70h242q-5 34 -20.5 62t-38.5 48t-53 30.5t-64 10.5q-42 0 -79.5 -15.5t-66.5 -43.5l-44 67q34 36 86.5 53.5t106.5 17.5q59 0 108.5 -20.5t85 -56
t55 -84t19.5 -104.5q0 -57 -20 -105.5t-55.5 -84t-85 -55.5t-109.5 -20q-55 0 -108 19t-93 57z" />
    <glyph glyph-name="uni04EE" unicode="&#x4ee;" horiz-adv-x="599" 
d="M174 855h254v-71h-254v71zM120 109q13 -10 34 -22.5t47 -12.5q31 0 48.5 21t31.5 58l-279 553h109l172 -355q8 -17 15.5 -33t12.5 -30q6 -16 12 -30h2q4 14 9 30q5 14 10 29.5t11 32.5l131 356h104l-225 -576q-11 -27 -25 -52.5t-33 -45.5t-44.5 -32t-58.5 -12
q-36 0 -68 13t-61 33z" />
    <glyph glyph-name="uni04EF" unicode="&#x4ef;" horiz-adv-x="535" 
d="M50 -105q8 -7 18 -11q8 -5 18.5 -8t21.5 -3q30 0 54 20t38 55l25 58l-212 500h109l127 -331q4 -10 7 -20.5t6 -19.5q3 -11 6 -21h2l5 20q2 9 5 19.5t7 20.5l123 332h105l-238 -597q-23 -60 -66.5 -89.5t-97.5 -29.5q-21 0 -39 4.5t-31 10.5q-15 7 -27 16zM141 680h254
v-71h-254v71z" />
    <glyph glyph-name="uni04F0" unicode="&#x4f0;" horiz-adv-x="599" 
d="M349 882h79v-101h-79v101zM181 882h80v-101h-80v101zM120 109q13 -10 34 -22.5t47 -12.5q31 0 48.5 21t31.5 58l-279 553h109l172 -355q8 -17 15.5 -33t12.5 -30q6 -16 12 -30h2q4 14 9 30q5 14 10 29.5t11 32.5l131 356h104l-225 -576q-11 -27 -25 -52.5t-33 -45.5
t-44.5 -32t-58.5 -12q-36 0 -68 13t-61 33z" />
    <glyph glyph-name="uni04F1" unicode="&#x4f1;" horiz-adv-x="535" 
d="M50 -105q8 -7 18 -11q8 -5 18.5 -8t21.5 -3q30 0 54 20t38 55l25 58l-212 500h109l127 -331q4 -10 7 -20.5t6 -19.5q3 -11 6 -21h2l5 20q2 9 5 19.5t7 20.5l123 332h105l-238 -597q-23 -60 -66.5 -89.5t-97.5 -29.5q-21 0 -39 4.5t-31 10.5q-15 7 -27 16zM312 707h79
v-101h-79v101zM144 707h80v-101h-80v101z" />
    <glyph glyph-name="uni04F2" unicode="&#x4f2;" horiz-adv-x="599" 
d="M120 109q13 -10 34 -22.5t47 -12.5q31 0 48.5 21t31.5 58l-279 553h109l172 -355q8 -17 15.5 -33t12.5 -30q6 -16 12 -30h2q4 14 9 30q5 14 10 29.5t11 32.5l131 356h104l-225 -576q-11 -27 -25 -52.5t-33 -45.5t-44.5 -32t-58.5 -12q-36 0 -68 13t-61 33zM409 882h101
l-96 -127h-78zM250 882h88l-71 -127h-85z" />
    <glyph glyph-name="uni04F3" unicode="&#x4f3;" horiz-adv-x="535" 
d="M50 -105q8 -7 18 -11q8 -5 18.5 -8t21.5 -3q30 0 54 20t38 55l25 58l-212 500h109l127 -331q4 -10 7 -20.5t6 -19.5q3 -11 6 -21h2l5 20q2 9 5 19.5t7 20.5l123 332h105l-238 -597q-23 -60 -66.5 -89.5t-97.5 -29.5q-21 0 -39 4.5t-31 10.5q-15 7 -27 16zM368 707h101
l-96 -127h-78zM209 707h88l-71 -127h-85z" />
    <glyph glyph-name="uni04F4" unicode="&#x4f4;" horiz-adv-x="639" 
d="M264 271q-110 0 -161.5 54t-51.5 152v229h100v-208q0 -67 31 -102t103 -35q51 0 94 16.5t66 31.5v297h100v-706h-100v286v11t1 11q0 5 1 11h-2q-14 -7 -33.5 -15.5t-43 -15.5t-50.5 -12t-54 -5zM349 882h79v-101h-79v101zM181 882h80v-101h-80v101z" />
    <glyph glyph-name="uni04F5" unicode="&#x4f5;" horiz-adv-x="523" 
d="M295 707h79v-101h-79v101zM127 707h80v-101h-80v101zM213 176q-81 0 -125.5 42t-44.5 123v165h95v-151q0 -19 4 -36t15.5 -30t31 -21t50.5 -8q38 0 67 12.5t45 23.5v210h97v-506h-97v183v20q0 5 1 10h-2q-24 -15 -61.5 -26t-75.5 -11z" />
    <glyph glyph-name="uni04F6" unicode="&#x4f6;" horiz-adv-x="499" 
d="M93 706h389v-86h-290v-534h98v-226h-90v140h-107v706z" />
    <glyph glyph-name="uni04F7" unicode="&#x4f7;" horiz-adv-x="416" 
d="M75 506h317v-83h-220v-339h84v-204h-88v120h-93v506z" />
    <glyph glyph-name="uni04F8" unicode="&#x4f8;" horiz-adv-x="844" 
d="M466 882h79v-101h-79v101zM298 882h80v-101h-80v101zM652 706h98v-706h-98v706zM93 706h99v-266h145q46 0 85.5 -15t68.5 -43.5t45 -69.5t16 -94q0 -49 -15.5 -89.5t-43.5 -69t-66.5 -44t-84.5 -15.5h-249v706zM326 86q60 0 93 35t33 97q0 63 -34.5 99.5t-93.5 36.5h-132
v-268h134z" />
    <glyph glyph-name="uni04F9" unicode="&#x4f9;" horiz-adv-x="705" 
d="M395 707h79v-101h-79v101zM227 707h80v-101h-80v101zM533 506h97v-506h-97v506zM75 506h97v-183h99q39 0 73 -9.5t58.5 -29t38.5 -50.5t14 -74q0 -71 -45 -115.5t-140 -44.5h-195v506zM257 70q53 0 76.5 25.5t23.5 65.5q0 41 -24 66.5t-77 25.5h-84v-183h85z" />
    <glyph glyph-name="uni0524" unicode="&#x524;" horiz-adv-x="777" 
d="M93 706h556v-620h98v-226h-90v140h-107v620h-358v-620h-99v706z" />
    <glyph glyph-name="uni0525" unicode="&#x525;" horiz-adv-x="625" 
d="M75 506h442v-422h85v-204h-89v120h-93v423h-248v-423h-97v506z" />
    <glyph glyph-name="uni1E9E" unicode="&#x1e9e;" horiz-adv-x="676" 
d="M87 506q0 43 15.5 79.5t42.5 63.5t64 42t81 15h310v-68l-138 -202q-6 -8 -10.5 -13.5t-7.5 -10.5q-4 -5 -7 -9v-2l25 -1q37 -3 68 -20.5t53 -44t34.5 -60.5t12.5 -70q0 -43 -16.5 -80.5t-45 -65t-66.5 -43.5t-81 -16h-149v86h142q26 0 47.5 9.5t36.5 26t23 38t8 45.5
t-8 45.5t-23 37t-36 25t-46 9.5h-88v69l113 169q22 35 33 47q7 8 12 13v2q-4 -1 -9 -1q-5 -1 -13 -1h-22h-148q-48 0 -77.5 -32t-29.5 -80v-508h-100v506z" />
    <glyph glyph-name="uni2009" unicode="&#x2009;" horiz-adv-x="14" 
 />
    <glyph glyph-name="endash" unicode="&#x2013;" horiz-adv-x="669" 
d="M72 324h525v-78h-525v78z" />
    <glyph glyph-name="emdash" unicode="&#x2014;" horiz-adv-x="869" 
d="M72 324h725v-78h-725v78z" />
    <glyph glyph-name="quoteleft" unicode="&#x2018;" horiz-adv-x="250" 
d="M125 717h72l-43 -194h-94z" />
    <glyph glyph-name="quoteright" unicode="&#x2019;" horiz-adv-x="244" 
d="M106 717h95l-66 -194h-71z" />
    <glyph glyph-name="quotesinglbase" unicode="&#x201a;" horiz-adv-x="258" 
d="M93 105h91l-64 -194h-70z" />
    <glyph glyph-name="quotedblleft" unicode="&#x201c;" horiz-adv-x="391" 
d="M266 717h72l-43 -194h-94zM125 717h72l-43 -194h-94z" />
    <glyph glyph-name="quotedblright" unicode="&#x201d;" 
d="M247 717h95l-65 -194h-72zM106 717h95l-65 -194h-72z" />
    <glyph glyph-name="quotedblbase" unicode="&#x201e;" horiz-adv-x="396" 
d="M231 105h92l-65 -194h-70zM93 105h91l-64 -194h-70z" />
    <glyph glyph-name="dagger" unicode="&#x2020;" horiz-adv-x="426" 
d="M165 428h-121v78h121v200h94v-200h123v-78h-123v-478h-94v478z" />
    <glyph glyph-name="daggerdbl" unicode="&#x2021;" horiz-adv-x="453" 
d="M58 249h120v179h-120v78h120v200h94v-200h123v-78h-123v-179h123v-78h-123v-221h-94v221h-120v78z" />
    <glyph glyph-name="bullet" unicode="&#x2022;" horiz-adv-x="476" 
d="M238 136q-32 0 -60 12.5t-49 33.5t-33 49t-12 60t12 60t33 49t49 33.5t60 12.5t60.5 -12.5t49.5 -33.5t33 -49t12 -60t-12 -60t-33 -49t-49.5 -33.5t-60.5 -12.5z" />
    <glyph glyph-name="ellipsis" unicode="&#x2026;" horiz-adv-x="761" 
d="M589 105h102v-105h-102v105zM330 105h101v-105h-101v105zM70 105h101v-105h-101v105z" />
    <glyph glyph-name="perthousand" unicode="&#x2030;" horiz-adv-x="1106" 
d="M202 422q-31 0 -58.5 11.5t-48 31.5t-32.5 47t-12 58q0 30 12 57t32.5 47.5t48 32t58.5 11.5q32 0 60 -11.5t48.5 -32t32.5 -47.5t12 -57q0 -31 -12 -58t-32.5 -47t-48.5 -31.5t-60 -11.5zM606 706h95l-540 -706h-94zM202 496q32 0 53.5 21t21.5 53q0 31 -21.5 53
t-53.5 22q-31 0 -52 -22t-21 -53q0 -32 21 -53t52 -21zM768 135q0 31 12 58t32.5 47t48 32t58.5 12t59 -12t49 -32t33 -47t12 -58q0 -30 -12 -57t-33 -47t-49 -31.5t-59 -11.5t-58.5 11.5t-48 31.5t-32.5 47t-12 57zM414 135q0 31 12 58t32 47t47.5 32t59.5 12q31 0 59 -12
t48.5 -32t32.5 -47t12 -58q0 -30 -12 -57t-32.5 -47t-48.5 -31.5t-59 -11.5q-32 0 -59.5 11.5t-47.5 31.5t-32 47t-12 57zM846 136q0 -31 21 -52.5t52 -21.5q32 0 53.5 21.5t21.5 52.5t-21.5 53t-53.5 22q-31 0 -52 -22t-21 -53zM492 136q0 -31 20.5 -52.5t52.5 -21.5
t53 21.5t21 52.5t-21 53t-53 22t-52.5 -22t-20.5 -53z" />
    <glyph glyph-name="guilsinglleft" unicode="&#x2039;" horiz-adv-x="359" 
d="M45 282l164 206h97l-164 -206l164 -205h-97z" />
    <glyph glyph-name="guilsinglright" unicode="&#x203a;" horiz-adv-x="359" 
d="M217 282l-164 206h97l164 -206l-164 -205h-97z" />
    <glyph glyph-name="fraction" unicode="&#x2044;" horiz-adv-x="169" 
d="M-120 0l336 706h74l-335 -706h-75z" />
    <glyph glyph-name="uni2070" unicode="&#x2070;" 
d="M193 413q-45 0 -75 17.5t-48 48.5t-26 73t-8 90t8 89.5t26 72.5t48 48.5t75 17.5t75 -17.5t48 -48.5t26 -72.5t8 -89.5t-8 -90t-26 -73t-48 -48.5t-75 -17.5zM193 482q24 0 39.5 12.5t24.5 34t13 50.5t4 63q0 33 -4 62t-13 50.5t-24.5 34t-39.5 12.5t-39.5 -12.5t-25 -34
t-13.5 -50.5t-4 -62q0 -34 4 -63t13.5 -50.5t25 -34t39.5 -12.5z" />
    <glyph glyph-name="uni2074" unicode="&#x2074;" 
d="M226 530h-207v50l200 280h81v-264h62v-66h-62v-107h-74v107zM226 596v123v20.5t1 18.5q1 10 2 19h-2q-5 -8 -9 -16q-4 -7 -9 -15.5t-11 -16.5l-98 -131v-2h126z" />
    <glyph glyph-name="uni2075" unicode="&#x2075;" 
d="M183 413q-42 0 -79.5 18t-63.5 50l44 51q14 -22 40.5 -36t53.5 -14q36 0 63 23t27 59q0 18 -7 33t-19.5 26t-29 17.5t-35.5 6.5t-39 -5.5t-36 -15.5l-42 16l24 218h231v-67h-170l-7 -62q-1 -8 -1.5 -14t-1.5 -10q-1 -5 -2 -8h2q12 5 25.5 7.5t30.5 2.5q33 0 61 -11.5
t48.5 -31.5t31.5 -46.5t11 -56.5t-11.5 -57t-32.5 -47.5t-50.5 -33t-65.5 -12.5z" />
    <glyph glyph-name="uni2076" unicode="&#x2076;" 
d="M204 413q-35 0 -65 14.5t-52 40.5t-34.5 63.5t-12.5 84.5q0 43 11.5 88t35.5 82t61.5 60.5t88.5 23.5q24 0 48 -5.5t45 -16.5l-25 -63q-11 6 -29.5 11t-35.5 5q-24 0 -43.5 -10t-34 -27.5t-24.5 -40.5t-14 -48h2q14 14 36 22.5t43 8.5q33 0 60 -11t46 -30t29.5 -45
t10.5 -57q0 -33 -11 -61t-30.5 -47.5t-46.5 -30.5t-59 -11zM204 482q35 0 53.5 24t18.5 58q0 35 -21.5 59.5t-59.5 24.5q-32 0 -55 -16.5t-23 -36.5t6.5 -40t18 -36.5t27.5 -26.5t35 -10z" />
    <glyph glyph-name="uni2077" unicode="&#x2077;" 
d="M235 746q13 23 20 34q4 7 9 13v2q-6 -1 -13 -1q-6 -1 -14 -1h-18h-171v67h302v-51l-207 -386h-83z" />
    <glyph glyph-name="uni2078" unicode="&#x2078;" 
d="M193 413q-30 0 -58 8.5t-50.5 25.5t-36 42.5t-13.5 59.5q0 22 8.5 40.5t19.5 33t23 24.5t20 15q-22 16 -35.5 37.5t-13.5 53.5q0 29 12 51t31.5 36.5t44.5 22t52 7.5q26 0 51.5 -7.5t46 -22.5t33 -37t12.5 -52q0 -21 -7.5 -40t-17 -34t-19 -25t-12.5 -13q26 -16 45 -39.5
t19 -59.5q0 -29 -12.5 -52t-34 -40t-49.5 -26t-59 -9zM231 665q4 4 10 12t12 18.5t10.5 23.5t4.5 28q0 29 -22.5 43t-49.5 14q-26 0 -46.5 -12.5t-20.5 -41.5q0 -17 9 -29t23 -22t32.5 -18t37.5 -16zM193 478q15 0 29 4.5t25.5 13t18.5 20.5t7 27q0 18 -10.5 30.5t-27 22.5
t-37 19t-41.5 19q-6 -5 -14.5 -12.5t-16 -18t-13 -23.5t-5.5 -28q0 -18 7 -31.5t19 -23t27.5 -14.5t31.5 -5z" />
    <glyph glyph-name="uni2079" unicode="&#x2079;" 
d="M81 499q11 -6 29 -11t36 -5q24 0 43 10t34 27t24.5 39.5t14.5 48.5h-2q-14 -14 -36.5 -22.5t-42.5 -8.5q-33 0 -60 11t-46 30t-29.5 45t-10.5 57q0 33 11 61t30.5 47.5t46 30.5t58.5 11q36 0 66 -14.5t52 -40.5t34.5 -64t12.5 -84q0 -43 -11.5 -88t-36 -82t-61.5 -60.5
t-88 -23.5q-22 0 -48 5.5t-45 16.5zM190 634q16 0 30.5 5t25 12.5t16.5 17t6 19.5q0 20 -6.5 40t-17.5 36.5t-27.5 26.5t-35.5 10q-35 0 -53.5 -24t-18.5 -57q0 -36 21.5 -61t59.5 -25z" />
    <glyph glyph-name="uni2080" unicode="&#x2080;" 
d="M193 -167q-45 0 -75 17.5t-48 48.5t-26 73t-8 90t8 89.5t26 72.5t48 48.5t75 17.5t75 -17.5t48 -48.5t26 -72.5t8 -89.5t-8 -90t-26 -73t-48 -48.5t-75 -17.5zM193 -98q24 0 39.5 12.5t24.5 34t13 50.5t4 63q0 33 -4 62t-13 50.5t-24.5 34t-39.5 12.5t-39.5 -12.5
t-25 -34t-13.5 -50.5t-4 -62q0 -34 4 -63t13.5 -50.5t25 -34t39.5 -12.5z" />
    <glyph glyph-name="uni2081" unicode="&#x2081;" 
d="M72 -91h93v249q0 13 1 18q0 4 1 8h-2q-1 -2 -4 -6q-2 -3 -5 -7t-8 -9l-36 -34l-45 49l106 103h67v-371h92v-66h-260v66z" />
    <glyph glyph-name="uni2082" unicode="&#x2082;" 
d="M47 -157q-3 18 -3 36q0 42 15.5 72t39.5 52.5t51 40t51 34t39.5 35t15.5 43.5q0 28 -20.5 46.5t-51.5 18.5q-26 0 -47.5 -14.5t-37.5 -33.5l-49 45q20 30 57.5 51t79.5 21q31 0 57 -9.5t45.5 -26.5t30.5 -41t11 -54q0 -36 -15 -62.5t-37 -46.5t-48.5 -35.5t-49 -31
t-38.5 -33.5t-18 -41h213v-66h-291v0z" />
    <glyph glyph-name="uni2083" unicode="&#x2083;" 
d="M182 -167q-40 0 -80.5 16.5t-66.5 49.5l42 53q14 -20 41.5 -35t60.5 -15t58 21.5t25 54.5q0 35 -27.5 53t-60.5 18h-34l-17 38l89 103l16 16q4 4 9 8v2l-12 -2q-5 -1 -11.5 -1h-13.5h-141v67h271v-48l-109 -126q22 -3 43.5 -12.5t37.5 -25t26 -38t10 -52.5
q0 -29 -11.5 -55t-32 -46t-49 -32t-63.5 -12z" />
    <glyph glyph-name="uni2084" unicode="&#x2084;" 
d="M226 -50h-207v50l200 280h81v-264h62v-66h-62v-107h-74v107zM226 16v123v20.5t1 18.5q1 10 2 19h-2q-5 -8 -9 -16q-4 -7 -9 -15.5t-11 -16.5l-98 -131v-2h126z" />
    <glyph glyph-name="uni2085" unicode="&#x2085;" 
d="M183 -167q-42 0 -79.5 18t-63.5 50l44 51q14 -22 40.5 -36t53.5 -14q36 0 63 23t27 59q0 18 -7 33t-19.5 26t-29 17.5t-35.5 6.5t-39 -5.5t-36 -15.5l-42 16l24 218h231v-67h-170l-7 -62q-1 -8 -1.5 -14t-1.5 -10q-1 -5 -2 -8h2q12 5 25.5 7.5t30.5 2.5q33 0 61 -11.5
t48.5 -31.5t31.5 -46.5t11 -56.5t-11.5 -57t-32.5 -47.5t-50.5 -33t-65.5 -12.5z" />
    <glyph glyph-name="uni2086" unicode="&#x2086;" 
d="M204 -167q-35 0 -65 14.5t-52 40.5t-34.5 63.5t-12.5 84.5q0 43 11.5 88t35.5 82t61.5 60.5t88.5 23.5q24 0 48 -5.5t45 -16.5l-25 -63q-11 6 -29.5 11t-35.5 5q-24 0 -43.5 -10t-34 -27.5t-24.5 -40.5t-14 -48h2q14 14 36 22.5t43 8.5q33 0 60 -11t46 -30t29.5 -45
t10.5 -57q0 -33 -11 -61t-30.5 -47.5t-46.5 -30.5t-59 -11zM204 -98q35 0 53.5 24t18.5 58q0 35 -21.5 59.5t-59.5 24.5q-32 0 -55 -16.5t-23 -36.5t6.5 -40t18 -36.5t27.5 -26.5t35 -10z" />
    <glyph glyph-name="uni2087" unicode="&#x2087;" 
d="M235 166q13 23 20 34q4 7 9 13v2q-6 -1 -13 -1q-6 -1 -14 -1h-18h-171v67h302v-51l-207 -386h-83z" />
    <glyph glyph-name="uni2088" unicode="&#x2088;" 
d="M193 -166q-30 0 -58 8.5t-50.5 25.5t-36 42.5t-13.5 59.5q0 22 8.5 40.5t19.5 33t23 24.5t20 15q-22 16 -35.5 37.5t-13.5 53.5q0 29 12 51t31.5 36.5t44.5 22t52 7.5q26 0 51.5 -7.5t46 -22.5t33 -37t12.5 -52q0 -21 -7.5 -40t-17 -34t-19 -25t-12.5 -13
q26 -16 45 -39.5t19 -59.5q0 -29 -12.5 -52t-34 -40t-49.5 -26t-59 -9zM231 86q4 4 10 12t12 18.5t10.5 23.5t4.5 28q0 29 -22.5 43t-49.5 14q-26 0 -46.5 -12.5t-20.5 -41.5q0 -17 9 -29t23 -22t32.5 -18t37.5 -16zM193 -101q15 0 29 4.5t25.5 13t18.5 20.5t7 27
q0 18 -10.5 30.5t-27 22.5t-37 19t-41.5 19q-6 -5 -14.5 -12.5t-16 -18t-13 -23.5t-5.5 -28q0 -18 7 -31.5t19 -23t27.5 -14.5t31.5 -5z" />
    <glyph glyph-name="uni2089" unicode="&#x2089;" 
d="M81 -81q11 -6 29 -11t36 -5q24 0 43 10t34 27t24.5 39.5t14.5 48.5h-2q-14 -14 -36.5 -22.5t-42.5 -8.5q-33 0 -60 11t-46 30t-29.5 45t-10.5 57q0 33 11 61t30.5 47.5t46 30.5t58.5 11q36 0 66 -14.5t52 -40.5t34.5 -64t12.5 -84q0 -43 -11.5 -88t-36 -82t-61.5 -60.5
t-88 -23.5q-22 0 -48 5.5t-45 16.5zM190 54q16 0 30.5 5t25 12.5t16.5 17t6 19.5q0 20 -6.5 40t-17.5 36.5t-27.5 26.5t-35.5 10q-35 0 -53.5 -24t-18.5 -57q0 -36 21.5 -61t59.5 -25z" />
    <glyph glyph-name="Euro" unicode="&#x20ac;" horiz-adv-x="577" 
d="M26 321h56q-2 13 -2.5 34t1.5 38h-55v64h67q15 57 47 105t76 82.5t99 54t117 19.5q50 0 100 -12l-23 -90q-17 5 -38 7.5t-41 2.5q-85 0 -146 -46t-86 -123h281l-13 -64h-282q-3 -17 -2.5 -36t2.5 -36h269l-13 -63h-240q12 -39 34 -71.5t52.5 -56t67.5 -36t79 -12.5
q22 0 45.5 3t45.5 10l19 -90q-23 -8 -53 -12.5t-58 -4.5q-64 0 -120 20t-100 55.5t-75 85t-45 109.5h-66v63z" />
    <glyph glyph-name="uni2116" unicode="&#x2116;" horiz-adv-x="1060" 
d="M88 706h98l314 -458q10 -15 20.5 -32.5t18.5 -33.5q10 -18 19 -37h2q-2 18 -3 36q-2 16 -2.5 34t-0.5 33v458h99v-706h-97l-316 458q-10 14 -20 32t-18 34q-10 18 -20 37h-2q1 -19 3 -37q1 -16 2 -33.5t1 -32.5v-458h-98v706zM726 470q0 29 11 55t30 45t45.5 30t56.5 11
t55.5 -11t45 -30t30.5 -45t11 -55q0 -30 -11 -56t-30.5 -45t-45 -30t-55.5 -11t-56.5 11t-45.5 30t-30 45t-11 56zM800 470q0 -30 20 -51t49 -21t48.5 21t19.5 51t-19.5 50t-48.5 20t-49 -20t-20 -50zM735 266h265v-70h-265v70z" />
    <glyph glyph-name="trademark" unicode="&#x2122;" horiz-adv-x="992" 
d="M508 706h70l103 -230q3 -7 5.5 -14t4.5 -13l4 -14h2l4 14q2 6 4 13t5 14l104 230h70l34 -440h-75l-21 263q-1 5 -0.5 10.5t0.5 10.5t1 9h-2l-94 -212h-61l-96 212h-2q1 -4 1 -9v-21l-21 -263h-75zM214 639h-153v67h380v-67h-152v-373h-75v373z" />
    <glyph glyph-name="minus" unicode="&#x2212;" horiz-adv-x="577" 
d="M30 324h517v-78h-517v78z" />
    <glyph glyph-name="infinity" unicode="&#x221e;" horiz-adv-x="482" 
d="M241 167q-38 0 -71 14.5t-57.5 39t-39 57.5t-14.5 71t14.5 71t39 57.5t57.5 38.5t71 14t71 -14t58 -38.5t39 -57.5t14 -71t-14 -71t-39 -57.5t-58 -39t-71 -14.5z" />
    <glyph glyph-name="approxequal" unicode="&#x2248;" horiz-adv-x="577" 
d="M38 380q26 27 65.5 50t85.5 23q35 0 60.5 -11t47 -24t42.5 -24t48 -11q32 0 61.5 16.5t49.5 38.5l40 -59q-13 -13 -29.5 -26t-35.5 -23.5t-41 -17t-45 -6.5q-35 0 -60.5 11t-47 24t-42.5 24t-48 11q-32 0 -60.5 -16.5t-49.5 -37.5zM38 192q13 13 29.5 26t36 23t41 16
t44.5 6q35 0 60.5 -11t47 -24t42.5 -24t48 -11q32 0 61.5 17t49.5 39l40 -59q-13 -13 -29.5 -26t-35.5 -23t-41 -16.5t-45 -6.5q-35 0 -60.5 11t-47 24t-42.5 24t-48 11q-32 0 -60.5 -17t-49.5 -38z" />
    <glyph glyph-name="notequal" unicode="&#x2260;" horiz-adv-x="577" 
d="M160 151h-111v78h163l80 111h-243v78h295l81 114l51 -34l-57 -80h107v-78h-159l-80 -111h239v-78h-291l-79 -112l-52 34z" />
    <glyph glyph-name="lessequal" unicode="&#x2264;" horiz-adv-x="577" 
d="M48 318l466 208v-89l-357 -151v-2l357 -151v-89l-466 208v66zM514 -95v-77h-465v77h465z" />
    <glyph glyph-name="greaterequal" unicode="&#x2265;" horiz-adv-x="577" 
d="M62 133l357 151v2l-357 151v89l467 -208v-66l-467 -208v89zM527 -95v-77h-465v77h465z" />
    <glyph glyph-name="uniF6C3" unicode="&#xf6c3;" horiz-adv-x="335" 
d="M211 -59q7 -27 7 -51t-6.5 -46t-18.5 -48h-74q8 23 13.5 43.5t5.5 40.5q0 14 -2.5 29t-9.5 32h85z" />
    <glyph glyph-name="uniF6D4" unicode="&#xf6d4;" horiz-adv-x="336" 
d="M167 739q-29 0 -55.5 8.5t-47 25t-33 40t-12.5 54.5v15h78v-14q0 -33 22 -49.5t48 -16.5t48.5 16.5t22.5 50.5v13h77v-15q0 -31 -12 -54.5t-32.5 -40t-47.5 -25t-56 -8.5z" />
    <glyph glyph-name="uniF8FF" unicode="&#xf8ff;" horiz-adv-x="1130" 
d="M168 147l-126 72v278l126 71v151l265 142l134 -71l132 71l265 -142v-151l124 -71v-278l-124 -72v-152l-265 -141l-132 71l-134 -71l-265 141v152zM446 -96l121 66l118 -66l238 126v139l114 64v249l-114 66v136l-238 126l-118 -64l-121 64l-238 -126v-136l-114 -66v-249
l114 -64v-139zM242 185l-99 60v225l99 58v123l215 114l110 -59l107 59l214 -114v-123l100 -58v-225l-100 -60v-121l-214 -114l-107 58l-110 -58l-215 114v121zM490 91v228h228v40h-228v192h199q17 0 23 -6.5t6 -22.5v-42h42v54q0 29 -13 43t-45 14h-320v-40h65v-460h43z" />
    <glyph glyph-name="zero.tnum" horiz-adv-x="577" 
d="M289 -12q-71 0 -118.5 28.5t-77 78t-42 116t-12.5 143.5q0 76 12.5 142.5t42 115.5t77 77.5t118.5 28.5t119 -28.5t77 -77.5t41.5 -115.5t12.5 -142.5q0 -77 -12.5 -143.5t-41.5 -116t-77 -78t-119 -28.5zM289 79q43 0 72 21t45.5 58t23.5 87.5t7 108.5q0 57 -7 107
t-23.5 87t-45.5 58t-72 21t-71.5 -21t-45.5 -58t-24 -87t-7 -107q0 -58 7 -108.5t24 -87.5t45.5 -58t71.5 -21z" />
    <glyph glyph-name="one.tnum" horiz-adv-x="577" 
d="M98 86h156v456v30q0 7 1 13h-2q-3 -5 -7 -11q-8 -11 -27 -30l-66 -64l-60 62l169 164h88v-620h155v-86h-407v86z" />
    <glyph glyph-name="two.tnum" horiz-adv-x="577" 
d="M61 0q-2 14 -3.5 27.5t-1.5 26.5q0 63 25.5 109.5t64.5 83t83.5 66.5t83.5 59.5t64.5 61.5t25.5 74q0 52 -35.5 84.5t-92.5 32.5q-45 0 -82.5 -26t-60.5 -64l-73 49q15 28 37 52.5t50.5 42.5t63 28.5t73.5 10.5q48 0 89 -14.5t70.5 -41t46 -64t16.5 -83.5q0 -58 -25 -101
t-62.5 -77.5t-81.5 -62.5t-82 -56.5t-63.5 -60t-26.5 -71.5h352v-86h-455v0z" />
    <glyph glyph-name="three.tnum" horiz-adv-x="577" 
d="M102 159q29 -31 74.5 -54t96.5 -23q29 0 55.5 9.5t46 26.5t31 40.5t11.5 52.5q0 33 -13.5 57t-36 40.5t-52.5 24.5t-63 8h-48l-23 53l154 181q8 11 16 19l14 14q7 7 14 13v2q-6 -1 -15 -2q-8 -1 -19.5 -1h-25.5h-239v86h422v-63l-192 -222q35 -3 71.5 -16.5t66.5 -38.5
t49.5 -62.5t19.5 -89.5q0 -45 -17 -86t-48.5 -72t-76 -49.5t-98.5 -18.5q-63 0 -123.5 24.5t-105.5 71.5z" />
    <glyph glyph-name="four.tnum" horiz-adv-x="577" 
d="M17 251l327 455h112v-434h96v-83h-96v-189h-97v189h-342v62zM359 272v258q0 12 0.5 24.5t1.5 23.5q1 12 2 23h-2l-10 -20q-5 -9 -11.5 -19.5t-13.5 -19.5l-200 -268v-2h233z" />
    <glyph glyph-name="five.tnum" horiz-adv-x="577" 
d="M111 158q23 -28 61.5 -52t93.5 -24q31 0 59 10t49 29t33.5 45.5t12.5 58.5t-12 58.5t-33.5 46t-51 30t-63.5 10.5q-31 0 -62.5 -9t-56.5 -26l-58 21l35 350h357v-86h-271l-16 -149q-1 -8 -2 -14.5t-2 -11.5l-2 -10h2q13 7 39.5 14t52.5 7q56 0 101.5 -18t77.5 -49.5
t49.5 -73.5t17.5 -90q0 -51 -19 -94t-52.5 -75t-79.5 -50t-99 -18q-63 0 -120 25t-97 73z" />
    <glyph glyph-name="six.tnum" horiz-adv-x="577" 
d="M47 320q0 68 19 139t58 128.5t98.5 94t141.5 36.5q35 0 70.5 -7t67.5 -22l-32 -85q-17 9 -46.5 16t-55.5 7q-48 0 -85 -20.5t-63 -54t-41.5 -76t-21.5 -86.5h2q23 30 66 48t90 18q50 0 91 -17.5t70.5 -49t45.5 -74t16 -92.5q0 -51 -17 -94t-47 -74.5t-72 -49t-91 -17.5
q-56 0 -104.5 23.5t-84 67t-55.5 105t-20 136.5zM314 79q28 0 51.5 11t40 30.5t25.5 46t9 56.5q0 66 -38 108t-107 42q-28 0 -54 -7.5t-46 -21t-32 -32.5t-12 -43q0 -29 11.5 -62t32.5 -61.5t51 -47.5t68 -19z" />
    <glyph glyph-name="seven.tnum" horiz-adv-x="577" 
d="M386 555q8 15 15.5 27.5t12.5 20.5q6 10 12 17v2q-5 -1 -12 -1q-6 -1 -15 -1h-23h-316v86h472v-68l-318 -638h-103z" />
    <glyph glyph-name="eight.tnum" horiz-adv-x="577" 
d="M42 201q0 40 14 72.5t32.5 56.5t37.5 39.5t29 22.5q-35 24 -57 57.5t-22 81.5q0 36 13.5 70t40.5 60t68.5 41.5t97.5 15.5q49 0 90 -13.5t70 -38t45.5 -59t16.5 -77.5q0 -33 -10.5 -63.5t-24.5 -54.5t-28 -41.5t-22 -25.5q42 -25 69 -60t27 -90q0 -41 -17 -78.5
t-48.5 -66t-76.5 -45.5t-100 -17q-52 0 -97 16t-78 44.5t-51.5 67.5t-18.5 85zM357 383q6 6 16.5 19t21 31t18.5 40.5t8 48.5q0 51 -35 79t-92 28q-58 0 -89 -28.5t-31 -69.5q0 -30 16 -51.5t42.5 -38t59 -30t65.5 -28.5zM143 209q0 -30 12 -54t32 -41.5t46 -27t53 -9.5
q28 0 54 8.5t45.5 24.5t31 38t11.5 49q0 30 -18 51.5t-47 38t-64.5 31t-69.5 31.5q-9 -6 -23.5 -18t-28.5 -29.5t-24 -40.5t-10 -52z" />
    <glyph glyph-name="nine.tnum" horiz-adv-x="577" 
d="M106 103q18 -9 45 -16.5t56 -7.5q49 0 86 20.5t63 54t41.5 76t21.5 86.5h-2q-22 -30 -65.5 -48t-90.5 -18q-50 0 -91.5 18t-70.5 49t-45 73.5t-16 91.5q0 52 17 95.5t47 74.5t71.5 48.5t91.5 17.5q57 0 105 -23.5t83.5 -67t55.5 -105t20 -137.5q0 -68 -19 -138.5
t-58 -128t-99 -94t-142 -36.5q-34 0 -69.5 6.5t-67.5 22.5zM281 333q30 0 56.5 8.5t46 22.5t31 31.5t11.5 36.5q0 34 -12.5 69t-34 63t-50.5 45.5t-63 17.5q-30 0 -54 -11t-40.5 -30.5t-25.5 -46t-9 -57.5q0 -65 38 -107t106 -42z" />
    <glyph glyph-name="hyphen.case" horiz-adv-x="432" 
d="M70 391h292v-86h-292v86z" />
    <glyph glyph-name="parenleft.case" horiz-adv-x="293" 
d="M169 -65q-54 91 -85 202.5t-31 232.5q0 109 30 207.5t86 187.5h85q-55 -92 -84 -191t-29 -205q0 -112 28 -221.5t85 -212.5h-85v0z" />
    <glyph glyph-name="parenright.case" horiz-adv-x="293" 
d="M39 -65q57 103 85 212.5t28 221.5q0 106 -29 205t-84 191h85q56 -89 86 -187.5t30 -207.5q0 -121 -31 -232.5t-85 -202.5h-85v0z" />
    <glyph glyph-name="bracketleft.case" horiz-adv-x="301" 
d="M86 765h166v-73h-81v-683h81v-74h-166v830z" />
    <glyph glyph-name="bracketright.case" horiz-adv-x="301" 
d="M130 9v683h-81v73h166v-830h-166v74h81z" />
    <glyph glyph-name="braceleft.case" horiz-adv-x="355" 
d="M126 203q0 43 -21 72t-64 37v86q40 8 62.5 36t22.5 75v84q0 59 18.5 93.5t44.5 52.5t53.5 23t45.5 5q5 0 9.5 -0.5t7.5 -0.5h6v-74h-13q-10 0 -24.5 -3t-28.5 -13.5t-24 -31.5t-10 -57v-103q0 -44 -21.5 -78t-59.5 -49v-2q35 -14 58 -45t23 -82v-115q0 -36 10 -57
t24 -31.5t28.5 -13.5t24.5 -3h13v-74q-2 -1 -6 -1q-4 -1 -17 -1q-18 0 -45.5 5t-53.5 23t-44.5 52.5t-18.5 94.5v96z" />
    <glyph glyph-name="braceright.case" horiz-adv-x="355" 
d="M58 8q9 0 24 3t28.5 13.5t23.5 31.5t10 57v115q0 44 20.5 78.5t60.5 48.5v2q-32 12 -56.5 45.5t-24.5 81.5v103q0 36 -10 57t-23.5 31.5t-28.5 13.5t-24 3h-14v74h6q3 0 7.5 0.5t9.5 0.5q18 0 45.5 -5t53.5 -23t44.5 -52.5t18.5 -93.5v-84q0 -42 21 -73t64 -38v-86
q-42 -5 -63.5 -36t-21.5 -73v-96q0 -60 -18.5 -94.5t-44.5 -52.5t-53.5 -23t-45.5 -5q-13 0 -17 1q-4 0 -6 1v74h14z" />
    <glyph glyph-name="at.case" horiz-adv-x="796" 
d="M56 351q0 77 28.5 144.5t77.5 117.5t115.5 79t143.5 29q72 0 122 -17t80.5 -45t44 -64.5t13.5 -76.5v-283h72v-73h-273q-47 0 -85 15.5t-65 41t-42 59.5t-15 72q0 37 14.5 71.5t41.5 60t65.5 41t85.5 15.5h108q-1 43 -42.5 73t-119.5 30q-58 0 -108 -23.5t-86.5 -63.5
t-57.5 -92.5t-21 -110.5q0 -59 20.5 -111.5t58 -91.5t89.5 -61.5t116 -22.5v-79q-84 0 -154 28.5t-120.5 78t-78.5 116t-28 143.5zM371 352q0 -24 8.5 -45.5t24 -37.5t37 -25t46.5 -9h101v236h-99q-26 0 -47.5 -9.5t-37.5 -25.5t-24.5 -38t-8.5 -46z" />
    </font>
</defs>
</svg>
